# Blender 4.0.2
# www.blender.org
mtllib coneLD.mtl
o Cone
v 2.000000 -0.000000 -1.000000
v 2.000000 0.707107 -0.707107
v 2.000000 1.000000 -0.000000
v 2.000000 0.707107 0.707107
v 2.000000 0.000000 1.000000
v 2.000000 -0.707107 0.707107
v 2.000000 -1.000000 0.000000
v 2.000000 -0.707107 -0.707107
v 0.000000 0.000000 0.000000
vn 0.4502 -0.0000 -0.8929
vn -1.0000 -0.0000 -0.0000
vn 0.4502 0.6314 -0.6314
vn 0.4502 0.8929 -0.0000
vn 0.4502 0.6314 0.6314
vn 0.4502 -0.0000 0.8929
vn 0.4502 -0.6314 0.6314
vn 0.4502 -0.8929 -0.0000
vn 0.4502 -0.6314 -0.6314
vt 1.000000 0.500000
vt 0.000000 0.500000
vt 1.000000 0.853554
vt 1.000000 0.146446
vt 1.000000 0.000000
vt 1.000000 1.000000
s 1
f 1/1/1 9/2/2 2/3/3
f 2/4/3 9/2/2 3/1/4
f 3/1/4 9/2/2 4/3/5
f 4/3/5 9/2/2 5/1/6
f 5/1/6 9/2/2 6/4/7
f 6/3/7 9/2/2 7/1/8
f 1/5/1 2/4/3 3/1/4 4/3/5 5/6/6 6/3/7 7/1/8 8/4/9
f 7/1/8 9/2/2 8/4/9
f 8/4/9 9/2/2 1/1/1
