# Blender 4.0.2
# www.blender.org
mtllib cylinderL.mtl
o Cylinder
v 0.000000 -0.000000 -1.000000
v 1.000000 0.000000 -1.000000
v 0.000000 -0.382683 -0.923880
v 1.000000 -0.382683 -0.923880
v 0.000000 -0.707107 -0.707107
v 1.000000 -0.707107 -0.707107
v 0.000000 -0.923880 -0.382683
v 1.000000 -0.923879 -0.382683
v 0.000000 -1.000000 0.000000
v 1.000000 -1.000000 0.000000
v 0.000000 -0.923880 0.382683
v 1.000000 -0.923879 0.382683
v 0.000000 -0.707107 0.707107
v 1.000000 -0.707107 0.707107
v 0.000000 -0.382683 0.923880
v 1.000000 -0.382683 0.923880
v 0.000000 -0.000000 1.000000
v 1.000000 0.000000 1.000000
v 0.000000 0.382683 0.923880
v 1.000000 0.382683 0.923880
v -0.000000 0.707107 0.707107
v 1.000000 0.707107 0.707107
v -0.000000 0.923879 0.382683
v 1.000000 0.923880 0.382683
v -0.000000 1.000000 0.000000
v 1.000000 1.000000 0.000000
v -0.000000 0.923879 -0.382683
v 1.000000 0.923880 -0.382683
v -0.000000 0.707107 -0.707107
v 1.000000 0.707107 -0.707107
v 0.000000 0.382683 -0.923880
v 1.000000 0.382683 -0.923880
vn -0.0000 -0.0000 -1.0000
vn 0.8723 -0.0000 -0.4889
vn 0.8723 -0.1871 -0.4517
vn -0.0000 -0.3827 -0.9239
vn 0.8723 -0.3457 -0.3457
vn -0.0000 -0.7071 -0.7071
vn 0.8723 -0.4517 -0.1871
vn -0.0000 -0.9239 -0.3827
vn 0.8723 -0.4889 -0.0000
vn -0.0000 -1.0000 -0.0000
vn 0.8723 -0.4517 0.1871
vn -0.0000 -0.9239 0.3827
vn 0.8723 -0.3457 0.3457
vn -0.0000 -0.7071 0.7071
vn 0.8723 -0.1871 0.4517
vn -0.0000 -0.3827 0.9239
vn 0.8723 -0.0000 0.4889
vn -0.0000 -0.0000 1.0000
vn 0.8723 0.1871 0.4517
vn -0.0000 0.3827 0.9239
vn 0.8723 0.3457 0.3457
vn -0.0000 0.7071 0.7071
vn 0.8723 0.4517 0.1871
vn -0.0000 0.9239 0.3827
vn 0.8723 0.4889 -0.0000
vn -0.0000 1.0000 -0.0000
vn 0.8723 0.4517 -0.1871
vn -0.0000 0.9239 -0.3827
vn 0.8723 0.3457 -0.3457
vn -0.0000 0.7071 -0.7071
vn 0.8723 0.1871 -0.4517
vn -0.0000 0.3827 -0.9239
vt 1.000000 0.500000
vt 1.000000 1.000000
vt 0.937500 1.000000
vt 0.937500 0.500000
vt 0.875000 1.000000
vt 0.875000 0.500000
vt 0.812500 1.000000
vt 0.812500 0.500000
vt 0.750000 1.000000
vt 0.750000 0.500000
vt 0.687500 1.000000
vt 0.687500 0.500000
vt 0.625000 1.000000
vt 0.625000 0.500000
vt 0.562500 1.000000
vt 0.562500 0.500000
vt 0.500000 1.000000
vt 0.500000 0.500000
vt 0.437500 1.000000
vt 0.437500 0.500000
vt 0.375000 1.000000
vt 0.375000 0.500000
vt 0.312500 1.000000
vt 0.312500 0.500000
vt 0.250000 1.000000
vt 0.250000 0.500000
vt 0.187500 1.000000
vt 0.187500 0.500000
vt 0.125000 1.000000
vt 0.125000 0.500000
vt 0.341844 0.471731
vt 0.250000 0.490000
vt 0.158156 0.471731
vt 0.080294 0.419706
vt 0.028269 0.341844
vt 0.010000 0.250000
vt 0.028269 0.158156
vt 0.080294 0.080294
vt 0.158156 0.028269
vt 0.250000 0.010000
vt 0.341844 0.028269
vt 0.419706 0.080294
vt 0.471731 0.158156
vt 0.490000 0.250000
vt 0.471731 0.341844
vt 0.419706 0.419706
vt 0.062500 1.000000
vt 0.062500 0.500000
vt 0.000000 1.000000
vt 0.000000 0.500000
s 1
f 1/1/1 2/2/2 4/3/3 3/4/4
f 3/4/4 4/3/3 6/5/5 5/6/6
f 5/6/6 6/5/5 8/7/7 7/8/8
f 7/8/8 8/7/7 10/9/9 9/10/10
f 9/10/10 10/9/9 12/11/11 11/12/12
f 11/12/12 12/11/11 14/13/13 13/14/14
f 13/14/14 14/13/13 16/15/15 15/16/16
f 15/16/16 16/15/15 18/17/17 17/18/18
f 17/18/18 18/17/17 20/19/19 19/20/20
f 19/20/20 20/19/19 22/21/21 21/22/22
f 21/22/22 22/21/21 24/23/23 23/24/24
f 23/24/24 24/23/23 26/25/25 25/26/26
f 25/26/26 26/25/25 28/27/27 27/28/28
f 27/28/28 28/27/27 30/29/29 29/30/30
f 4/31/3 2/32/2 32/33/31 30/34/29 28/35/27 26/36/25 24/37/23 22/38/21 20/39/19 18/40/17 16/41/15 14/42/13 12/43/11 10/44/9 8/45/7 6/46/5
f 29/30/30 30/29/29 32/47/31 31/48/32
f 31/48/32 32/47/31 2/49/2 1/50/1
