####
#
#	OBJ File Generated by LightWave3D
#	LightWave3D OBJ Export v2.3
#
####
o Geosphere2.obj
mtllib Geosphere2.mtl
g default
v 0.5 0.850651 -0.16246
v 0 1 -0
v 0 0.850651 -0.525731
v 0.850651 0.447214 -0.276393
v 0.5 0.850651 -0.16246
v 0.5 0.525731 -0.688191
v 0 0.447214 -0.894427
v 0.5 0.525731 -0.688191
v 0 0.850651 -0.525731
v 0.5 0.525731 -0.688191
v 0.5 0.850651 -0.16246
v 0 0.850651 -0.525731
v 0.309017 0.850651 0.425325
v 0 1 -0
v 0.5 0.850651 -0.16246
v 0.525731 0.447214 0.723607
v 0.309017 0.850651 0.425325
v 0.809017 0.525731 0.262866
v 0.850651 0.447214 -0.276393
v 0.809017 0.525731 0.262866
v 0.5 0.850651 -0.16246
v 0.809017 0.525731 0.262866
v 0.309017 0.850651 0.425325
v 0.5 0.850651 -0.16246
v -0.309017 0.850651 0.425325
v 0 1 -0
v 0.309017 0.850651 0.425325
v -0.525731 0.447214 0.723607
v -0.309017 0.850651 0.425325
v 1.30515e-016 0.525731 0.850651
v 0.525731 0.447214 0.723607
v 1.30515e-016 0.525731 0.850651
v 0.309017 0.850651 0.425325
v 1.30515e-016 0.525731 0.850651
v -0.309017 0.850651 0.425325
v 0.309017 0.850651 0.425325
v -0.309017 0.850651 0.425325
v -0.5 0.850651 -0.16246
v 0 1 -0
v -0.850651 0.447214 -0.276393
v -0.5 0.850651 -0.16246
v -0.809017 0.525731 0.262866
v -0.525731 0.447214 0.723607
v -0.809017 0.525731 0.262866
v -0.309017 0.850651 0.425325
v -0.809017 0.525731 0.262866
v -0.5 0.850651 -0.16246
v -0.309017 0.850651 0.425325
v -0.5 0.850651 -0.16246
v 0 0.850651 -0.525731
v 0 1 -0
v 0 0.447214 -0.894427
v 0 0.850651 -0.525731
v -0.5 0.525731 -0.688191
v -0.850651 0.447214 -0.276393
v -0.5 0.525731 -0.688191
v -0.5 0.850651 -0.16246
v -0.5 0.525731 -0.688191
v 0 0.850651 -0.525731
v -0.5 0.850651 -0.16246
v 0 -1 -0
v 0.5 -0.850651 0.16246
v 0.309017 -0.850651 -0.425325
v 0.309017 -0.850651 -0.425325
v 0.809017 -0.525731 -0.262866
v 0.525731 -0.447214 -0.723607
v 0.5 -0.850651 0.16246
v 0.850651 -0.447214 0.276393
v 0.809017 -0.525731 -0.262866
v 0.5 -0.850651 0.16246
v 0.809017 -0.525731 -0.262866
v 0.309017 -0.850651 -0.425325
v 0 -1 -0
v 6.43835e-017 -0.850651 0.525731
v 0.5 -0.850651 0.16246
v 0.5 -0.850651 0.16246
v 0.5 -0.525731 0.688191
v 0.850651 -0.447214 0.276393
v 6.43835e-017 -0.850651 0.525731
v 1.09536e-016 -0.447214 0.894427
v 0.5 -0.525731 0.688191
v 6.43835e-017 -0.850651 0.525731
v 0.5 -0.525731 0.688191
v 0.5 -0.850651 0.16246
v 0 -1 -0
v -0.5 -0.850651 0.16246
v 6.43835e-017 -0.850651 0.525731
v 6.43835e-017 -0.850651 0.525731
v -0.5 -0.525731 0.688191
v 1.09536e-016 -0.447214 0.894427
v -0.5 -0.850651 0.16246
v -0.850651 -0.447214 0.276393
v -0.5 -0.525731 0.688191
v 6.43835e-017 -0.850651 0.525731
v -0.5 -0.850651 0.16246
v -0.5 -0.525731 0.688191
v 0 -1 -0
v -0.309017 -0.850651 -0.425325
v -0.5 -0.850651 0.16246
v -0.5 -0.850651 0.16246
v -0.809017 -0.525731 -0.262866
v -0.850651 -0.447214 0.276393
v -0.309017 -0.850651 -0.425325
v -0.525731 -0.447214 -0.723607
v -0.809017 -0.525731 -0.262866
v -0.5 -0.850651 0.16246
v -0.309017 -0.850651 -0.425325
v -0.809017 -0.525731 -0.262866
v 0 -1 -0
v 0.309017 -0.850651 -0.425325
v -0.309017 -0.850651 -0.425325
v -0.309017 -0.850651 -0.425325
v -6.52573e-017 -0.525731 -0.850651
v -0.525731 -0.447214 -0.723607
v 0.309017 -0.850651 -0.425325
v 0.525731 -0.447214 -0.723607
v -6.52573e-017 -0.525731 -0.850651
v 0.309017 -0.850651 -0.425325
v -6.52573e-017 -0.525731 -0.850651
v -0.309017 -0.850651 -0.425325
v 0.309017 0 -0.951057
v 0.5 0.525731 -0.688191
v 0 0.447214 -0.894427
v 0.809017 0 -0.587785
v 0.850651 0.447214 -0.276393
v 0.5 0.525731 -0.688191
v 0.525731 -0.447214 -0.723607
v 0.809017 0 -0.587785
v 0.309017 0 -0.951057
v 0.809017 0 -0.587785
v 0.5 0.525731 -0.688191
v 0.309017 0 -0.951057
v 1 0 -3.26286e-017
v 0.809017 0.525731 0.262866
v 0.850651 0.447214 -0.276393
v 0.809017 0 0.587785
v 0.525731 0.447214 0.723607
v 0.809017 0.525731 0.262866
v 0.850651 -0.447214 0.276393
v 0.809017 0 0.587785
v 1 0 -3.26286e-017
v 0.809017 0 0.587785
v 0.809017 0.525731 0.262866
v 1 0 -3.26286e-017
v 0.309017 0 0.951057
v 1.30515e-016 0.525731 0.850651
v 0.525731 0.447214 0.723607
v -0.309017 0 0.951057
v -0.525731 0.447214 0.723607
v 1.30515e-016 0.525731 0.850651
v 1.09536e-016 -0.447214 0.894427
v -0.309017 0 0.951057
v 0.309017 0 0.951057
v 0.309017 0 0.951057
v -0.309017 0 0.951057
v 1.30515e-016 0.525731 0.850651
v -0.809017 0 0.587785
v -0.809017 0.525731 0.262866
v -0.525731 0.447214 0.723607
v -1 0 1.63143e-016
v -0.850651 0.447214 -0.276393
v -0.809017 0.525731 0.262866
v -0.850651 -0.447214 0.276393
v -1 0 1.63143e-016
v -0.809017 0 0.587785
v -0.809017 0 0.587785
v -1 0 1.63143e-016
v -0.809017 0.525731 0.262866
v -0.809017 0 -0.587785
v -0.5 0.525731 -0.688191
v -0.850651 0.447214 -0.276393
v -0.309017 0 -0.951057
v 0 0.447214 -0.894427
v -0.5 0.525731 -0.688191
v -0.525731 -0.447214 -0.723607
v -0.309017 0 -0.951057
v -0.809017 0 -0.587785
v -0.809017 0 -0.587785
v -0.309017 0 -0.951057
v -0.5 0.525731 -0.688191
v 0.809017 -0.525731 -0.262866
v 0.850651 -0.447214 0.276393
v 1 0 -3.26286e-017
v 0.809017 -0.525731 -0.262866
v 0.809017 0 -0.587785
v 0.525731 -0.447214 -0.723607
v 1 0 -3.26286e-017
v 0.850651 0.447214 -0.276393
v 0.809017 0 -0.587785
v 0.809017 -0.525731 -0.262866
v 1 0 -3.26286e-017
v 0.809017 0 -0.587785
v 0.5 -0.525731 0.688191
v 1.09536e-016 -0.447214 0.894427
v 0.309017 0 0.951057
v 0.5 -0.525731 0.688191
v 0.809017 0 0.587785
v 0.850651 -0.447214 0.276393
v 0.309017 0 0.951057
v 0.525731 0.447214 0.723607
v 0.809017 0 0.587785
v 0.5 -0.525731 0.688191
v 0.309017 0 0.951057
v 0.809017 0 0.587785
v -0.5 -0.525731 0.688191
v -0.850651 -0.447214 0.276393
v -0.809017 0 0.587785
v -0.5 -0.525731 0.688191
v -0.309017 0 0.951057
v 1.09536e-016 -0.447214 0.894427
v -0.309017 0 0.951057
v -0.809017 0 0.587785
v -0.525731 0.447214 0.723607
v -0.5 -0.525731 0.688191
v -0.809017 0 0.587785
v -0.309017 0 0.951057
v -0.809017 -0.525731 -0.262866
v -0.525731 -0.447214 -0.723607
v -0.809017 0 -0.587785
v -0.809017 -0.525731 -0.262866
v -1 0 1.63143e-016
v -0.850651 -0.447214 0.276393
v -1 0 1.63143e-016
v -0.809017 0 -0.587785
v -0.850651 0.447214 -0.276393
v -0.809017 -0.525731 -0.262866
v -0.809017 0 -0.587785
v -1 0 1.63143e-016
v -6.52573e-017 -0.525731 -0.850651
v 0.525731 -0.447214 -0.723607
v 0.309017 0 -0.951057
v -6.52573e-017 -0.525731 -0.850651
v -0.309017 0 -0.951057
v -0.525731 -0.447214 -0.723607
v -0.309017 0 -0.951057
v 0.309017 0 -0.951057
v 0 0.447214 -0.894427
v -6.52573e-017 -0.525731 -0.850651
v 0.309017 0 -0.951057
v -0.309017 0 -0.951057
vt -0.05 0.323792
vt -0.05 0.823792
vt 0 0.5
vt 0.05 1
vt 0.05 0.676208
vt 0.05 0.176208
vt 0.05 0.352416
vt 0.1 0.5
vt 0.15 0.323792
vt 0.15 0.823792
vt 0.15 0
vt 0.15 0.647584
vt 0.2 0.5
vt 0.25 0.176208
vt 0.25 0.352416
vt 0.25 0.676208
vt 0.25 1
vt 0.3 0.5
vt 0.35 0
vt 0.35 0.323792
vt 0.35 0.647584
vt 0.35 0.823792
vt 0.4 0.5
vt 0.45 0.176208
vt 0.45 0.352416
vt 0.45 0.676208
vt 0.45 1
vt 0.5 0.5
vt 0.55 0
vt 0.55 0.323792
vt 0.55 0.647584
vt 0.55 0.823792
vt 0.6 0.5
vt 0.65 0.176208
vt 0.65 0.676208
vt 0.65 1
vt 0.65 0.352416
vt 0.7 0.5
vt 0.75 0
vt 0.75 0.323792
vt 0.75 0.647584
vt 0.75 0.823792
vt 0.8 0.5
vt 0.85 0.352416
vt 0.85 0.176208
vt 0.85 0.676208
vt 0.85 1
vt 0.9 0.5
vt 0.95 0
vt 0.95 0.323792
vt 0.95 0.647584
vt 0.95 0.823792
vt 1 0.5
vt 1.05 0.176208
vt 1.05 0.352416
vt 1.05 0.676208
vn 0.194739 0.943522 -0.268035
vn 0.194739 0.943522 -0.268035
vn 0.194739 0.943522 -0.268035
vn 0.628428 0.661694 -0.408949
vn 0.628428 0.661694 -0.408949
vn 0.628428 0.661694 -0.408949
vn 0.194739 0.661694 -0.724043
vn 0.194739 0.661694 -0.724043
vn 0.194739 0.661694 -0.724043
vn 0.356822 0.794654 -0.491124
vn 0.356822 0.794654 -0.491124
vn 0.356822 0.794654 -0.491124
vn 0.315094 0.943522 0.10238
vn 0.315094 0.943522 0.10238
vn 0.315094 0.943522 0.10238
vn 0.583129 0.661694 0.471299
vn 0.583129 0.661694 0.471299
vn 0.583129 0.661694 0.471299
vn 0.748783 0.661694 -0.0385341
vn 0.748783 0.661694 -0.0385341
vn 0.748783 0.661694 -0.0385341
vn 0.57735 0.794654 0.187592
vn 0.57735 0.794654 0.187592
vn 0.57735 0.794654 0.187592
vn 0 0.943522 0.331309
vn 0 0.943522 0.331309
vn 0 0.943522 0.331309
vn -0.268035 0.661694 0.700228
vn -0.268035 0.661694 0.700228
vn -0.268035 0.661694 0.700228
vn 0.268035 0.661694 0.700228
vn 0.268035 0.661694 0.700228
vn 0.268035 0.661694 0.700228
vn 0 0.794654 0.607062
vn 0 0.794654 0.607062
vn 0 0.794654 0.607062
vn -0.315094 0.943522 0.10238
vn -0.315094 0.943522 0.10238
vn -0.315094 0.943522 0.10238
vn -0.748783 0.661694 -0.0385341
vn -0.748783 0.661694 -0.0385341
vn -0.748783 0.661694 -0.0385341
vn -0.583129 0.661694 0.471299
vn -0.583129 0.661694 0.471299
vn -0.583129 0.661694 0.471299
vn -0.57735 0.794654 0.187592
vn -0.57735 0.794654 0.187592
vn -0.57735 0.794654 0.187592
vn -0.194739 0.943522 -0.268035
vn -0.194739 0.943522 -0.268035
vn -0.194739 0.943522 -0.268035
vn -0.194739 0.661694 -0.724043
vn -0.194739 0.661694 -0.724043
vn -0.194739 0.661694 -0.724043
vn -0.628428 0.661694 -0.408949
vn -0.628428 0.661694 -0.408949
vn -0.628428 0.661694 -0.408949
vn -0.356822 0.794654 -0.491124
vn -0.356822 0.794654 -0.491124
vn -0.356822 0.794654 -0.491124
vn 0.315094 -0.943522 -0.10238
vn 0.315094 -0.943522 -0.10238
vn 0.315094 -0.943522 -0.10238
vn 0.583129 -0.661694 -0.471299
vn 0.583129 -0.661694 -0.471299
vn 0.583129 -0.661694 -0.471299
vn 0.748783 -0.661694 0.0385341
vn 0.748783 -0.661694 0.0385341
vn 0.748783 -0.661694 0.0385341
vn 0.57735 -0.794654 -0.187592
vn 0.57735 -0.794654 -0.187592
vn 0.57735 -0.794654 -0.187592
vn 0.194739 -0.943522 0.268035
vn 0.194739 -0.943522 0.268035
vn 0.194739 -0.943522 0.268035
vn 0.628428 -0.661694 0.408949
vn 0.628428 -0.661694 0.408949
vn 0.628428 -0.661694 0.408949
vn 0.194739 -0.661694 0.724043
vn 0.194739 -0.661694 0.724043
vn 0.194739 -0.661694 0.724043
vn 0.356822 -0.794654 0.491124
vn 0.356822 -0.794654 0.491124
vn 0.356822 -0.794654 0.491124
vn -0.194739 -0.943522 0.268035
vn -0.194739 -0.943522 0.268035
vn -0.194739 -0.943522 0.268035
vn -0.194739 -0.661694 0.724043
vn -0.194739 -0.661694 0.724043
vn -0.194739 -0.661694 0.724043
vn -0.628428 -0.661694 0.408949
vn -0.628428 -0.661694 0.408949
vn -0.628428 -0.661694 0.408949
vn -0.356822 -0.794654 0.491124
vn -0.356822 -0.794654 0.491124
vn -0.356822 -0.794654 0.491124
vn -0.315094 -0.943522 -0.10238
vn -0.315094 -0.943522 -0.10238
vn -0.315094 -0.943522 -0.10238
vn -0.748783 -0.661694 0.0385341
vn -0.748783 -0.661694 0.0385341
vn -0.748783 -0.661694 0.0385341
vn -0.583129 -0.661694 -0.471299
vn -0.583129 -0.661694 -0.471299
vn -0.583129 -0.661694 -0.471299
vn -0.57735 -0.794654 -0.187592
vn -0.57735 -0.794654 -0.187592
vn -0.57735 -0.794654 -0.187592
vn 0 -0.943522 -0.331309
vn 0 -0.943522 -0.331309
vn 0 -0.943522 -0.331309
vn -0.268035 -0.661694 -0.700228
vn -0.268035 -0.661694 -0.700228
vn -0.268035 -0.661694 -0.700228
vn 0.268035 -0.661694 -0.700228
vn 0.268035 -0.661694 -0.700228
vn 0.268035 -0.661694 -0.700228
vn 0 -0.794654 -0.607062
vn 0 -0.794654 -0.607062
vn 0 -0.794654 -0.607062
vn 0.315094 0.330384 -0.889698
vn 0.315094 0.330384 -0.889698
vn 0.315094 0.330384 -0.889698
vn 0.748783 0.330384 -0.574604
vn 0.748783 0.330384 -0.574604
vn 0.748783 0.330384 -0.574604
vn 0.583129 -0.125624 -0.802608
vn 0.583129 -0.125624 -0.802608
vn 0.583129 -0.125624 -0.802608
vn 0.57735 0.187593 -0.794654
vn 0.57735 0.187593 -0.794654
vn 0.57735 0.187593 -0.794654
vn 0.943522 0.330384 0.0247403
vn 0.943522 0.330384 0.0247403
vn 0.943522 0.330384 0.0247403
vn 0.777868 0.330384 0.534573
vn 0.777868 0.330384 0.534573
vn 0.777868 0.330384 0.534573
vn 0.943522 -0.125624 0.306569
vn 0.943522 -0.125624 0.306569
vn 0.943522 -0.125624 0.306569
vn 0.934172 0.187592 0.303531
vn 0.934172 0.187592 0.303531
vn 0.934172 0.187592 0.303531
vn 0.268035 0.330384 0.904988
vn 0.268035 0.330384 0.904988
vn 0.268035 0.330384 0.904988
vn -0.268035 0.330384 0.904988
vn -0.268035 0.330384 0.904988
vn -0.268035 0.330384 0.904988
vn 0 -0.125624 0.992078
vn 0 -0.125624 0.992078
vn 0 -0.125624 0.992078
vn 0 0.187593 0.982247
vn 0 0.187593 0.982247
vn 0 0.187593 0.982247
vn -0.777868 0.330384 0.534573
vn -0.777868 0.330384 0.534573
vn -0.777868 0.330384 0.534573
vn -0.943522 0.330384 0.0247403
vn -0.943522 0.330384 0.0247403
vn -0.943522 0.330384 0.0247403
vn -0.943522 -0.125624 0.306569
vn -0.943522 -0.125624 0.306569
vn -0.943522 -0.125624 0.306569
vn -0.934172 0.187592 0.303531
vn -0.934172 0.187592 0.303531
vn -0.934172 0.187592 0.303531
vn -0.748783 0.330384 -0.574604
vn -0.748783 0.330384 -0.574604
vn -0.748783 0.330384 -0.574604
vn -0.315094 0.330384 -0.889698
vn -0.315094 0.330384 -0.889698
vn -0.315094 0.330384 -0.889698
vn -0.583129 -0.125624 -0.802608
vn -0.583129 -0.125624 -0.802608
vn -0.583129 -0.125624 -0.802608
vn -0.57735 0.187593 -0.794654
vn -0.57735 0.187593 -0.794654
vn -0.57735 0.187593 -0.794654
vn 0.943522 -0.330384 -0.0247403
vn 0.943522 -0.330384 -0.0247403
vn 0.943522 -0.330384 -0.0247403
vn 0.777868 -0.330384 -0.534573
vn 0.777868 -0.330384 -0.534573
vn 0.777868 -0.330384 -0.534573
vn 0.943522 0.125624 -0.306569
vn 0.943522 0.125624 -0.306569
vn 0.943522 0.125624 -0.306569
vn 0.934172 -0.187592 -0.303531
vn 0.934172 -0.187592 -0.303531
vn 0.934172 -0.187592 -0.303531
vn 0.315094 -0.330384 0.889698
vn 0.315094 -0.330384 0.889698
vn 0.315094 -0.330384 0.889698
vn 0.748783 -0.330384 0.574604
vn 0.748783 -0.330384 0.574604
vn 0.748783 -0.330384 0.574604
vn 0.583129 0.125624 0.802608
vn 0.583129 0.125624 0.802608
vn 0.583129 0.125624 0.802608
vn 0.57735 -0.187593 0.794654
vn 0.57735 -0.187593 0.794654
vn 0.57735 -0.187593 0.794654
vn -0.748783 -0.330384 0.574604
vn -0.748783 -0.330384 0.574604
vn -0.748783 -0.330384 0.574604
vn -0.315094 -0.330384 0.889698
vn -0.315094 -0.330384 0.889698
vn -0.315094 -0.330384 0.889698
vn -0.583129 0.125624 0.802608
vn -0.583129 0.125624 0.802608
vn -0.583129 0.125624 0.802608
vn -0.57735 -0.187593 0.794654
vn -0.57735 -0.187593 0.794654
vn -0.57735 -0.187593 0.794654
vn -0.777868 -0.330384 -0.534573
vn -0.777868 -0.330384 -0.534573
vn -0.777868 -0.330384 -0.534573
vn -0.943522 -0.330384 -0.0247403
vn -0.943522 -0.330384 -0.0247403
vn -0.943522 -0.330384 -0.0247403
vn -0.943522 0.125624 -0.306569
vn -0.943522 0.125624 -0.306569
vn -0.943522 0.125624 -0.306569
vn -0.934172 -0.187592 -0.303531
vn -0.934172 -0.187592 -0.303531
vn -0.934172 -0.187592 -0.303531
vn 0.268035 -0.330384 -0.904988
vn 0.268035 -0.330384 -0.904988
vn 0.268035 -0.330384 -0.904988
vn -0.268035 -0.330384 -0.904988
vn -0.268035 -0.330384 -0.904988
vn -0.268035 -0.330384 -0.904988
vn 0 0.125624 -0.992078
vn 0 0.125624 -0.992078
vn 0 0.125624 -0.992078
vn 0 -0.187593 -0.982247
vn 0 -0.187593 -0.982247
vn 0 -0.187593 -0.982247
g group_Default
usemtl Default
s off
f 3/42/1 2/36/2 1/32/3
f 6/35/4 5/32/5 4/31/6
f 9/42/7 8/35/8 7/41/9
f 12/42/10 11/32/11 10/35/12
f 15/32/13 14/27/14 13/22/15
f 18/26/16 17/22/17 16/21/18
f 21/32/19 20/26/20 19/31/21
f 24/32/22 23/22/23 22/26/24
f 27/22/25 26/17/26 25/10/27
f 30/16/28 29/10/29 28/12/30
f 33/22/31 32/16/32 31/21/33
f 36/22/34 35/10/35 34/16/36
f 39/4/37 38/2/38 37/10/39
f 42/56/40 41/52/41 40/51/42
f 45/10/43 44/5/44 43/12/45
f 48/10/46 47/2/47 46/5/48
f 51/47/49 50/42/50 49/52/51
f 54/46/52 53/42/53 52/41/54
f 57/52/55 56/46/56 55/51/57
f 60/52/58 59/42/59 58/46/60
f 63/34/61 62/24/62 61/29/63
f 66/37/64 65/30/65 64/34/66
f 69/30/67 68/25/68 67/24/69
f 72/34/70 71/30/71 70/24/72
f 75/24/73 74/14/74 73/19/75
f 78/25/76 77/20/77 76/24/78
f 81/20/79 80/15/80 79/14/81
f 84/24/82 83/20/83 82/14/84
f 87/14/85 86/6/86 85/11/87
f 90/15/88 89/9/89 88/14/90
f 93/9/91 92/7/92 91/6/93
f 96/9/94 95/6/95 94/14/96
f 99/54/97 98/45/98 97/49/99
f 102/7/100 101/1/101 100/6/102
f 105/50/103 104/44/104 103/45/105
f 108/50/106 107/45/107 106/54/108
f 111/45/109 110/34/110 109/39/111
f 114/44/112 113/40/113 112/45/114
f 117/40/115 116/37/116 115/34/117
f 120/45/118 119/40/119 118/34/120
f 123/41/121 122/35/122 121/38/123
f 126/35/124 125/31/125 124/33/126
f 129/38/127 128/33/128 127/37/129
f 132/38/130 131/35/131 130/33/132
f 135/31/133 134/26/134 133/28/135
f 138/26/136 137/21/137 136/23/138
f 141/28/139 140/23/140 139/25/141
f 144/28/142 143/26/143 142/23/144
f 147/21/145 146/16/146 145/18/147
f 150/16/148 149/12/149 148/13/150
f 153/18/151 152/13/152 151/15/153
f 156/16/154 155/13/155 154/18/156
f 159/12/157 158/5/158 157/8/159
f 162/56/160 161/51/161 160/53/162
f 165/8/163 164/3/164 163/7/165
f 168/5/166 167/3/167 166/8/168
f 171/51/169 170/46/170 169/48/171
f 174/46/172 173/41/173 172/43/174
f 177/48/175 176/43/176 175/44/177
f 180/46/178 179/43/179 178/48/180
f 183/28/181 182/25/182 181/30/183
f 186/37/184 185/33/185 184/30/186
f 189/33/187 188/31/188 187/28/189
f 192/33/190 191/28/191 190/30/192
f 195/18/193 194/15/194 193/20/195
f 198/25/196 197/23/197 196/20/198
f 201/23/199 200/21/200 199/18/201
f 204/23/202 203/18/203 202/20/204
f 207/8/205 206/7/206 205/9/207
f 210/15/208 209/13/209 208/9/210
f 213/12/211 212/8/212 211/13/213
f 216/13/214 215/8/215 214/9/216
f 219/48/217 218/44/218 217/50/219
f 222/55/220 221/53/221 220/50/222
f 225/51/223 224/48/224 223/53/225
f 228/53/226 227/48/227 226/50/228
f 231/38/229 230/37/230 229/40/231
f 234/44/232 233/43/233 232/40/234
f 237/41/235 236/38/236 235/43/237
f 240/43/238 239/38/239 238/40/240
