####
#
#	OBJ File Generated by LightWave3D
#	LightWave3D OBJ Export v2.3
#
####
o Tree2.obj
mtllib Tree2.mtl
g default
v -0.404404 0.505362 0.413592
v 0.0534917 0.505362 0.570266
v 0.471109 0.505362 0.297516
v 0.533971 0.505362 -0.199267
v 0.194742 0.505362 -0.545998
v -0.291131 0.505362 -0.481581
v -0.557776 0.505362 -0.054524
v 0 1.32395 -0
v -0.32424 0.38498 0.331604
v 0.0372389 0.38498 0.455288
v 0.375607 0.38498 0.234297
v 0.425973 0.38498 -0.163723
v 0.160009 0.38498 -0.435569
v -0.22927 0.38498 -0.383959
v -0.445315 0.38498 -0.0379404
v 0.2754 1.296 -0
v 0.171709 1.296 -0.202651
v -0.0612823 1.296 -0.252701
v -0.248127 1.296 -0.112463
v -0.248127 1.296 0.112463
v -0.0612823 1.296 0.252701
v 0.171709 1.296 0.202651
v 0 1.8468 -0
v 0.146714 0.958658 0.389429
v 0.388087 0.958658 0.138506
v 0.337222 0.958658 -0.216715
v 0.032423 0.958658 -0.408745
v -0.296792 0.958658 -0.292982
v -0.402518 0.958658 0.0434021
v -0.205138 0.958658 0.347104
v 0 1.54757 -0
v 0 0.418453 -0
v 0 0.8424 -0
v 0.1782 0 -0
v 0.1782 0.3888 -0
v 0.0550667 0.3888 -0.169478
v 0.0550667 0 -0.169478
v -0.144167 0 -0.104743
v 0.0550667 0 -0.169478
v 0.0550667 0.3888 -0.169478
v -0.144167 0.3888 -0.104743
v -0.144167 0 0.104743
v -0.144167 0 -0.104743
v -0.144167 0.3888 -0.104743
v -0.144167 0.3888 0.104743
v 0.0550667 0 0.169478
v -0.144167 0 0.104743
v -0.144167 0.3888 0.104743
v 0.0550667 0.3888 0.169478
v 0.0550667 0 0.169478
v 0.0550667 0.3888 0.169478
v 0.1782 0.3888 -0
v 0.1782 0 -0
vt 0.02 0.253659
vt 0.02 0.596341
vt 0.0914806 0.290664
vt 0.0914806 0.559336
vt 0.29481 0.04
vt 0.29481 0.81
vt 0.311657 0.119482
vt 0.311657 0.730518
vt 0.384943 0.425
vt 0.589311 0.181266
vt 0.589311 0.668734
vt 0.637492 0.116254
vt 0.637492 0.733746
vt 0.709706 0.425
vt 0.74 0.62
vt 0.74 1
vt 0.79 0.425
vt 1 0.62
vt 1 1
vn -0.510107 -0.857967 -0.0606814
vn -0.275811 -0.860896 -0.427535
vn 0.166896 -0.861736 -0.479122
vn 0.48613 -0.858406 -0.163756
vn 0.434488 -0.859126 0.270413
vn 0.0620898 -0.862031 0.503038
vn -0.363675 -0.860142 0.357625
vn 0.124 -0.0850149 0.988634
vn -1.76591e-007 1 2.5686e-007
vn -0.710552 -0.0792115 0.699172
vn 0.845176 -0.0872662 0.527316
vn -1.76591e-007 1 2.5686e-007
vn 0.124 -0.0850149 0.988634
vn -1.76591e-007 1 2.5686e-007
vn 0.845176 -0.0872662 0.527316
vn 0.945073 -0.0804253 -0.31681
vn -1.76591e-007 1 2.5686e-007
vn 0.945073 -0.0804253 -0.31681
vn 0.326041 -0.0812248 -0.94186
vn -1.76591e-007 1 2.5686e-007
vn 0.326041 -0.0812248 -0.94186
vn -0.54048 -0.0877119 -0.836772
vn -0.989252 -0.084002 -0.119684
vn -1.76591e-007 1 2.5686e-007
vn -0.54048 -0.0877119 -0.836772
vn -0.710552 -0.0792115 0.699172
vn -1.76591e-007 1 2.5686e-007
vn -0.989252 -0.084002 -0.119684
vn -0.363675 -0.860142 0.357625
vn -0.710552 -0.0792115 0.699172
vn -0.989252 -0.084002 -0.119684
vn -0.510107 -0.857967 -0.0606814
vn 0.0620898 -0.862031 0.503038
vn 0.124 -0.0850149 0.988634
vn -0.710552 -0.0792115 0.699172
vn -0.363675 -0.860142 0.357625
vn 0.434488 -0.859126 0.270413
vn 0.845176 -0.0872662 0.527316
vn 0.124 -0.0850149 0.988634
vn 0.0620898 -0.862031 0.503038
vn 0.945073 -0.0804253 -0.31681
vn 0.845176 -0.0872662 0.527316
vn 0.434488 -0.859126 0.270413
vn 0.48613 -0.858406 -0.163756
vn 0.326041 -0.0812248 -0.94186
vn 0.945073 -0.0804253 -0.31681
vn 0.48613 -0.858406 -0.163756
vn 0.166896 -0.861736 -0.479122
vn -0.54048 -0.0877119 -0.836772
vn 0.326041 -0.0812248 -0.94186
vn 0.166896 -0.861736 -0.479122
vn -0.275811 -0.860896 -0.427535
vn -0.510107 -0.857967 -0.0606814
vn -0.989252 -0.084002 -0.119684
vn -0.54048 -0.0877119 -0.836772
vn -0.275811 -0.860896 -0.427535
vn 0.606788 -0.0418512 -0.793762
vn -1.15597e-005 1 -0
vn 0.999072 -0.0430787 9.32523e-009
vn -0.213454 -0.0412205 -0.976083
vn -1.15597e-005 1 -0
vn 0.606788 -0.0418512 -0.793762
vn -1.15597e-005 1 -0
vn -0.213454 -0.0412205 -0.976083
vn -0.892874 -0.0426871 -0.448279
vn -1.15597e-005 1 -0
vn -0.892874 -0.0426871 -0.448279
vn -0.892874 -0.0426871 0.448279
vn -1.15597e-005 1 -0
vn -0.892874 -0.0426871 0.448279
vn -0.213454 -0.0412205 0.976083
vn 0.606788 -0.0418512 0.793762
vn -1.15597e-005 1 -0
vn -0.213454 -0.0412205 0.976083
vn 0.999072 -0.0430787 9.32523e-009
vn -1.15597e-005 1 -0
vn 0.606788 -0.0418512 0.793762
vn -7.61324e-006 -1 1.817e-008
vn 0.999072 -0.0430787 9.32523e-009
vn 0.606788 -0.0418512 0.793762
vn -7.61324e-006 -1 1.817e-008
vn 0.606788 -0.0418512 -0.793762
vn 0.999072 -0.0430787 9.32523e-009
vn -7.61324e-006 -1 1.817e-008
vn -0.213454 -0.0412205 -0.976083
vn 0.606788 -0.0418512 -0.793762
vn -0.892874 -0.0426871 -0.448279
vn -0.213454 -0.0412205 -0.976083
vn -7.61324e-006 -1 1.817e-008
vn -0.892874 -0.0426871 0.448279
vn -0.892874 -0.0426871 -0.448279
vn -7.61324e-006 -1 1.817e-008
vn -0.213454 -0.0412205 0.976083
vn -0.892874 -0.0426871 0.448279
vn -7.61324e-006 -1 1.817e-008
vn -7.61324e-006 -1 1.817e-008
vn 0.606788 -0.0418512 0.793762
vn -0.213454 -0.0412205 0.976083
vn 0.952203 -0.0220228 0.304671
vn 3.13048e-006 1 -3.69236e-007
vn 0.334536 -0.0221676 0.942122
vn 0.838629 -0.0216572 -0.544273
vn 3.13048e-006 1 -3.69236e-007
vn 0.952203 -0.0220228 0.304671
vn 3.13048e-006 1 -3.69236e-007
vn 0.838629 -0.0216572 -0.544273
vn 0.114063 -0.0219532 -0.993231
vn 3.13048e-006 1 -3.69236e-007
vn 0.114063 -0.0219532 -0.993231
vn -0.719258 -0.0222001 -0.694388
vn 3.13048e-006 1 -3.69236e-007
vn -0.719258 -0.0222001 -0.694388
vn -0.99029 -0.0217827 0.137303
vn -0.529879 -0.02173 0.847795
vn 3.13048e-006 1 -3.69236e-007
vn -0.99029 -0.0217827 0.137303
vn 0.334536 -0.0221676 0.942122
vn 3.13048e-006 1 -3.69236e-007
vn -0.529879 -0.02173 0.847795
vn 2.68982e-006 -1 -2.90894e-007
vn 0.334536 -0.0221676 0.942122
vn -0.529879 -0.02173 0.847795
vn 2.68982e-006 -1 -2.90894e-007
vn 0.952203 -0.0220228 0.304671
vn 0.334536 -0.0221676 0.942122
vn 2.68982e-006 -1 -2.90894e-007
vn 0.838629 -0.0216572 -0.544273
vn 0.952203 -0.0220228 0.304671
vn 0.114063 -0.0219532 -0.993231
vn 0.838629 -0.0216572 -0.544273
vn 2.68982e-006 -1 -2.90894e-007
vn -0.719258 -0.0222001 -0.694388
vn 0.114063 -0.0219532 -0.993231
vn 2.68982e-006 -1 -2.90894e-007
vn -0.99029 -0.0217827 0.137303
vn -0.719258 -0.0222001 -0.694388
vn 2.68982e-006 -1 -2.90894e-007
vn 2.68982e-006 -1 -2.90894e-007
vn -0.529879 -0.02173 0.847795
vn -0.99029 -0.0217827 0.137303
vn 0.809017 0 -0.587786
vn 0.809017 0 -0.587786
vn 0.809017 0 -0.587786
vn 0.809017 0 -0.587786
vn -0.309017 0 -0.951057
vn -0.309017 0 -0.951057
vn -0.309017 0 -0.951057
vn -0.309017 0 -0.951057
vn -1 0 -0
vn -1 0 -0
vn -1 0 -0
vn -1 0 -0
vn -0.309017 0 0.951057
vn -0.309017 0 0.951057
vn -0.309017 0 0.951057
vn -0.309017 0 0.951057
vn 0.809017 0 0.587786
vn 0.809017 0 0.587786
vn 0.809017 0 0.587786
vn 0.809017 0 0.587786
g group_Default
usemtl Default
s off
f 15/10/1 14/7/2 13/3/3 12/4/4 11/8/5 10/11/6 9/14/7
f 2/13/8 8/9/9 1/17/10
f 3/6/11 8/9/12 2/13/13
f 8/9/14 3/6/15 4/2/16
f 8/9/17 4/2/18 5/1/19
f 8/9/20 5/1/21 6/5/22
f 7/12/23 8/9/24 6/5/25
f 1/17/26 8/9/27 7/12/28
f 9/14/29 1/17/30 7/12/31 15/10/32
f 10/11/33 2/13/34 1/17/35 9/14/36
f 11/8/37 3/6/38 2/13/39 10/11/40
f 4/2/41 3/6/42 11/8/43 12/4/44
f 5/1/45 4/2/46 12/4/47 13/3/48
f 6/5/49 5/1/50 13/3/51 14/7/52
f 15/10/53 7/12/54 6/5/55 14/7/56
f 17/13/57 23/9/58 16/17/59
f 18/6/60 23/9/61 17/13/62
f 23/9/63 18/6/64 19/2/65
f 23/9/66 19/2/67 20/1/68
f 23/9/69 20/1/70 21/5/71
f 22/12/72 23/9/73 21/5/74
f 16/17/75 23/9/76 22/12/77
f 33/10/78 16/17/79 22/12/80
f 33/14/81 17/13/82 16/17/83
f 33/11/84 18/6/85 17/13/86
f 19/2/87 18/6/88 33/4/89
f 20/1/90 19/2/91 33/3/92
f 21/5/93 20/1/94 33/7/95
f 33/7/96 22/12/97 21/5/98
f 25/13/99 31/9/100 24/17/101
f 26/6/102 31/9/103 25/13/104
f 31/9/105 26/6/106 27/2/107
f 31/9/108 27/2/109 28/1/110
f 31/9/111 28/1/112 29/5/113
f 30/12/114 31/9/115 29/5/116
f 24/17/117 31/9/118 30/12/119
f 32/10/120 24/17/121 30/12/122
f 32/14/123 25/13/124 24/17/125
f 32/11/126 26/6/127 25/13/128
f 27/2/129 26/6/130 32/4/131
f 28/1/132 27/2/133 32/3/134
f 29/5/135 28/1/136 32/7/137
f 32/7/138 30/12/139 29/5/140
f 37/16/141 36/19/142 35/18/143 34/15/144
f 41/16/145 40/19/146 39/18/147 38/15/148
f 45/16/149 44/19/150 43/18/151 42/15/152
f 49/16/153 48/19/154 47/18/155 46/15/156
f 53/16/157 52/19/158 51/18/159 50/15/160
