# Blender 3.4.0
# www.blender.org
mtllib aircon_4.mtl
o SP_TNR_Aircon_4_WT_Aircon_0
v -0.471165 1.089256 -0.936606
v -0.471164 1.089256 -0.227632
v -0.459877 1.089256 -0.171195
v -0.426015 1.089256 -0.137333
v -0.369577 1.089256 -0.126045
v -0.000748 1.089256 -0.126045
v -0.000749 1.089256 -1.038194
v -0.459877 1.089256 -0.993044
v -0.426015 1.089256 -1.026906
v -0.369577 1.089256 -1.038194
v -0.444679 0.610471 -0.903946
v -0.444679 0.610471 -0.260293
v -0.444679 1.056595 -0.260293
v -0.444679 1.056595 -0.903946
v -0.336917 0.610471 -0.154012
v -0.033409 0.610471 -0.154012
v -0.033409 1.056595 -0.154012
v -0.336917 1.056595 -0.154012
v -0.459877 1.089256 -0.171195
v -0.471164 1.089256 -0.227632
v -0.471164 0.577810 -0.227632
v -0.459877 0.577810 -0.171195
v -0.426015 1.089256 -0.137333
v -0.459877 1.089256 -0.171195
v -0.459877 0.577810 -0.171195
v -0.426015 0.577810 -0.137333
v -0.369577 1.089256 -0.126045
v -0.369577 0.577810 -0.126045
v -0.471165 0.577810 -0.936606
v -0.471164 0.603210 -0.253032
v -0.471165 0.603210 -0.911206
v -0.471164 1.063856 -0.253032
v -0.471165 1.089256 -0.936606
v -0.471165 1.063856 -0.911206
v -0.000748 0.577810 -0.126045
v -0.026148 0.603210 -0.126045
v -0.344177 0.603210 -0.126045
v -0.000748 1.089256 -0.126045
v -0.026148 1.063856 -0.126045
v -0.344177 1.063856 -0.126045
v -0.471165 0.603210 -0.911206
v -0.471164 0.603210 -0.253032
v -0.444679 0.610471 -0.260293
v -0.444679 0.610471 -0.903946
v -0.471164 0.603210 -0.253032
v -0.471164 1.063856 -0.253032
v -0.444679 1.056595 -0.260293
v -0.444679 0.610471 -0.260293
v -0.471164 1.063856 -0.253032
v -0.471165 1.063856 -0.911206
v -0.444679 1.056595 -0.903946
v -0.444679 1.056595 -0.260293
v -0.471165 1.063856 -0.911206
v -0.471165 0.603210 -0.911206
v -0.444679 0.610471 -0.903946
v -0.444679 1.056595 -0.903946
v -0.344177 0.603210 -0.126045
v -0.026148 0.603210 -0.126045
v -0.033409 0.610471 -0.154012
v -0.336917 0.610471 -0.154012
v -0.026148 0.603210 -0.126045
v -0.026148 1.063856 -0.126045
v -0.033409 1.056595 -0.154012
v -0.033409 0.610471 -0.154012
v -0.026148 1.063856 -0.126045
v -0.344177 1.063856 -0.126045
v -0.336917 1.056595 -0.154012
v -0.033409 1.056595 -0.154012
v -0.344177 1.063856 -0.126045
v -0.344177 0.603210 -0.126045
v -0.336917 0.610471 -0.154012
v -0.336917 1.056595 -0.154012
v -0.000748 1.089256 -0.126045
v -0.000748 0.577810 -0.126045
v -0.000749 0.577810 -1.038194
v -0.000749 1.089256 -1.038194
v -0.459877 0.577810 -0.171195
v -0.471164 0.577810 -0.227632
v -0.471165 0.577810 -0.936606
v -0.426015 0.577810 -0.137333
v -0.369577 0.577810 -0.126045
v -0.000748 0.577810 -0.126045
v -0.000749 0.577810 -1.038194
v -0.459877 0.577810 -0.993044
v -0.426015 0.577810 -1.026906
v -0.369577 0.577810 -1.038194
v -0.336917 0.610471 -1.010227
v -0.336917 1.056595 -1.010227
v -0.033409 1.056595 -1.010227
v -0.033409 0.610471 -1.010227
v -0.459877 1.089256 -0.993044
v -0.459877 0.577810 -0.993044
v -0.471165 0.577810 -0.936606
v -0.471165 1.089256 -0.936606
v -0.426015 1.089256 -1.026906
v -0.426015 0.577810 -1.026906
v -0.459877 0.577810 -0.993044
v -0.459877 1.089256 -0.993044
v -0.369577 1.089256 -1.038194
v -0.369577 0.577810 -1.038194
v -0.344177 0.603210 -1.038194
v -0.026149 0.603210 -1.038194
v -0.000749 0.577810 -1.038194
v -0.026149 1.063856 -1.038194
v -0.000749 1.089256 -1.038194
v -0.344177 1.063856 -1.038194
v -0.344177 0.603210 -1.038194
v -0.336917 0.610471 -1.010227
v -0.033409 0.610471 -1.010227
v -0.026149 0.603210 -1.038194
v -0.026149 0.603210 -1.038194
v -0.033409 0.610471 -1.010227
v -0.033409 1.056595 -1.010227
v -0.026149 1.063856 -1.038194
v -0.026149 1.063856 -1.038194
v -0.033409 1.056595 -1.010227
v -0.336917 1.056595 -1.010227
v -0.344177 1.063856 -1.038194
v -0.344177 1.063856 -1.038194
v -0.336917 1.056595 -1.010227
v -0.336917 0.610471 -1.010227
v -0.344177 0.603210 -1.038194
v 0.002705 0.583526 -0.267879
v 0.002705 0.544236 -0.267879
v -0.463371 0.544236 -0.267879
v -0.463371 0.583526 -0.267879
v 0.002705 0.544236 -0.228589
v 0.002705 0.583526 -0.228589
v -0.463371 0.583526 -0.228589
v -0.463371 0.544236 -0.228589
v 0.002705 0.544236 -0.267879
v 0.002705 0.544236 -0.228589
v -0.463371 0.544236 -0.228589
v -0.463371 0.544236 -0.267879
v -0.463371 0.544236 -0.267879
v -0.463371 0.544236 -0.228589
v -0.463371 0.583526 -0.228589
v -0.463371 0.583526 -0.228589
v -0.463371 0.583526 -0.267879
v -0.463371 0.544236 -0.267879
v 0.002705 0.583526 -0.934932
v 0.002705 0.544236 -0.934932
v -0.463371 0.544236 -0.934932
v -0.463371 0.583526 -0.934932
v 0.002705 0.544236 -0.895643
v 0.002705 0.583526 -0.895643
v -0.463371 0.583526 -0.895642
v -0.463371 0.544236 -0.895643
v 0.002705 0.544236 -0.934932
v 0.002705 0.544236 -0.895643
v -0.463371 0.544236 -0.895643
v -0.463371 0.544236 -0.934932
v -0.463371 0.544236 -0.934932
v -0.463371 0.544236 -0.895643
v -0.463371 0.583526 -0.895642
v -0.463371 0.583526 -0.895642
v -0.463371 0.583526 -0.934932
v -0.463371 0.544236 -0.934932
v 0.002705 0.544236 -0.895643
v 0.002705 0.544236 -0.934932
v 0.002705 0.583526 -0.934932
v 0.002705 0.583526 -0.895643
v 0.002705 0.544236 -0.895643
v 0.002705 0.544236 -0.228589
v 0.002705 0.544236 -0.267879
v 0.002705 0.583526 -0.267879
v 0.002705 0.583526 -0.267879
v 0.002705 0.583526 -0.228589
v 0.002705 0.544236 -0.228589
v -0.000122 0.085255 0.606791
v -0.484200 0.085255 1.024638
v -0.484200 0.085255 0.188944
v -0.484200 1.063300 0.188944
v -0.484200 1.063300 1.024638
v -0.000122 1.063300 0.606791
v -0.484200 0.085255 1.024638
v -0.484200 0.574148 1.024638
v -0.484200 0.574148 0.188944
v -0.484200 0.085255 0.188944
v -0.000122 0.085255 1.061797
v -0.000122 0.574148 1.061797
v -0.459444 0.574148 1.061797
v -0.459444 0.085255 1.061797
v -0.459444 0.085255 0.151785
v -0.459444 0.574148 0.151785
v -0.000122 0.574148 0.151785
v -0.000122 0.085255 0.151785
v -0.000122 0.085255 1.061797
v -0.459444 0.085255 1.061797
v -0.459444 0.085255 0.151785
v -0.000122 0.085255 0.151785
v -0.459444 1.063300 1.061797
v -0.000122 1.063300 1.061797
v -0.000122 1.063300 0.151785
v -0.459444 1.063300 0.151785
v -0.459444 0.085255 1.061797
v -0.459444 0.574148 1.061797
v -0.000122 0.085255 0.151785
v -0.000122 0.574148 0.151785
v -0.000122 0.574148 0.606791
v -0.000122 0.085255 0.606791
v -0.002786 0.083028 1.002343
v -0.002786 0.043738 1.002343
v -0.468862 0.043738 1.002343
v -0.468862 0.083028 1.002343
v -0.002786 0.043738 1.041633
v -0.002786 0.083028 1.041633
v -0.468862 0.083028 1.041633
v -0.468862 0.043738 1.041633
v -0.002786 0.043738 1.002343
v -0.002786 0.043738 1.041633
v -0.468862 0.043738 1.041633
v -0.468862 0.043738 1.002343
v -0.468862 0.043738 1.002343
v -0.468862 0.043738 1.041633
v -0.468862 0.083028 1.041633
v -0.468862 0.083028 1.041633
v -0.468862 0.083028 1.002343
v -0.468862 0.043738 1.002343
v -0.002786 0.083028 0.175887
v -0.002786 0.043738 0.175887
v -0.468862 0.043738 0.175887
v -0.468862 0.083028 0.175887
v -0.002786 0.043738 0.215177
v -0.002786 0.083028 0.215177
v -0.468862 0.083028 0.215178
v -0.468862 0.043738 0.215177
v -0.002786 0.043738 0.175887
v -0.002786 0.043738 0.215177
v -0.468862 0.043738 0.215177
v -0.468862 0.043738 0.175887
v -0.468862 0.043738 0.175887
v -0.468862 0.043738 0.215177
v -0.468862 0.083028 0.215178
v -0.468862 0.083028 0.215178
v -0.468862 0.083028 0.175887
v -0.468862 0.043738 0.175887
v -0.002786 0.043738 0.215177
v -0.002786 0.043738 0.175887
v -0.002786 0.083028 0.175887
v -0.002786 0.083028 0.215177
v -0.002786 0.043738 1.041633
v -0.002786 0.043738 1.002343
v -0.002786 0.083028 1.002343
v -0.002786 0.083028 1.002343
v -0.002786 0.083028 1.041633
v -0.002786 0.043738 1.041633
v -0.459444 0.085255 0.151785
v -0.459444 0.574148 0.151785
v -0.000122 0.085255 1.061797
v -0.000122 0.574148 1.061797
v -0.484200 0.574148 1.024638
v -0.484200 1.063300 1.024638
v -0.484200 1.063300 0.188944
v -0.484200 0.574148 0.188944
v -0.000122 0.574148 1.061797
v -0.000122 1.063300 1.061797
v -0.459444 1.063300 1.061797
v -0.459444 0.574148 1.061797
v -0.459444 0.574148 0.151785
v -0.459444 1.063300 0.151785
v -0.000122 1.063300 0.151785
v -0.000122 0.574148 0.151785
v -0.459444 0.574148 1.061797
v -0.459444 1.063300 1.061797
v -0.000122 0.574148 0.151785
v -0.000122 1.063300 0.151785
v -0.000122 1.063300 0.606791
v -0.000122 0.574148 0.606791
v -0.459444 0.574148 0.151785
v -0.459444 1.063300 0.151785
v -0.000122 0.574148 1.061797
v -0.000122 1.063300 1.061797
vn -0.0000 1.0000 -0.0000
vn -1.0000 -0.0000 -0.0000
vn -0.0000 -0.0000 1.0000
vn -0.8817 -0.0000 0.4719
vn -0.9951 -0.0000 0.0985
vn -0.4719 -0.0000 0.8817
vn -0.0985 -0.0000 0.9951
vn -0.9951 -0.0000 -0.0985
vn -0.3615 0.6593 0.6593
vn -0.3615 0.6593 -0.6593
vn -0.3615 -0.6593 -0.6593
vn -0.3615 -0.6593 0.6593
vn 0.6638 0.6638 0.3447
vn -0.6638 0.6638 0.3447
vn -0.6638 -0.6638 0.3447
vn 0.6638 -0.6638 0.3447
vn 1.0000 -0.0000 -0.0000
vn -0.0000 -1.0000 -0.0000
vn -0.0000 -0.0000 -1.0000
vn -0.8817 -0.0000 -0.4719
vn -0.4719 -0.0000 -0.8817
vn -0.0985 -0.0000 -0.9951
vn 0.6638 0.6638 -0.3447
vn -0.6638 0.6638 -0.3447
vn -0.6638 -0.6638 -0.3447
vn 0.6638 -0.6638 -0.3447
vn -0.9571 -0.0000 0.2896
vn -0.9571 -0.0000 -0.2896
vn -0.8322 -0.0000 0.5545
vn -0.8322 -0.0000 -0.5545
vn -0.8322 -0.0000 -0.5544
vt 0.899020 0.764566
vt 0.899020 0.598681
vt 0.896379 0.585476
vt 0.888456 0.577553
vt 0.875251 0.574912
vt 0.788952 0.574912
vt 0.788952 0.788336
vt 0.896379 0.777772
vt 0.888456 0.785695
vt 0.875251 0.788336
vt 0.786911 0.479650
vt 0.786911 0.562033
vt 0.940881 0.562033
vt 0.940881 0.479650
vt 0.786422 0.520661
vt 0.786422 0.479770
vt 0.940898 0.479770
vt 0.940898 0.520661
vt 0.812875 0.800640
vt 0.790791 0.800640
vt 0.790791 0.999558
vt 0.812875 0.999558
vt 0.827011 0.800640
vt 0.812875 0.800640
vt 0.812875 0.999558
vt 0.827011 0.999558
vt 0.849095 0.800640
vt 0.849095 0.999558
vt 0.512479 0.999558
vt 0.780851 0.990066
vt 0.523303 0.990066
vt 0.780851 0.810906
vt 0.512479 0.800640
vt 0.523303 0.810906
vt 0.993420 0.999558
vt 0.983481 0.990066
vt 0.859034 0.990066
vt 0.993420 0.800640
vt 0.983481 0.810906
vt 0.859034 0.810906
vt 0.889962 0.783935
vt 0.889962 0.581297
vt 0.881807 0.583532
vt 0.881807 0.781700
vt 0.929992 0.589104
vt 0.929992 0.730928
vt 0.938146 0.728693
vt 0.938146 0.591340
vt 0.870668 0.581297
vt 0.870668 0.783935
vt 0.878822 0.781700
vt 0.878822 0.583532
vt 0.927448 0.730928
vt 0.927448 0.589104
vt 0.919294 0.591340
vt 0.919294 0.728693
vt 0.944486 0.604936
vt 0.944486 0.755335
vt 0.957712 0.751902
vt 0.957712 0.608370
vt 0.893216 0.591797
vt 0.893216 0.733620
vt 0.901826 0.731385
vt 0.901826 0.594032
vt 0.963032 0.604889
vt 0.963032 0.755288
vt 0.976257 0.751854
vt 0.976257 0.608322
vt 0.914057 0.732812
vt 0.914057 0.590989
vt 0.905447 0.593224
vt 0.905447 0.730577
vt 0.675606 0.991547
vt 0.837744 0.991547
vt 0.837744 0.806843
vt 0.675606 0.806843
vt 0.896379 0.585476
vt 0.899020 0.598681
vt 0.899020 0.764566
vt 0.888456 0.577553
vt 0.875251 0.574912
vt 0.788952 0.574912
vt 0.788952 0.788336
vt 0.896379 0.777772
vt 0.888456 0.785695
vt 0.875251 0.788336
vt 0.786422 0.520661
vt 0.940898 0.520661
vt 0.940898 0.479770
vt 0.786422 0.479770
vt 0.812875 0.800640
vt 0.812875 0.999558
vt 0.790791 0.999558
vt 0.790791 0.800640
vt 0.827011 0.800640
vt 0.827011 0.999558
vt 0.812875 0.999558
vt 0.812875 0.800640
vt 0.849095 0.800640
vt 0.849095 0.999558
vt 0.859034 0.990066
vt 0.983481 0.990066
vt 0.993420 0.999558
vt 0.983481 0.810906
vt 0.993420 0.800640
vt 0.859034 0.810906
vt 0.944486 0.604936
vt 0.957712 0.608370
vt 0.957712 0.751902
vt 0.944486 0.755335
vt 0.893216 0.591797
vt 0.901826 0.594032
vt 0.901826 0.731385
vt 0.893216 0.733620
vt 0.963032 0.604889
vt 0.976257 0.608322
vt 0.976257 0.751854
vt 0.963032 0.755288
vt 0.914057 0.732812
vt 0.905447 0.730577
vt 0.905447 0.593224
vt 0.914057 0.590989
vt 1.000000 0.046750
vt 1.000000 0.000000
vt 0.500000 0.000000
vt 0.500000 0.046750
vt 1.000000 0.046750
vt 1.000000 0.000000
vt 0.500000 0.000000
vt 0.500000 0.046750
vt 1.000000 0.093500
vt 1.000000 0.046750
vt 0.500000 0.046750
vt 0.500000 0.093500
vt 0.719980 0.148624
vt 0.778017 0.148624
vt 0.778017 0.093539
vt 0.778017 0.093539
vt 0.719981 0.093539
vt 0.719980 0.148624
vt 1.000000 0.046750
vt 1.000000 0.000000
vt 0.500000 0.000000
vt 0.500000 0.046750
vt 1.000000 0.046750
vt 1.000000 0.000000
vt 0.500000 0.000000
vt 0.500000 0.046750
vt 1.000000 0.093500
vt 1.000000 0.046750
vt 0.500000 0.046750
vt 0.500000 0.093500
vt 0.719980 0.148624
vt 0.778017 0.148624
vt 0.778017 0.093539
vt 0.778017 0.093539
vt 0.719981 0.093539
vt 0.719980 0.148624
vt 1.000000 0.046750
vt 1.000000 0.093500
vt 1.000000 0.046750
vt 1.000000 0.000000
vt 1.000000 0.046750
vt 1.000000 0.046750
vt 1.000000 0.093500
vt 1.000000 0.046750
vt 1.000000 0.046750
vt 1.000000 0.000000
vt 1.000000 0.046750
vt 0.674031 0.801217
vt 0.524329 0.998379
vt 0.823733 0.998379
vt 0.524329 0.998379
vt 0.823733 0.998379
vt 0.674031 0.801217
vt 0.951729 0.798467
vt 0.951729 0.568301
vt 0.531757 0.568301
vt 0.531757 0.798467
vt 0.674017 0.998607
vt 0.674017 0.803191
vt 0.511016 0.803191
vt 0.511016 0.998607
vt 0.674017 0.998607
vt 0.674017 0.803191
vt 0.511016 0.803191
vt 0.511016 0.998607
vt 0.511016 0.801217
vt 0.511016 0.998379
vt 0.837046 0.998379
vt 0.837046 0.801217
vt 0.837046 0.998379
vt 0.837046 0.801217
vt 0.511016 0.801217
vt 0.511016 0.998379
vt 0.970403 0.798467
vt 0.970403 0.568301
vt 0.511476 0.998792
vt 0.511476 0.804685
vt 0.674205 0.804685
vt 0.674205 0.998792
vt 1.000000 0.046750
vt 1.000000 0.000000
vt 0.500000 0.000000
vt 0.500000 0.046750
vt 1.000000 0.046750
vt 1.000000 0.000000
vt 0.500000 0.000000
vt 0.500000 0.046750
vt 1.000000 0.093500
vt 1.000000 0.046750
vt 0.500000 0.046750
vt 0.500000 0.093500
vt 0.719980 0.148624
vt 0.778017 0.148624
vt 0.778017 0.093539
vt 0.778017 0.093539
vt 0.719981 0.093539
vt 0.719980 0.148624
vt 1.000000 0.046750
vt 1.000000 0.000000
vt 0.500000 0.000000
vt 0.500000 0.046750
vt 1.000000 0.046750
vt 1.000000 0.000000
vt 0.500000 0.000000
vt 0.500000 0.046750
vt 1.000000 0.093500
vt 1.000000 0.046750
vt 0.500000 0.046750
vt 0.500000 0.093500
vt 0.719980 0.148624
vt 0.778017 0.148624
vt 0.778017 0.093539
vt 0.778017 0.093539
vt 0.719981 0.093539
vt 0.719980 0.148624
vt 1.000000 0.046750
vt 1.000000 0.093500
vt 1.000000 0.046750
vt 1.000000 0.000000
vt 1.000000 0.046750
vt 1.000000 0.093500
vt 1.000000 0.046750
vt 1.000000 0.046750
vt 1.000000 0.000000
vt 1.000000 0.046750
vt 0.513083 0.798467
vt 0.513083 0.568301
vt 0.836934 0.998792
vt 0.836934 0.804685
vt 0.951729 0.798467
vt 0.951729 0.568301
vt 0.531757 0.568301
vt 0.531757 0.798467
vt 0.674017 0.998607
vt 0.674017 0.803191
vt 0.511016 0.803191
vt 0.511016 0.998607
vt 0.674017 0.998607
vt 0.674017 0.803191
vt 0.511016 0.803191
vt 0.511016 0.998607
vt 0.970403 0.798467
vt 0.970403 0.568301
vt 0.511476 0.998792
vt 0.511476 0.804685
vt 0.674205 0.804685
vt 0.674205 0.998792
vt 0.513083 0.798467
vt 0.513083 0.568301
vt 0.836934 0.998792
vt 0.836934 0.804685
s 0
usemtl WT_Aircon_0
f 1/1/1 2/2/1 3/3/1
f 1/1/1 3/3/1 4/4/1
f 1/1/1 4/4/1 5/5/1
f 1/1/1 5/5/1 6/6/1
f 1/1/1 6/6/1 7/7/1
f 8/8/1 1/1/1 7/7/1
f 9/9/1 8/8/1 7/7/1
f 10/10/1 9/9/1 7/7/1
f 11/11/2 12/12/2 13/13/2
f 13/13/2 14/14/2 11/11/2
f 15/15/3 16/16/3 17/17/3
f 17/17/3 18/18/3 15/15/3
s 1
f 19/19/4 20/20/5 21/21/5
f 21/21/5 22/22/4 19/19/4
f 23/23/6 24/24/4 25/25/4
f 25/25/4 26/26/6 23/23/6
f 27/27/7 23/23/6 26/26/6
f 26/26/6 28/28/7 27/27/7
f 29/29/8 21/21/5 30/30/2
f 30/30/2 31/31/2 29/29/8
f 21/21/5 20/20/5 32/32/2
f 32/32/2 30/30/2 21/21/5
f 20/20/5 33/33/8 34/34/2
f 34/34/2 32/32/2 20/20/5
f 33/33/8 29/29/8 31/31/2
f 31/31/2 34/34/2 33/33/8
f 28/28/7 35/35/3 36/36/3
f 36/36/3 37/37/3 28/28/7
s 0
f 35/35/3 38/38/3 39/39/3
f 39/39/3 36/36/3 35/35/3
s 1
f 38/38/3 27/27/7 40/40/3
s 0
f 40/40/3 39/39/3 38/38/3
s 1
f 27/27/7 28/28/7 37/37/3
f 37/37/3 40/40/3 27/27/7
f 41/41/9 42/42/10 43/43/10
f 43/43/10 44/44/9 41/41/9
f 45/45/10 46/46/11 47/47/11
f 47/47/11 48/48/10 45/45/10
f 49/49/11 50/50/12 51/51/12
f 51/51/12 52/52/11 49/49/11
f 53/53/12 54/54/9 55/55/9
f 55/55/9 56/56/12 53/53/12
f 57/57/13 58/58/14 59/59/14
f 59/59/14 60/60/13 57/57/13
f 61/61/14 62/62/15 63/63/15
f 63/63/15 64/64/14 61/61/14
f 65/65/15 66/66/16 67/67/16
f 67/67/16 68/68/15 65/65/15
f 69/69/16 70/70/13 71/71/13
f 71/71/13 72/72/16 69/69/16
s 0
f 73/73/17 74/74/17 75/75/17
f 75/75/17 76/76/17 73/73/17
f 77/77/18 78/78/18 79/79/18
f 80/80/18 77/77/18 79/79/18
f 81/81/18 80/80/18 79/79/18
f 82/82/18 81/81/18 79/79/18
f 83/83/18 82/82/18 79/79/18
f 83/83/18 79/79/18 84/84/18
f 83/83/18 84/84/18 85/85/18
f 86/86/18 83/83/18 85/85/18
f 87/87/19 88/88/19 89/89/19
f 89/89/19 90/90/19 87/87/19
s 1
f 91/91/20 92/92/20 93/93/8
f 93/93/8 94/94/8 91/91/20
f 95/95/21 96/96/21 97/97/20
f 97/97/20 98/98/20 95/95/21
f 99/99/22 100/100/22 96/96/21
f 96/96/21 95/95/21 99/99/22
f 100/100/22 101/101/19 102/102/19
f 102/102/19 103/103/19 100/100/22
s 0
f 103/103/19 102/102/19 104/104/19
f 104/104/19 105/105/19 103/103/19
f 105/105/19 104/104/19 106/106/19
s 1
f 106/106/19 99/99/22 105/105/19
f 99/99/22 106/106/19 101/101/19
f 101/101/19 100/100/22 99/99/22
f 107/107/23 108/108/23 109/109/24
f 109/109/24 110/110/24 107/107/23
f 111/111/24 112/112/24 113/113/25
f 113/113/25 114/114/25 111/111/24
f 115/115/25 116/116/25 117/117/26
f 117/117/26 118/118/26 115/115/25
f 119/119/26 120/120/26 121/121/23
f 121/121/23 122/122/23 119/119/26
s 0
f 123/123/19 124/124/19 125/125/19
f 125/125/19 126/126/19 123/123/19
f 127/127/3 128/128/3 129/129/3
f 129/129/3 130/130/3 127/127/3
f 131/131/18 132/132/18 133/133/18
f 133/133/18 134/134/18 131/131/18
f 135/135/2 136/136/2 137/137/2
f 138/138/2 139/139/2 140/140/2
f 141/141/19 142/142/19 143/143/19
f 143/143/19 144/144/19 141/141/19
f 145/145/3 146/146/3 147/147/3
f 147/147/3 148/148/3 145/145/3
f 149/149/18 150/150/18 151/151/18
f 151/151/18 152/152/18 149/149/18
f 153/153/2 154/154/2 155/155/2
f 156/156/2 157/157/2 158/158/2
f 159/159/17 160/160/17 161/161/17
f 161/161/17 162/162/17 163/163/17
f 164/164/17 165/165/17 166/166/17
f 167/167/17 168/168/17 169/169/17
f 170/170/18 171/171/18 172/172/18
f 173/173/1 174/174/1 175/175/1
s 1
f 176/176/27 177/177/27 178/178/28
f 178/178/28 179/179/28 176/176/27
s 0
f 180/180/3 181/181/3 182/182/3
f 182/182/3 183/183/3 180/180/3
f 184/184/19 185/185/19 186/186/19
f 186/186/19 187/187/19 184/184/19
f 188/188/18 189/189/18 171/171/18
f 171/171/18 170/170/18 188/188/18
f 190/190/18 191/191/18 170/170/18
f 170/170/18 172/172/18 190/190/18
f 192/192/1 193/193/1 175/175/1
f 175/175/1 174/174/1 192/192/1
f 194/194/1 195/195/1 173/173/1
f 173/173/1 175/175/1 194/194/1
s 1
f 196/196/29 197/197/29 177/177/27
f 177/177/27 176/176/27 196/196/29
s 0
f 198/198/17 199/199/17 200/200/17
f 200/200/17 201/201/17 198/198/17
f 202/202/19 203/203/19 204/204/19
f 204/204/19 205/205/19 202/202/19
f 206/206/3 207/207/3 208/208/3
f 208/208/3 209/209/3 206/206/3
f 210/210/18 211/211/18 212/212/18
f 212/212/18 213/213/18 210/210/18
f 214/214/2 215/215/2 216/216/2
f 217/217/2 218/218/2 219/219/2
f 220/220/19 221/221/19 222/222/19
f 222/222/19 223/223/19 220/220/19
f 224/224/3 225/225/3 226/226/3
f 226/226/3 227/227/3 224/224/3
f 228/228/18 229/229/18 230/230/18
f 230/230/18 231/231/18 228/228/18
f 232/232/2 233/233/2 234/234/2
f 235/235/2 236/236/2 237/237/2
f 238/238/17 239/239/17 240/240/17
f 240/240/17 241/241/17 238/238/17
f 242/242/17 243/243/17 244/244/17
f 245/245/17 246/246/17 247/247/17
s 1
f 248/248/30 179/179/28 178/178/28
f 178/178/28 249/249/31 248/248/30
s 0
f 250/250/17 201/201/17 200/200/17
f 200/200/17 251/251/17 250/250/17
s 1
f 252/252/27 253/253/27 254/254/28
f 254/254/28 255/255/28 252/252/27
s 0
f 256/256/3 257/257/3 258/258/3
f 258/258/3 259/259/3 256/256/3
f 260/260/19 261/261/19 262/262/19
f 262/262/19 263/263/19 260/260/19
s 1
f 264/264/29 265/265/29 253/253/27
f 253/253/27 252/252/27 264/264/29
s 0
f 266/266/17 267/267/17 268/268/17
f 268/268/17 269/269/17 266/266/17
s 1
f 270/270/30 255/255/28 254/254/28
f 254/254/28 271/271/30 270/270/30
s 0
f 272/272/17 269/269/17 268/268/17
f 268/268/17 273/273/17 272/272/17
