# Blender 3.4.0
# www.blender.org
mtllib bollard_3.mtl
o SP_TNR_Bollard_2_SP_TNR_Bollard_1-4_0
v -0.006714 -0.000937 0.425810
v -0.006714 0.512376 0.425810
v -0.052587 0.501405 0.399325
v -0.052587 -0.000937 0.399325
v -0.052587 0.479465 0.346355
v -0.052587 -0.000937 0.346355
v -0.006714 0.468494 0.319870
v -0.006714 -0.000937 0.319870
v -0.006714 -0.000937 0.319870
v -0.006714 0.468494 0.319870
v 0.039160 0.479465 0.346355
v 0.039160 -0.000937 0.346355
v 0.039160 0.501405 0.399325
v 0.039160 -0.000937 0.399325
v -0.006714 0.728019 0.287268
v -0.052587 0.706705 0.271126
v -0.052587 0.619639 0.358192
v -0.006714 0.635780 0.379506
v -0.052587 0.664078 0.238842
v -0.052587 0.587355 0.315566
v -0.006714 0.642765 0.222700
v -0.006714 0.571213 0.294252
v -0.006714 0.642765 0.222700
v 0.039160 0.664078 0.238842
v 0.039160 0.587355 0.315566
v -0.006714 0.571213 0.294252
v 0.039160 0.706705 0.271126
v 0.039160 0.619639 0.358192
v -0.006714 0.728019 0.287268
v -0.006714 0.635780 0.379506
v -0.006714 0.789091 0.177543
v -0.006714 0.789091 -0.165530
v -0.052587 0.762606 -0.154559
v -0.052587 0.762606 0.166572
v -0.052587 0.709636 -0.132618
v -0.052587 0.709636 0.144632
v -0.006714 0.683151 -0.121648
v -0.006714 0.683151 0.133661
v -0.006714 0.683151 0.133661
v -0.006714 0.683151 -0.121648
v 0.039160 0.709636 -0.132618
v 0.039160 0.709636 0.144632
v 0.039160 0.762606 -0.154559
v 0.039160 0.762606 0.166572
v -0.006714 0.789091 -0.165530
v -0.006714 0.789091 0.177543
v -0.006714 0.646602 -0.372145
v -0.052587 0.630460 -0.350831
v -0.052587 0.717527 -0.263765
v -0.006714 0.738841 -0.279906
v -0.052587 0.598176 -0.308205
v -0.052587 0.674900 -0.231481
v -0.006714 0.582035 -0.286891
v -0.006714 0.653587 -0.215339
v -0.006714 0.582035 -0.286891
v 0.039160 0.598176 -0.308205
v 0.039160 0.674900 -0.231481
v -0.006714 0.653587 -0.215339
v 0.039160 0.630460 -0.350831
v 0.039160 0.717527 -0.263765
v -0.006714 0.646602 -0.372145
v -0.006714 0.738841 -0.279906
v -0.006714 0.512376 -0.417188
v -0.006714 -0.000937 -0.417188
v -0.052587 -0.000937 -0.390703
v -0.052587 0.501405 -0.390703
v -0.052587 -0.000937 -0.337733
v -0.052587 0.479465 -0.337733
v -0.006714 -0.000937 -0.311248
v -0.006714 0.468494 -0.311248
v -0.006714 0.468494 -0.311248
v -0.006714 -0.000937 -0.311248
v 0.039160 -0.000937 -0.337733
v 0.039160 0.479465 -0.337733
v 0.039160 -0.000937 -0.390703
v 0.039160 0.501405 -0.390703
v -0.006714 0.789091 0.177543
v -0.052587 0.762606 0.166572
v -0.052587 0.501405 0.399325
v -0.006714 0.512376 0.425810
v -0.052587 0.709636 0.144632
v -0.052587 0.479465 0.346355
v -0.006714 0.683151 0.133661
v -0.006714 0.468494 0.319870
v -0.006714 0.683151 0.133661
v 0.039160 0.709636 0.144632
v 0.039160 0.479465 0.346355
v -0.006714 0.468494 0.319870
v 0.039160 0.762606 0.166572
v 0.039160 0.501405 0.399325
v -0.006714 0.789091 0.177543
v -0.006714 0.512376 0.425810
v -0.006714 0.512376 -0.417188
v -0.052587 0.501405 -0.390703
v -0.052587 0.762606 -0.154559
v -0.006714 0.789091 -0.165530
v -0.052587 0.479465 -0.337733
v -0.052587 0.709636 -0.132618
v -0.006714 0.468494 -0.311248
v -0.006714 0.683151 -0.121648
v -0.006714 0.468494 -0.311248
v 0.039160 0.479465 -0.337733
v 0.039160 0.709636 -0.132618
v -0.006714 0.683151 -0.121648
v 0.039160 0.501405 -0.390703
v 0.039160 0.762606 -0.154559
v -0.006714 0.512376 -0.417188
v -0.006714 0.789091 -0.165530
v 0.080717 0.043352 0.295979
v -0.087996 0.043352 0.295979
v -0.087996 0.043352 0.461845
v 0.080717 0.043352 0.461845
v 0.080717 0.043352 0.295979
v 0.080717 0.000036 0.295979
v -0.087996 0.000036 0.295979
v -0.087996 0.043352 0.295979
v -0.087996 0.043352 0.295979
v -0.087996 0.000036 0.295979
v -0.087996 0.000036 0.461845
v -0.087996 0.043352 0.461845
v -0.087996 0.043352 0.461845
v -0.087996 0.000036 0.461845
v 0.080717 0.000036 0.461845
v 0.080717 0.043352 0.461845
v 0.080717 0.043352 0.461845
v 0.080717 0.000036 0.461845
v 0.080717 0.000036 0.295979
v 0.080717 0.043352 0.295979
v 0.079293 0.043352 -0.281399
v 0.079293 0.043352 -0.450111
v -0.086573 0.043352 -0.450111
v -0.086573 0.043352 -0.281399
v 0.079293 0.043352 -0.281399
v 0.079293 0.000036 -0.281399
v 0.079293 0.000036 -0.450112
v 0.079293 0.043352 -0.450111
v 0.079293 0.043352 -0.450111
v 0.079293 0.000036 -0.450112
v -0.086573 0.000036 -0.450112
v -0.086573 0.043352 -0.450111
v -0.086573 0.043352 -0.450111
v -0.086573 0.000036 -0.450112
v -0.086573 0.000036 -0.281399
v -0.086573 0.043352 -0.281399
v -0.086573 0.043352 -0.281399
v -0.086573 0.000036 -0.281399
v 0.079293 0.000036 -0.281399
v 0.079293 0.043352 -0.281399
vn -0.0000 -0.0000 1.0000
vn -0.0000 0.1852 0.9827
vn -0.8461 0.0853 0.5262
vn -0.8660 -0.0000 0.5000
vn -0.8862 -0.0657 -0.4586
vn -0.8660 -0.0000 -0.5000
vn -0.0000 -0.1191 -0.9929
vn -0.0000 -0.0000 -1.0000
vn 0.8862 -0.0657 -0.4586
vn 0.8660 -0.0000 -0.5000
vn 0.8461 0.0853 0.5262
vn 0.8660 -0.0000 0.5000
vn -0.0000 0.8001 0.5998
vn -0.8493 0.4226 0.3165
vn -0.8398 0.2889 0.4597
vn -0.0000 0.5419 0.8405
vn -0.8919 -0.3695 -0.2607
vn -0.9036 -0.2181 -0.3687
vn -0.0000 -0.8194 -0.5733
vn -0.0000 -0.4912 -0.8711
vn 0.8919 -0.3694 -0.2607
vn 0.9036 -0.2182 -0.3687
vn 0.8493 0.4226 0.3165
vn 0.8398 0.2889 0.4597
vn -0.0000 0.9660 0.2584
vn -0.0000 0.9771 -0.2126
vn -0.8434 0.5277 -0.1005
vn -0.8387 0.5293 0.1280
vn -0.8913 -0.4466 0.0783
vn -0.9005 -0.4233 -0.0998
vn -0.0000 -0.9890 0.1479
vn -0.0000 -0.9789 -0.2045
vn 0.8913 -0.4466 0.0783
vn 0.9005 -0.4233 -0.0998
vn 0.8434 0.5277 -0.1005
vn 0.8387 0.5293 0.1280
vn -0.0000 0.5285 -0.8490
vn -0.8375 0.2817 -0.4681
vn -0.8433 0.4462 -0.2997
vn -0.0000 0.8264 -0.5631
vn -0.9058 -0.2104 0.3679
vn -0.8996 -0.3696 0.2324
vn -0.0000 -0.4744 0.8803
vn -0.0000 -0.8539 0.5204
vn 0.9058 -0.2104 0.3678
vn 0.8996 -0.3697 0.2324
vn 0.8376 0.2817 -0.4681
vn 0.8433 0.4462 -0.2997
vn -0.0000 0.1676 -0.9859
vn -0.8477 0.0759 -0.5250
vn -0.8832 -0.0584 0.4654
vn -0.0000 -0.1033 0.9947
vn -0.0000 -0.1033 0.9946
vn 0.8832 -0.0584 0.4654
vn 0.8477 0.0759 -0.5250
vn -0.8862 -0.0658 -0.4587
vn 0.8862 -0.0658 -0.4587
vn -0.0000 1.0000 -0.0000
vn -1.0000 -0.0000 -0.0000
vn 1.0000 -0.0000 -0.0000
vt 0.099136 0.456735
vt 0.099137 0.303411
vt 0.071952 0.306466
vt 0.071952 0.456514
vt 0.044767 0.312578
vt 0.044767 0.456072
vt 0.017583 0.315634
vt 0.017582 0.455850
vt 0.180689 0.455853
vt 0.180689 0.315639
vt 0.153505 0.312582
vt 0.153505 0.456072
vt 0.126321 0.306469
vt 0.126321 0.456514
vt 0.658965 0.906516
vt 0.635123 0.914405
vt 0.635644 0.870171
vt 0.658838 0.859705
vt 0.620939 0.919830
vt 0.618514 0.879595
vt 0.597268 0.928662
vt 0.595230 0.892080
vt 0.914540 0.923403
vt 0.891129 0.914689
vt 0.893167 0.875019
vt 0.916170 0.887376
vt 0.875528 0.911217
vt 0.875722 0.867063
vt 0.851932 0.903173
vt 0.852669 0.856190
vt 0.792770 0.841578
vt 0.792770 0.976044
vt 0.811183 0.971736
vt 0.811183 0.845870
vt 0.827109 0.962654
vt 0.827109 0.853987
vt 0.845523 0.958345
vt 0.845522 0.858278
vt 0.792586 0.734510
vt 0.792586 0.835262
vt 0.811125 0.839599
vt 0.811125 0.730189
vt 0.826441 0.849214
vt 0.826440 0.722487
vt 0.844980 0.853551
vt 0.844980 0.718166
vt 0.593585 0.831889
vt 0.616708 0.821421
vt 0.617534 0.777498
vt 0.593805 0.785058
vt 0.635119 0.812477
vt 0.633667 0.772800
vt 0.658241 0.800350
vt 0.657220 0.764478
vt 0.855172 0.799940
vt 0.878061 0.812518
vt 0.880753 0.772743
vt 0.857378 0.763920
vt 0.897314 0.824476
vt 0.896571 0.781055
vt 0.920069 0.834788
vt 0.920112 0.788795
vt 0.269696 0.306110
vt 0.269696 0.459431
vt 0.296880 0.459653
vt 0.296881 0.309608
vt 0.324064 0.460097
vt 0.324065 0.316604
vt 0.351249 0.460320
vt 0.351250 0.320103
vt 0.188143 0.320104
vt 0.188144 0.460320
vt 0.215328 0.460097
vt 0.215327 0.316604
vt 0.242512 0.459653
vt 0.242512 0.309608
vt 0.659751 0.962259
vt 0.636017 0.967884
vt 0.633633 0.847796
vt 0.656932 0.834310
vt 0.621717 0.968031
vt 0.613999 0.861568
vt 0.598001 0.973911
vt 0.592273 0.877087
vt 0.913986 0.968241
vt 0.890487 0.962484
vt 0.897931 0.857187
vt 0.919147 0.872676
vt 0.875210 0.964081
vt 0.878139 0.844740
vt 0.851552 0.958648
vt 0.855069 0.830792
vt 0.595916 0.857003
vt 0.619152 0.843354
vt 0.618559 0.722457
vt 0.594801 0.727411
vt 0.640229 0.830104
vt 0.634190 0.722737
vt 0.661424 0.814851
vt 0.657788 0.717418
vt 0.851745 0.814530
vt 0.872943 0.830044
vt 0.881431 0.722830
vt 0.858007 0.716970
vt 0.894917 0.846139
vt 0.897361 0.725971
vt 0.917827 0.859517
vt 0.920797 0.731551
vt 0.368303 0.352672
vt 0.454027 0.346648
vt 0.448104 0.262369
vt 0.362380 0.268394
vt 0.448316 0.123763
vt 0.448316 0.101699
vt 0.362380 0.101699
vt 0.362380 0.123763
vt 0.547589 0.163389
vt 0.547589 0.141325
vt 0.463102 0.141325
vt 0.463103 0.163389
vt 0.448316 0.154901
vt 0.448316 0.132838
vt 0.362380 0.132838
vt 0.362380 0.154901
vt 0.547589 0.132250
vt 0.547589 0.110187
vt 0.463102 0.110187
vt 0.463102 0.132250
vt 0.368681 0.452408
vt 0.454378 0.445999
vt 0.448077 0.361747
vt 0.362380 0.368157
vt 0.646595 0.352672
vt 0.646595 0.330609
vt 0.560659 0.330609
vt 0.560659 0.352672
vt 0.453019 0.554518
vt 0.475083 0.554518
vt 0.475083 0.470031
vt 0.453019 0.470031
vt 0.549039 0.256558
vt 0.549039 0.234494
vt 0.463102 0.234494
vt 0.463102 0.256558
vt 0.641151 0.163389
vt 0.641151 0.141325
vt 0.556664 0.141325
vt 0.556664 0.163389
s 1
usemtl SP_TNR_Bollard_1-4_1
f 1/1/1 2/2/2 3/3/3
f 1/1/1 3/3/3 4/4/4
f 4/4/4 3/3/3 5/5/5
f 4/4/4 5/5/5 6/6/6
f 6/6/6 5/5/5 7/7/7
f 6/6/6 7/7/7 8/8/8
f 9/9/8 10/10/7 11/11/9
f 9/9/8 11/11/9 12/12/10
f 12/12/10 11/11/9 13/13/11
f 12/12/10 13/13/11 14/14/12
f 14/14/12 13/13/11 2/2/2
f 14/14/12 2/2/2 1/1/1
f 15/15/13 16/16/14 17/17/15
f 15/15/13 17/17/15 18/18/16
f 16/16/14 19/19/17 20/20/18
f 16/16/14 20/20/18 17/17/15
f 19/19/17 21/21/19 22/22/20
f 19/19/17 22/22/20 20/20/18
f 23/23/19 24/24/21 25/25/22
f 23/23/19 25/25/22 26/26/20
f 24/24/21 27/27/23 28/28/24
f 24/24/21 28/28/24 25/25/22
f 27/27/23 29/29/13 30/30/16
f 27/27/23 30/30/16 28/28/24
f 31/31/25 32/32/26 33/33/27
f 31/31/25 33/33/27 34/34/28
f 34/34/28 33/33/27 35/35/29
f 34/34/28 35/35/29 36/36/30
f 36/36/30 35/35/29 37/37/31
f 36/36/30 37/37/31 38/38/32
f 39/39/32 40/40/31 41/41/33
f 39/39/32 41/41/33 42/42/34
f 42/42/34 41/41/33 43/43/35
f 42/42/34 43/43/35 44/44/36
f 44/44/36 43/43/35 45/45/26
f 44/44/36 45/45/26 46/46/25
f 47/47/37 48/48/38 49/49/39
f 47/47/37 49/49/39 50/50/40
f 48/48/38 51/51/41 52/52/42
f 48/48/38 52/52/42 49/49/39
f 51/51/41 53/53/43 54/54/44
f 51/51/41 54/54/44 52/52/42
f 55/55/43 56/56/45 57/57/46
f 55/55/43 57/57/46 58/58/44
f 56/56/45 59/59/47 60/60/48
f 56/56/45 60/60/48 57/57/46
f 59/59/47 61/61/37 62/62/40
f 59/59/47 62/62/40 60/60/48
f 63/63/49 64/64/8 65/65/6
f 63/63/49 65/65/6 66/66/50
f 66/66/50 65/65/6 67/67/4
f 66/66/50 67/67/4 68/68/51
f 68/68/51 67/67/4 69/69/1
f 68/68/51 69/69/1 70/70/52
f 71/71/53 72/72/1 73/73/12
f 71/71/53 73/73/12 74/74/54
f 74/74/54 73/73/12 75/75/10
f 74/74/54 75/75/10 76/76/55
f 76/76/55 75/75/10 64/64/8
f 76/76/55 64/64/8 63/63/49
f 15/15/13 77/77/25 78/78/28
f 15/15/13 78/78/28 16/16/14
f 79/79/3 80/80/2 18/18/16
f 79/79/3 18/18/16 17/17/15
f 16/16/14 78/78/28 81/81/30
f 16/16/14 81/81/30 19/19/17
f 82/82/56 79/79/3 17/17/15
f 82/82/56 17/17/15 20/20/18
f 19/19/17 81/81/30 83/83/32
f 19/19/17 83/83/32 21/21/19
f 84/84/7 82/82/56 20/20/18
f 84/84/7 20/20/18 22/22/20
f 85/85/32 86/86/34 24/24/21
f 85/85/32 24/24/21 23/23/19
f 25/25/22 87/87/57 88/88/7
f 25/25/22 88/88/7 26/26/20
f 86/86/34 89/89/36 27/27/23
f 86/86/34 27/27/23 24/24/21
f 28/28/24 90/90/11 87/87/57
f 28/28/24 87/87/57 25/25/22
f 89/89/36 91/91/25 29/29/13
f 89/89/36 29/29/13 27/27/23
f 30/30/16 92/92/2 90/90/11
f 30/30/16 90/90/11 28/28/24
f 47/47/37 93/93/49 94/94/50
f 47/47/37 94/94/50 48/48/38
f 95/95/27 96/96/26 50/50/40
f 95/95/27 50/50/40 49/49/39
f 48/48/38 94/94/50 97/97/51
f 48/48/38 97/97/51 51/51/41
f 98/98/29 95/95/27 49/49/39
f 98/98/29 49/49/39 52/52/42
f 51/51/41 97/97/51 99/99/53
f 51/51/41 99/99/53 53/53/43
f 100/100/31 98/98/29 52/52/42
f 100/100/31 52/52/42 54/54/44
f 101/101/53 102/102/54 56/56/45
f 101/101/53 56/56/45 55/55/43
f 57/57/46 103/103/33 104/104/31
f 57/57/46 104/104/31 58/58/44
f 102/102/54 105/105/55 59/59/47
f 102/102/54 59/59/47 56/56/45
f 60/60/48 106/106/35 103/103/33
f 60/60/48 103/103/33 57/57/46
f 105/105/55 107/107/49 61/61/37
f 105/105/55 61/61/37 59/59/47
f 62/62/40 108/108/26 106/106/35
f 62/62/40 106/106/35 60/60/48
s 0
f 109/109/58 110/110/58 111/111/58
f 109/109/58 111/111/58 112/112/58
f 113/113/8 114/114/8 115/115/8
f 113/113/8 115/115/8 116/116/8
f 117/117/59 118/118/59 119/119/59
f 117/117/59 119/119/59 120/120/59
f 121/121/1 122/122/1 123/123/1
f 121/121/1 123/123/1 124/124/1
f 125/125/60 126/126/60 127/127/60
f 125/125/60 127/127/60 128/128/60
f 129/129/58 130/130/58 131/131/58
f 129/129/58 131/131/58 132/132/58
f 133/133/60 134/134/60 135/135/60
f 133/133/60 135/135/60 136/136/60
f 137/137/8 138/138/8 139/139/8
f 137/137/8 139/139/8 140/140/8
f 141/141/59 142/142/59 143/143/59
f 141/141/59 143/143/59 144/144/59
f 145/145/1 146/146/1 147/147/1
f 145/145/1 147/147/1 148/148/1
