# Blender 3.4.0
# www.blender.org
mtllib bollard_5.mtl
o SP_AFG_Bollard_1_SP_AFG_Bollard_1-2_0
v 0.087891 0.827794 0.087402
v 0.000244 0.827794 0.123947
v 0.000244 0.816091 0.101929
v 0.072266 0.816091 0.071899
v 0.087402 0.878318 -0.087906
v 0.123901 0.878318 -0.000336
v 0.123901 0.827794 -0.000336
v 0.087402 0.827794 -0.087906
v 0.087891 0.878318 0.087402
v 0.000244 0.878318 0.123947
v 0.000244 0.878318 0.123947
v -0.087402 0.878318 0.087891
v -0.087402 0.827794 0.087891
v 0.000244 0.827794 0.123947
v -0.123901 0.878318 0.000336
v -0.087402 0.878318 0.087891
v -0.078003 0.889717 0.078384
v -0.110474 0.889717 0.000290
v 0.000244 0.878318 0.123947
v 0.000244 0.889717 0.110519
v 0.087891 0.878318 0.087402
v 0.078369 0.889717 0.077942
v 0.123901 0.878318 -0.000336
v 0.110596 0.889717 -0.000320
v 0.087402 0.878318 -0.087906
v 0.077881 0.889717 -0.078384
v -0.000244 0.889717 -0.110550
v -0.078491 0.889717 -0.077942
v 0.087402 0.750705 -0.087906
v 0.123901 0.750705 -0.000336
v 0.123901 0.693377 -0.000336
v 0.087402 0.693377 -0.087906
v 0.087891 0.750705 0.087402
v 0.087891 0.693377 0.087402
v -0.000244 0.761319 -0.101959
v 0.071899 0.761319 -0.072296
v -0.000366 0.750705 -0.123978
v 0.101929 0.761319 -0.000275
v 0.072266 0.761319 0.071899
v 0.000244 0.761319 0.101929
v 0.000244 0.750704 0.123947
v 0.000244 0.761319 0.101929
v -0.071899 0.761319 0.072296
v -0.087402 0.750054 0.087891
v 0.000244 0.750704 0.123947
v -0.101929 0.761319 0.000275
v -0.123901 0.750705 0.000336
v -0.072266 0.761319 -0.071899
v -0.087891 0.750705 -0.087418
v 0.071899 0.816091 -0.072296
v 0.101929 0.816091 -0.000275
v 0.000244 0.816091 0.101929
v -0.071899 0.816091 0.072296
v 0.000244 0.693377 0.123947
v 0.000244 0.067118 0.123947
v 0.087891 0.067118 0.087402
v 0.087891 0.067118 0.087402
v 0.000244 0.067118 0.123947
v 0.000610 0.067117 0.227570
v 0.228271 0.067117 0.226944
v 0.227661 0.067118 -0.000641
v 0.123901 0.067118 -0.000366
v -0.087402 0.693377 0.087891
v 0.000244 0.693377 0.123947
v -0.087402 0.067118 0.087891
v 0.000244 0.067118 0.123947
v -0.087402 0.067118 0.087891
v -0.227051 0.067117 0.228195
v 0.228271 0.067117 0.226944
v 0.000610 0.067117 0.227570
v 0.000610 0.049581 0.245102
v 0.245850 0.049581 0.244431
v 0.228271 0.067117 0.226944
v 0.245850 0.049581 0.244431
v 0.245117 0.049581 -0.000671
v 0.227661 0.067118 -0.000641
v 0.123901 0.067118 -0.000366
v 0.226929 0.067118 -0.228210
v 0.087402 0.067118 -0.087906
v 0.226929 0.067118 -0.228210
v 0.244385 0.049582 -0.245804
v 0.245117 -0.023392 -0.000671
v 0.244385 -0.023390 -0.245804
v 0.245850 -0.023392 0.244431
v 0.000610 -0.023392 0.245102
v 0.245850 -0.023392 0.244431
v -0.244385 0.049581 0.245773
v -0.244385 -0.023392 0.245773
v 0.087402 0.067118 -0.087906
v -0.000610 0.067118 -0.227585
v -0.000366 0.067118 -0.123978
v -0.228149 0.067118 -0.226944
v -0.087891 0.067118 -0.087418
v -0.227661 0.067118 0.000610
v -0.123901 0.067118 0.000336
v -0.227051 0.067117 0.228195
v -0.000366 0.878318 -0.123978
v -0.087891 0.878318 -0.087418
v -0.123901 0.827794 0.000336
v -0.123901 0.878318 0.000336
v -0.000366 0.827794 -0.123978
v -0.087891 0.827794 -0.087418
v -0.087891 0.878318 -0.087418
v -0.000366 0.878318 -0.123978
v -0.101929 0.816091 0.000275
v -0.072266 0.816091 -0.071899
v -0.000244 0.816091 -0.101959
v -0.123901 0.693377 0.000336
v -0.123901 0.067118 0.000336
v -0.087891 0.693377 -0.087418
v -0.087891 0.067118 -0.087418
v -0.000366 0.693377 -0.123978
v -0.000366 0.067118 -0.123978
v 0.244385 -0.023390 -0.245804
v -0.000732 -0.023390 -0.245117
v -0.000732 0.049582 -0.245117
v 0.244385 0.049582 -0.245804
v -0.245728 -0.023390 -0.244446
v -0.245728 0.049582 -0.244446
v -0.228149 0.067118 -0.226944
v -0.000610 0.067118 -0.227585
v 0.226929 0.067118 -0.228210
v -0.245728 -0.023390 -0.244446
v -0.245117 -0.023392 0.000671
v -0.245117 0.049581 0.000671
v -0.245728 0.049582 -0.244446
v -0.244385 -0.023392 0.245773
v -0.244385 0.049581 0.245773
v -0.227051 0.067117 0.228195
v -0.227661 0.067118 0.000610
v -0.228149 0.067118 -0.226944
vn 0.6271 -0.4664 0.6239
vn 0.0021 -0.4662 0.8847
vn 0.0024 -0.5796 0.8149
vn 0.5778 -0.5794 0.5748
vn 0.6509 0.3850 -0.6543
vn 0.9230 0.3847 -0.0024
vn 0.8849 -0.4658 -0.0024
vn 0.6239 -0.4663 -0.6272
vn 0.6543 0.3848 0.6510
vn 0.0022 0.3852 0.9229
vn 0.0022 0.3851 0.9229
vn -0.6509 0.3854 0.6541
vn -0.6239 -0.4665 0.6270
vn -0.9228 0.3852 0.0025
vn -0.2931 0.9095 0.2947
vn -0.4158 0.9095 0.0011
vn 0.0021 0.3852 0.9228
vn 0.0013 0.9095 0.4158
vn 0.2955 0.9092 0.2935
vn 0.4165 0.9091 -0.0013
vn 0.2935 0.9093 -0.2949
vn -0.0009 0.9095 -0.4157
vn -0.2954 0.9093 -0.2931
vn 0.6188 0.4804 -0.6215
vn 0.8771 0.4804 -0.0022
vn 1.0000 -0.0001 -0.0027
vn 0.7052 -0.0000 -0.7090
vn 0.6216 0.4808 0.6185
vn 0.7090 -0.0000 0.7052
vn -0.0024 0.5998 -0.8002
vn 0.5643 0.5999 -0.5672
vn -0.0026 0.4803 -0.8771
vn 0.8002 0.5997 -0.0021
vn 0.5672 0.5998 0.5643
vn -0.0001 0.5971 0.8021
vn 0.0006 0.4792 0.8777
vn -0.5677 0.5930 0.5710
vn -0.6209 0.4744 0.6240
vn 0.0005 0.4791 0.8777
vn -0.8023 0.5969 0.0047
vn -0.8778 0.4790 0.0039
vn -0.5676 0.5996 -0.5642
vn -0.6223 0.4801 -0.6182
vn 0.5746 -0.5796 -0.5778
vn 0.8150 -0.5794 -0.0022
vn -0.5747 -0.5794 0.5779
vn 0.0025 -0.0000 1.0000
vn 0.7091 -0.0000 0.7051
vn -0.0000 1.0000 -0.0000
vn 0.0011 0.9238 0.3828
vn 0.3012 0.9053 0.2994
vn 0.3831 0.9237 -0.0011
vn -0.7053 -0.0000 0.7089
vn -0.7054 -0.0000 0.7088
vn -0.3000 0.9052 0.3010
vn 0.3012 0.9053 0.2995
vn 0.0010 0.9238 0.3828
vn 0.0026 0.3826 0.9239
vn 0.6526 0.3913 0.6489
vn 0.6526 0.3912 0.6489
vn 0.9241 0.3821 -0.0027
vn 1.0000 -0.0002 -0.0028
vn 0.2999 0.9053 -0.3009
vn 0.6488 0.3912 -0.6527
vn 1.0000 -0.0000 -0.0029
vn 0.7051 -0.0000 -0.7091
vn 0.0028 -0.0000 1.0000
vn -0.6488 0.3911 0.6528
vn -0.7051 -0.0000 0.7091
vn 0.7052 -0.0002 -0.7090
vn -0.0011 0.9239 -0.3826
vn -0.3011 0.9054 -0.2992
vn -0.3831 0.9237 0.0010
vn -0.0029 0.3853 -0.9228
vn -0.6543 0.3852 -0.6507
vn -0.8848 -0.4660 0.0024
vn -0.0026 -0.4664 -0.8846
vn -0.6275 -0.4661 -0.6237
vn -0.8150 -0.5794 0.0022
vn -0.5779 -0.5795 -0.5747
vn -0.0023 -0.5799 -0.8147
vn -1.0000 -0.0000 0.0026
vn -1.0000 -0.0000 0.0027
vn -0.7092 -0.0000 -0.7050
vn -0.7091 -0.0000 -0.7051
vn -0.0031 -0.0000 -1.0000
vn -0.0027 -0.0000 -1.0000
vn -0.0025 0.3827 -0.9239
vn -0.7090 -0.0000 -0.7052
vn -0.6525 0.3913 -0.6490
vn -0.3012 0.9054 -0.2993
vn -0.0011 0.9239 -0.3825
vn 0.3000 0.9053 -0.3009
vn -1.0000 -0.0000 0.0028
vn -0.9241 0.3821 0.0025
vn -0.6525 0.3914 -0.6489
vn -0.6488 0.3911 0.6527
vt 0.509382 0.560035
vt 0.442971 0.560035
vt 0.442971 0.587839
vt 0.509382 0.587839
vt 0.642181 0.522914
vt 0.574668 0.522914
vt 0.574668 0.560035
vt 0.642181 0.560035
vt 0.509382 0.522914
vt 0.442971 0.522914
vt 0.987040 0.522914
vt 0.918859 0.522914
vt 0.918859 0.560035
vt 0.987040 0.560035
vt 0.337604 0.129915
vt 0.360355 0.187224
vt 0.368843 0.179128
vt 0.349328 0.130145
vt 0.417297 0.210795
vt 0.417428 0.199045
vt 0.474357 0.186585
vt 0.466035 0.178193
vt 0.497701 0.128482
vt 0.485653 0.128515
vt 0.473883 0.070972
vt 0.465744 0.079427
vt 0.417298 0.059850
vt 0.369216 0.080929
vt 0.642181 0.639677
vt 0.574668 0.639677
vt 0.574668 0.671440
vt 0.642181 0.671440
vt 0.509382 0.639677
vt 0.509382 0.671440
vt 0.712039 0.615176
vt 0.642181 0.615176
vt 0.712039 0.639677
vt 0.574668 0.615176
vt 0.509382 0.615176
vt 0.442971 0.615176
vt 0.442971 0.639677
vt 0.987040 0.615176
vt 0.918859 0.615176
vt 0.918859 0.639677
vt 0.987040 0.639677
vt 0.849971 0.615176
vt 0.849971 0.639677
vt 0.781258 0.615176
vt 0.781258 0.639677
vt 0.642181 0.587839
vt 0.574668 0.587839
vt 0.987040 0.587839
vt 0.918859 0.587839
vt 0.442971 0.671440
vt 0.442971 0.983484
vt 0.509382 0.983484
vt 0.704241 0.424783
vt 0.648660 0.447442
vt 0.648332 0.512963
vt 0.792280 0.513724
vt 0.793041 0.369826
vt 0.727482 0.369472
vt 0.918859 0.671440
vt 0.987040 0.671440
vt 0.918859 0.983484
vt 0.987040 0.983484
vt 0.593400 0.424189
vt 0.504435 0.512190
vt 0.317759 0.082380
vt 0.173810 0.083059
vt 0.173903 0.098736
vt 0.328921 0.098008
vt 0.908340 0.506029
vt 0.923840 0.517369
vt 0.926342 0.362408
vt 0.910676 0.362148
vt 0.574668 0.983484
vt 0.793801 0.225928
vt 0.704835 0.313929
vt 0.913012 0.218267
vt 0.928844 0.207434
vt 0.972477 0.363153
vt 0.974979 0.208179
vt 0.969975 0.518114
vt 0.174120 0.144876
vt 0.329138 0.144149
vt 0.018936 0.099461
vt 0.019152 0.145602
vt 0.642181 0.983484
vt 0.649903 0.225168
vt 0.649525 0.290677
vt 0.506005 0.224408
vt 0.593994 0.313348
vt 0.505195 0.368293
vt 0.570754 0.368647
vt 0.029912 0.083728
vt 0.417104 0.048455
vt 0.361005 0.072655
vt 0.849971 0.560035
vt 0.849971 0.522914
vt 0.712039 0.560035
vt 0.781258 0.560035
vt 0.781258 0.522914
vt 0.712039 0.522914
vt 0.849971 0.587839
vt 0.781258 0.587839
vt 0.712039 0.587839
vt 0.849971 0.671440
vt 0.849971 0.983484
vt 0.781258 0.671440
vt 0.781258 0.983484
vt 0.712039 0.671440
vt 0.712039 0.983484
vt 0.328869 0.158309
vt 0.173902 0.159240
vt 0.174180 0.205380
vt 0.329146 0.204449
vt 0.018936 0.160173
vt 0.019214 0.206313
vt 0.030397 0.221935
vt 0.174294 0.221065
vt 0.318191 0.220196
vt 0.438581 0.203746
vt 0.438773 0.358742
vt 0.484913 0.358682
vt 0.484723 0.203689
vt 0.438980 0.513724
vt 0.485122 0.513662
vt 0.500763 0.502554
vt 0.500581 0.358655
vt 0.500420 0.214768
s 1
usemtl SP_AFG_Bollard_1-2
f 1/1/1 2/2/2 3/3/3
f 1/1/1 3/3/3 4/4/4
f 5/5/5 6/6/6 7/7/7
f 5/5/5 7/7/7 8/8/8
f 6/6/6 9/9/9 1/1/1
f 6/6/6 1/1/1 7/7/7
f 9/9/9 10/10/10 2/2/2
f 9/9/9 2/2/2 1/1/1
f 11/11/11 12/12/12 13/13/13
f 11/11/11 13/13/13 14/14/2
f 15/15/14 16/16/12 17/17/15
f 15/15/14 17/17/15 18/18/16
f 16/16/12 19/19/17 20/20/18
f 16/16/12 20/20/18 17/17/15
f 19/19/17 21/21/9 22/22/19
f 19/19/17 22/22/19 20/20/18
f 21/21/9 23/23/6 24/24/20
f 21/21/9 24/24/20 22/22/19
f 23/23/6 25/25/5 26/26/21
f 23/23/6 26/26/21 24/24/20
f 24/24/20 26/26/21 27/27/22
f 24/24/20 27/27/22 28/28/23
f 28/28/23 18/18/16 22/22/19
f 28/28/23 22/22/19 24/24/20
f 18/18/16 17/17/15 20/20/18
f 18/18/16 20/20/18 22/22/19
f 29/29/24 30/30/25 31/31/26
f 29/29/24 31/31/26 32/32/27
f 30/30/25 33/33/28 34/34/29
f 30/30/25 34/34/29 31/31/26
f 35/35/30 36/36/31 29/29/24
f 35/35/30 29/29/24 37/37/32
f 36/36/31 38/38/33 30/30/25
f 36/36/31 30/30/25 29/29/24
f 38/38/33 39/39/34 33/33/28
f 38/38/33 33/33/28 30/30/25
f 39/39/34 40/40/35 41/41/36
f 39/39/34 41/41/36 33/33/28
f 42/42/35 43/43/37 44/44/38
f 42/42/35 44/44/38 45/45/39
f 43/43/37 46/46/40 47/47/41
f 43/43/37 47/47/41 44/44/38
f 46/46/40 48/48/42 49/49/43
f 46/46/40 49/49/43 47/47/41
f 50/50/44 51/51/45 38/38/33
f 50/50/44 38/38/33 36/36/31
f 51/51/45 4/4/4 39/39/34
f 51/51/45 39/39/34 38/38/33
f 4/4/4 3/3/3 40/40/35
f 4/4/4 40/40/35 39/39/34
f 52/52/3 53/53/46 43/43/37
f 52/52/3 43/43/37 42/42/35
f 54/54/47 55/55/47 56/56/48
f 54/54/47 56/56/48 34/34/29
f 57/57/49 58/58/49 59/59/50
f 57/57/49 59/59/50 60/60/51
f 57/57/49 60/60/51 61/61/52
f 57/57/49 61/61/52 62/62/49
f 33/33/28 41/41/36 54/54/47
f 33/33/28 54/54/47 34/34/29
f 45/45/39 44/44/38 63/63/53
f 45/45/39 63/63/53 64/64/47
f 63/63/53 65/65/54 66/66/47
f 63/63/53 66/66/47 64/64/47
f 59/59/50 58/58/49 67/67/49
f 59/59/50 67/67/49 68/68/55
f 69/69/56 70/70/57 71/71/58
f 69/69/56 71/71/58 72/72/59
f 73/73/51 74/74/60 75/75/61
f 73/73/51 75/75/61 76/76/52
f 34/34/29 56/56/48 77/77/62
f 34/34/29 77/77/62 31/31/26
f 61/61/52 78/78/63 79/79/49
f 61/61/52 79/79/49 62/62/49
f 80/80/63 76/76/52 75/75/61
f 80/80/63 75/75/61 81/81/64
f 81/81/64 75/75/61 82/82/65
f 81/81/64 82/82/65 83/83/66
f 75/75/61 74/74/60 84/84/48
f 75/75/61 84/84/48 82/82/65
f 72/72/59 71/71/58 85/85/67
f 72/72/59 85/85/67 86/86/48
f 71/71/58 87/87/68 88/88/69
f 71/71/58 88/88/69 85/85/67
f 31/31/26 77/77/62 89/89/70
f 31/31/26 89/89/70 32/32/27
f 79/79/49 78/78/63 90/90/71
f 79/79/49 90/90/71 91/91/49
f 90/90/71 92/92/72 93/93/49
f 90/90/71 93/93/49 91/91/49
f 93/93/49 92/92/72 94/94/73
f 93/93/49 94/94/73 95/95/49
f 94/94/73 68/68/55 67/67/49
f 94/94/73 67/67/49 95/95/49
f 96/96/55 87/87/68 71/71/58
f 96/96/55 71/71/58 70/70/57
f 28/28/23 27/27/22 97/97/74
f 28/28/23 97/97/74 98/98/75
f 18/18/16 28/28/23 98/98/75
f 18/18/16 98/98/75 15/15/14
f 27/27/22 26/26/21 25/25/5
f 27/27/22 25/25/5 97/97/74
f 99/99/76 13/13/13 12/12/12
f 99/99/76 12/12/12 100/100/14
f 101/101/77 102/102/78 103/103/75
f 101/101/77 103/103/75 104/104/74
f 102/102/78 99/99/76 100/100/14
f 102/102/78 100/100/14 103/103/75
f 37/37/32 49/49/43 48/48/42
f 37/37/32 48/48/42 35/35/30
f 14/14/2 13/13/13 53/53/46
f 14/14/2 53/53/46 52/52/3
f 13/13/13 99/99/76 105/105/79
f 13/13/13 105/105/79 53/53/46
f 7/7/7 1/1/1 4/4/4
f 7/7/7 4/4/4 51/51/45
f 8/8/8 7/7/7 51/51/45
f 8/8/8 51/51/45 50/50/44
f 99/99/76 102/102/78 106/106/80
f 99/99/76 106/106/80 105/105/79
f 102/102/78 101/101/77 107/107/81
f 102/102/78 107/107/81 106/106/80
f 101/101/77 8/8/8 50/50/44
f 101/101/77 50/50/44 107/107/81
f 8/8/8 101/101/77 104/104/74
f 8/8/8 104/104/74 5/5/5
f 107/107/81 50/50/44 36/36/31
f 107/107/81 36/36/31 35/35/30
f 35/35/30 48/48/42 106/106/80
f 35/35/30 106/106/80 107/107/81
f 48/48/42 46/46/40 105/105/79
f 48/48/42 105/105/79 106/106/80
f 46/46/40 43/43/37 53/53/46
f 46/46/40 53/53/46 105/105/79
f 65/65/54 63/63/53 108/108/82
f 65/65/54 108/108/82 109/109/83
f 109/109/83 108/108/82 110/110/84
f 109/109/83 110/110/84 111/111/85
f 111/111/85 110/110/84 112/112/86
f 111/111/85 112/112/86 113/113/87
f 113/113/87 112/112/86 32/32/27
f 113/113/87 32/32/27 89/89/70
f 37/37/32 29/29/24 32/32/27
f 37/37/32 32/32/27 112/112/86
f 112/112/86 110/110/84 49/49/43
f 112/112/86 49/49/43 37/37/32
f 110/110/84 108/108/82 47/47/41
f 110/110/84 47/47/41 49/49/43
f 47/47/41 108/108/82 63/63/53
f 47/47/41 63/63/53 44/44/38
f 114/114/66 115/115/87 116/116/88
f 114/114/66 116/116/88 117/117/64
f 115/115/87 118/118/89 119/119/90
f 115/115/87 119/119/90 116/116/88
f 116/116/88 119/119/90 120/120/91
f 116/116/88 120/120/91 121/121/92
f 116/116/88 121/121/92 122/122/93
f 116/116/88 122/122/93 117/117/64
f 123/123/89 124/124/94 125/125/95
f 123/123/89 125/125/95 126/126/96
f 124/124/94 127/127/69 128/128/97
f 124/124/94 128/128/97 125/125/95
f 125/125/95 128/128/97 129/129/55
f 125/125/95 129/129/55 130/130/73
f 125/125/95 130/130/73 131/131/91
f 125/125/95 131/131/91 126/126/96
