# Blender 3.4.0
# www.blender.org
mtllib cablebox_4.mtl
o SP_TNR_Cablebox_4_SP_TNR_Cablebox_0
v -0.079464 1.272784 0.138482
v -0.092770 1.272784 0.338507
v -0.092770 1.576517 0.338507
v -0.079465 1.576517 0.138482
v -0.037011 1.805729 0.063394
v -0.037011 0.977187 0.063394
v -0.037011 1.269405 0.135090
v -0.037011 1.579895 0.135090
v -0.050316 0.977187 0.413595
v -0.050316 1.269405 0.341899
v -0.050316 1.805729 0.413595
v -0.050316 1.579895 0.341899
v -0.037011 1.579895 0.135090
v -0.037011 1.269405 0.135090
v -0.079464 1.272784 0.138482
v -0.079465 1.576517 0.138482
v -0.037011 1.269405 0.135090
v -0.050316 1.269405 0.341899
v -0.092770 1.272784 0.338507
v -0.079464 1.272784 0.138482
v -0.050316 1.269405 0.341899
v -0.050316 1.579895 0.341899
v -0.092770 1.576517 0.338507
v -0.092770 1.272784 0.338507
v -0.050316 1.579895 0.341899
v -0.037011 1.579895 0.135090
v -0.079465 1.576517 0.138482
v -0.092770 1.576517 0.338507
v -0.037011 0.977187 0.063394
v -0.037011 1.805729 0.063394
v 0.153025 1.805729 0.063394
v 0.153025 0.977187 0.063394
v -0.037011 1.805729 0.063394
v -0.050316 1.805729 0.413595
v 0.153025 1.805729 0.413595
v 0.153025 1.805729 0.063394
v -0.050316 1.805729 0.413595
v -0.050316 0.977187 0.413595
v 0.153025 0.977187 0.413595
v 0.153025 1.805729 0.413595
v -0.050316 0.977187 0.413595
v -0.037011 0.977187 0.063394
v 0.153025 0.977187 0.063394
v 0.153025 0.977187 0.413595
v 0.153025 1.805729 0.413595
v 0.153025 0.977187 0.413595
v 0.153025 0.977187 0.063394
v 0.153025 1.805729 0.063394
v 0.077598 0.980437 0.343269
v 0.077598 0.980437 0.284174
v 0.077598 -0.036431 0.284174
v 0.077598 -0.036431 0.343269
v 0.145482 -0.036431 0.284174
v 0.145481 0.980437 0.284174
v 0.145481 0.980437 0.343269
v 0.145482 -0.036431 0.343269
v 0.130102 -0.036431 0.360606
v 0.130102 0.980437 0.360606
v 0.092977 0.980437 0.360606
v 0.092977 -0.036431 0.360606
v 0.130102 0.980437 0.266837
v 0.130102 -0.036431 0.266837
v 0.092977 -0.036431 0.266837
v 0.092977 0.980437 0.266837
v 0.070820 0.858108 -0.094909
v 0.070820 0.980552 -0.181826
v 0.085268 0.973532 -0.190753
v 0.085268 0.848311 -0.101865
v 0.086605 0.865611 -0.089583
v 0.086605 0.985928 -0.174990
v 0.085268 0.848311 -0.101865
v 0.085268 0.973532 -0.190753
v 0.086605 0.985928 -0.174990
v 0.086605 0.865611 -0.089583
v 0.070820 0.820229 0.002397
v 0.085268 0.808033 0.001601
v 0.086605 0.829568 0.003006
v 0.085268 0.808033 0.001601
v 0.086605 0.829568 0.003006
v 0.070820 0.841250 0.092939
v 0.085268 0.830682 0.099153
v 0.086605 0.849342 0.088179
v 0.085268 0.830682 0.099153
v 0.086605 0.849342 0.088179
v 0.070820 0.987629 0.205269
v 0.085268 0.980259 0.213938
v 0.086605 0.993272 0.198631
v 0.085268 0.980259 0.213938
v 0.086605 0.993272 0.198631
v 0.077598 -0.036431 0.343269
v 0.077598 0.980437 0.343269
v 0.077598 0.980437 0.284174
v 0.077598 -0.036431 0.284174
v 0.145481 0.980437 0.343269
v 0.145482 -0.036431 0.343269
v 0.145482 -0.036431 0.284174
v 0.145481 0.980437 0.284174
v -0.079820 1.399752 0.191350
v -0.093125 1.398900 0.282681
v -0.093125 1.480628 0.238793
v -0.079820 1.368545 0.191478
v -0.093125 1.369346 0.282697
v 0.092977 -0.036431 0.266837
v 0.130102 -0.036431 0.266837
v 0.145482 -0.036431 0.284174
v 0.145482 -0.036431 0.343269
v 0.130102 -0.036431 0.360606
v 0.092977 -0.036431 0.360606
v 0.077598 -0.036431 0.343269
v 0.077598 -0.036431 0.284174
v 0.154204 0.960114 -0.413595
v 0.154203 1.578761 -0.413595
v 0.154203 1.578761 -0.042319
v 0.154204 0.960114 -0.042319
v -0.057358 0.960114 -0.413595
v -0.057358 0.960114 -0.042319
v -0.057358 1.578761 -0.042319
v -0.057358 1.578761 -0.413595
v 0.154204 0.960114 -0.413595
v 0.154204 0.960114 -0.042319
v -0.057358 0.960114 -0.042319
v -0.057358 0.960114 -0.413595
v 0.154204 0.960114 -0.042319
v 0.154203 1.578761 -0.042319
v -0.057358 1.578761 -0.042319
v -0.057358 0.960114 -0.042319
v 0.154203 1.578761 -0.042319
v 0.154203 1.578761 -0.413595
v -0.057358 1.578761 -0.413595
v -0.057358 1.578761 -0.042319
v 0.154203 1.578761 -0.413595
v 0.154204 0.960114 -0.413595
v -0.057358 0.960114 -0.413595
v -0.057358 1.578761 -0.413595
v 0.043460 1.745983 0.141663
v 0.055606 1.745983 0.129517
v 0.055606 1.986141 0.129517
v 0.043460 1.986141 0.141663
v 0.055606 1.745983 0.129517
v 0.043460 1.745983 0.117371
v 0.043460 1.986141 0.117371
v 0.055606 1.986141 0.129517
v 0.031315 1.745983 0.129517
v 0.031315 1.986141 0.129517
v 0.154203 2.268993 -0.304792
v 0.154203 2.268993 0.178062
v 0.154203 1.897717 0.178062
v 0.154203 1.897717 -0.304792
v -0.057358 2.268993 -0.304792
v -0.057358 1.897717 -0.304792
v -0.057358 1.897717 0.178062
v -0.057358 2.268993 0.178062
v 0.154203 2.268993 -0.304792
v 0.154203 1.897717 -0.304792
v -0.057358 1.897717 -0.304792
v -0.057358 2.268993 -0.304792
v 0.154203 1.897717 -0.304792
v 0.154203 1.897717 0.178062
v -0.057358 1.897717 0.178062
v -0.057358 1.897717 -0.304792
v 0.154203 1.897717 0.178062
v 0.154203 2.268993 0.178062
v -0.057358 2.268993 0.178062
v -0.057358 1.897717 0.178062
v 0.154203 2.268993 0.178062
v 0.154203 2.268993 -0.304792
v -0.057358 2.268993 -0.304792
v -0.057358 2.268993 0.178062
v 0.125823 1.537725 -0.089190
v 0.137969 1.537725 -0.101336
v 0.137969 1.937771 -0.101336
v 0.125823 1.937771 -0.089190
v 0.137969 1.537725 -0.101336
v 0.125823 1.537725 -0.113481
v 0.125823 1.937771 -0.113481
v 0.137969 1.937771 -0.101336
v 0.113677 1.537725 -0.101336
v 0.113677 1.937771 -0.101336
vn -0.9978 -0.0000 -0.0664
vn -0.9995 -0.0096 -0.0302
vn -0.9992 0.0007 -0.0408
vn -0.9997 0.0061 -0.0248
vn -0.9998 -0.0003 -0.0189
vn -0.9995 -0.0078 -0.0319
vn -0.9998 0.0006 -0.0191
vn -0.9992 0.0027 -0.0401
vn -0.9996 0.0082 -0.0258
vn -0.0796 -0.0000 -0.9968
vn -0.0795 -0.9968 -0.0052
vn -0.0789 -0.9969 -0.0051
vn -0.0794 -0.9968 -0.0052
vn -0.0797 -0.9968 -0.0053
vn -0.0796 -0.0000 0.9968
vn -0.0790 0.9969 -0.0052
vn -0.0797 0.9968 -0.0051
vn -0.0796 0.9968 -0.0051
vn -0.0789 0.9969 -0.0052
vn -0.0000 -0.0000 -1.0000
vn -0.0000 1.0000 -0.0000
vn -0.0000 -0.0000 1.0000
vn -0.0000 -1.0000 -0.0000
vn 1.0000 -0.0000 -0.0000
vn -0.9386 -0.0000 0.3449
vn -0.9386 -0.0000 -0.3449
vn -0.9386 0.0001 -0.3449
vn 0.9386 -0.0000 -0.3449
vn 0.9386 -0.0000 0.3449
vn 0.4231 -0.0000 0.9061
vn -0.4231 -0.0000 0.9061
vn 0.4231 -0.0000 -0.9061
vn -0.4231 -0.0000 -0.9061
vn -0.9977 -0.0528 -0.0415
vn -0.9978 0.0386 0.0543
vn 0.4821 -0.5072 -0.7144
vn 0.4252 -0.7115 -0.5595
vn 0.6988 0.5623 0.4422
vn 0.6175 0.4553 0.6414
vn 0.4252 -0.7114 -0.5595
vn -0.9979 -0.0650 -0.0047
vn 0.4321 -0.8995 -0.0651
vn 0.7050 0.7074 0.0512
vn -0.9961 -0.0740 0.0482
vn 0.4163 -0.7619 0.4963
vn 0.7139 0.5868 -0.3822
vn -0.9978 0.0405 -0.0527
vn 0.4828 -0.5332 0.6947
vn 0.6182 0.4785 -0.6236
vn -0.9890 -0.0309 -0.1444
vn -0.9890 -0.0312 -0.1445
vn -0.9865 -0.0776 -0.1444
vn -0.9895 -0.0005 -0.1442
vn -0.9895 -0.0001 -0.1443
vn -1.0000 -0.0000 -0.0000
vt 0.784078 0.340750
vt 0.997017 0.340750
vt 0.997017 0.171364
vt 0.784078 0.171364
vt 0.775522 0.569065
vt 0.775522 0.798146
vt 0.821026 0.689301
vt 0.821026 0.619694
vt 0.997791 0.798146
vt 0.952286 0.689301
vt 0.997791 0.569065
vt 0.952286 0.619694
vt 0.821026 0.619694
vt 0.821026 0.689301
vt 0.823179 0.688543
vt 0.823179 0.620451
vt 0.821026 0.689301
vt 0.952286 0.689301
vt 0.950133 0.688543
vt 0.823179 0.688543
vt 0.952286 0.689301
vt 0.952286 0.619694
vt 0.950133 0.620451
vt 0.950133 0.688543
vt 0.952286 0.619694
vt 0.821026 0.619694
vt 0.823179 0.620451
vt 0.950133 0.620451
vt 0.928922 0.796641
vt 0.928922 0.568209
vt 0.811941 0.568209
vt 0.811941 0.796641
vt 0.816396 0.760927
vt 0.961413 0.760927
vt 0.961413 0.666204
vt 0.816396 0.666204
vt 0.928922 0.568209
vt 0.928922 0.796641
vt 0.811941 0.796641
vt 0.811941 0.568209
vt 0.961413 0.760927
vt 0.816396 0.760927
vt 0.816396 0.666204
vt 0.961413 0.666204
vt 0.162969 0.447274
vt 0.162969 0.717071
vt 0.038220 0.717071
vt 0.038220 0.447274
vt 0.701766 0.092716
vt 0.659223 0.092716
vt 0.659223 0.336103
vt 0.701766 0.336104
vt 0.657101 0.092716
vt 0.657101 0.336103
vt 0.699644 0.336103
vt 0.699644 0.092716
vt 0.734068 0.095021
vt 0.734068 0.338109
vt 0.765519 0.338109
vt 0.765519 0.095021
vt 0.732336 0.094091
vt 0.732336 0.337179
vt 0.763788 0.337179
vt 0.763788 0.094091
vt 0.856558 0.446923
vt 0.820430 0.412549
vt 0.816719 0.414520
vt 0.853667 0.449673
vt 0.858772 0.444817
vt 0.823271 0.411040
vt 0.853667 0.449673
vt 0.816719 0.414520
vt 0.823271 0.411040
vt 0.858772 0.444817
vt 0.897004 0.457557
vt 0.896673 0.460980
vt 0.897257 0.454935
vt 0.896673 0.460980
vt 0.897257 0.454935
vt 0.934638 0.451656
vt 0.937221 0.454622
vt 0.932660 0.449384
vt 0.937221 0.454622
vt 0.932660 0.449384
vt 0.981329 0.410563
vt 0.984933 0.412632
vt 0.978570 0.408979
vt 0.984933 0.412632
vt 0.978570 0.408979
vt 0.776169 0.095021
vt 0.776169 0.338109
vt 0.774438 0.094091
vt 0.774437 0.337179
vt 0.723418 0.338109
vt 0.723418 0.095021
vt 0.721686 0.337179
vt 0.721686 0.094091
vt 0.162168 0.251943
vt 0.198175 0.252261
vt 0.180799 0.221709
vt 0.162066 0.263609
vt 0.198182 0.263309
vt 0.806550 0.501349
vt 0.812804 0.501349
vt 0.815395 0.503225
vt 0.815395 0.509623
vt 0.812804 0.511499
vt 0.806550 0.511499
vt 0.803959 0.509623
vt 0.803959 0.503225
vt 0.783231 0.336442
vt 0.999800 0.336442
vt 0.999800 0.235201
vt 0.783231 0.235201
vt 0.783103 0.235508
vt 0.783103 0.339619
vt 0.999653 0.339619
vt 0.999653 0.235508
vt 0.895334 0.261636
vt 0.827221 0.261636
vt 0.827221 0.326117
vt 0.895334 0.326117
vt 0.999558 0.093135
vt 0.783231 0.093135
vt 0.783231 0.172145
vt 0.999558 0.172145
vt 0.896474 0.261227
vt 0.828360 0.261227
vt 0.828360 0.325708
vt 0.896474 0.325708
vt 0.999558 0.093135
vt 0.783231 0.093135
vt 0.783231 0.172145
vt 0.999558 0.172145
vt 0.022767 0.201470
vt 0.022767 0.205455
vt 0.280833 0.205455
vt 0.280833 0.201470
vt 0.022767 0.189515
vt 0.022767 0.193500
vt 0.280833 0.193500
vt 0.280833 0.189515
vt 0.022767 0.197485
vt 0.280833 0.197485
vt 0.783231 0.336442
vt 0.999800 0.336442
vt 0.999800 0.235201
vt 0.783231 0.235201
vt 0.783103 0.235508
vt 0.783103 0.339619
vt 0.999653 0.339619
vt 0.999653 0.235508
vt 0.895334 0.261636
vt 0.827221 0.261636
vt 0.827221 0.326117
vt 0.895334 0.326117
vt 0.999558 0.093135
vt 0.783231 0.093135
vt 0.783231 0.172145
vt 0.999558 0.172145
vt 0.896474 0.261227
vt 0.828360 0.261227
vt 0.828360 0.325708
vt 0.896474 0.325708
vt 0.999558 0.093135
vt 0.783231 0.093135
vt 0.783231 0.172145
vt 0.999558 0.172145
vt 0.022767 0.201470
vt 0.022767 0.205455
vt 0.280833 0.205455
vt 0.280833 0.201470
vt 0.022767 0.189515
vt 0.022767 0.193500
vt 0.280833 0.193500
vt 0.280833 0.189515
vt 0.022767 0.197485
vt 0.280833 0.197485
s 0
usemtl SP_TNR_Cablebox_1.001
f 1/1/1 2/2/1 3/3/1
f 3/3/1 4/4/1 1/1/1
s 1
f 5/5/2 6/6/3 7/7/4
f 7/7/4 8/8/5 5/5/2
f 6/6/3 9/9/6 10/10/7
f 10/10/7 7/7/4 6/6/3
f 9/9/6 11/11/8 12/12/9
f 12/12/9 10/10/7 9/9/6
f 11/11/8 5/5/2 8/8/5
f 8/8/5 12/12/9 11/11/8
s 0
f 13/13/10 14/14/10 15/15/10
f 15/15/10 16/16/10 13/13/10
s 1
f 17/17/11 18/18/12 19/19/12
s 0
f 19/19/13 20/20/14 17/17/14
f 21/21/15 22/22/15 23/23/15
f 23/23/15 24/24/15 21/21/15
s 1
f 25/25/16 26/26/17 27/27/18
f 27/27/18 28/28/19 25/25/16
s 0
f 29/29/20 30/30/20 31/31/20
f 31/31/20 32/32/20 29/29/20
f 33/33/21 34/34/21 35/35/21
f 35/35/21 36/36/21 33/33/21
f 37/37/22 38/38/22 39/39/22
f 39/39/22 40/40/22 37/37/22
f 41/41/23 42/42/23 43/43/23
f 43/43/23 44/44/23 41/41/23
f 45/45/24 46/46/24 47/47/24
f 47/47/24 48/48/24 45/45/24
s 1
f 49/49/25 50/50/26 51/51/27
f 51/51/27 52/52/25 49/49/25
f 53/53/28 54/54/28 55/55/29
f 55/55/29 56/56/29 53/53/28
f 57/57/30 58/58/30 59/59/31
f 59/59/31 60/60/31 57/57/30
f 61/61/32 62/62/32 63/63/33
f 63/63/33 64/64/33 61/61/32
f 65/65/34 66/66/35 67/67/36
f 67/67/36 68/68/37 65/65/34
f 69/69/38 70/70/39 66/66/35
f 66/66/35 65/65/34 69/69/38
f 71/71/40 72/72/36 73/73/39
f 73/73/39 74/74/38 71/71/40
f 75/75/41 65/65/34 68/68/37
f 68/68/37 76/76/42 75/75/41
f 77/77/43 69/69/38 65/65/34
f 65/65/34 75/75/41 77/77/43
f 78/78/42 71/71/40 74/74/38
f 74/74/38 79/79/43 78/78/42
f 80/80/44 75/75/41 76/76/42
f 76/76/42 81/81/45 80/80/44
f 82/82/46 77/77/43 75/75/41
f 75/75/41 80/80/44 82/82/46
f 83/83/45 78/78/42 79/79/43
f 79/79/43 84/84/46 83/83/45
f 85/85/47 80/80/44 81/81/45
f 81/81/45 86/86/48 85/85/47
f 87/87/49 82/82/46 80/80/44
f 80/80/44 85/85/47 87/87/49
f 88/88/48 83/83/45 84/84/46
f 84/84/46 89/89/49 88/88/48
f 90/90/25 60/60/31 59/59/31
f 59/59/31 91/91/25 90/90/25
f 92/92/26 64/64/33 63/63/33
f 63/63/33 93/93/26 92/92/26
f 94/94/29 58/58/30 57/57/30
f 57/57/30 95/95/29 94/94/29
f 96/96/28 62/62/32 61/61/32
f 61/61/32 97/97/28 96/96/28
f 98/98/50 99/99/51 100/100/52
f 101/101/53 102/102/54 99/99/51
f 99/99/51 98/98/50 101/101/53
s 0
f 103/103/23 104/104/23 105/105/23
f 105/105/23 106/106/23 107/107/23
f 107/107/23 108/108/23 109/109/23
f 105/105/23 107/107/23 109/109/23
f 103/103/23 105/105/23 109/109/23
f 110/110/23 103/103/23 109/109/23
f 111/111/24 112/112/24 113/113/24
f 113/113/24 114/114/24 111/111/24
f 115/115/55 116/116/55 117/117/55
f 117/117/55 118/118/55 115/115/55
f 119/119/23 120/120/23 121/121/23
f 121/121/23 122/122/23 119/119/23
f 123/123/22 124/124/22 125/125/22
f 125/125/22 126/126/22 123/123/22
f 127/127/21 128/128/21 129/129/21
f 129/129/21 130/130/21 127/127/21
f 131/131/20 132/132/20 133/133/20
f 133/133/20 134/134/20 131/131/20
s 1
f 135/135/22 136/136/24 137/137/24
f 137/137/24 138/138/22 135/135/22
f 139/139/24 140/140/20 141/141/20
f 141/141/20 142/142/24 139/139/24
f 140/140/20 143/143/55 144/144/55
f 144/144/55 141/141/20 140/140/20
f 143/143/55 135/135/22 138/138/22
f 138/138/22 144/144/55 143/143/55
s 0
f 145/145/24 146/146/24 147/147/24
f 147/147/24 148/148/24 145/145/24
f 149/149/55 150/150/55 151/151/55
f 151/151/55 152/152/55 149/149/55
f 153/153/20 154/154/20 155/155/20
f 155/155/20 156/156/20 153/153/20
f 157/157/23 158/158/23 159/159/23
f 159/159/23 160/160/23 157/157/23
f 161/161/22 162/162/22 163/163/22
f 163/163/22 164/164/22 161/161/22
f 165/165/21 166/166/21 167/167/21
f 167/167/21 168/168/21 165/165/21
s 1
f 169/169/22 170/170/24 171/171/24
f 171/171/24 172/172/22 169/169/22
f 173/173/24 174/174/20 175/175/20
f 175/175/20 176/176/24 173/173/24
f 174/174/20 177/177/55 178/178/55
f 178/178/55 175/175/20 174/174/20
f 177/177/55 169/169/22 172/172/22
f 172/172/22 178/178/55 177/177/55
