# Blender 3.4.0
# www.blender.org
mtllib metalfence_3.mtl
o SP_TNR_MetalFence_1_SP_TNR_MetalFence_1_0
v -1.345676 0.259526 -0.007850
v -1.346037 0.429372 -0.008856
v 1.346542 0.429687 -0.015237
v 1.346903 0.259843 -0.014302
v 1.405758 0.931593 -0.039829
v 1.405398 0.931728 0.034104
v 1.407489 -0.009183 0.043933
v 1.407922 -0.009317 -0.030001
v 0.038444 0.931430 -0.038601
v 0.038227 0.931567 0.035331
v 0.040391 -0.009345 0.045051
v 0.040680 -0.009479 -0.028773
v -1.328871 0.931273 -0.037446
v -1.329087 0.931408 0.036523
v -1.326923 -0.009503 0.046279
v -1.326635 -0.009637 -0.027654
v 1.411817 0.929956 0.047470
v -1.412322 0.929632 0.044498
v -1.411673 0.929181 -0.047469
v 1.412322 0.929499 -0.044461
v 1.411889 0.975004 0.028139
v 1.411817 0.929956 0.047470
v 1.412322 0.929499 -0.044461
v 1.412178 0.974738 -0.027870
v -1.411961 0.974484 -0.031058
v 1.412178 0.974738 -0.027870
v 1.412322 0.929499 -0.044461
v -1.411673 0.929181 -0.047469
v 1.405398 0.931728 0.034104
v 1.331323 0.931630 0.033965
v 1.333703 -0.009282 0.043828
v 1.407489 -0.009183 0.043933
v 0.038227 0.931567 0.035331
v -0.035775 0.931468 0.035191
v -0.033611 -0.009442 0.045020
v 0.040391 -0.009345 0.045051
v -1.329087 0.931408 0.036523
v -1.403090 0.931309 0.036347
v -1.400782 -0.009602 0.046174
v -1.326923 -0.009503 0.046279
v 1.411889 0.975004 0.028139
v -1.412250 0.974747 0.024987
v -1.412322 0.929632 0.044498
v 1.411817 0.929956 0.047470
v 1.331323 0.931630 0.033965
v 1.331756 0.931533 -0.039968
v 1.334064 -0.009378 -0.030177
v 1.333703 -0.009282 0.043828
v -0.035775 0.931468 0.035191
v -0.035414 0.931370 -0.038814
v -0.033250 -0.009539 -0.028950
v -0.033611 -0.009442 0.045020
v -1.403090 0.931309 0.036347
v -1.402657 0.931211 -0.037587
v -1.400349 -0.009699 -0.027760
v -1.400782 -0.009602 0.046174
v -1.411961 0.974484 -0.031058
v -1.412250 0.974747 0.024987
v 1.411889 0.975004 0.028139
v 1.412178 0.974738 -0.027870
v -1.411673 0.929181 -0.047469
v -1.412322 0.929632 0.044498
v -1.412250 0.974747 0.024987
v -1.411961 0.974484 -0.031058
v 1.331756 0.931533 -0.039968
v 1.405758 0.931593 -0.039829
v 1.407922 -0.009317 -0.030001
v 1.334064 -0.009378 -0.030177
v -0.035414 0.931370 -0.038814
v 0.038444 0.931430 -0.038601
v 0.040680 -0.009479 -0.028773
v -0.033250 -0.009539 -0.028950
v -1.402657 0.931211 -0.037587
v -1.328871 0.931273 -0.037446
v -1.326635 -0.009637 -0.027654
v -1.400349 -0.009699 -0.027760
v 1.346903 0.259843 -0.014302
v 1.346903 0.259842 0.019778
v -1.345677 0.259526 0.026122
v -1.345676 0.259526 -0.007850
v -1.346037 0.429372 -0.008856
v -1.346037 0.429372 0.025115
v 1.346542 0.429687 0.018771
v 1.346542 0.429687 -0.015237
v -1.345677 0.259526 0.026122
v 1.346903 0.259842 0.019778
v 1.346542 0.429687 0.018771
v -1.346037 0.429372 0.025115
v 1.378783 0.885841 0.016640
v -1.379648 0.885787 0.016362
v -1.362771 0.862415 0.016363
v 1.380947 0.862702 0.016640
v 0.139422 0.864536 0.015445
v 0.111725 0.864585 0.015442
v 0.113095 0.423037 0.015442
v 0.139638 0.422997 0.015445
v 0.364026 0.864563 0.015467
v 0.336545 0.864612 0.015464
v 0.336762 0.423063 0.015465
v 0.365324 0.423024 0.015467
v 0.584158 0.864589 0.015489
v 0.556605 0.864638 0.015487
v 0.557831 0.423090 0.015487
v 0.585384 0.423051 0.015490
v 0.808762 0.864614 0.015512
v 0.781209 0.864664 0.015509
v 0.782508 0.423116 0.015509
v 0.810060 0.423077 0.015512
v 1.032500 0.864642 0.015535
v 1.004948 0.864691 0.015532
v 1.006102 0.423144 0.015532
v 1.032717 0.423102 0.015535
v 1.257176 0.864667 0.015557
v 1.229624 0.864717 0.015555
v 1.230778 0.423169 0.015555
v 1.258403 0.423129 0.015557
v -1.225008 0.864376 0.015307
v -1.252560 0.864425 0.015304
v -1.251334 0.422878 0.015304
v -1.224647 0.422836 0.015307
v -1.000332 0.864403 0.015330
v -1.027884 0.864452 0.015327
v -1.027524 0.422903 0.015327
v -0.999105 0.422863 0.015330
v -0.780200 0.864428 0.015352
v -0.807824 0.864478 0.015349
v -0.806526 0.422929 0.015349
v -0.779046 0.422889 0.015352
v -0.555596 0.864454 0.015374
v -0.583148 0.864503 0.015372
v -0.581922 0.422956 0.015372
v -0.554297 0.422916 0.015374
v -0.331857 0.864481 0.015397
v -0.359410 0.864531 0.015394
v -0.358255 0.422983 0.015394
v -0.331496 0.422941 0.015397
v -0.107181 0.864508 0.015420
v -0.134806 0.864556 0.015417
v -0.133580 0.423009 0.015417
v -0.105955 0.422969 0.015420
v 0.002200 0.846407 0.016501
v 0.002164 0.822057 0.016501
v 1.385058 0.666647 0.016641
v 1.384914 0.690992 0.016641
v -1.379432 0.690011 0.016362
v -1.379216 0.665515 0.016362
v 0.002128 0.490486 0.016501
v -1.379143 0.678535 0.016362
v -1.379071 0.654324 0.016362
v 0.002200 0.466136 0.016501
v 1.384914 0.653791 0.016641
v 1.384986 0.678150 0.016641
v 1.378783 0.885841 0.008431
v 1.380947 0.862702 0.008431
v -1.362771 0.862415 0.008708
v -1.379648 0.885787 0.008710
v 0.139422 0.864536 0.009627
v 0.139638 0.422997 0.009627
v 0.113095 0.423037 0.009630
v 0.111725 0.864585 0.009630
v 0.364026 0.864563 0.009604
v 0.365324 0.423024 0.009604
v 0.336762 0.423063 0.009607
v 0.336545 0.864612 0.009607
v 0.584158 0.864589 0.009582
v 0.585384 0.423051 0.009582
v 0.557831 0.423090 0.009585
v 0.556605 0.864638 0.009585
v 0.808762 0.864614 0.009559
v 0.810060 0.423077 0.009559
v 0.782508 0.423116 0.009562
v 0.781209 0.864664 0.009562
v 1.032500 0.864642 0.009537
v 1.032717 0.423102 0.009537
v 1.006102 0.423144 0.009539
v 1.004948 0.864691 0.009539
v 1.257176 0.864667 0.009514
v 1.258403 0.423129 0.009514
v 1.230778 0.423169 0.009517
v 1.229624 0.864717 0.009517
v -1.225008 0.864376 0.009765
v -1.224647 0.422836 0.009765
v -1.251334 0.422878 0.009767
v -1.252560 0.864425 0.009768
v -1.000332 0.864403 0.009742
v -0.999105 0.422863 0.009742
v -1.027524 0.422903 0.009745
v -1.027884 0.864452 0.009745
v -0.780200 0.864428 0.009720
v -0.779046 0.422889 0.009720
v -0.806526 0.422929 0.009722
v -0.807824 0.864478 0.009722
v -0.555596 0.864454 0.009697
v -0.554297 0.422916 0.009697
v -0.581922 0.422956 0.009700
v -0.583148 0.864503 0.009700
v -0.331857 0.864481 0.009674
v -0.331496 0.422941 0.009674
v -0.358255 0.422983 0.009677
v -0.359410 0.864531 0.009677
v -0.107181 0.864508 0.009652
v -0.105955 0.422969 0.009652
v -0.133580 0.423009 0.009655
v -0.134806 0.864556 0.009655
v 0.002200 0.846407 0.008570
v 1.384914 0.690992 0.008431
v 1.385058 0.666647 0.008431
v 0.002164 0.822057 0.008570
v -1.379432 0.690011 0.008710
v -1.379216 0.665515 0.008710
v 0.002128 0.490486 0.008570
v 0.002200 0.466136 0.008570
v -1.379071 0.654324 0.008710
v -1.379143 0.678535 0.008710
v 1.384914 0.653791 0.008431
v 1.384986 0.678150 0.008431
vn -0.0024 -0.0059 -1.0000
vn -0.0024 -0.0055 -1.0000
vn 1.0000 0.0023 0.0052
vn 1.0000 0.0023 0.0054
vn 1.0000 0.0023 0.0055
vn 1.0000 0.0024 0.0033
vn 1.0000 0.0024 0.0034
vn 1.0000 0.0024 0.0039
vn 0.0001 -1.0000 0.0049
vn 0.0001 -1.0000 0.0050
vn 1.0000 0.0012 0.0052
vn 1.0000 0.0010 0.0053
vn 1.0000 0.0013 0.0051
vn 0.0010 0.3425 -0.9395
vn 0.0010 0.3424 -0.9395
vn -0.0016 0.0105 0.9999
vn -0.0014 0.0104 0.9999
vn -0.0018 0.0105 0.9999
vn -0.0013 0.0104 0.9999
vn -0.0012 0.0104 0.9999
vn -0.0008 0.0104 0.9999
vn -0.0024 0.0104 0.9999
vn -0.0018 0.0104 0.9999
vn -0.0010 0.3956 0.9184
vn -0.0010 0.3957 0.9184
vn -1.0000 -0.0026 -0.0053
vn -1.0000 -0.0025 -0.0054
vn -1.0000 -0.0025 -0.0053
vn -1.0000 -0.0026 -0.0052
vn -1.0000 -0.0024 -0.0049
vn -1.0000 -0.0025 -0.0058
vn -0.0001 1.0000 -0.0047
vn -0.0001 1.0000 -0.0048
vn -1.0000 -0.0026 -0.0063
vn 0.0019 -0.0104 -0.9999
vn 0.0022 -0.0104 -0.9999
vn 0.0024 -0.0104 -0.9999
vn 0.0029 -0.0104 -0.9999
vn 0.0024 -0.0105 -0.9999
vn 0.0027 -0.0105 -0.9999
vn 0.0016 -0.0104 -0.9999
vn 0.0018 -0.0104 -0.9999
vn 0.0001 -1.0000 -0.0000
vn -0.0001 1.0000 -0.0000
vn 0.0024 0.0059 1.0000
vn -0.0001 -0.0000 1.0000
vn -0.0001 -0.0000 -1.0000
vt 0.947949 0.279066
vt 0.947940 0.221083
vt 0.015471 0.223060
vt 0.015481 0.281042
vt 0.659746 0.470717
vt 0.659452 0.448438
vt 0.338382 0.449296
vt 0.338676 0.471575
vt 0.332662 0.469915
vt 0.332368 0.447637
vt 0.011298 0.448541
vt 0.011593 0.470787
vt 0.989670 0.488801
vt 0.989208 0.466514
vt 0.668152 0.469289
vt 0.668614 0.491565
vt 0.007702 0.040316
vt 0.987963 0.049199
vt 0.988065 0.017730
vt 0.007854 0.008860
vt 0.982756 0.171794
vt 0.973088 0.157998
vt 0.955983 0.184556
vt 0.972349 0.187981
vt 0.991438 0.087137
vt 0.011297 0.082722
vt 0.011171 0.099585
vt 0.991261 0.103999
vt 0.659452 0.448438
vt 0.659399 0.426116
vt 0.338328 0.427061
vt 0.338382 0.449296
vt 0.332368 0.447637
vt 0.332313 0.425336
vt 0.011243 0.426240
vt 0.011298 0.448541
vt 0.989208 0.466514
vt 0.988986 0.444214
vt 0.667930 0.447033
vt 0.668152 0.469289
vt 0.011465 0.063558
vt 0.991605 0.067958
vt 0.991704 0.051094
vt 0.011563 0.046693
vt 0.659399 0.426116
vt 0.659546 0.403836
vt 0.338476 0.404760
vt 0.338328 0.427061
vt 0.332313 0.425336
vt 0.332462 0.403035
vt 0.011392 0.403950
vt 0.011243 0.426240
vt 0.988986 0.444214
vt 0.988965 0.421934
vt 0.667909 0.424753
vt 0.667930 0.447033
vt 0.991438 0.087137
vt 0.991605 0.067958
vt 0.011465 0.063558
vt 0.011297 0.082722
vt 0.960541 0.160172
vt 0.980866 0.135905
vt 0.964501 0.131139
vt 0.952117 0.145928
vt 0.659860 0.493017
vt 0.659746 0.470717
vt 0.338676 0.471575
vt 0.338790 0.493833
vt 0.332780 0.492171
vt 0.332662 0.469915
vt 0.011593 0.470787
vt 0.011710 0.493065
vt 0.988965 0.421934
vt 0.988673 0.399701
vt 0.667618 0.402540
vt 0.667909 0.424753
vt 0.015136 0.132994
vt 0.015288 0.149035
vt 0.947757 0.147058
vt 0.947604 0.131016
vt 0.947940 0.221083
vt 0.948000 0.205040
vt 0.015532 0.207017
vt 0.015471 0.223060
vt 0.947757 0.147058
vt 0.015288 0.149035
vt 0.015532 0.207017
vt 0.948000 0.205040
vt 0.010983 0.126086
vt 0.960494 0.126118
vt 0.954576 0.109882
vt 0.010130 0.109850
vt 0.584002 0.388326
vt 0.584069 0.378850
vt 0.430801 0.378530
vt 0.430739 0.387612
vt 0.746510 0.399536
vt 0.746545 0.390133
vt 0.593277 0.389923
vt 0.593245 0.399696
vt 0.585116 0.377278
vt 0.585183 0.367851
vt 0.431915 0.367482
vt 0.431851 0.376909
vt 0.746081 0.387280
vt 0.746150 0.377853
vt 0.592882 0.377470
vt 0.592816 0.386898
vt 0.426554 0.387757
vt 0.426618 0.378329
vt 0.273350 0.377975
vt 0.273290 0.387081
vt 0.580646 0.365732
vt 0.580711 0.356304
vt 0.427443 0.355950
vt 0.427382 0.365402
vt 0.742720 0.364735
vt 0.742787 0.355307
vt 0.589519 0.354939
vt 0.589456 0.364070
vt 0.417624 0.364664
vt 0.417662 0.355236
vt 0.264394 0.355036
vt 0.264359 0.364760
vt 0.582896 0.399302
vt 0.582963 0.389849
vt 0.429695 0.389506
vt 0.429631 0.398908
vt 0.741611 0.375734
vt 0.741678 0.366307
vt 0.588410 0.365938
vt 0.588346 0.375390
vt 0.425445 0.398756
vt 0.425510 0.389329
vt 0.272242 0.388974
vt 0.272181 0.398130
vt 0.422081 0.376235
vt 0.422145 0.366783
vt 0.268877 0.366453
vt 0.268816 0.375906
vt 0.493388 0.286875
vt 0.493485 0.295218
vt 0.974200 0.342136
vt 0.974040 0.333785
vt 0.014584 0.346467
vt 0.014769 0.354847
vt 0.502726 0.317913
vt 0.982135 0.383212
vt 0.982139 0.374826
vt 0.502723 0.309528
vt 0.022805 0.372455
vt 0.022757 0.380846
vt 0.010983 0.126086
vt 0.010130 0.109850
vt 0.954576 0.109882
vt 0.960494 0.126118
vt 0.584002 0.388326
vt 0.430739 0.387612
vt 0.430801 0.378530
vt 0.584069 0.378850
vt 0.746510 0.399536
vt 0.593245 0.399696
vt 0.593277 0.389923
vt 0.746545 0.390133
vt 0.585116 0.377278
vt 0.431851 0.376909
vt 0.431915 0.367482
vt 0.585183 0.367851
vt 0.746081 0.387280
vt 0.592816 0.386898
vt 0.592882 0.377470
vt 0.746150 0.377853
vt 0.426554 0.387757
vt 0.273290 0.387081
vt 0.273350 0.377975
vt 0.426618 0.378329
vt 0.580646 0.365732
vt 0.427382 0.365402
vt 0.427443 0.355950
vt 0.580711 0.356304
vt 0.742720 0.364735
vt 0.589456 0.364070
vt 0.589519 0.354939
vt 0.742787 0.355307
vt 0.417624 0.364664
vt 0.264359 0.364760
vt 0.264394 0.355036
vt 0.417662 0.355236
vt 0.582896 0.399302
vt 0.429631 0.398908
vt 0.429695 0.389506
vt 0.582963 0.389849
vt 0.741611 0.375734
vt 0.588346 0.375390
vt 0.588410 0.365938
vt 0.741678 0.366307
vt 0.425445 0.398756
vt 0.272181 0.398130
vt 0.272242 0.388974
vt 0.425510 0.389329
vt 0.422081 0.376235
vt 0.268816 0.375906
vt 0.268877 0.366453
vt 0.422145 0.366783
vt 0.493388 0.286875
vt 0.974040 0.333785
vt 0.974200 0.342136
vt 0.493485 0.295218
vt 0.014584 0.346467
vt 0.014769 0.354847
vt 0.502726 0.317913
vt 0.502723 0.309528
vt 0.982139 0.374826
vt 0.982135 0.383212
vt 0.022805 0.372455
vt 0.022757 0.380846
s 0
usemtl SP_TNR_MetalFence_1
f 1/1/1 2/2/1 3/3/1
f 1/1/2 3/3/2 4/4/2
s 1
f 5/5/3 6/6/4 7/7/3
s 0
f 5/5/5 7/7/5 8/8/5
s 1
f 9/9/6 10/10/7 11/11/8
f 9/9/6 11/11/8 12/12/7
f 13/13/6 14/14/7 15/15/6
f 13/13/6 15/15/6 16/16/7
s 0
f 17/17/9 18/18/9 19/19/9
f 17/17/10 19/19/10 20/20/10
s 1
f 21/21/11 22/22/11 23/23/12
s 0
f 21/21/13 23/23/13 24/24/13
s 1
f 25/25/14 26/26/14 27/27/15
f 25/25/14 27/27/15 28/28/15
s 0
f 29/29/16 30/30/16 31/31/16
f 29/29/17 31/31/17 32/32/18
s 1
f 33/33/19 34/34/20 35/35/21
f 33/33/19 35/35/21 36/36/20
s 0
f 37/37/22 38/38/22 39/39/22
f 37/37/17 39/39/17 40/40/23
s 1
f 41/41/24 42/42/24 43/43/24
f 41/41/24 43/43/24 44/44/25
f 45/45/26 46/46/27 47/47/27
s 0
f 45/45/28 47/47/29 48/48/29
f 49/49/30 50/50/30 51/51/30
f 49/49/30 51/51/30 52/52/30
f 53/53/31 54/54/31 55/55/31
f 53/53/31 55/55/31 56/56/31
f 57/57/32 58/58/32 59/59/32
f 57/57/33 59/59/33 60/60/33
s 1
f 61/61/34 62/62/34 63/63/34
f 61/61/34 63/63/34 64/64/34
s 0
f 65/65/35 66/66/36 67/67/35
f 65/65/37 67/67/37 68/68/37
f 69/69/38 70/70/38 71/71/38
f 69/69/39 71/71/40 72/72/39
f 73/73/41 74/74/35 75/75/35
s 1
f 73/73/35 75/75/42 76/76/35
s 0
f 77/77/43 78/78/43 79/79/43
f 77/77/43 79/79/43 80/80/43
f 81/81/44 82/82/44 83/83/44
f 81/81/44 83/83/44 84/84/44
f 85/85/45 86/86/45 87/87/45
f 85/85/45 87/87/45 88/88/45
f 89/89/46 90/90/46 91/91/46
f 89/89/46 91/91/46 92/92/46
f 93/93/46 94/94/46 95/95/46
f 93/93/46 95/95/46 96/96/46
f 97/97/46 98/98/46 99/99/46
f 97/97/46 99/99/46 100/100/46
f 101/101/46 102/102/46 103/103/46
f 101/101/46 103/103/46 104/104/46
f 105/105/46 106/106/46 107/107/46
f 105/105/46 107/107/46 108/108/46
f 109/109/46 110/110/46 111/111/46
f 109/109/46 111/111/46 112/112/46
f 113/113/46 114/114/46 115/115/46
f 113/113/46 115/115/46 116/116/46
f 117/117/46 118/118/46 119/119/46
f 117/117/46 119/119/46 120/120/46
f 121/121/46 122/122/46 123/123/46
f 121/121/46 123/123/46 124/124/46
f 125/125/46 126/126/46 127/127/46
f 125/125/46 127/127/46 128/128/46
f 129/129/46 130/130/46 131/131/46
f 129/129/46 131/131/46 132/132/46
f 133/133/46 134/134/46 135/135/46
f 133/133/46 135/135/46 136/136/46
f 137/137/46 138/138/46 139/139/46
f 137/137/46 139/139/46 140/140/46
f 141/141/46 142/142/46 143/143/46
f 141/141/46 143/143/46 144/144/46
f 145/145/46 146/146/46 142/142/46
f 145/145/46 142/142/46 141/141/46
f 147/147/46 148/148/46 149/149/46
f 147/147/46 149/149/46 150/150/46
f 151/151/46 152/152/46 147/147/46
f 151/151/46 147/147/46 150/150/46
f 153/153/47 154/154/47 155/155/47
f 153/153/47 155/155/47 156/156/47
f 157/157/47 158/158/47 159/159/47
f 157/157/47 159/159/47 160/160/47
f 161/161/47 162/162/47 163/163/47
f 161/161/47 163/163/47 164/164/47
f 165/165/47 166/166/47 167/167/47
f 165/165/47 167/167/47 168/168/47
f 169/169/47 170/170/47 171/171/47
f 169/169/47 171/171/47 172/172/47
f 173/173/47 174/174/47 175/175/47
f 173/173/47 175/175/47 176/176/47
f 177/177/47 178/178/47 179/179/47
f 177/177/47 179/179/47 180/180/47
f 181/181/47 182/182/47 183/183/47
f 181/181/47 183/183/47 184/184/47
f 185/185/47 186/186/47 187/187/47
f 185/185/47 187/187/47 188/188/47
f 189/189/47 190/190/47 191/191/47
f 189/189/47 191/191/47 192/192/47
f 193/193/47 194/194/47 195/195/47
f 193/193/47 195/195/47 196/196/47
f 197/197/47 198/198/47 199/199/47
f 197/197/47 199/199/47 200/200/47
f 201/201/47 202/202/47 203/203/47
f 201/201/47 203/203/47 204/204/47
f 205/205/47 206/206/47 207/207/47
f 205/205/47 207/207/47 208/208/47
f 209/209/47 205/205/47 208/208/47
f 209/209/47 208/208/47 210/210/47
f 211/211/47 212/212/47 213/213/47
f 211/211/47 213/213/47 214/214/47
f 215/215/47 212/212/47 211/211/47
f 215/215/47 211/211/47 216/216/47
