# Blender 3.4.0
# www.blender.org
mtllib metalfence_4.mtl
o SP_TNR_MetalFence_2_SP_TNR_MetalFence_2_0
v -0.036228 0.063656 0.000037
v -0.018213 0.063656 0.037445
v -0.018213 0.928665 0.037446
v -0.036228 0.928665 0.000037
v 0.022267 0.063656 0.046684
v 0.022267 0.928665 0.046685
v 0.054729 0.063656 0.020797
v 0.054728 0.928665 0.020798
v 0.054729 0.063656 -0.020723
v 0.054728 0.928665 -0.020723
v 0.054729 0.063656 -0.020723
v 0.022267 0.063656 -0.046611
v 0.022267 0.928665 -0.046610
v 0.054728 0.928665 -0.020723
v -0.018213 0.063656 -0.037372
v -0.018213 0.928665 -0.037371
v -0.018213 0.928665 0.037446
v 0.022267 0.928665 0.046685
v 0.054728 0.928665 0.020798
v 0.054728 0.928665 -0.020723
v 0.022267 0.928665 -0.046610
v -0.018213 0.928665 -0.037371
v -0.036228 0.928665 0.000037
v -2.226770 0.063656 0.000036
v -2.208755 0.063656 0.037444
v -2.208755 0.928664 0.037445
v -2.226770 0.928664 0.000037
v -2.168275 0.063656 0.046684
v -2.168275 0.928664 0.046684
v -2.135813 0.063656 0.020796
v -2.135813 0.928664 0.020797
v -2.135813 0.063656 -0.020724
v -2.135813 0.928664 -0.020724
v -2.135813 0.063656 -0.020724
v -2.168275 0.063656 -0.046612
v -2.168275 0.928665 -0.046611
v -2.135813 0.928664 -0.020724
v -2.208755 0.063656 -0.037373
v -2.208755 0.928665 -0.037372
v -2.208755 0.928664 0.037445
v -2.168275 0.928664 0.046684
v -2.135813 0.928664 0.020797
v -2.135813 0.928664 -0.020724
v -2.168275 0.928665 -0.046611
v -2.208755 0.928665 -0.037372
v -2.226770 0.928664 0.000037
v -2.153775 0.916253 -0.002688
v -2.153774 0.885956 0.027609
v 0.005557 0.885956 0.027610
v 0.005557 0.916253 -0.002687
v -2.153774 0.855659 -0.002688
v 0.005557 0.855659 -0.002687
v -2.153774 0.885956 -0.032985
v 0.005557 0.885956 -0.032985
v -2.153774 0.885956 -0.032985
v 0.005557 0.885956 -0.032985
v -2.153774 0.714191 -0.002688
v -2.153774 0.683893 0.027609
v 0.005557 0.683894 0.027610
v 0.005556 0.714191 -0.002687
v -2.153774 0.653596 -0.002688
v 0.005557 0.653596 -0.002688
v -2.153774 0.683894 -0.032986
v 0.005556 0.683894 -0.032985
v -2.153774 0.683894 -0.032986
v 0.005556 0.683894 -0.032985
v -2.153775 0.493326 -0.002689
v -2.153774 0.463029 0.027609
v 0.005557 0.463029 0.027609
v 0.005557 0.493327 -0.002688
v -2.153774 0.432732 -0.002689
v 0.005557 0.432732 -0.002688
v -2.153774 0.463029 -0.032986
v 0.005557 0.463029 -0.032985
v -2.153774 0.463029 -0.032986
v 0.005557 0.463029 -0.032985
v 0.079312 0.049200 -0.057391
v 0.079312 -0.014265 -0.057391
v -0.052320 -0.014265 -0.057391
v -0.052320 0.049200 -0.057391
v -0.008443 0.100726 -0.057391
v 0.035435 0.100726 -0.057391
v -0.008443 0.100726 0.057392
v -0.052320 0.049200 0.057392
v -0.052320 -0.014265 0.057392
v 0.035435 0.100726 0.057392
v 0.079312 0.049200 0.057392
v 0.079312 -0.014265 0.057392
v -0.008443 0.100726 -0.057391
v -0.008443 0.100726 0.057392
v 0.035435 0.100726 0.057392
v 0.035435 0.100726 -0.057391
v -0.052320 0.049200 -0.057391
v -0.052320 -0.014265 -0.057391
v -0.052320 -0.014265 0.057392
v -0.052320 0.049200 0.057392
v 0.079312 -0.014265 -0.057391
v 0.079312 0.049200 -0.057391
v 0.079312 0.049200 0.057392
v 0.079312 -0.014265 0.057392
v -2.116210 0.049200 -0.057392
v -2.116210 -0.014265 -0.057392
v -2.247842 -0.014265 -0.057392
v -2.247842 0.049200 -0.057392
v -2.203964 0.100726 -0.057392
v -2.160087 0.100726 -0.057392
v -2.203964 0.100726 0.057391
v -2.247842 0.049200 0.057391
v -2.247842 -0.014265 0.057391
v -2.160087 0.100726 0.057391
v -2.116210 0.049200 0.057391
v -2.116210 -0.014265 0.057391
v -2.203964 0.100726 -0.057392
v -2.203964 0.100726 0.057391
v -2.160087 0.100726 0.057391
v -2.160087 0.100726 -0.057392
v -2.247842 0.049200 -0.057392
v -2.247842 -0.014265 -0.057392
v -2.247842 -0.014265 0.057391
v -2.247842 0.049200 0.057391
v -2.116210 -0.014265 -0.057392
v -2.116210 0.049200 -0.057392
v -2.116210 0.049200 0.057391
v -2.116210 -0.014265 0.057391
v 2.132302 0.063657 0.000036
v 2.150317 0.063657 0.037445
v 2.150317 0.928665 0.037446
v 2.132302 0.928665 0.000037
v 2.190796 0.063657 0.046684
v 2.190797 0.928665 0.046685
v 2.223258 0.063657 0.020797
v 2.223258 0.928665 0.020797
v 2.223258 0.063657 -0.020724
v 2.223258 0.928665 -0.020723
v 2.190796 0.063657 -0.046611
v 2.190797 0.928665 -0.046611
v 2.150317 0.063657 -0.037372
v 2.150317 0.928665 -0.037371
v 2.132302 0.063657 0.000036
v 2.132302 0.928665 0.000037
v 2.150317 0.928665 0.037446
v 2.190797 0.928665 0.046685
v 2.223258 0.928665 0.020797
v 2.223258 0.928665 -0.020723
v 2.190797 0.928665 -0.046611
v 2.150317 0.928665 -0.037371
v 2.132302 0.928665 0.000037
v 2.247842 0.049201 -0.057391
v 2.247842 -0.014265 -0.057392
v 2.116210 -0.014265 -0.057391
v 2.116210 0.049201 -0.057391
v 2.160087 0.100727 -0.057391
v 2.203964 0.100727 -0.057391
v 2.160087 0.100727 0.057392
v 2.116210 0.049200 0.057392
v 2.116210 -0.014265 0.057392
v 2.203964 0.100727 0.057392
v 2.247842 0.049201 0.057392
v 2.247842 -0.014265 0.057392
v 2.160087 0.100727 -0.057391
v 2.160087 0.100727 0.057392
v 2.203964 0.100727 0.057392
v 2.203964 0.100727 -0.057391
v 2.116210 0.049201 -0.057391
v 2.116210 -0.014265 -0.057391
v 2.116210 -0.014265 0.057392
v 2.116210 0.049200 0.057392
v 2.247842 -0.014265 -0.057392
v 2.247842 0.049201 -0.057391
v 2.247842 0.049201 0.057392
v 2.247842 -0.014265 0.057392
v 0.005557 0.916253 -0.002687
v 0.005557 0.885956 0.027610
v 2.182820 0.885956 0.027610
v 2.182820 0.916254 -0.002687
v 0.005557 0.855659 -0.002687
v 2.182820 0.855659 -0.002688
v 0.005557 0.885956 -0.032985
v 2.182820 0.885956 -0.032985
v 0.005557 0.885956 -0.032985
v 2.182820 0.885956 -0.032985
v 0.005556 0.714191 -0.002687
v 0.005557 0.683894 0.027610
v 2.182819 0.683894 0.027609
v 2.182819 0.714191 -0.002688
v 0.005557 0.653596 -0.002688
v 2.182820 0.653597 -0.002688
v 0.005556 0.683894 -0.032985
v 2.182819 0.683894 -0.032985
v 0.005556 0.683894 -0.032985
v 2.182819 0.683894 -0.032985
v 0.005557 0.493327 -0.002688
v 0.005557 0.463029 0.027609
v 2.182820 0.463029 0.027609
v 2.182820 0.493327 -0.002688
v 0.005557 0.432732 -0.002688
v 2.182820 0.432732 -0.002688
v 0.005557 0.463029 -0.032985
v 2.182820 0.463029 -0.032985
v 0.005557 0.463029 -0.032985
v 2.182820 0.463029 -0.032985
vn -1.0000 -0.0000 -0.0000
vn -0.6235 -0.0000 0.7818
vn -0.4886 0.6212 0.6127
vn -0.7836 0.6212 -0.0000
vn 0.2225 -0.0000 0.9749
vn 0.1744 0.6212 0.7640
vn 0.9010 -0.0000 0.4339
vn 0.7060 0.6212 0.3400
vn 0.9010 -0.0000 -0.4339
vn 0.7060 0.6213 -0.3400
vn 0.9010 0.0001 -0.4339
vn 0.2225 -0.0000 -0.9749
vn 0.1744 0.6212 -0.7640
vn -0.6235 -0.0000 -0.7818
vn -0.4886 0.6212 -0.6126
vn -0.4885 0.6212 0.6127
vn 0.7060 0.6212 -0.3400
vn 0.1743 0.6212 -0.7640
vn -0.4886 0.6212 0.6126
vn -0.0000 1.0000 -0.0000
vn -0.0000 -0.0000 1.0000
vn -0.0000 -1.0000 -0.0000
vn -0.0000 -0.0000 -1.0000
vn 0.0004 -0.0000 -1.0000
vn 0.7234 0.2663 -0.6370
vn 0.7071 -0.0003 -0.7071
vn -0.7071 -0.0000 -0.7071
vn -0.7234 0.2662 -0.6370
vn -0.3277 0.7096 -0.6238
vn 0.3278 0.7095 -0.6238
vn -0.3278 0.7095 0.6238
vn -0.7234 0.2662 0.6370
vn -0.7071 0.0002 0.7071
vn 0.3277 0.7096 0.6238
vn 0.7234 0.2662 0.6370
vn 0.7071 -0.0000 0.7071
vn -0.3278 0.7095 -0.6238
vn -0.3278 0.7096 0.6238
vn 0.3277 0.7095 0.6238
vn 0.3278 0.7096 -0.6238
vn -0.7234 0.2663 -0.6370
vn -0.7071 0.0002 -0.7071
vn -0.7071 -0.0000 0.7071
vn -0.7234 0.2663 0.6370
vn 0.7071 -0.0000 -0.7071
vn 0.7234 0.2663 0.6370
vn 0.7071 -0.0003 0.7071
vn 0.7234 0.2662 -0.6370
vn -0.3277 0.7096 0.6238
vn -0.7071 -0.0003 -0.7071
vn -0.7836 0.6213 -0.0000
vn 0.1743 0.6212 0.7640
vn 0.7071 0.0002 0.7071
vn 0.0002 -0.0000 -1.0000
vt 0.216510 0.445903
vt 0.235144 0.445938
vt 0.235868 0.057731
vt 0.217234 0.057697
vt 0.253778 0.445972
vt 0.254502 0.057766
vt 0.272411 0.446007
vt 0.273136 0.057801
vt 0.291045 0.446041
vt 0.291770 0.057836
vt 0.160608 0.445798
vt 0.179242 0.445833
vt 0.179967 0.057628
vt 0.161333 0.057593
vt 0.197876 0.445868
vt 0.198601 0.057662
vt 0.634944 0.355402
vt 0.625043 0.371188
vt 0.631211 0.388771
vt 0.648804 0.394911
vt 0.664574 0.384985
vt 0.666646 0.366466
vt 0.653459 0.353301
vt 0.348669 0.446031
vt 0.367303 0.446027
vt 0.367231 0.057821
vt 0.348597 0.057825
vt 0.385937 0.446024
vt 0.385865 0.057817
vt 0.404571 0.446020
vt 0.404498 0.057814
vt 0.423205 0.446017
vt 0.423132 0.057810
vt 0.292767 0.446041
vt 0.311401 0.446038
vt 0.311329 0.057832
vt 0.292695 0.057835
vt 0.330035 0.446034
vt 0.329963 0.057828
vt 0.562509 0.321315
vt 0.552608 0.337101
vt 0.558777 0.354684
vt 0.576370 0.360824
vt 0.592140 0.350898
vt 0.594211 0.332379
vt 0.581024 0.319214
vt 0.982798 0.513667
vt 0.982709 0.494437
vt 0.013635 0.498917
vt 0.013724 0.518147
vt 0.982620 0.475208
vt 0.013546 0.479687
vt 0.982531 0.455979
vt 0.013458 0.460458
vt 0.982887 0.532896
vt 0.013813 0.537376
vt 0.983601 0.687913
vt 0.983576 0.668683
vt 0.014492 0.669978
vt 0.014518 0.689208
vt 0.983550 0.649454
vt 0.014467 0.650748
vt 0.983524 0.630224
vt 0.014441 0.631519
vt 0.983627 0.707142
vt 0.014544 0.708437
vt 0.983686 0.594618
vt 0.983601 0.575389
vt 0.014527 0.579641
vt 0.014611 0.598870
vt 0.983517 0.556159
vt 0.014443 0.560411
vt 0.983432 0.536930
vt 0.014359 0.541182
vt 0.983770 0.613848
vt 0.014696 0.618100
vt 0.424782 0.211603
vt 0.437153 0.237259
vt 0.490365 0.211601
vt 0.477994 0.185945
vt 0.450213 0.173669
vt 0.432476 0.182221
vt 0.508498 0.380497
vt 0.537123 0.390650
vt 0.563734 0.380496
vt 0.501478 0.362099
vt 0.516062 0.335457
vt 0.542673 0.325303
vt 0.652460 0.450301
vt 0.652459 0.398788
vt 0.632767 0.398788
vt 0.632768 0.450301
vt 0.682832 0.450301
vt 0.711315 0.450301
vt 0.711315 0.398788
vt 0.682832 0.398788
vt 0.573913 0.450302
vt 0.602396 0.450302
vt 0.602395 0.398789
vt 0.573912 0.398789
vt 0.424782 0.356473
vt 0.437153 0.382128
vt 0.490365 0.356470
vt 0.477994 0.330815
vt 0.450213 0.318538
vt 0.432476 0.327091
vt 0.431802 0.158931
vt 0.460428 0.169085
vt 0.487039 0.158931
vt 0.424782 0.140534
vt 0.439366 0.113892
vt 0.465977 0.103737
vt 0.503330 0.446039
vt 0.503330 0.394526
vt 0.483638 0.394526
vt 0.483639 0.446039
vt 0.533702 0.446039
vt 0.562184 0.446039
vt 0.562185 0.394526
vt 0.533702 0.394526
vt 0.424783 0.446041
vt 0.453267 0.446041
vt 0.453265 0.394527
vt 0.424782 0.394528
vt 0.026364 0.446041
vt 0.044996 0.445736
vt 0.038631 0.057582
vt 0.020000 0.057887
vt 0.063627 0.445431
vt 0.057263 0.057276
vt 0.082259 0.445125
vt 0.075894 0.056971
vt 0.100890 0.444820
vt 0.094525 0.056666
vt 0.119521 0.444514
vt 0.113157 0.056360
vt 0.138153 0.444209
vt 0.131788 0.056055
vt 0.156784 0.443903
vt 0.150420 0.055749
vt 0.081031 0.014533
vt 0.071130 0.030318
vt 0.077299 0.047902
vt 0.094892 0.054042
vt 0.110662 0.044116
vt 0.112733 0.025597
vt 0.099547 0.012431
vt 0.424782 0.284038
vt 0.437153 0.309694
vt 0.490365 0.284036
vt 0.477994 0.258380
vt 0.450213 0.246103
vt 0.432476 0.254656
vt 0.934584 0.440149
vt 0.963209 0.450302
vt 0.989820 0.440148
vt 0.927564 0.421751
vt 0.942149 0.395109
vt 0.968760 0.384955
vt 0.801590 0.450301
vt 0.801589 0.398788
vt 0.781898 0.398788
vt 0.781899 0.450301
vt 0.831962 0.450301
vt 0.860445 0.450301
vt 0.860445 0.398787
vt 0.831962 0.398787
vt 0.723044 0.450302
vt 0.751526 0.450302
vt 0.751525 0.398788
vt 0.723043 0.398789
vt 0.995546 0.867338
vt 0.995460 0.848108
vt 0.018339 0.852470
vt 0.018425 0.871700
vt 0.995374 0.828878
vt 0.018253 0.833240
vt 0.995288 0.809649
vt 0.018167 0.814010
vt 0.995632 0.886568
vt 0.018511 0.890930
vt 0.991692 0.963842
vt 0.991645 0.944612
vt 0.014518 0.946965
vt 0.014564 0.966194
vt 0.991599 0.925382
vt 0.014471 0.927735
vt 0.991553 0.906152
vt 0.014425 0.908505
vt 0.991738 0.983072
vt 0.014610 0.985424
vt 0.991301 0.777299
vt 0.991188 0.758070
vt 0.014074 0.763784
vt 0.014186 0.783014
vt 0.991075 0.738840
vt 0.013961 0.744554
vt 0.990963 0.719611
vt 0.013849 0.725325
vt 0.991413 0.796529
vt 0.014298 0.802243
s 1
usemtl SP_TNR_MetalFence_2
f 1/1/1 2/2/2 3/3/3
f 3/3/3 4/4/4 1/1/1
f 2/2/2 5/5/5 6/6/6
f 6/6/6 3/3/3 2/2/2
f 5/5/5 7/7/7 8/8/8
f 8/8/8 6/6/6 5/5/5
f 7/7/7 9/9/9 10/10/10
f 10/10/10 8/8/8 7/7/7
f 11/11/11 12/12/12 13/13/13
f 13/13/13 14/14/10 11/11/11
f 12/12/12 15/15/14 16/16/15
f 16/16/15 13/13/13 12/12/12
f 15/15/14 1/1/1 4/4/4
f 4/4/4 16/16/15 15/15/14
f 17/17/16 18/18/6 19/19/8
f 19/19/8 20/20/17 21/21/18
f 19/19/8 21/21/18 22/22/15
f 17/17/16 19/19/8 22/22/15
f 23/23/4 17/17/16 22/22/15
f 24/24/1 25/25/2 26/26/3
f 26/26/3 27/27/4 24/24/1
f 25/25/2 28/28/5 29/29/6
f 29/29/6 26/26/3 25/25/2
f 28/28/5 30/30/7 31/31/8
f 31/31/8 29/29/6 28/28/5
f 30/30/7 32/32/9 33/33/10
f 33/33/10 31/31/8 30/30/7
f 34/34/9 35/35/12 36/36/18
f 36/36/18 37/37/10 34/34/9
f 35/35/12 38/38/14 39/39/15
f 39/39/15 36/36/18 35/35/12
f 38/38/14 24/24/1 27/27/4
f 27/27/4 39/39/15 38/38/14
f 40/40/19 41/41/6 42/42/8
f 42/42/8 43/43/17 44/44/18
f 42/42/8 44/44/18 45/45/15
f 40/40/19 42/42/8 45/45/15
f 46/46/4 40/40/19 45/45/15
f 47/47/20 48/48/21 49/49/21
f 49/49/21 50/50/20 47/47/20
f 48/48/21 51/51/22 52/52/22
f 52/52/22 49/49/21 48/48/21
f 51/51/22 53/53/23 54/54/23
f 54/54/23 52/52/22 51/51/22
f 55/55/23 47/47/20 50/50/20
f 50/50/20 56/56/23 55/55/23
f 57/57/20 58/58/21 59/59/21
f 59/59/21 60/60/20 57/57/20
f 58/58/21 61/61/22 62/62/22
f 62/62/22 59/59/21 58/58/21
f 61/61/22 63/63/23 64/64/24
f 64/64/24 62/62/22 61/61/22
f 65/65/23 57/57/20 60/60/20
f 60/60/20 66/66/23 65/65/23
f 67/67/20 68/68/21 69/69/21
f 69/69/21 70/70/20 67/67/20
f 68/68/21 71/71/22 72/72/22
f 72/72/22 69/69/21 68/68/21
f 71/71/22 73/73/23 74/74/23
f 74/74/23 72/72/22 71/71/22
f 75/75/23 67/67/20 70/70/20
f 70/70/20 76/76/23 75/75/23
f 77/77/25 78/78/26 79/79/27
f 79/79/27 80/80/28 81/81/29
f 79/79/27 81/81/29 82/82/30
f 77/77/25 79/79/27 82/82/30
f 83/83/31 84/84/32 85/85/33
f 86/86/34 83/83/31 85/85/33
f 87/87/35 86/86/34 85/85/33
f 87/87/35 85/85/33 88/88/36
f 89/89/37 90/90/38 91/91/39
f 91/91/39 92/92/40 89/89/37
f 93/93/41 94/94/42 95/95/43
f 95/95/43 96/96/44 93/93/41
f 97/97/45 98/98/25 99/99/46
f 99/99/46 100/100/47 97/97/45
f 93/93/41 96/96/44 90/90/38
f 90/90/38 89/89/37 93/93/41
f 99/99/46 98/98/25 92/92/40
f 92/92/40 91/91/39 99/99/46
f 101/101/48 102/102/26 103/103/27
f 103/103/27 104/104/41 105/105/29
f 103/103/27 105/105/29 106/106/30
f 101/101/48 103/103/27 106/106/30
f 107/107/31 108/108/32 109/109/33
f 110/110/34 107/107/31 109/109/33
f 111/111/46 110/110/34 109/109/33
f 111/111/46 109/109/33 112/112/36
f 113/113/37 114/114/49 115/115/34
f 115/115/34 116/116/30 113/113/37
f 117/117/41 118/118/50 119/119/43
f 119/119/43 120/120/44 117/117/41
f 121/121/45 122/122/25 123/123/46
f 123/123/46 124/124/47 121/121/45
f 117/117/41 120/120/44 114/114/49
f 114/114/49 113/113/37 117/117/41
f 123/123/46 122/122/25 116/116/30
f 116/116/30 115/115/34 123/123/46
f 125/125/1 126/126/2 127/127/19
f 127/127/19 128/128/51 125/125/1
f 126/126/2 129/129/5 130/130/6
f 130/130/6 127/127/19 126/126/2
f 129/129/5 131/131/7 132/132/8
f 132/132/8 130/130/6 129/129/5
f 131/131/7 133/133/9 134/134/17
f 134/134/17 132/132/8 131/131/7
f 133/133/9 135/135/12 136/136/18
f 136/136/18 134/134/17 133/133/9
f 135/135/12 137/137/14 138/138/15
f 138/138/15 136/136/18 135/135/12
f 137/137/14 139/139/1 140/140/51
f 140/140/51 138/138/15 137/137/14
f 141/141/19 142/142/52 143/143/8
f 143/143/8 144/144/17 145/145/18
f 143/143/8 145/145/18 146/146/15
f 141/141/19 143/143/8 146/146/15
f 147/147/4 141/141/19 146/146/15
f 148/148/48 149/149/26 150/150/27
f 150/150/27 151/151/28 152/152/29
f 150/150/27 152/152/29 153/153/30
f 148/148/48 150/150/27 153/153/30
f 154/154/49 155/155/32 156/156/33
f 157/157/34 154/154/49 156/156/33
f 158/158/46 157/157/34 156/156/33
f 158/158/46 156/156/33 159/159/36
f 160/160/37 161/161/49 162/162/34
f 162/162/34 163/163/30 160/160/37
f 164/164/41 165/165/42 166/166/43
f 166/166/43 167/167/44 164/164/41
f 168/168/45 169/169/25 170/170/46
f 170/170/46 171/171/53 168/168/45
f 164/164/41 167/167/44 161/161/49
f 161/161/49 160/160/37 164/164/41
f 170/170/46 169/169/25 163/163/30
f 163/163/30 162/162/34 170/170/46
f 172/172/20 173/173/21 174/174/21
f 174/174/21 175/175/20 172/172/20
f 173/173/21 176/176/22 177/177/22
f 177/177/22 174/174/21 173/173/21
f 176/176/22 178/178/23 179/179/23
f 179/179/23 177/177/22 176/176/22
f 180/180/23 172/172/20 175/175/20
f 175/175/20 181/181/23 180/180/23
f 182/182/20 183/183/21 184/184/21
f 184/184/21 185/185/20 182/182/20
f 183/183/21 186/186/22 187/187/22
f 187/187/22 184/184/21 183/183/21
f 186/186/22 188/188/23 189/189/23
f 189/189/23 187/187/22 186/186/22
f 190/190/54 182/182/20 185/185/20
f 185/185/20 191/191/23 190/190/54
f 192/192/20 193/193/21 194/194/21
f 194/194/21 195/195/20 192/192/20
f 193/193/21 196/196/22 197/197/22
f 197/197/22 194/194/21 193/193/21
f 196/196/22 198/198/23 199/199/23
f 199/199/23 197/197/22 196/196/22
f 200/200/23 192/192/20 195/195/20
f 195/195/20 201/201/23 200/200/23
