# Blender 3.4.0
# www.blender.org
mtllib newspaper_4.mtl
o DP_TNR_NewspaperV_4_WT_NewspaperVB_0
v 0.221796 0.004893 -0.247727
v 0.212250 0.004893 -0.247727
v 0.212250 0.018980 -0.247727
v -0.212250 0.019065 -0.247727
v -0.212250 0.004893 -0.247727
v -0.221795 0.004893 -0.247727
v 0.212250 0.038143 -0.247727
v -0.212250 0.039386 -0.247727
v 0.221796 0.004893 0.247727
v 0.212250 0.018980 0.247727
v 0.212250 0.004893 0.247727
v -0.212250 0.019065 0.247727
v -0.221795 0.004893 0.247727
v -0.212250 0.004893 0.247727
v 0.212250 0.038143 0.247727
v -0.212250 0.039386 0.247727
v 0.093853 1.135961 -0.187976
v 0.093853 0.847627 -0.187976
v -0.093853 0.847627 -0.187976
v -0.093853 1.135961 -0.187976
v 0.207904 0.080585 -0.224359
v 0.209200 0.835381 -0.224359
v 0.212250 0.838081 -0.247727
v 0.212250 0.038143 -0.247727
v 0.033525 0.956268 -0.260386
v -0.042358 0.956268 -0.260386
v -0.042358 0.968310 -0.247238
v 0.033525 0.968310 -0.247238
v -0.042358 0.968310 -0.179556
v 0.033525 0.968310 -0.179556
v -0.042358 0.796291 -0.260386
v 0.033525 0.796291 -0.260386
v 0.033525 0.796291 -0.179556
v -0.042358 0.796291 -0.179556
v 0.221796 0.847627 -0.247727
v 0.212250 0.838081 -0.247727
v -0.212249 0.838081 -0.247727
v -0.221795 0.847627 -0.247727
v -0.208559 0.834301 -0.224359
v -0.212249 0.838081 -0.247727
v 0.212250 0.838081 -0.247727
v 0.209200 0.835381 -0.224359
v -0.207155 0.080585 -0.224359
v -0.212250 0.039386 -0.247727
v -0.212249 0.838081 -0.247727
v -0.208559 0.834301 -0.224359
v -0.207155 0.080585 -0.224359
v 0.207904 0.080585 -0.224359
v -0.208559 0.834301 -0.224359
v 0.209200 0.835381 -0.224359
v 0.033525 0.796291 -0.260386
v -0.042358 0.796291 -0.260386
v -0.042358 0.956268 -0.260386
v 0.033525 0.956268 -0.260386
v 0.218025 0.461260 -0.236109
v -0.219127 0.461260 -0.236109
v -0.219127 0.470841 -0.222523
v 0.218025 0.470841 -0.222523
v 0.218025 0.451680 -0.222523
v -0.219127 0.451680 -0.222523
v 0.093853 0.847627 -0.187976
v 0.093853 0.847627 0.187976
v -0.093853 0.847627 0.187976
v -0.093853 0.847627 -0.187976
v 0.221796 0.426260 -0.247727
v 0.221796 0.426260 0.247727
v 0.221796 0.004893 0.247727
v 0.221796 0.004893 -0.247727
v -0.212250 0.019065 -0.247727
v -0.212250 0.019065 0.247727
v -0.212250 0.004893 0.247727
v -0.212250 0.004893 -0.247727
v 0.221796 0.004893 -0.247727
v 0.221796 0.004893 0.247727
v 0.212250 0.004893 0.247727
v 0.212250 0.004893 -0.247727
v -0.212250 0.004893 -0.247727
v -0.212250 0.004893 0.247727
v -0.221795 0.004893 0.247727
v -0.221795 0.004893 -0.247727
v 0.212250 0.004893 -0.247727
v 0.212250 0.004893 0.247727
v 0.212250 0.018980 0.247727
v 0.212250 0.018980 -0.247727
v 0.212250 0.018980 -0.247727
v 0.212250 0.018980 0.247727
v -0.212250 0.019065 0.247727
v -0.212250 0.019065 -0.247727
v 0.221796 0.847627 -0.247727
v 0.221796 0.847627 0.247727
v -0.093853 0.847627 0.187976
v 0.093853 0.847627 0.187976
v 0.093853 1.135961 0.187976
v -0.093853 1.135961 0.187976
v 0.207904 0.080585 0.224360
v 0.212250 0.038143 0.247727
v 0.212250 0.838081 0.247727
v 0.209200 0.835381 0.224359
v -0.042358 0.968310 0.247238
v -0.042358 0.956269 0.260386
v 0.033525 0.956269 0.260386
v 0.033525 0.968310 0.247238
v 0.033525 0.968310 0.179556
v -0.042358 0.968310 0.179556
v -0.042358 0.796291 0.260386
v -0.042358 0.796291 0.179556
v 0.033525 0.796291 0.179556
v 0.033525 0.796291 0.260386
v 0.221796 0.847627 0.247727
v -0.221795 0.847627 0.247727
v -0.212249 0.838081 0.247727
v 0.212250 0.838081 0.247727
v -0.208559 0.834301 0.224359
v 0.209200 0.835381 0.224359
v 0.212250 0.838081 0.247727
v -0.212249 0.838081 0.247727
v -0.207155 0.080585 0.224360
v -0.208559 0.834301 0.224359
v -0.212249 0.838081 0.247727
v -0.212250 0.039386 0.247727
v -0.207155 0.080585 0.224360
v 0.207904 0.080585 0.224360
v 0.209200 0.835381 0.224359
v -0.208559 0.834301 0.224359
v -0.042358 0.956269 0.260386
v -0.042358 0.796291 0.260386
v 0.033525 0.796291 0.260386
v 0.033525 0.956269 0.260386
v -0.219127 0.470841 0.222523
v -0.219127 0.461260 0.236109
v 0.218025 0.461260 0.236109
v 0.218025 0.470841 0.222523
v -0.219127 0.451680 0.222523
v 0.218025 0.451680 0.222523
v 0.093853 1.135961 -0.187976
v -0.093853 1.135961 -0.187976
v -0.093853 1.135961 0.187976
v 0.093853 1.135961 0.187976
v 0.093853 0.847627 -0.187976
v 0.093853 1.135961 -0.187976
v 0.093853 1.135961 0.187976
v 0.093853 0.847627 0.187976
v -0.093853 1.135961 -0.187976
v -0.093853 0.847627 -0.187976
v -0.093853 0.847627 0.187976
v -0.093853 1.135961 0.187976
v -0.221795 0.847627 -0.247727
v -0.221795 0.426260 -0.247727
v -0.221795 0.426260 0.247727
v -0.221795 0.847627 0.247727
v 0.221796 0.847627 0.247727
v 0.221796 0.847627 -0.247727
v -0.221795 0.847627 -0.247727
v -0.221795 0.847627 0.247727
v -0.221795 0.004893 -0.247727
v -0.221795 0.004893 0.247727
v 0.033525 0.968310 -0.179556
v 0.033525 0.796291 -0.179556
v 0.033525 0.796291 -0.260386
v 0.033525 0.956268 -0.260386
v 0.033525 0.968310 -0.247238
v -0.042358 0.796291 -0.179556
v -0.042358 0.968310 -0.179556
v -0.042358 0.968310 -0.247238
v -0.042358 0.956268 -0.260386
v -0.042358 0.796291 -0.260386
v -0.221795 0.426260 -0.247727
v 0.221796 0.426260 -0.247727
v 0.033525 0.968310 0.179556
v 0.033525 0.968310 0.247238
v 0.033525 0.956269 0.260386
v 0.033525 0.796291 0.260386
v 0.033525 0.796291 0.179556
v -0.042358 0.796291 0.179556
v -0.042358 0.796291 0.260386
v -0.042358 0.956269 0.260386
v -0.042358 0.968310 0.247238
v -0.042358 0.968310 0.179556
v -0.221795 0.426260 0.247727
v 0.221796 0.426260 0.247727
vn -0.0000 -0.0000 -1.0000
vn 0.0002 0.1192 -0.9929
vn 0.0002 0.1186 -0.9929
vn -0.0000 -0.0000 1.0000
vn 0.0002 0.1192 0.9929
vn 0.0002 0.1186 0.9929
vn -0.9876 0.0008 -0.1570
vn -0.0000 0.7375 -0.6754
vn -0.0000 0.9321 -0.3623
vn -0.0000 1.0000 -0.0000
vn -0.0000 -1.0000 -0.0000
vn 0.0013 -0.9905 -0.1374
vn 0.9827 0.0009 -0.1854
vn 0.0004 0.2602 -0.9656
vn 0.0004 0.2588 -0.9659
vn -0.0000 0.8172 -0.5763
vn -0.0000 -0.8172 -0.5763
vn 1.0000 -0.0000 -0.0000
vn -1.0000 -0.0000 -0.0000
vn -0.0002 -1.0000 -0.0000
vn -0.9876 0.0008 0.1570
vn -0.0000 0.9321 0.3623
vn -0.0000 0.7375 0.6754
vn 0.0013 -0.9905 0.1374
vn 0.9827 0.0009 0.1854
vn 0.0004 0.2602 0.9656
vn 0.0004 0.2588 0.9659
vn -0.0000 0.8172 0.5763
vn -0.0000 -0.8172 0.5763
vt 0.337778 0.792167
vt 0.344512 0.792167
vt 0.344512 0.782320
vt 0.643971 0.782261
vt 0.643971 0.792167
vt 0.650705 0.792167
vt 0.344512 0.768925
vt 0.643971 0.768056
vt 0.337778 0.792167
vt 0.344512 0.782320
vt 0.344512 0.792167
vt 0.643971 0.782261
vt 0.650705 0.792167
vt 0.643971 0.792167
vt 0.344512 0.768925
vt 0.643971 0.768056
vt 0.428034 0.001540
vt 0.428034 0.203088
vt 0.560449 0.203088
vt 0.560449 0.001540
vt 0.347578 0.739257
vt 0.346664 0.211648
vt 0.344512 0.209761
vt 0.344512 0.768925
vt 0.470592 0.127147
vt 0.524123 0.127147
vt 0.524123 0.118730
vt 0.470592 0.118730
vt 0.524123 0.118730
vt 0.470592 0.118730
vt 0.524123 0.238972
vt 0.470592 0.238972
vt 0.470592 0.238972
vt 0.524123 0.238972
vt 0.337778 0.203088
vt 0.344512 0.209761
vt 0.643971 0.209761
vt 0.650705 0.203088
vt 0.641368 0.212403
vt 0.643971 0.209761
vt 0.344512 0.209761
vt 0.346664 0.211648
vt 0.640378 0.739257
vt 0.643971 0.768056
vt 0.643971 0.209761
vt 0.641368 0.212403
vt 0.640378 0.739257
vt 0.347578 0.739257
vt 0.641368 0.212403
vt 0.346664 0.211648
vt 0.470592 0.238972
vt 0.524123 0.238972
vt 0.524123 0.127147
vt 0.470592 0.127147
vt 0.340439 0.470768
vt 0.648823 0.470768
vt 0.648823 0.466465
vt 0.340439 0.466465
vt 0.340439 0.475071
vt 0.648823 0.475071
vt 0.428034 0.203088
vt 0.428034 0.203088
vt 0.560449 0.203088
vt 0.560449 0.203088
vt 0.638914 0.480269
vt 0.348433 0.480269
vt 0.348436 0.737013
vt 0.639473 0.737013
vt 0.640379 0.998842
vt 0.640379 0.796211
vt 0.640379 0.796211
vt 0.640379 0.998842
vt 0.630907 0.998213
vt 0.630907 0.795582
vt 0.637516 0.795582
vt 0.637516 0.998213
vt 0.640379 0.998842
vt 0.640379 0.796211
vt 0.646988 0.796211
vt 0.646988 0.998842
vt 0.637516 0.998213
vt 0.637516 0.795582
vt 0.637516 0.795582
vt 0.637516 0.998213
vt 0.339242 0.996440
vt 0.598648 0.996440
vt 0.598648 0.805497
vt 0.339242 0.805497
vt 0.638914 0.737013
vt 0.348433 0.737013
vt 0.560449 0.203088
vt 0.428034 0.203088
vt 0.428034 0.001540
vt 0.560449 0.001540
vt 0.347578 0.739257
vt 0.344512 0.768925
vt 0.344512 0.209761
vt 0.346664 0.211648
vt 0.524123 0.118730
vt 0.524123 0.127147
vt 0.470592 0.127147
vt 0.470592 0.118730
vt 0.470592 0.118730
vt 0.524123 0.118730
vt 0.524123 0.238972
vt 0.524123 0.238972
vt 0.470592 0.238972
vt 0.470592 0.238972
vt 0.337778 0.203088
vt 0.650705 0.203088
vt 0.643971 0.209761
vt 0.344512 0.209761
vt 0.641368 0.212403
vt 0.346664 0.211648
vt 0.344512 0.209761
vt 0.643971 0.209761
vt 0.640378 0.739257
vt 0.641368 0.212403
vt 0.643971 0.209761
vt 0.643971 0.768056
vt 0.640378 0.739257
vt 0.347578 0.739257
vt 0.346664 0.211648
vt 0.641368 0.212403
vt 0.524123 0.127147
vt 0.524123 0.238972
vt 0.470592 0.238972
vt 0.470592 0.127147
vt 0.648823 0.466465
vt 0.648823 0.470768
vt 0.340439 0.470768
vt 0.340439 0.466465
vt 0.648823 0.475071
vt 0.340439 0.475071
vt 0.547879 0.079420
vt 0.547879 0.013773
vt 0.433452 0.013773
vt 0.433452 0.079420
vt 0.349600 0.477370
vt 0.349600 0.735989
vt 0.639688 0.735989
vt 0.639688 0.477370
vt 0.347485 0.477370
vt 0.347485 0.735989
vt 0.637573 0.735989
vt 0.637573 0.477370
vt 0.346884 0.737013
vt 0.346884 0.480269
vt 0.637364 0.480269
vt 0.637364 0.737013
vt 0.354536 0.680572
vt 0.630418 0.680572
vt 0.630418 0.495431
vt 0.354536 0.495431
vt 0.346884 0.737013
vt 0.637920 0.737013
vt 0.547747 0.079298
vt 0.428423 0.079298
vt 0.428423 0.030459
vt 0.539394 0.030459
vt 0.547747 0.038403
vt 0.427737 0.080181
vt 0.547061 0.080181
vt 0.547061 0.039286
vt 0.538708 0.031341
vt 0.427737 0.031341
vt 0.650705 0.497628
vt 0.337778 0.497628
vt 0.546765 0.080221
vt 0.546765 0.039326
vt 0.538412 0.031382
vt 0.427441 0.031382
vt 0.427441 0.080221
vt 0.427285 0.079271
vt 0.427285 0.030432
vt 0.538256 0.030432
vt 0.546609 0.038376
vt 0.546609 0.079271
vt 0.650705 0.497628
vt 0.337778 0.497628
s 0
usemtl WT_NewspaperVB
f 1/1/1 2/2/1 3/3/1
f 4/4/1 5/5/1 6/6/1
s 1
f 1/1/1 3/3/1 7/7/2
f 8/8/3 4/4/1 6/6/1
s 0
f 9/9/4 10/10/4 11/11/4
f 12/12/4 13/13/4 14/14/4
s 1
f 9/9/4 15/15/5 10/10/4
f 16/16/6 13/13/4 12/12/4
s 0
f 17/17/1 18/18/1 19/19/1
f 17/17/1 19/19/1 20/20/1
s 1
f 21/21/7 22/22/7 23/23/7
f 21/21/7 23/23/7 24/24/7
f 25/25/8 26/26/8 27/27/9
f 25/25/8 27/27/9 28/28/9
f 28/28/9 27/27/9 29/29/10
f 28/28/9 29/29/10 30/30/10
s 0
f 31/31/11 32/32/11 33/33/11
f 31/31/11 33/33/11 34/34/11
f 35/35/1 36/36/1 37/37/1
f 35/35/1 37/37/1 38/38/1
s 1
f 3/3/1 4/4/1 8/8/3
f 3/3/1 8/8/3 7/7/2
f 39/39/12 40/40/12 41/41/12
f 39/39/12 41/41/12 42/42/12
f 43/43/13 44/44/13 45/45/13
f 43/43/13 45/45/13 46/46/13
f 7/7/2 8/8/3 47/47/14
f 7/7/2 47/47/14 48/48/15
f 47/47/14 49/49/1 50/50/1
f 47/47/14 50/50/1 48/48/15
s 0
f 51/51/1 52/52/1 53/53/1
f 51/51/1 53/53/1 54/54/1
s 1
f 55/55/1 56/56/1 57/57/16
f 55/55/1 57/57/16 58/58/16
f 59/59/17 60/60/17 56/56/1
f 59/59/17 56/56/1 55/55/1
s 0
f 61/61/11 62/62/11 63/63/11
f 61/61/11 63/63/11 64/64/11
f 65/65/18 66/66/18 67/67/18
f 65/65/18 67/67/18 68/68/18
f 69/69/18 70/70/18 71/71/18
f 69/69/18 71/71/18 72/72/18
f 73/73/11 74/74/11 75/75/11
f 73/73/11 75/75/11 76/76/11
f 77/77/11 78/78/11 79/79/11
f 77/77/11 79/79/11 80/80/11
f 81/81/19 82/82/19 83/83/19
f 81/81/19 83/83/19 84/84/19
f 85/85/20 86/86/20 87/87/20
f 85/85/20 87/87/20 88/88/20
f 89/89/18 90/90/18 66/66/18
f 89/89/18 66/66/18 65/65/18
f 91/91/4 92/92/4 93/93/4
f 91/91/4 93/93/4 94/94/4
s 1
f 95/95/21 96/96/21 97/97/21
f 95/95/21 97/97/21 98/98/21
f 99/99/22 100/100/23 101/101/23
f 99/99/22 101/101/23 102/102/22
f 102/102/22 103/103/10 104/104/10
f 102/102/22 104/104/10 99/99/22
s 0
f 105/105/11 106/106/11 107/107/11
f 105/105/11 107/107/11 108/108/11
f 109/109/4 110/110/4 111/111/4
f 109/109/4 111/111/4 112/112/4
s 1
f 16/16/6 12/12/4 10/10/4
f 16/16/6 10/10/4 15/15/5
f 113/113/24 114/114/24 115/115/24
f 113/113/24 115/115/24 116/116/24
f 117/117/25 118/118/25 119/119/25
f 117/117/25 119/119/25 120/120/25
f 121/121/26 16/16/6 15/15/5
f 121/121/26 15/15/5 122/122/27
f 121/121/26 122/122/27 123/123/4
f 121/121/26 123/123/4 124/124/4
s 0
f 125/125/4 126/126/4 127/127/4
f 125/125/4 127/127/4 128/128/4
s 1
f 129/129/28 130/130/4 131/131/4
f 129/129/28 131/131/4 132/132/28
f 130/130/4 133/133/29 134/134/29
f 130/130/4 134/134/29 131/131/4
s 0
f 135/135/10 136/136/10 137/137/10
f 135/135/10 137/137/10 138/138/10
f 139/139/18 140/140/18 141/141/18
f 139/139/18 141/141/18 142/142/18
f 143/143/19 144/144/19 145/145/19
f 143/143/19 145/145/19 146/146/19
f 147/147/19 148/148/19 149/149/19
f 147/147/19 149/149/19 150/150/19
f 151/151/10 152/152/10 153/153/10
f 151/151/10 153/153/10 154/154/10
f 148/148/19 155/155/19 156/156/19
f 148/148/19 156/156/19 149/149/19
f 161/161/18 159/159/18 160/160/18
f 159/159/18 161/161/18 158/158/18
f 158/158/18 161/161/18 157/157/18
f 166/166/19 164/164/19 165/165/19
f 164/164/19 166/166/19 162/162/19
f 164/164/19 162/162/19 163/163/19
s 1
f 167/167/1 8/8/3 6/6/1
f 8/8/3 167/167/1 37/37/1
s 0
f 37/37/1 167/167/1 38/38/1
s 1
f 7/7/2 168/168/1 1/1/1
f 168/168/1 7/7/2 36/36/1
s 0
f 168/168/1 36/36/1 35/35/1
f 170/170/18 173/173/18 169/169/18
f 173/173/18 170/170/18 172/172/18
f 172/172/18 170/170/18 171/171/18
f 174/174/19 177/177/19 178/178/19
f 177/177/19 174/174/19 175/175/19
f 177/177/19 175/175/19 176/176/19
s 1
f 16/16/6 179/179/4 13/13/4
f 179/179/4 16/16/6 111/111/4
s 0
f 179/179/4 111/111/4 110/110/4
s 1
f 180/180/4 15/15/5 9/9/4
f 15/15/5 180/180/4 112/112/4
s 0
f 112/112/4 180/180/4 109/109/4
