# Blender 3.4.0
# www.blender.org
mtllib newspaper_1.mtl
o DP_TNR_NewspaperV_1_WT_NewspaperVB_0
v 0.217076 0.548275 -0.189937
v -0.217076 0.548275 -0.189937
v -0.217076 1.111160 -0.189937
v 0.217076 1.111160 -0.189937
v 0.238741 0.526610 -0.210202
v 0.238741 0.526610 0.211800
v -0.238741 0.526610 0.211800
v -0.238741 0.526610 -0.210202
v -0.130994 0.093052 -0.131969
v -0.130994 0.538629 -0.131969
v 0.130994 0.538629 -0.131969
v 0.130994 0.093052 -0.131969
v 0.181883 0.060006 -0.139443
v 0.181883 0.060006 0.141042
v 0.181883 0.001149 0.141042
v 0.181883 0.001149 -0.139443
v -0.158832 0.538629 -0.109168
v -0.158832 0.093052 -0.109168
v -0.158832 0.093052 0.110766
v -0.158832 0.538629 0.110766
v -0.150005 0.060006 -0.168522
v -0.130994 0.093052 -0.131969
v 0.130994 0.093052 -0.131969
v 0.150005 0.060006 -0.168522
v -0.181883 0.060006 -0.139443
v -0.181883 0.060006 0.141042
v 0.158832 0.093052 -0.109168
v 0.158832 0.093052 0.110766
v -0.150005 0.001149 -0.168522
v -0.150005 0.060006 -0.168522
v 0.150005 0.060006 -0.168522
v 0.150005 0.001149 -0.168522
v 0.238741 1.132825 -0.210202
v 0.238741 0.526610 -0.210202
v 0.224817 0.540533 -0.210202
v 0.224817 1.118901 -0.210202
v -0.238741 0.526610 -0.210202
v -0.224817 0.540533 -0.210202
v -0.238741 1.132825 -0.210202
v -0.224817 1.118901 -0.210202
v 0.224817 1.118901 -0.210202
v 0.224817 0.540533 -0.210202
v 0.217076 0.548275 -0.189937
v 0.217076 1.111160 -0.189937
v 0.224817 0.540533 -0.210202
v -0.224817 0.540533 -0.210202
v -0.217076 0.548275 -0.189937
v 0.217076 0.548275 -0.189937
v -0.224817 0.540533 -0.210202
v -0.224817 1.118901 -0.210202
v -0.217076 1.111160 -0.189937
v -0.217076 0.548275 -0.189937
v -0.224817 1.118901 -0.210202
v 0.224817 1.118901 -0.210202
v 0.217076 1.111160 -0.189937
v -0.217076 1.111160 -0.189937
v -0.150005 0.001149 0.170121
v -0.150005 0.001149 -0.168522
v 0.150005 0.001149 -0.168522
v 0.150005 0.001149 0.170121
v -0.217076 1.111160 0.191535
v -0.217076 0.548275 0.191536
v 0.217076 0.548275 0.191536
v 0.217076 1.111160 0.191535
v 0.238741 0.526610 0.211800
v 0.238741 0.526610 -0.210202
v 0.238741 1.132825 -0.210202
v 0.238741 1.132825 0.211800
v 0.238741 1.132825 -0.210202
v -0.238741 1.132825 -0.210202
v -0.238741 1.132825 0.211800
v 0.238741 1.132825 0.211800
v -0.238741 1.132825 -0.210202
v -0.238741 0.526610 -0.210202
v -0.238741 0.526610 0.211800
v -0.238741 1.132825 0.211800
v -0.130994 0.538629 0.133568
v -0.130994 0.093052 0.133568
v 0.130994 0.093052 0.133568
v 0.130994 0.538629 0.133568
v -0.130994 0.093052 0.133568
v -0.150005 0.060006 0.170121
v 0.150005 0.060006 0.170121
v 0.130994 0.093052 0.133568
v 0.158832 0.538629 -0.109168
v 0.158832 0.538629 0.110766
v -0.150005 0.060006 0.170121
v -0.150005 0.001149 0.170121
v 0.150005 0.001149 0.170121
v 0.150005 0.060006 0.170121
v -0.181883 0.001149 -0.139443
v -0.181883 0.001149 0.141042
v 0.238741 1.132825 0.211800
v 0.224817 1.118901 0.211800
v 0.224817 0.540533 0.211800
v 0.238741 0.526610 0.211800
v -0.224817 0.540533 0.211800
v -0.238741 0.526610 0.211800
v -0.224817 1.118901 0.211800
v -0.238741 1.132825 0.211800
v 0.224817 1.118901 0.211800
v 0.217076 1.111160 0.191535
v 0.217076 0.548275 0.191536
v 0.224817 0.540533 0.211800
v 0.224817 0.540533 0.211800
v 0.217076 0.548275 0.191536
v -0.217076 0.548275 0.191536
v -0.224817 0.540533 0.211800
v -0.224817 0.540533 0.211800
v -0.217076 0.548275 0.191536
v -0.217076 1.111160 0.191535
v -0.224817 1.118901 0.211800
v -0.224817 1.118901 0.211800
v -0.217076 1.111160 0.191535
v 0.217076 1.111160 0.191535
v 0.224817 1.118901 0.211800
v -0.158832 0.093052 -0.109168
v -0.158832 0.538629 -0.109168
v 0.158832 0.538629 -0.109168
v 0.158832 0.093052 -0.109168
v -0.181883 0.060006 -0.139443
v -0.158832 0.093052 -0.109168
v 0.158832 0.093052 -0.109168
v 0.181883 0.060006 -0.139443
v -0.181883 0.001149 -0.139443
v -0.181883 0.060006 -0.139443
v 0.181883 0.060006 -0.139443
v 0.181883 0.001149 -0.139443
v -0.181883 0.001149 0.141042
v -0.181883 0.001149 -0.139443
v 0.181883 0.001149 -0.139443
v 0.181883 0.001149 0.141042
v -0.158832 0.538629 0.110766
v -0.158832 0.093052 0.110766
v 0.158832 0.093052 0.110766
v 0.158832 0.538629 0.110766
v -0.158832 0.093052 0.110766
v -0.181883 0.060006 0.141042
v 0.181883 0.060006 0.141042
v 0.158832 0.093052 0.110766
v -0.181883 0.060006 0.141042
v -0.181883 0.001149 0.141042
v 0.181883 0.001149 0.141042
v 0.181883 0.060006 0.141042
v 0.099049 1.390891 -0.184841
v 0.099049 1.102558 -0.184841
v -0.088656 1.102558 -0.184841
v -0.088656 1.390891 -0.184841
v 0.038720 1.211199 -0.256043
v -0.037162 1.211199 -0.256043
v -0.037162 1.223240 -0.243115
v 0.038720 1.223240 -0.243115
v -0.037162 1.223240 -0.176561
v 0.038720 1.223240 -0.176561
v -0.037162 1.051222 -0.256043
v 0.038720 1.051222 -0.256043
v 0.038720 1.051222 -0.176561
v -0.037162 1.051222 -0.176561
v 0.038720 1.051222 -0.256043
v -0.037162 1.051222 -0.256043
v -0.037162 1.211199 -0.256043
v 0.038720 1.211199 -0.256043
v 0.099049 1.102558 -0.184841
v 0.099049 1.102558 0.184841
v -0.088656 1.102558 0.184841
v -0.088656 1.102558 -0.184841
v -0.088656 1.102558 0.184841
v 0.099049 1.102558 0.184841
v 0.099049 1.390891 0.184841
v -0.088656 1.390891 0.184841
v -0.037162 1.223240 0.243114
v -0.037162 1.211199 0.256043
v 0.038720 1.211199 0.256043
v 0.038720 1.223240 0.243114
v 0.038720 1.223240 0.176561
v -0.037162 1.223240 0.176561
v -0.037162 1.051222 0.256043
v -0.037162 1.051222 0.176561
v 0.038720 1.051222 0.176561
v 0.038720 1.051222 0.256043
v -0.037162 1.211199 0.256043
v -0.037162 1.051222 0.256043
v 0.038720 1.051222 0.256043
v 0.038720 1.211199 0.256043
v 0.099049 1.390891 -0.184841
v -0.088656 1.390891 -0.184841
v -0.088656 1.390891 0.184841
v 0.099049 1.390891 0.184841
v 0.099049 1.102558 -0.184841
v 0.099049 1.390891 -0.184841
v 0.099049 1.390891 0.184841
v 0.099049 1.102558 0.184841
v -0.088656 1.390891 -0.184841
v -0.088656 1.102558 -0.184841
v -0.088656 1.102558 0.184841
v -0.088656 1.390891 0.184841
v 0.038720 1.223240 -0.176561
v 0.038720 1.051222 -0.176561
v 0.038720 1.051222 -0.256043
v 0.038720 1.211199 -0.256043
v 0.038720 1.223240 -0.243115
v -0.037162 1.051222 -0.176561
v -0.037162 1.223240 -0.176561
v -0.037162 1.223240 -0.243115
v -0.037162 1.211199 -0.256043
v -0.037162 1.051222 -0.256043
v 0.038720 1.223240 0.176561
v 0.038720 1.223240 0.243114
v 0.038720 1.211199 0.256043
v 0.038720 1.051222 0.256043
v 0.038720 1.051222 0.176561
v -0.037162 1.051222 0.176561
v -0.037162 1.051222 0.256043
v -0.037162 1.211199 0.256043
v -0.037162 1.223240 0.243114
v -0.037162 1.223240 0.176561
vn -0.0000 -0.0000 -1.0000
vn -0.0000 -1.0000 -0.0000
vn -0.3364 -0.0000 -0.9417
vn 0.3364 -0.0000 -0.9417
vn 0.8404 0.4945 -0.2220
vn 0.8404 0.4945 0.2220
vn 1.0000 -0.0000 -0.0000
vn -1.0000 -0.0000 -0.0000
vn -0.8449 0.5112 -0.1575
vn -0.8449 0.5112 0.1575
vn -0.2319 0.7740 -0.5892
vn -0.2055 0.7727 -0.6006
vn 0.2055 0.7727 -0.6006
vn 0.2318 0.7740 -0.5892
vn -0.8404 0.4945 -0.2220
vn -0.8404 0.4945 0.2220
vn 0.8449 0.5112 -0.1575
vn 0.8449 0.5112 0.1575
vn -0.3614 -0.0000 -0.9324
vn 0.3614 -0.0000 -0.9324
vn -0.9342 -0.0000 -0.3569
vn -0.0000 0.9342 -0.3569
vn 0.9342 -0.0000 -0.3569
vn -0.0000 -0.9342 -0.3569
vn -0.0000 -0.0000 1.0000
vn -0.0000 1.0000 -0.0000
vn -0.3364 -0.0000 0.9417
vn 0.3364 -0.0000 0.9417
vn -0.2055 0.7727 0.6006
vn -0.2319 0.7740 0.5892
vn 0.2319 0.7740 0.5892
vn 0.2055 0.7727 0.6006
vn -0.3614 -0.0000 0.9324
vn 0.3614 -0.0000 0.9324
vn -0.9342 -0.0000 0.3569
vn -0.0000 0.9342 0.3569
vn 0.9342 -0.0000 0.3569
vn -0.0000 -0.9342 0.3569
vn -0.6337 -0.0000 -0.7736
vn 0.6337 -0.0000 -0.7736
vn -0.8449 0.5112 -0.1574
vn 0.8449 0.5112 -0.1574
vn -0.6739 -0.0000 -0.7388
vn 0.6739 -0.0000 -0.7388
vn -0.6337 -0.0000 0.7736
vn 0.6337 -0.0000 0.7736
vn -0.8449 0.5112 0.1574
vn 0.8449 0.5112 0.1574
vn -0.6739 -0.0000 0.7388
vn 0.6739 -0.0000 0.7388
vn -0.0000 0.7318 -0.6815
vn -0.0000 0.7318 -0.6816
vn -0.0000 0.9305 -0.3662
vn -0.0000 0.9305 0.3662
vn -0.0000 0.7318 0.6815
vt 0.352235 0.462313
vt 0.639518 0.462313
vt 0.640062 0.212513
vt 0.352780 0.212513
vt 0.642808 0.484374
vt 0.642808 0.735420
vt 0.343418 0.735420
vt 0.343418 0.484374
vt 0.558508 0.735467
vt 0.558508 0.484518
vt 0.427320 0.484518
vt 0.427320 0.735467
vt 0.582471 0.764284
vt 0.411598 0.764284
vt 0.411598 0.785223
vt 0.582471 0.785223
vt 0.564027 0.483673
vt 0.564027 0.735055
vt 0.430042 0.735055
vt 0.430042 0.483673
vt 0.568027 0.764797
vt 0.558508 0.735467
vt 0.427320 0.735467
vt 0.417800 0.764797
vt 0.582471 0.764284
vt 0.411598 0.764284
vt 0.564027 0.735055
vt 0.430042 0.735055
vt 0.568027 0.785221
vt 0.568027 0.764797
vt 0.417800 0.764797
vt 0.417800 0.785221
vt 0.342249 0.205566
vt 0.342249 0.476184
vt 0.350717 0.463558
vt 0.351261 0.211781
vt 0.651331 0.476184
vt 0.641773 0.463558
vt 0.651331 0.205566
vt 0.642318 0.211781
vt 0.351261 0.211781
vt 0.350717 0.463558
vt 0.352235 0.462313
vt 0.352780 0.212513
vt 0.350717 0.463558
vt 0.641773 0.463558
vt 0.639518 0.462313
vt 0.352235 0.462313
vt 0.641773 0.463558
vt 0.642318 0.211781
vt 0.640062 0.212513
vt 0.639518 0.462313
vt 0.642318 0.211781
vt 0.351261 0.211781
vt 0.352780 0.212513
vt 0.640062 0.212513
vt 0.621465 0.794395
vt 0.621465 0.996903
vt 0.364738 0.996903
vt 0.364738 0.794395
vt 0.640062 0.212513
vt 0.639518 0.462313
vt 0.352235 0.462313
vt 0.352780 0.212513
vt 0.643754 0.483282
vt 0.344364 0.483282
vt 0.344364 0.734328
vt 0.643754 0.734328
vt 0.648708 0.795016
vt 0.339429 0.795016
vt 0.339430 0.998500
vt 0.648708 0.998500
vt 0.344364 0.734328
vt 0.344364 0.483282
vt 0.643754 0.483282
vt 0.643754 0.734328
vt 0.558508 0.484518
vt 0.558508 0.735467
vt 0.427320 0.735467
vt 0.427320 0.484518
vt 0.558508 0.735467
vt 0.568027 0.764797
vt 0.417800 0.764797
vt 0.427320 0.735467
vt 0.564027 0.483673
vt 0.430042 0.483673
vt 0.568027 0.764797
vt 0.568027 0.785221
vt 0.417800 0.785221
vt 0.417800 0.764797
vt 0.582471 0.785223
vt 0.411598 0.785223
vt 0.342249 0.205566
vt 0.351261 0.211781
vt 0.350717 0.463558
vt 0.342249 0.476184
vt 0.641773 0.463558
vt 0.651331 0.476184
vt 0.642318 0.211781
vt 0.651331 0.205566
vt 0.351261 0.211781
vt 0.352780 0.212513
vt 0.352235 0.462313
vt 0.350717 0.463558
vt 0.350717 0.463558
vt 0.352235 0.462313
vt 0.639518 0.462313
vt 0.641773 0.463558
vt 0.641773 0.463558
vt 0.639518 0.462313
vt 0.640062 0.212513
vt 0.642318 0.211781
vt 0.642318 0.211781
vt 0.640062 0.212513
vt 0.352780 0.212513
vt 0.351261 0.211781
vt 0.572448 0.735467
vt 0.572448 0.484518
vt 0.413380 0.484518
vt 0.413380 0.735467
vt 0.583990 0.764797
vt 0.572448 0.735467
vt 0.413380 0.735467
vt 0.401838 0.764797
vt 0.583990 0.785221
vt 0.583990 0.764797
vt 0.401838 0.764797
vt 0.401838 0.785221
vt 0.648744 0.794395
vt 0.648744 0.996903
vt 0.337459 0.996903
vt 0.337459 0.794395
vt 0.572448 0.484518
vt 0.572448 0.735467
vt 0.413380 0.735467
vt 0.413380 0.484518
vt 0.572448 0.735467
vt 0.583990 0.764797
vt 0.401838 0.764797
vt 0.413380 0.735467
vt 0.583990 0.764797
vt 0.583990 0.785221
vt 0.401838 0.785221
vt 0.401838 0.764797
vt 0.428034 0.001540
vt 0.428034 0.203088
vt 0.560449 0.203088
vt 0.560449 0.001540
vt 0.470592 0.127147
vt 0.524123 0.127147
vt 0.524123 0.118730
vt 0.470592 0.118730
vt 0.524123 0.118730
vt 0.470592 0.118730
vt 0.524123 0.238972
vt 0.470592 0.238972
vt 0.470592 0.238972
vt 0.524123 0.238972
vt 0.470592 0.238972
vt 0.524123 0.238972
vt 0.524123 0.127147
vt 0.470592 0.127147
vt 0.428034 0.203088
vt 0.428034 0.203088
vt 0.560449 0.203088
vt 0.560449 0.203088
vt 0.560449 0.203088
vt 0.428034 0.203088
vt 0.428034 0.001540
vt 0.560449 0.001540
vt 0.524123 0.118730
vt 0.524123 0.127147
vt 0.470592 0.127147
vt 0.470592 0.118730
vt 0.470592 0.118730
vt 0.524123 0.118730
vt 0.524123 0.238972
vt 0.524123 0.238972
vt 0.470592 0.238972
vt 0.470592 0.238972
vt 0.524123 0.127147
vt 0.524123 0.238972
vt 0.470592 0.238972
vt 0.470592 0.127147
vt 0.547879 0.079420
vt 0.547879 0.013773
vt 0.433452 0.013773
vt 0.433452 0.079420
vt 0.349600 0.477370
vt 0.349600 0.735989
vt 0.639688 0.735989
vt 0.639688 0.477370
vt 0.347485 0.477370
vt 0.347485 0.735989
vt 0.637573 0.735989
vt 0.637573 0.477370
vt 0.547747 0.079298
vt 0.428423 0.079298
vt 0.428423 0.030459
vt 0.539394 0.030459
vt 0.547747 0.038403
vt 0.427737 0.080181
vt 0.547061 0.080181
vt 0.547061 0.039286
vt 0.538708 0.031341
vt 0.427737 0.031341
vt 0.546765 0.080221
vt 0.546765 0.039326
vt 0.538412 0.031382
vt 0.427441 0.031382
vt 0.427441 0.080221
vt 0.427285 0.079271
vt 0.427285 0.030432
vt 0.538256 0.030432
vt 0.546609 0.038376
vt 0.546609 0.079271
s 0
usemtl WT_NewspaperVB
f 1/1/1 2/2/1 3/3/1
f 1/1/1 3/3/1 4/4/1
f 5/5/2 6/6/2 7/7/2
f 5/5/2 7/7/2 8/8/2
s 1
f 9/9/3 10/10/3 11/11/4
f 9/9/3 11/11/4 12/12/4
f 13/13/5 14/14/6 15/15/7
f 13/13/5 15/15/7 16/16/7
f 17/17/8 18/18/9 19/19/10
f 17/17/8 19/19/10 20/20/8
f 21/21/11 22/22/12 23/23/13
f 21/21/11 23/23/13 24/24/14
f 25/25/15 26/26/16 19/19/10
f 25/25/15 19/19/10 18/18/9
f 27/27/17 28/28/18 14/14/6
f 27/27/17 14/14/6 13/13/5
f 29/29/19 30/30/19 31/31/20
f 29/29/19 31/31/20 32/32/20
s 0
f 33/33/1 34/34/1 35/35/1
f 33/33/1 35/35/1 36/36/1
f 34/34/1 37/37/1 38/38/1
f 34/34/1 38/38/1 35/35/1
f 37/37/1 39/39/1 40/40/1
f 37/37/1 40/40/1 38/38/1
f 39/39/1 33/33/1 36/36/1
f 39/39/1 36/36/1 40/40/1
f 41/41/21 42/42/21 43/43/21
f 41/41/21 43/43/21 44/44/21
f 45/45/22 46/46/22 47/47/22
f 45/45/22 47/47/22 48/48/22
s 1
f 49/49/23 50/50/23 51/51/23
s 0
f 49/49/23 51/51/23 52/52/23
f 53/53/24 54/54/24 55/55/24
f 53/53/24 55/55/24 56/56/24
f 57/57/2 58/58/2 59/59/2
f 57/57/2 59/59/2 60/60/2
f 61/61/25 62/62/25 63/63/25
f 61/61/25 63/63/25 64/64/25
f 65/65/7 66/66/7 67/67/7
f 65/65/7 67/67/7 68/68/7
f 69/69/26 70/70/26 71/71/26
f 69/69/26 71/71/26 72/72/26
f 73/73/8 74/74/8 75/75/8
f 73/73/8 75/75/8 76/76/8
s 1
f 77/77/27 78/78/27 79/79/28
f 77/77/27 79/79/28 80/80/28
f 81/81/29 82/82/30 83/83/31
f 81/81/29 83/83/31 84/84/32
f 28/28/18 27/27/17 85/85/7
f 28/28/18 85/85/7 86/86/7
f 87/87/33 88/88/33 89/89/34
f 87/87/33 89/89/34 90/90/34
f 25/25/15 91/91/8 92/92/8
f 25/25/15 92/92/8 26/26/16
s 0
f 93/93/25 94/94/25 95/95/25
f 93/93/25 95/95/25 96/96/25
f 96/96/25 95/95/25 97/97/25
f 96/96/25 97/97/25 98/98/25
f 98/98/25 97/97/25 99/99/25
f 98/98/25 99/99/25 100/100/25
f 100/100/25 99/99/25 94/94/25
f 100/100/25 94/94/25 93/93/25
f 101/101/35 102/102/35 103/103/35
f 101/101/35 103/103/35 104/104/35
f 105/105/36 106/106/36 107/107/36
f 105/105/36 107/107/36 108/108/36
f 109/109/37 110/110/37 111/111/37
f 109/109/37 111/111/37 112/112/37
f 113/113/38 114/114/38 115/115/38
f 113/113/38 115/115/38 116/116/38
s 1
f 117/117/39 118/118/39 10/10/3
f 117/117/39 10/10/3 9/9/3
f 119/119/40 120/120/40 12/12/4
f 119/119/40 12/12/4 11/11/4
f 21/21/11 121/121/15 122/122/41
f 21/21/11 122/122/41 22/22/12
f 123/123/42 124/124/5 24/24/14
f 123/123/42 24/24/14 23/23/13
f 125/125/43 126/126/43 30/30/19
f 125/125/43 30/30/19 29/29/19
f 127/127/44 128/128/44 32/32/20
f 127/127/44 32/32/20 31/31/20
s 0
f 129/129/2 130/130/2 58/58/2
f 129/129/2 58/58/2 57/57/2
f 131/131/2 132/132/2 60/60/2
f 131/131/2 60/60/2 59/59/2
s 1
f 133/133/45 134/134/45 78/78/27
f 133/133/45 78/78/27 77/77/27
f 135/135/46 136/136/46 80/80/28
f 135/135/46 80/80/28 79/79/28
f 137/137/47 138/138/16 82/82/30
f 137/137/47 82/82/30 81/81/29
f 83/83/31 139/139/6 140/140/48
f 83/83/31 140/140/48 84/84/32
f 141/141/49 142/142/49 88/88/33
f 141/141/49 88/88/33 87/87/33
f 143/143/50 144/144/50 90/90/34
f 143/143/50 90/90/34 89/89/34
s 0
f 145/145/1 146/146/1 147/147/1
f 145/145/1 147/147/1 148/148/1
s 1
f 149/149/51 150/150/52 151/151/53
f 149/149/51 151/151/53 152/152/53
f 152/152/53 151/151/53 153/153/26
f 152/152/53 153/153/26 154/154/26
s 0
f 155/155/2 156/156/2 157/157/2
f 155/155/2 157/157/2 158/158/2
f 159/159/1 160/160/1 161/161/1
f 159/159/1 161/161/1 162/162/1
f 163/163/2 164/164/2 165/165/2
f 163/163/2 165/165/2 166/166/2
f 167/167/25 168/168/25 169/169/25
f 167/167/25 169/169/25 170/170/25
s 1
f 171/171/54 172/172/55 173/173/55
f 171/171/54 173/173/55 174/174/54
f 174/174/54 175/175/26 176/176/26
f 174/174/54 176/176/26 171/171/54
s 0
f 177/177/2 178/178/2 179/179/2
f 177/177/2 179/179/2 180/180/2
f 181/181/25 182/182/25 183/183/25
f 181/181/25 183/183/25 184/184/25
f 185/185/26 186/186/26 187/187/26
f 185/185/26 187/187/26 188/188/26
f 189/189/7 190/190/7 191/191/7
f 189/189/7 191/191/7 192/192/7
f 193/193/8 194/194/8 195/195/8
f 193/193/8 195/195/8 196/196/8
f 201/201/7 199/199/7 200/200/7
f 199/199/7 201/201/7 198/198/7
f 198/198/7 201/201/7 197/197/7
f 206/206/8 204/204/8 205/205/8
f 204/204/8 206/206/8 202/202/8
f 204/204/8 202/202/8 203/203/8
f 208/208/7 211/211/7 207/207/7
f 211/211/7 208/208/7 210/210/7
f 210/210/7 208/208/7 209/209/7
f 212/212/8 215/215/8 216/216/8
f 215/215/8 212/212/8 213/213/8
f 215/215/8 213/213/8 214/214/8
