# Blender 3.4.0
# www.blender.org
mtllib newspaper_3.mtl
o DP_TNR_NewspaperV_3_WT_NewspaperVB_0
v 0.217075 0.551715 -0.190736
v -0.217076 0.551715 -0.190736
v -0.217076 1.114600 -0.190736
v 0.217075 1.114600 -0.190736
v 0.238741 0.530050 -0.211001
v 0.238741 0.530050 0.211001
v -0.238740 0.530050 0.211001
v -0.238740 0.530050 -0.211001
v -0.130994 0.096492 -0.132769
v -0.130994 0.542069 -0.132769
v 0.130994 0.542069 -0.132769
v 0.130994 0.096492 -0.132769
v 0.181883 0.063446 -0.140242
v 0.181883 0.063446 0.140242
v 0.181883 0.004589 0.140242
v 0.181883 0.004589 -0.140242
v -0.158832 0.542069 -0.109967
v -0.158832 0.096492 -0.109967
v -0.158832 0.096492 0.109967
v -0.158832 0.542069 0.109967
v -0.150004 0.063446 -0.169321
v -0.130994 0.096492 -0.132769
v 0.130994 0.096492 -0.132769
v 0.150005 0.063446 -0.169321
v -0.181883 0.063446 -0.140242
v -0.181883 0.063446 0.140242
v 0.158832 0.096492 -0.109967
v 0.158832 0.096492 0.109967
v -0.150004 0.004589 -0.169321
v -0.150004 0.063446 -0.169321
v 0.150005 0.063446 -0.169321
v 0.150005 0.004589 -0.169321
v 0.238741 1.136265 -0.211001
v 0.238741 0.530050 -0.211001
v 0.224817 0.543973 -0.211001
v 0.224817 1.122342 -0.211001
v -0.238740 0.530050 -0.211001
v -0.224817 0.543973 -0.211001
v -0.238740 1.136265 -0.211001
v -0.224817 1.122342 -0.211001
v 0.224817 1.122342 -0.211001
v 0.224817 0.543973 -0.211001
v 0.217075 0.551715 -0.190736
v 0.217075 1.114600 -0.190736
v 0.224817 0.543973 -0.211001
v -0.224817 0.543973 -0.211001
v -0.217076 0.551715 -0.190736
v 0.217075 0.551715 -0.190736
v -0.224817 0.543973 -0.211001
v -0.224817 1.122342 -0.211001
v -0.217076 1.114600 -0.190736
v -0.217076 0.551715 -0.190736
v -0.224817 1.122342 -0.211001
v 0.224817 1.122342 -0.211001
v 0.217075 1.114600 -0.190736
v -0.217076 1.114600 -0.190736
v -0.150004 0.004589 0.169322
v -0.150004 0.004589 -0.169321
v 0.150005 0.004589 -0.169321
v 0.150005 0.004589 0.169322
v -0.217076 1.114600 0.190736
v -0.217076 0.551715 0.190736
v 0.217075 0.551715 0.190736
v 0.217075 1.114600 0.190736
v 0.238741 0.530050 0.211001
v 0.238741 0.530050 -0.211001
v 0.238741 1.136265 -0.211001
v 0.238741 1.136265 0.211001
v 0.238741 1.136265 -0.211001
v -0.238740 1.136265 -0.211001
v -0.238740 1.136265 0.211001
v 0.238741 1.136265 0.211001
v -0.238740 1.136265 -0.211001
v -0.238740 0.530050 -0.211001
v -0.238740 0.530050 0.211001
v -0.238740 1.136265 0.211001
v -0.130994 0.542069 0.132769
v -0.130994 0.096492 0.132769
v 0.130994 0.096492 0.132769
v 0.130994 0.542069 0.132769
v -0.130994 0.096492 0.132769
v -0.150004 0.063446 0.169322
v 0.150005 0.063446 0.169322
v 0.130994 0.096492 0.132769
v 0.158832 0.542069 -0.109967
v 0.158832 0.542069 0.109967
v -0.150004 0.063446 0.169322
v -0.150004 0.004589 0.169322
v 0.150005 0.004589 0.169322
v 0.150005 0.063446 0.169322
v -0.181883 0.004589 -0.140242
v -0.181883 0.004589 0.140242
v 0.238741 1.136265 0.211001
v 0.224817 1.122342 0.211001
v 0.224817 0.543973 0.211001
v 0.238741 0.530050 0.211001
v -0.224817 0.543973 0.211001
v -0.238740 0.530050 0.211001
v -0.224817 1.122342 0.211001
v -0.238740 1.136265 0.211001
v 0.224817 1.122342 0.211001
v 0.217075 1.114600 0.190736
v 0.217075 0.551715 0.190736
v 0.224817 0.543973 0.211001
v 0.224817 0.543973 0.211001
v 0.217075 0.551715 0.190736
v -0.217076 0.551715 0.190736
v -0.224817 0.543973 0.211001
v -0.224817 0.543973 0.211001
v -0.217076 0.551715 0.190736
v -0.217076 1.114600 0.190736
v -0.224817 1.122342 0.211001
v -0.224817 1.122342 0.211001
v -0.217076 1.114600 0.190736
v 0.217075 1.114600 0.190736
v 0.224817 1.122342 0.211001
v -0.158832 0.096492 -0.109967
v -0.158832 0.542069 -0.109967
v 0.158832 0.542069 -0.109967
v 0.158832 0.096492 -0.109967
v -0.181883 0.063446 -0.140242
v -0.158832 0.096492 -0.109967
v 0.158832 0.096492 -0.109967
v 0.181883 0.063446 -0.140242
v -0.181883 0.004589 -0.140242
v -0.181883 0.063446 -0.140242
v 0.181883 0.063446 -0.140242
v 0.181883 0.004589 -0.140242
v -0.181883 0.004589 0.140242
v -0.181883 0.004589 -0.140242
v 0.181883 0.004589 -0.140242
v 0.181883 0.004589 0.140242
v -0.158832 0.542069 0.109967
v -0.158832 0.096492 0.109967
v 0.158832 0.096492 0.109967
v 0.158832 0.542069 0.109967
v -0.158832 0.096492 0.109967
v -0.181883 0.063446 0.140242
v 0.181883 0.063446 0.140242
v 0.158832 0.096492 0.109967
v -0.181883 0.063446 0.140242
v -0.181883 0.004589 0.140242
v 0.181883 0.004589 0.140242
v 0.181883 0.063446 0.140242
vn -0.0000 -0.0000 -1.0000
vn -0.0000 -1.0000 -0.0000
vn -0.3364 -0.0000 -0.9417
vn 0.3364 -0.0000 -0.9417
vn 0.8404 0.4945 -0.2220
vn 0.8404 0.4945 0.2220
vn 1.0000 -0.0000 -0.0000
vn -1.0000 -0.0000 -0.0000
vn -0.8449 0.5112 -0.1575
vn -0.8449 0.5112 0.1575
vn -0.2320 0.7739 -0.5892
vn -0.2055 0.7727 -0.6006
vn 0.2055 0.7727 -0.6006
vn 0.2319 0.7740 -0.5892
vn -0.8404 0.4945 -0.2220
vn -0.8404 0.4945 0.2220
vn 0.8449 0.5112 -0.1575
vn 0.8449 0.5112 0.1575
vn -0.3614 -0.0000 -0.9324
vn 0.3614 -0.0000 -0.9324
vn -0.9342 -0.0000 -0.3569
vn -0.0000 0.9342 -0.3569
vn 0.9342 -0.0000 -0.3569
vn -0.0000 -0.9342 -0.3569
vn -0.0000 -0.0000 1.0000
vn -0.0000 1.0000 -0.0000
vn -0.3364 -0.0000 0.9417
vn 0.3364 -0.0000 0.9417
vn -0.2055 0.7727 0.6006
vn -0.2320 0.7739 0.5892
vn 0.2319 0.7740 0.5892
vn 0.2055 0.7727 0.6006
vn -0.3614 -0.0000 0.9324
vn 0.3614 -0.0000 0.9324
vn -0.9342 -0.0000 0.3569
vn -0.0000 0.9342 0.3569
vn 0.9342 -0.0000 0.3569
vn -0.0000 -0.9342 0.3569
vn -0.6337 -0.0000 -0.7736
vn 0.6337 -0.0000 -0.7736
vn -0.8449 0.5112 -0.1574
vn 0.8449 0.5112 -0.1574
vn -0.6739 -0.0000 -0.7388
vn 0.6739 -0.0000 -0.7388
vn -0.6337 -0.0000 0.7736
vn 0.6337 -0.0000 0.7736
vn -0.8449 0.5112 0.1574
vn 0.8449 0.5112 0.1574
vn -0.6739 -0.0000 0.7388
vn 0.6739 -0.0000 0.7388
vt 0.012220 0.416729
vt 0.322161 0.416729
vt 0.322161 0.010941
vt 0.012220 0.010941
vt 0.004386 0.716131
vt 0.004386 0.427553
vt 0.330782 0.427553
vt 0.330783 0.716131
vt 0.237847 0.717440
vt 0.237847 0.428974
vt 0.094825 0.428974
vt 0.094825 0.717440
vt 0.328180 0.750565
vt 0.141893 0.750565
vt 0.141893 0.774634
vt 0.328180 0.774634
vt 0.308072 0.428003
vt 0.308072 0.716966
vt 0.162001 0.716966
vt 0.162001 0.428003
vt 0.248225 0.751154
vt 0.237847 0.717440
vt 0.094825 0.717440
vt 0.084447 0.751154
vt 0.328180 0.750565
vt 0.141893 0.750565
vt 0.308072 0.716966
vt 0.162001 0.716966
vt 0.248225 0.774632
vt 0.248225 0.751154
vt 0.084447 0.751154
vt 0.084447 0.774632
vt 0.000858 -0.000062
vt 0.000858 0.428546
vt 0.010582 0.418702
vt 0.010582 0.009782
vt 0.334318 0.428546
vt 0.324594 0.418702
vt 0.334318 -0.000062
vt 0.324594 0.009782
vt 0.010582 0.009782
vt 0.010582 0.418702
vt 0.012220 0.416729
vt 0.012220 0.010941
vt 0.010582 0.418702
vt 0.324594 0.418702
vt 0.322161 0.416729
vt 0.012220 0.416729
vt 0.324594 0.418702
vt 0.324594 0.009782
vt 0.322161 0.010941
vt 0.322161 0.416729
vt 0.324594 0.009782
vt 0.010582 0.009782
vt 0.012220 0.010941
vt 0.322161 0.010941
vt 0.293518 0.795353
vt 0.293518 0.997860
vt 0.036791 0.997860
vt 0.036791 0.795353
vt 0.322161 0.010941
vt 0.322161 0.416729
vt 0.012220 0.416729
vt 0.012220 0.010941
vt 0.003355 0.717386
vt 0.329751 0.717386
vt 0.329751 0.428808
vt 0.003355 0.428808
vt 0.000781 0.999007
vt 0.335694 0.999007
vt 0.335694 0.797271
vt 0.000781 0.797271
vt 0.329751 0.428809
vt 0.329751 0.717386
vt 0.003355 0.717386
vt 0.003355 0.428808
vt 0.237847 0.428974
vt 0.237847 0.717440
vt 0.094825 0.717440
vt 0.094825 0.428974
vt 0.237847 0.717440
vt 0.248225 0.751154
vt 0.084447 0.751154
vt 0.094825 0.717440
vt 0.308072 0.428003
vt 0.162001 0.428003
vt 0.248225 0.751154
vt 0.248225 0.774632
vt 0.084447 0.774632
vt 0.084447 0.751154
vt 0.328180 0.774634
vt 0.141893 0.774634
vt 0.000858 -0.000062
vt 0.010582 0.009782
vt 0.010582 0.418702
vt 0.000858 0.428546
vt 0.324594 0.418702
vt 0.334318 0.428546
vt 0.324594 0.009782
vt 0.334318 -0.000062
vt 0.010582 0.009782
vt 0.012220 0.010941
vt 0.012220 0.416729
vt 0.010582 0.418702
vt 0.010582 0.418702
vt 0.012220 0.416729
vt 0.322161 0.416729
vt 0.324594 0.418702
vt 0.324594 0.418702
vt 0.322161 0.416729
vt 0.322161 0.010941
vt 0.324594 0.009782
vt 0.324594 0.009782
vt 0.322161 0.010941
vt 0.012220 0.010941
vt 0.010582 0.009782
vt 0.253044 0.717440
vt 0.253044 0.428974
vt 0.079628 0.428974
vt 0.079628 0.717440
vt 0.265627 0.751154
vt 0.253044 0.717440
vt 0.079628 0.717440
vt 0.067045 0.751154
vt 0.265627 0.774632
vt 0.265627 0.751154
vt 0.067045 0.751154
vt 0.067045 0.774632
vt 0.320797 0.795353
vt 0.320797 0.997860
vt 0.009512 0.997860
vt 0.009512 0.795353
vt 0.253044 0.428974
vt 0.253044 0.717440
vt 0.079628 0.717440
vt 0.079628 0.428974
vt 0.253044 0.717440
vt 0.265627 0.751154
vt 0.067045 0.751154
vt 0.079628 0.717440
vt 0.265627 0.751154
vt 0.265627 0.774632
vt 0.067045 0.774632
vt 0.067045 0.751154
s 0
usemtl WT_NewspaperVB
f 1/1/1 2/2/1 3/3/1
f 1/1/1 3/3/1 4/4/1
f 5/5/2 6/6/2 7/7/2
f 5/5/2 7/7/2 8/8/2
s 1
f 9/9/3 10/10/3 11/11/4
f 9/9/3 11/11/4 12/12/4
f 13/13/5 14/14/6 15/15/7
f 13/13/5 15/15/7 16/16/7
f 17/17/8 18/18/9 19/19/10
f 17/17/8 19/19/10 20/20/8
f 21/21/11 22/22/12 23/23/13
f 21/21/11 23/23/13 24/24/14
f 25/25/15 26/26/16 19/19/10
f 25/25/15 19/19/10 18/18/9
f 27/27/17 28/28/18 14/14/6
f 27/27/17 14/14/6 13/13/5
f 29/29/19 30/30/19 31/31/20
f 29/29/19 31/31/20 32/32/20
s 0
f 33/33/1 34/34/1 35/35/1
f 33/33/1 35/35/1 36/36/1
f 34/34/1 37/37/1 38/38/1
f 34/34/1 38/38/1 35/35/1
f 37/37/1 39/39/1 40/40/1
f 37/37/1 40/40/1 38/38/1
f 39/39/1 33/33/1 36/36/1
f 39/39/1 36/36/1 40/40/1
f 41/41/21 42/42/21 43/43/21
f 41/41/21 43/43/21 44/44/21
f 45/45/22 46/46/22 47/47/22
f 45/45/22 47/47/22 48/48/22
f 49/49/23 50/50/23 51/51/23
f 49/49/23 51/51/23 52/52/23
f 53/53/24 54/54/24 55/55/24
f 53/53/24 55/55/24 56/56/24
f 57/57/2 58/58/2 59/59/2
f 57/57/2 59/59/2 60/60/2
f 61/61/25 62/62/25 63/63/25
f 61/61/25 63/63/25 64/64/25
f 65/65/7 66/66/7 67/67/7
f 65/65/7 67/67/7 68/68/7
f 69/69/26 70/70/26 71/71/26
f 69/69/26 71/71/26 72/72/26
f 73/73/8 74/74/8 75/75/8
f 73/73/8 75/75/8 76/76/8
s 1
f 77/77/27 78/78/27 79/79/28
f 77/77/27 79/79/28 80/80/28
f 81/81/29 82/82/30 83/83/31
f 81/81/29 83/83/31 84/84/32
f 28/28/18 27/27/17 85/85/7
f 28/28/18 85/85/7 86/86/7
f 87/87/33 88/88/33 89/89/34
f 87/87/33 89/89/34 90/90/34
f 25/25/15 91/91/8 92/92/8
f 25/25/15 92/92/8 26/26/16
s 0
f 93/93/25 94/94/25 95/95/25
f 93/93/25 95/95/25 96/96/25
f 96/96/25 95/95/25 97/97/25
f 96/96/25 97/97/25 98/98/25
f 98/98/25 97/97/25 99/99/25
f 98/98/25 99/99/25 100/100/25
f 100/100/25 99/99/25 94/94/25
f 100/100/25 94/94/25 93/93/25
f 101/101/35 102/102/35 103/103/35
f 101/101/35 103/103/35 104/104/35
f 105/105/36 106/106/36 107/107/36
f 105/105/36 107/107/36 108/108/36
f 109/109/37 110/110/37 111/111/37
f 109/109/37 111/111/37 112/112/37
f 113/113/38 114/114/38 115/115/38
f 113/113/38 115/115/38 116/116/38
s 1
f 117/117/39 118/118/39 10/10/3
f 117/117/39 10/10/3 9/9/3
f 119/119/40 120/120/40 12/12/4
f 119/119/40 12/12/4 11/11/4
f 21/21/11 121/121/15 122/122/41
f 21/21/11 122/122/41 22/22/12
f 123/123/42 124/124/5 24/24/14
f 123/123/42 24/24/14 23/23/13
f 125/125/43 126/126/43 30/30/19
f 125/125/43 30/30/19 29/29/19
f 127/127/44 128/128/44 32/32/20
f 127/127/44 32/32/20 31/31/20
s 0
f 129/129/2 130/130/2 58/58/2
f 129/129/2 58/58/2 57/57/2
f 131/131/2 132/132/2 60/60/2
f 131/131/2 60/60/2 59/59/2
s 1
f 133/133/45 134/134/45 78/78/27
f 133/133/45 78/78/27 77/77/27
f 135/135/46 136/136/46 80/80/28
f 135/135/46 80/80/28 79/79/28
f 137/137/47 138/138/16 82/82/30
f 137/137/47 82/82/30 81/81/29
f 83/83/31 139/139/6 140/140/48
f 83/83/31 140/140/48 84/84/32
f 141/141/49 142/142/49 88/88/33
f 141/141/49 88/88/33 87/87/33
f 143/143/50 144/144/50 90/90/34
f 143/143/50 90/90/34 89/89/34
