# Blender 3.4.0
# www.blender.org
mtllib parking_meter.mtl
o DP_TNR_ParkingMeter_1_DP_TNR_ParkingMeter_1_0
v 0.030217 0.011467 -0.021994
v 0.006914 0.011467 -0.036840
v 0.006914 0.024005 -0.036840
v 0.030217 0.024005 -0.021994
v -0.020061 0.011467 -0.030860
v -0.020061 0.024005 -0.030860
v -0.020061 0.011467 -0.030860
v -0.034907 0.011467 -0.007557
v -0.034907 0.024005 -0.007557
v -0.020061 0.024005 -0.030860
v -0.028927 0.011467 0.019419
v -0.028927 0.024005 0.019419
v -0.005624 0.011467 0.034265
v -0.005624 0.024005 0.034265
v 0.021352 0.011467 0.028284
v 0.021352 0.024005 0.028284
v 0.021352 0.011467 0.028284
v 0.036198 0.011467 0.004981
v 0.036198 0.024005 0.004981
v 0.021352 0.024005 0.028284
v 0.000645 0.045642 -0.001288
v 0.000645 0.045642 -0.001288
v 0.014076 0.036957 -0.009731
v -0.005791 0.036957 -0.016572
v -0.005791 0.667586 -0.016572
v 0.014076 0.667586 -0.009731
v -0.005791 0.036957 -0.016572
v -0.018436 0.036957 0.000208
v -0.018436 0.667586 0.000208
v -0.005791 0.667586 -0.016572
v -0.006384 0.036957 0.017420
v -0.006384 0.667586 0.017420
v 0.013709 0.036957 0.011277
v 0.013709 0.667586 0.011277
v -0.073027 0.760084 0.005918
v 0.030208 0.760084 -0.066367
v 0.015247 0.666251 -0.055063
v -0.057288 0.666251 -0.004274
v 0.056322 0.666251 0.003598
v 0.072696 0.760084 -0.005687
v -0.030538 0.760084 0.066598
v -0.016213 0.666251 0.054387
v -0.057288 0.666251 -0.004274
v 0.015247 0.666251 -0.055063
v 0.056322 0.666251 0.003598
v -0.016213 0.666251 0.054387
v 0.030208 0.760084 -0.066367
v 0.072696 0.760084 -0.005687
v 0.056322 0.666251 0.003598
v 0.015247 0.666251 -0.055063
v -0.073027 0.760084 0.005918
v -0.030538 0.760084 0.066598
v -0.018713 0.819580 0.053706
v -0.058047 0.819580 -0.002469
v -0.058047 0.819580 -0.002469
v 0.017331 0.819580 -0.054977
v 0.056537 0.819580 0.001016
v -0.018713 0.819580 0.053706
v 0.017331 0.819580 -0.054977
v 0.056537 0.819580 0.001016
v -0.057288 0.666251 -0.004274
v -0.016213 0.666251 0.054387
v -0.078536 0.886642 0.013062
v 0.039089 0.886642 -0.069300
v 0.077179 0.886642 -0.014901
v -0.040445 0.886642 0.067461
v 0.068055 0.886642 -0.049047
v -0.068916 0.886642 0.046862
v -0.078536 0.886642 0.013062
v 0.078746 0.926718 -0.017460
v 0.070243 0.926718 -0.050718
v -0.071684 0.926718 0.048661
v -0.043835 0.926718 0.068372
v -0.080682 0.926718 0.015749
v 0.041899 0.926718 -0.070083
v 0.078746 0.926718 -0.017460
v -0.043835 0.926718 0.068372
v 0.041899 0.926718 -0.070083
v 0.070243 0.926718 -0.050718
v 0.039089 0.886642 -0.069300
v -0.043835 0.926718 0.068372
v -0.071684 0.926718 0.048661
v -0.040445 0.886642 0.067461
v 0.041899 0.926718 -0.070083
v -0.080682 0.926718 0.015749
v 0.078746 0.926718 -0.017460
v 0.077179 0.886642 -0.014901
v -0.080682 0.926718 0.015749
v -0.018960 0.998300 0.021943
v 0.004238 1.001979 0.005699
v -0.003996 1.001979 -0.006060
v -0.027194 0.998300 0.010183
v -0.056233 0.969509 0.030516
v -0.047998 0.969509 0.042276
v -0.067128 0.925203 0.038145
v -0.058894 0.925203 0.049905
v 0.027436 0.998300 -0.010544
v 0.019202 0.998300 -0.022304
v 0.048240 0.969509 -0.042637
v 0.056474 0.969509 -0.030877
v 0.059135 0.925203 -0.050266
v 0.067370 0.925203 -0.038506
v 0.011854 0.981828 0.016577
v -0.005504 0.979075 0.028731
v 0.011854 0.923790 0.016577
v -0.027233 0.957532 0.043946
v -0.035385 0.924379 0.049654
v 0.029212 0.979075 0.004422
v 0.050941 0.957532 -0.010792
v 0.059094 0.924379 -0.016501
v -0.049818 0.957532 0.011690
v -0.028089 0.979075 -0.003525
v -0.010731 0.923790 -0.015679
v -0.057971 0.924379 0.017399
v -0.010731 0.981828 -0.015679
v 0.006627 0.979075 -0.027833
v 0.028356 0.957532 -0.043048
v 0.036508 0.924379 -0.048756
v 0.004238 1.001979 0.005699
v -0.018960 0.998300 0.021943
v -0.027194 0.998300 0.010183
v -0.003996 1.001979 -0.006060
v -0.056233 0.969509 0.030516
v -0.047998 0.969509 0.042276
v -0.067128 0.925203 0.038145
v -0.058894 0.925203 0.049905
v 0.027436 0.998300 -0.010544
v 0.019202 0.998300 -0.022304
v 0.048240 0.969509 -0.042637
v 0.056474 0.969509 -0.030877
v 0.059135 0.925203 -0.050266
v 0.067370 0.925203 -0.038506
v 0.036198 0.011467 0.004981
v 0.021352 0.011467 0.028284
v -0.005624 0.011467 0.034265
v -0.028927 0.011467 0.019419
v -0.034907 0.011467 -0.007557
v -0.020061 0.011467 -0.030860
v 0.006914 0.011467 -0.036840
v 0.030217 0.011467 -0.021994
vn 0.8192 -0.0000 -0.5736
vn 0.1736 -0.0000 -0.9848
vn 0.1553 0.4475 -0.8807
vn 0.7326 0.4475 -0.5129
vn -0.5736 -0.0000 -0.8191
vn -0.5129 0.4475 -0.7326
vn -0.5736 -0.0000 -0.8192
vn -0.9848 -0.0000 -0.1736
vn -0.8807 0.4475 -0.1553
vn -0.8192 -0.0000 0.5736
vn -0.7326 0.4475 0.5129
vn -0.1736 -0.0000 0.9848
vn -0.1553 0.4475 0.8807
vn 0.5736 -0.0000 0.8191
vn 0.5129 0.4475 0.7326
vn 0.5736 -0.0000 0.8192
vn 0.9848 -0.0000 0.1736
vn 0.8807 0.4475 0.1553
vn -0.0000 1.0000 -0.0000
vn -0.2924 -0.0000 -0.9563
vn -0.9998 -0.0000 -0.0175
vn -0.3256 -0.0000 0.9455
vn 0.7986 -0.0000 0.6018
vn -0.9930 0.0365 -0.1123
vn 0.2338 0.0372 -0.9716
vn 0.0840 -0.6273 -0.7742
vn -0.7563 -0.6273 -0.1858
vn 0.7542 -0.6308 0.1824
vn 0.9920 0.0422 0.1191
vn -0.2274 0.0422 0.9729
vn -0.0866 -0.6308 0.7711
vn 0.0841 -0.6273 -0.7742
vn -0.0865 -0.6308 0.7711
vn 0.2338 0.0371 -0.9716
vn 0.9920 0.0421 0.1191
vn 0.0840 -0.6274 -0.7742
vn -0.2274 0.0421 0.9729
vn -0.0356 -0.0201 0.9992
vn -0.9489 -0.0368 -0.3135
vn 0.0304 -0.0395 -0.9988
vn 0.9503 -0.0227 0.3106
vn -0.0355 -0.0201 0.9992
vn 0.0304 -0.0394 -0.9988
vn -0.7562 -0.6274 -0.1858
vn -0.9447 -0.1265 -0.3027
vn 0.0333 -0.1238 -0.9917
vn 0.9438 -0.1196 0.3081
vn -0.0385 -0.1230 0.9917
vn 0.7977 -0.2275 -0.5584
vn -0.7968 -0.2316 0.5582
vn -0.9447 -0.1264 -0.3027
vn 0.7639 0.5914 0.2582
vn 0.6490 0.6098 -0.4550
vn -0.6510 0.6074 0.4552
vn -0.0287 0.5869 0.8091
vn -0.7710 0.5853 -0.2511
vn 0.0177 0.5897 -0.8074
vn -0.0286 0.5869 0.8091
vn 0.0177 0.5898 -0.8074
vn -0.0287 0.5870 0.8091
vn -0.6510 0.6074 0.4553
vn 0.7639 0.5915 0.2582
vn -0.0324 0.8232 0.5668
vn 0.2631 0.8886 0.3757
vn -0.2761 0.8765 -0.3943
vn -0.5524 0.8132 -0.1832
vn -0.8675 0.4954 0.0451
vn -0.3586 0.5015 0.7874
vn -0.9587 0.2569 0.1225
vn -0.4638 0.2599 0.8469
vn 0.5437 0.8232 0.1634
vn 0.0168 0.8132 -0.5817
vn 0.3391 0.4955 -0.7997
vn 0.8625 0.5015 -0.0677
vn 0.4430 0.2569 -0.8589
vn 0.9545 0.2600 -0.1462
vn 0.5456 0.3086 0.7792
vn 0.4333 0.3005 0.8497
vn 0.3086 0.1850 0.9330
vn 0.2627 0.1006 0.9596
vn 0.6502 0.3005 0.6978
vn 0.7712 0.1850 0.6091
vn 0.8119 0.1006 0.5751
vn -0.7566 0.1684 -0.6318
vn -0.6462 0.2733 -0.7126
vn -0.7940 0.0918 -0.6009
vn -0.5505 0.2805 -0.7863
vn -0.4486 0.2733 -0.8509
vn -0.3350 0.1684 -0.9271
vn -0.2931 0.0918 -0.9517
vn 0.2631 0.8886 0.3758
vn -0.5524 0.8132 -0.1831
vn -0.9587 0.2568 0.1225
vn 0.3391 0.4954 -0.7997
vn 0.8625 0.5015 -0.0676
vn 0.4430 0.2568 -0.8589
vn 0.9545 0.2599 -0.1462
vn -0.0000 -1.0000 -0.0000
vt 0.619679 0.595395
vt 0.605849 0.548022
vt 0.589484 0.557640
vt 0.601030 0.595395
vt 0.571294 0.513865
vt 0.556424 0.530934
vt 0.496857 0.514548
vt 0.462302 0.548704
vt 0.478666 0.558322
vt 0.511727 0.531616
vt 0.448471 0.596077
vt 0.467120 0.596077
vt 0.462301 0.643450
vt 0.478666 0.633832
vt 0.496857 0.677606
vt 0.511727 0.660538
vt 0.571294 0.676924
vt 0.605849 0.642768
vt 0.589484 0.633150
vt 0.556424 0.659856
vt 0.537730 0.595395
vt 0.530420 0.596077
vt 0.015514 0.839393
vt 0.015514 0.871728
vt 0.986033 0.871728
vt 0.986033 0.839393
vt 0.015514 0.710052
vt 0.015514 0.742387
vt 0.986033 0.742387
vt 0.986033 0.710052
vt 0.015514 0.774722
vt 0.986033 0.774722
vt 0.015514 0.807057
vt 0.986033 0.807057
vt 0.287421 0.207699
vt 0.481370 0.207691
vt 0.452526 0.063282
vt 0.316252 0.063288
vt 0.196040 0.464209
vt 0.224878 0.319777
vt 0.030929 0.319776
vt 0.059766 0.464209
vt 0.789417 0.565454
vt 0.653143 0.565454
vt 0.653143 0.675662
vt 0.789417 0.675662
vt 0.798564 0.349816
vt 0.798564 0.464209
vt 0.946328 0.461451
vt 0.946328 0.350863
vt 0.673240 0.209313
vt 0.673240 0.323615
vt 0.768567 0.317576
vt 0.768567 0.212203
vt 0.313713 0.299298
vt 0.455088 0.299303
vt 0.198590 0.228030
vt 0.057216 0.228030
vt 0.703204 0.353085
vt 0.703205 0.458092
vt 0.525594 0.210360
vt 0.525594 0.320859
vt 0.274174 0.402515
vt 0.495159 0.402515
vt 0.238663 0.124808
vt 0.017677 0.124808
vt 0.586205 0.405250
vt 0.885074 0.264718
vt 0.879969 0.211656
vt 0.266679 0.671116
vt 0.285318 0.621683
vt 0.018675 0.621683
vt 0.036383 0.671116
vt 0.269097 0.464209
vt 0.499393 0.464209
vt 0.242896 0.063104
vt 0.012600 0.063104
vt 0.528596 0.351309
vt 0.525594 0.405080
vt 0.591566 0.352032
vt 0.942964 0.317942
vt 0.945928 0.264551
vt 0.879976 0.317780
vt 0.266679 0.572251
vt 0.036383 0.572251
vt 0.528570 0.458853
vt 0.591552 0.458468
vt 0.942947 0.211161
vt 0.159770 0.530522
vt 0.203720 0.530521
vt 0.203720 0.508428
vt 0.159770 0.508426
vt 0.089480 0.508424
vt 0.089479 0.530521
vt 0.018275 0.508421
vt 0.018275 0.530519
vt 0.247667 0.530521
vt 0.247667 0.508429
vt 0.317940 0.508429
vt 0.317941 0.530519
vt 0.389121 0.508429
vt 0.389121 0.530519
vt 0.619144 0.094044
vt 0.587306 0.098180
vt 0.619165 0.183112
vt 0.546633 0.130296
vt 0.529765 0.180788
vt 0.651000 0.098171
vt 0.691669 0.130267
vt 0.708567 0.180752
vt 0.773187 0.081937
vt 0.813881 0.114275
vt 0.845888 0.029312
vt 0.756652 0.031335
vt 0.845910 0.118432
vt 0.877921 0.114260
vt 0.918610 0.081907
vt 0.935122 0.031301
vt 0.619333 0.056495
vt 0.574223 0.062726
vt 0.800868 0.148418
vt 0.845766 0.154681
vt 0.744809 0.103830
vt 0.517597 0.107131
vt 0.721242 0.035531
vt 0.493017 0.175687
vt 0.664507 0.062884
vt 0.890610 0.148529
vt 0.946811 0.104061
vt 0.720933 0.107432
vt 0.970478 0.035531
vt 0.745388 0.175687
vt 0.327792 0.654843
vt 0.367077 0.671116
vt 0.406362 0.654843
vt 0.422635 0.615558
vt 0.406362 0.576273
vt 0.367077 0.560000
vt 0.327792 0.576273
vt 0.311519 0.615558
s 1
usemtl DP_TNR_ParkingMeter_1
f 1/1/1 2/2/2 3/3/3
f 3/3/3 4/4/4 1/1/1
f 2/2/2 5/5/5 6/6/6
f 6/6/6 3/3/3 2/2/2
f 7/7/7 8/8/8 9/9/9
f 9/9/9 10/10/6 7/7/7
f 8/8/8 11/11/10 12/12/11
f 12/12/11 9/9/9 8/8/8
f 11/11/10 13/13/12 14/14/13
f 14/14/13 12/12/11 11/11/10
f 13/13/12 15/15/14 16/16/15
f 16/16/15 14/14/13 13/13/12
f 17/17/16 18/18/17 19/19/18
f 19/19/18 20/20/15 17/17/16
f 18/18/17 1/1/1 4/4/4
f 4/4/4 19/19/18 18/18/17
f 4/4/4 3/3/3 21/21/19
f 3/3/3 6/6/6 21/21/19
f 10/10/6 9/9/9 22/22/19
f 9/9/9 12/12/11 22/22/19
f 12/12/11 14/14/13 22/22/19
f 14/14/13 16/16/15 22/22/19
f 20/20/15 19/19/18 21/21/19
f 19/19/18 4/4/4 21/21/19
f 23/23/1 24/24/20 25/25/20
f 25/25/20 26/26/1 23/23/1
f 27/27/20 28/28/21 29/29/21
f 29/29/21 30/30/20 27/27/20
f 28/28/21 31/31/22 32/32/22
f 32/32/22 29/29/21 28/28/21
f 31/31/22 33/33/23 34/34/23
f 34/34/23 32/32/22 31/31/22
f 33/33/23 23/23/1 26/26/1
f 26/26/1 34/34/23 33/33/23
f 35/35/24 36/36/25 37/37/26
f 37/37/26 38/38/27 35/35/24
f 39/39/28 40/40/29 41/41/30
f 41/41/30 42/42/31 39/39/28
f 43/43/27 44/44/32 45/45/28
f 45/45/28 46/46/33 43/43/27
f 47/47/34 48/48/35 49/49/28
f 49/49/28 50/50/36 47/47/34
f 51/51/24 52/52/37 53/53/38
f 53/53/38 54/54/39 51/51/24
f 55/55/39 56/56/40 36/36/25
f 36/36/25 35/35/24 55/55/39
f 57/57/41 58/58/42 41/41/30
f 41/41/30 40/40/29 57/57/41
f 59/59/43 60/60/41 48/48/35
f 48/48/35 47/47/34 59/59/43
f 61/61/44 62/62/31 52/52/37
f 52/52/37 51/51/24 61/61/44
f 55/55/39 63/63/45 64/64/46
f 64/64/46 56/56/40 55/55/39
f 57/57/41 65/65/47 66/66/48
f 66/66/48 58/58/42 57/57/41
f 60/60/41 59/59/43 67/67/49
f 54/54/39 68/68/50 69/69/51
f 70/70/52 71/71/53 72/72/54
f 72/72/54 73/73/55 70/70/52
f 74/74/56 75/75/57 64/64/46
f 64/64/46 63/63/45 74/74/56
f 76/76/52 77/77/58 66/66/48
f 66/66/48 65/65/47 76/76/52
f 78/78/59 79/79/53 67/67/49
f 67/67/49 80/80/46 78/78/59
f 81/81/60 82/82/61 68/68/50
f 68/68/50 83/83/48 81/81/60
f 84/84/59 85/85/56 72/72/54
f 72/72/54 71/71/53 84/84/59
f 86/86/62 87/87/47 67/67/49
f 67/67/49 79/79/53 86/86/62
f 88/88/56 69/69/51 68/68/50
f 68/68/50 82/82/61 88/88/56
f 89/89/63 90/90/64 91/91/65
f 91/91/65 92/92/66 89/89/63
f 92/92/66 93/93/67 94/94/68
f 94/94/68 89/89/63 92/92/66
f 93/93/67 95/95/69 96/96/70
f 96/96/70 94/94/68 93/93/67
f 90/90/64 97/97/71 98/98/72
f 98/98/72 91/91/65 90/90/64
f 99/99/73 98/98/72 97/97/71
f 97/97/71 100/100/74 99/99/73
f 101/101/75 99/99/73 100/100/74
f 100/100/74 102/102/76 101/101/75
f 103/103/77 104/104/78 105/105/16
f 104/104/78 106/106/79 105/105/16
f 106/106/79 107/107/80 105/105/16
f 108/108/81 103/103/77 105/105/16
f 109/109/82 108/108/81 105/105/16
f 110/110/83 109/109/82 105/105/16
f 111/111/84 112/112/85 113/113/7
f 114/114/86 111/111/84 113/113/7
f 112/112/85 115/115/87 113/113/7
f 115/115/87 116/116/88 113/113/7
f 116/116/88 117/117/89 113/113/7
f 117/117/89 118/118/90 113/113/7
f 104/104/78 103/103/77 119/119/91
f 119/119/91 120/120/63 104/104/78
f 115/115/87 112/112/85 121/121/92
f 121/121/92 122/122/65 115/115/87
f 112/112/85 111/111/84 123/123/67
f 123/123/67 121/121/92 112/112/85
f 106/106/79 104/104/78 120/120/63
f 120/120/63 124/124/68 106/106/79
f 111/111/84 114/114/86 125/125/93
f 125/125/93 123/123/67 111/111/84
f 107/107/80 106/106/79 124/124/68
f 124/124/68 126/126/70 107/107/80
f 103/103/77 108/108/81 127/127/71
f 127/127/71 119/119/91 103/103/77
f 116/116/88 115/115/87 122/122/65
f 122/122/65 128/128/72 116/116/88
f 117/117/89 116/116/88 128/128/72
f 128/128/72 129/129/94 117/117/89
f 108/108/81 109/109/82 130/130/95
f 130/130/95 127/127/71 108/108/81
f 118/118/90 117/117/89 129/129/94
f 129/129/94 131/131/96 118/118/90
f 109/109/82 110/110/83 132/132/97
f 132/132/97 130/130/95 109/109/82
f 53/53/38 83/83/48 68/68/50
f 68/68/50 54/54/39 53/53/38
f 59/59/43 80/80/46 67/67/49
f 67/67/49 87/87/47 60/60/41
s 0
f 133/133/98 134/134/98 135/135/98
f 135/135/98 136/136/98 137/137/98
f 137/137/98 138/138/98 139/139/98
f 135/135/98 137/137/98 139/139/98
f 133/133/98 135/135/98 139/139/98
f 140/140/98 133/133/98 139/139/98
