# Blender 3.4.0
# www.blender.org
mtllib pipe_3.mtl
o SP_TNR_Pipes_3_IS_PipesOld1_0
v -0.129481 1.223969 0.095876
v -0.196359 1.223969 0.068174
v -0.196359 0.773367 0.068174
v -0.129481 0.773367 0.095876
v -0.224061 1.223969 0.001295
v -0.224061 0.773367 0.001295
v -0.196359 1.223969 -0.065584
v -0.196359 0.773367 -0.065584
v -0.129481 1.223969 -0.093286
v -0.129481 0.773367 -0.093286
v -0.062602 1.223969 -0.065584
v -0.062602 0.773367 -0.065584
v -0.034900 1.223969 0.001295
v -0.034900 0.773367 0.001295
v -0.062602 1.223969 0.068174
v -0.062602 0.773367 0.068174
v -0.062602 1.223969 0.068174
v -0.129481 0.773367 0.095876
v -0.062602 0.773367 0.068174
v -0.034900 1.223969 0.001295
v -0.062602 1.223969 -0.065584
v -0.129481 1.223969 -0.093286
v -0.196359 1.223969 -0.065584
v -0.224061 1.223969 0.001295
v -0.196359 1.223969 0.068174
v -0.129481 1.223969 0.095876
v -0.062602 1.223969 0.068174
v -0.196359 0.773367 0.068174
v -0.224061 0.773367 0.001295
v -0.196359 0.773367 -0.065584
v -0.129481 0.773367 -0.093286
v -0.062602 0.773367 -0.065584
v -0.034900 0.773367 0.001295
v -0.062602 0.773367 0.068174
v -0.129481 0.773367 0.095876
v -0.352068 0.968281 0.070832
v -0.352068 0.927334 0.030612
v -0.161131 0.927334 0.030612
v -0.161131 0.968281 0.070832
v -0.352068 0.926820 -0.026781
v -0.161131 0.926820 -0.026781
v -0.352068 0.967040 -0.067728
v -0.161131 0.967040 -0.067728
v -0.352068 1.024433 -0.068242
v -0.161131 1.024433 -0.068242
v -0.352068 1.065380 -0.028022
v -0.161131 1.065380 -0.028022
v -0.352068 1.065894 0.029371
v -0.161131 1.065894 0.029371
v -0.352068 1.025674 0.070318
v -0.161131 1.025674 0.070318
v -0.352068 1.025674 0.070318
v -0.161131 1.025674 0.070318
v -0.352068 1.025674 0.070318
v -0.352068 1.065894 0.029371
v -0.352068 1.065380 -0.028022
v -0.352068 1.024433 -0.068242
v -0.352068 0.967040 -0.067728
v -0.352068 0.926820 -0.026781
v -0.352068 0.927334 0.030612
v -0.352068 0.968281 0.070832
v -0.181182 1.963359 -0.060551
v -0.181182 -0.000069 -0.060551
v -0.211549 -0.000069 0.002506
v -0.211549 1.967935 0.002505
v -0.112949 1.953076 -0.076125
v -0.112949 -0.000069 -0.076125
v -0.058231 1.944830 -0.032488
v -0.058231 -0.000069 -0.032488
v -0.058231 1.944830 0.037499
v -0.058231 -0.000069 0.037499
v -0.112949 1.953076 0.081136
v -0.112949 -0.000069 0.081136
v -0.181182 1.963359 0.065562
v -0.181182 -0.000069 0.065562
v -0.112949 -0.000069 0.081136
v -0.112949 1.953076 0.081136
v -0.165530 2.127711 0.002505
v -0.138570 2.112090 -0.060551
v -0.181182 1.963359 -0.060551
v -0.211549 1.967935 0.002505
v -0.077990 2.076991 -0.076125
v -0.112949 1.953076 -0.076125
v -0.029409 2.048843 -0.032488
v -0.058231 1.944830 -0.032488
v -0.029409 2.048843 0.037499
v -0.058231 1.944830 0.037499
v -0.058231 1.944830 0.037499
v -0.058231 1.944830 -0.032488
v -0.029409 2.048843 -0.032488
v -0.058231 1.944830 0.037499
v -0.029409 2.048843 0.037499
v -0.077990 2.076991 0.081136
v -0.112949 1.953076 0.081136
v -0.138570 2.112090 0.065562
v -0.181182 1.963359 0.065562
v -0.165530 2.127711 0.002505
v -0.211549 1.967935 0.002505
v 0.144189 2.250548 -0.060551
v 0.031207 2.250548 -0.060551
v 0.022142 2.280914 0.002506
v 0.144189 2.280914 0.002506
v 0.144189 2.182315 -0.076125
v 0.051577 2.182315 -0.076125
v 0.144189 2.127596 -0.032488
v 0.067911 2.127596 -0.032488
v 0.144189 2.127596 0.037499
v 0.067911 2.127596 0.037499
v 0.067911 2.127596 -0.032488
v 0.144189 2.127596 -0.032488
v 0.144189 2.182315 0.081136
v 0.051577 2.182315 0.081136
v 0.067911 2.127596 0.037499
v 0.144189 2.127596 0.037499
v 0.144189 2.250548 0.065562
v 0.031207 2.250548 0.065562
v 0.144189 2.280914 0.002506
v 0.022142 2.280914 0.002506
v 0.174986 2.203907 0.095876
v 0.174986 2.270785 0.068174
v 0.126344 2.270785 0.068174
v 0.126343 2.203907 0.095876
v 0.174986 2.298487 0.001295
v 0.126344 2.298487 0.001295
v 0.174986 2.270785 -0.065584
v 0.126344 2.270785 -0.065584
v 0.174986 2.203907 -0.093286
v 0.126344 2.203907 -0.093286
v 0.174986 2.137028 -0.065584
v 0.126344 2.137028 -0.065584
v 0.174986 2.109326 0.001295
v 0.126344 2.109326 0.001295
v 0.174986 2.137028 0.068174
v 0.126344 2.137028 0.068174
v 0.126344 2.270785 0.068174
v 0.126344 2.298487 0.001295
v 0.126344 2.270785 -0.065584
v 0.126344 2.203907 -0.093286
v 0.126344 2.137028 -0.065584
v 0.126344 2.109326 0.001295
v 0.126344 2.137028 0.068174
v 0.126343 2.203907 0.095876
v -0.340966 1.000487 0.022207
v -0.340966 1.024929 -0.002234
v -0.376289 1.024929 -0.002234
v -0.376289 1.000487 0.022207
v -0.340966 1.000487 -0.026676
v -0.376289 1.000487 -0.026676
v -0.340966 0.976045 -0.002234
v -0.376289 0.976045 -0.002234
v -0.340966 1.000487 0.022207
v -0.376289 1.000487 0.022207
v -0.397970 1.095056 -0.001115
v -0.410328 1.073653 -0.001115
v -0.410328 1.052167 0.050757
v -0.397971 1.067301 0.065891
v -0.410328 1.073653 -0.001115
v -0.385614 1.073653 -0.001115
v -0.385614 1.052167 0.050757
v -0.410328 1.052167 0.050757
v -0.397970 1.095056 -0.001115
v -0.397971 1.067301 0.065891
v -0.410328 1.000295 0.072242
v -0.397970 1.000295 0.093646
v -0.385614 1.052167 0.050757
v -0.385614 1.000295 0.072243
v -0.397970 1.000295 0.093646
v -0.385614 1.000295 0.072243
v -0.410328 0.948424 0.050757
v -0.397970 0.933289 0.065891
v -0.385614 0.948424 0.050757
v -0.397970 0.933289 0.065891
v -0.385614 0.948424 0.050757
v -0.410328 0.926938 -0.001115
v -0.397971 0.905535 -0.001115
v -0.410328 0.948424 0.050757
v -0.385614 0.926938 -0.001115
v -0.385614 0.926938 -0.001115
v -0.397971 0.905535 -0.001115
v -0.410328 0.948424 -0.052987
v -0.397970 0.933289 -0.068121
v -0.385614 0.948424 -0.052987
v -0.385614 0.948424 -0.052987
v -0.410328 0.948424 -0.052987
v -0.410328 0.926938 -0.001115
v -0.397970 0.933289 -0.068121
v -0.410328 1.000295 -0.074473
v -0.397970 1.000295 -0.095876
v -0.385614 1.000295 -0.074473
v -0.397970 1.000295 -0.095876
v -0.385614 1.000295 -0.074473
v -0.410328 1.052167 -0.052987
v -0.397971 1.067301 -0.068121
v -0.385614 1.052167 -0.052987
v -0.397971 1.067301 -0.068121
v -0.385614 1.052167 -0.052987
v -0.385614 1.073653 -0.001115
v -0.372730 1.021132 -0.022585
v -0.389145 1.000411 -0.001398
v -0.398738 1.090791 -0.001398
v -0.372730 0.979690 0.019789
v -0.398738 0.909287 -0.001398
v -0.372730 0.979690 -0.022585
v -0.398738 1.000411 -0.090713
v -0.372730 1.021132 0.019789
v -0.398738 1.000411 0.088510
v -0.398738 1.090791 -0.001398
v -0.372730 1.021132 0.019789
v -0.372730 1.021132 -0.022585
v -0.372730 0.979690 -0.022585
v -0.398738 1.000411 -0.090713
v -0.372730 0.979690 0.019789
v -0.398738 0.909287 -0.001398
v -0.398738 1.000411 0.088510
v -0.079291 2.229095 0.002506
v -0.060356 2.205198 -0.060551
v -0.017808 2.151502 -0.076125
v 0.016313 2.108441 -0.032488
v 0.016313 2.108441 0.037499
v -0.029409 2.048843 0.037499
v 0.016313 2.108441 -0.032488
v 0.016313 2.108441 0.037499
v -0.017808 2.151502 0.081136
v -0.060356 2.205198 0.065562
v -0.079291 2.229095 0.002506
v 0.016313 2.108441 0.037499
vn -0.0000 0.6303 0.7764
vn -0.5490 0.6303 0.5490
vn -0.5490 -0.6303 0.5490
vn -0.0000 -0.6303 0.7764
vn -0.7764 0.6303 -0.0000
vn -0.7764 -0.6303 -0.0000
vn -0.5490 0.6303 -0.5490
vn -0.5490 -0.6303 -0.5490
vn -0.0000 0.6303 -0.7764
vn -0.0000 -0.6303 -0.7764
vn 0.5490 0.6303 -0.5490
vn 0.5490 -0.6303 -0.5490
vn 0.7764 0.6303 -0.0000
vn 0.7764 -0.6303 -0.0000
vn 0.5490 0.6303 0.5490
vn 0.5490 -0.6303 0.5490
vn -0.5490 0.6302 -0.5490
vn -0.7764 0.6302 -0.0000
vn -0.5490 0.6302 0.5490
vn -0.5490 -0.6302 -0.5490
vn -0.0000 -0.6302 -0.7764
vn 0.5490 -0.6302 -0.5490
vn 0.7764 -0.6302 -0.0000
vn 0.5490 -0.6302 0.5490
vn -0.6302 -0.2907 0.7199
vn -0.6302 -0.7146 0.3035
vn -0.0000 -0.9204 0.3909
vn -0.0000 -0.3744 0.9273
vn -0.6302 -0.7199 -0.2907
vn -0.0000 -0.9273 -0.3744
vn -0.6302 -0.3035 -0.7146
vn -0.0000 -0.3909 -0.9204
vn -0.6302 0.2907 -0.7199
vn -0.0000 0.3744 -0.9273
vn -0.6302 0.7146 -0.3036
vn -0.0000 0.9204 -0.3909
vn -0.6302 0.7199 0.2907
vn -0.0000 0.9273 0.3744
vn -0.6303 0.3035 0.7146
vn -0.0000 0.3909 0.9204
vn -0.0000 0.3910 0.9204
vn -0.6303 0.3036 0.7146
vn -0.6303 0.7199 0.2907
vn -0.6303 0.7146 -0.3035
vn -0.6303 0.2907 -0.7199
vn -0.6303 -0.7199 -0.2906
vn -0.6302 -0.7146 0.3036
vn -0.6303 -0.2906 0.7199
vn -0.6372 0.0897 -0.7654
vn -0.6235 -0.0000 -0.7818
vn -1.0000 -0.0000 -0.0000
vn -0.9901 0.1401 -0.0000
vn 0.1828 -0.0254 -0.9828
vn 0.2225 -0.0000 -0.9749
vn 0.8842 -0.1205 -0.4513
vn 0.9010 -0.0000 -0.4339
vn 0.8842 -0.1205 0.4513
vn 0.9010 -0.0000 0.4339
vn 0.1828 -0.0254 0.9828
vn 0.2225 -0.0000 0.9749
vn -0.6372 0.0896 0.7654
vn -0.6235 -0.0000 0.7818
vn -0.8809 0.4733 -0.0008
vn -0.5748 0.3061 -0.7589
vn -0.6372 0.0896 -0.7654
vn 0.1461 -0.0765 -0.9863
vn 0.1828 -0.0255 -0.9828
vn 0.7947 -0.3966 -0.4595
vn 0.7947 -0.3966 0.4595
vn 0.8842 -0.1204 0.4513
vn 0.1461 -0.0765 0.9863
vn 0.1828 -0.0255 0.9828
vn -0.5749 0.3047 0.7594
vn -0.0000 0.6235 -0.7818
vn -0.1458 0.6343 -0.7592
vn -0.2337 0.9723 -0.0000
vn -0.0000 1.0000 -0.0000
vn -0.0000 -0.2225 -0.9749
vn 0.0350 -0.1630 -0.9860
vn -0.0000 -0.9010 -0.4339
vn 0.1527 -0.8734 -0.4625
vn -0.0000 -0.9010 0.4339
vn 0.1527 -0.8734 0.4625
vn -0.0000 -0.2225 0.9749
vn 0.0350 -0.1630 0.9860
vn -0.0000 0.6235 0.7818
vn -0.1458 0.6343 0.7592
vn 0.6303 -0.0000 0.7764
vn 0.6303 0.5490 0.5490
vn -0.6303 0.5490 0.5490
vn -0.6303 -0.0000 0.7764
vn 0.6303 0.7764 -0.0000
vn -0.6303 0.7764 -0.0000
vn 0.6303 0.5490 -0.5490
vn -0.6303 0.5490 -0.5490
vn 0.6303 -0.0000 -0.7764
vn -0.6303 -0.0000 -0.7764
vn 0.6303 -0.5490 -0.5490
vn -0.6303 -0.5490 -0.5490
vn 0.6303 -0.7764 -0.0000
vn -0.6303 -0.7764 -0.0000
vn 0.6303 -0.5490 0.5490
vn -0.6303 -0.5490 0.5490
vn -0.6302 -0.7764 -0.0000
vn -0.0000 -0.0000 1.0000
vn -0.0000 -0.0000 -1.0000
vn -0.0000 -1.0000 -0.0000
vn -0.0000 1.0000 0.0001
vn -0.9526 -0.3041 -0.0000
vn -0.9526 -0.2151 -0.2151
vn -0.0000 0.7071 0.7071
vn -0.9526 -0.3042 -0.0000
vn 0.9526 -0.3041 -0.0000
vn 0.9526 -0.2151 -0.2151
vn -0.9526 -0.0000 -0.3041
vn -0.0000 -0.0001 1.0000
vn 0.9526 -0.0000 -0.3042
vn -0.0000 0.0001 1.0000
vn -0.9526 0.2151 -0.2150
vn -0.0000 -0.7071 0.7071
vn 0.9526 0.2151 -0.2151
vn -0.9526 0.3042 -0.0000
vn -0.0000 -1.0000 0.0001
vn -0.9526 0.2150 -0.2151
vn 0.9526 0.3041 -0.0000
vn -0.9526 0.2151 0.2151
vn -0.0000 -0.7071 -0.7071
vn 0.9526 0.2151 0.2150
vn 0.9526 0.2151 0.2151
vn -0.9526 0.2150 0.2151
vn -0.9526 0.3041 -0.0000
vn -0.9526 -0.0000 0.3041
vn -0.0000 0.0001 -1.0000
vn 0.9526 -0.0000 0.3041
vn -0.0000 -0.0001 -1.0000
vn 0.9526 -0.0000 0.3042
vn -0.9526 -0.2151 0.2151
vn -0.0000 0.7071 -0.7071
vn 0.9526 -0.2151 0.2150
vn 0.9526 -0.2151 0.2151
vn 0.9526 -0.3042 -0.0000
vn -0.8747 0.3470 -0.3383
vn -1.0000 -0.0002 0.0002
vn -0.9944 -0.1055 -0.0000
vn -0.8747 -0.3470 0.3384
vn -0.9945 0.1047 -0.0000
vn -0.8747 -0.3468 -0.3385
vn -0.9943 -0.0000 0.1068
vn -0.8747 0.3472 0.3381
vn -0.9944 -0.0000 -0.1061
vn 0.9368 0.3498 -0.0000
vn 0.9872 0.1118 0.1134
vn 0.9871 0.1119 -0.1141
vn 0.9873 -0.1110 -0.1140
vn 0.9342 -0.0000 -0.3566
vn 0.9874 -0.1109 0.1133
vn 0.9380 -0.3465 -0.0000
vn 0.9353 -0.0000 0.3540
vn -0.6211 0.7837 -0.0007
vn -0.4059 0.5120 -0.7571
vn 0.0964 -0.1253 -0.9874
vn 0.5276 -0.7054 -0.4733
vn 0.5276 -0.7054 0.4733
vn 0.7947 -0.3966 0.4596
vn 0.7947 -0.3966 -0.4596
vn 0.0964 -0.1253 0.9874
vn -0.4045 0.5123 0.7576
vn -0.6211 0.7838 -0.0007
vt 0.619876 0.242081
vt 0.588675 0.242081
vt 0.588675 0.691229
vt 0.619876 0.691229
vt 0.557473 0.242081
vt 0.557473 0.691229
vt 0.526272 0.242081
vt 0.526272 0.691229
vt 0.495070 0.242081
vt 0.495070 0.691229
vt 0.463869 0.242081
vt 0.463869 0.691229
vt 0.432668 0.242081
vt 0.432668 0.691229
vt 0.401466 0.242081
vt 0.401466 0.691229
vt 0.651077 0.242081
vt 0.619876 0.691229
vt 0.651077 0.691229
vt 0.366539 0.405117
vt 0.336507 0.350907
vt 0.264000 0.328452
vt 0.191493 0.350907
vt 0.161459 0.405117
vt 0.191493 0.459328
vt 0.264000 0.481782
vt 0.336507 0.459328
vt 0.191493 0.285575
vt 0.161459 0.231365
vt 0.191493 0.177154
vt 0.264000 0.154700
vt 0.336507 0.177154
vt 0.366540 0.231365
vt 0.336507 0.285575
vt 0.264000 0.308030
vt 0.621623 0.989353
vt 0.589747 0.989353
vt 0.589747 0.704975
vt 0.621623 0.704975
vt 0.557871 0.989353
vt 0.557871 0.704975
vt 0.525994 0.989353
vt 0.525994 0.704975
vt 0.494118 0.989353
vt 0.494118 0.704975
vt 0.462241 0.989353
vt 0.462241 0.704975
vt 0.430365 0.989353
vt 0.430365 0.704975
vt 0.398489 0.989353
vt 0.398489 0.704975
vt 0.653499 0.989353
vt 0.653499 0.704975
vt 0.530669 0.136157
vt 0.499353 0.098934
vt 0.455458 0.099409
vt 0.424697 0.137305
vt 0.425090 0.190423
vt 0.456407 0.227646
vt 0.500302 0.227170
vt 0.531062 0.189274
vt 0.849975 0.059681
vt 0.849975 0.989345
vt 0.895866 0.989345
vt 0.895866 0.059681
vt 0.804141 0.059681
vt 0.804141 0.989345
vt 0.760831 0.059681
vt 0.760831 0.989345
vt 0.719299 0.059681
vt 0.719299 0.989345
vt 0.675989 0.059681
vt 0.675989 0.989345
vt 0.941758 0.059681
vt 0.941758 0.989345
vt 0.987592 0.989345
vt 0.987592 0.059681
vt 0.182719 0.833855
vt 0.159740 0.827887
vt 0.104215 0.970985
vt 0.123202 0.987741
vt 0.108107 0.814477
vt 0.061551 0.933335
vt 0.066701 0.803722
vt 0.027336 0.903142
vt 0.066701 0.803722
vt 0.027336 0.903142
vt 0.027336 0.903142
vt 0.027336 0.903142
vt 0.066701 0.803722
vt 0.347115 0.913048
vt 0.316590 0.808238
vt 0.274531 0.812554
vt 0.310523 0.937780
vt 0.222085 0.817936
vt 0.264894 0.968619
vt 0.198744 0.820331
vt 0.244587 0.982344
vt 0.078833 0.532304
vt 0.140460 0.607769
vt 0.161487 0.590418
vt 0.094915 0.508898
vt 0.042696 0.584895
vt 0.093213 0.646754
vt 0.013717 0.627069
vt 0.055324 0.678018
vt 0.013717 0.627069
vt 0.055324 0.678018
vt 0.055324 0.678018
vt 0.013717 0.627069
vt 0.359315 0.594558
vt 0.303797 0.648238
vt 0.338736 0.685120
vt 0.384462 0.640908
vt 0.327957 0.536761
vt 0.260228 0.602247
vt 0.314001 0.511038
vt 0.240839 0.581780
vt 0.138259 0.424145
vt 0.121991 0.386710
vt 0.128639 0.381532
vt 0.147533 0.425013
vt 0.082718 0.371203
vt 0.083023 0.363521
vt 0.043445 0.386710
vt 0.037408 0.381532
vt 0.027177 0.424145
vt 0.018514 0.425013
vt 0.043445 0.461581
vt 0.037408 0.468494
vt 0.082718 0.477087
vt 0.083023 0.486504
vt 0.121991 0.461581
vt 0.128639 0.468494
vt 0.128639 0.381532
vt 0.083023 0.363521
vt 0.037408 0.381532
vt 0.018514 0.425013
vt 0.037408 0.468494
vt 0.083023 0.486504
vt 0.128639 0.468494
vt 0.147533 0.425013
vt 0.545009 0.113895
vt 0.567918 0.113895
vt 0.567918 0.226375
vt 0.545009 0.226375
vt 0.590827 0.113895
vt 0.590827 0.226375
vt 0.613736 0.113895
vt 0.613736 0.226375
vt 0.636644 0.113895
vt 0.636644 0.226375
vt 0.102763 0.033591
vt 0.102763 0.050809
vt 0.148876 0.068094
vt 0.162330 0.055919
vt 0.102763 0.050809
vt 0.102763 0.050809
vt 0.148876 0.068094
vt 0.148876 0.068094
vt 0.102763 0.033591
vt 0.162330 0.055919
vt 0.167976 0.109823
vt 0.187003 0.109823
vt 0.148876 0.068094
vt 0.167976 0.109823
vt 0.187003 0.109823
vt 0.167976 0.109823
vt 0.148876 0.151552
vt 0.162330 0.163728
vt 0.148876 0.151552
vt 0.162330 0.163728
vt 0.148876 0.151552
vt 0.102763 0.168837
vt 0.102763 0.186055
vt 0.148876 0.151552
vt 0.102763 0.168837
vt 0.102763 0.168837
vt 0.102763 0.186055
vt 0.056650 0.151552
vt 0.043196 0.163728
vt 0.056650 0.151552
vt 0.056650 0.151552
vt 0.056650 0.151552
vt 0.102763 0.168837
vt 0.043196 0.163728
vt 0.037550 0.109823
vt 0.018523 0.109823
vt 0.037550 0.109823
vt 0.018523 0.109823
vt 0.037550 0.109823
vt 0.056650 0.068094
vt 0.043196 0.055919
vt 0.056650 0.068094
vt 0.043196 0.055919
vt 0.056650 0.068094
vt 0.102763 0.050809
vt 0.083677 0.093060
vt 0.102511 0.109730
vt 0.102511 0.037022
vt 0.121347 0.126400
vt 0.102511 0.183037
vt 0.083677 0.126400
vt 0.023113 0.109730
vt 0.121347 0.093060
vt 0.182438 0.109730
vt 0.102511 0.037022
vt 0.121347 0.093060
vt 0.083677 0.093060
vt 0.083677 0.126400
vt 0.023113 0.109730
vt 0.121347 0.126400
vt 0.102511 0.183037
vt 0.182438 0.109730
vt 0.189372 0.698110
vt 0.166387 0.703881
vt 0.114741 0.716849
vt 0.073325 0.727247
vt 0.073325 0.727247
vt 0.066701 0.803722
vt 0.073325 0.727247
vt 0.316609 0.731253
vt 0.276365 0.714555
vt 0.226182 0.693733
vt 0.203848 0.684467
vt 0.073325 0.727247
s 1
usemtl IS_PipesOld1_0.001
f 1/1/1 2/2/2 3/3/3
f 3/3/3 4/4/4 1/1/1
f 2/2/2 5/5/5 6/6/6
f 6/6/6 3/3/3 2/2/2
f 5/5/5 7/7/7 8/8/8
f 8/8/8 6/6/6 5/5/5
f 7/7/7 9/9/9 10/10/10
f 10/10/10 8/8/8 7/7/7
f 9/9/9 11/11/11 12/12/12
f 12/12/12 10/10/10 9/9/9
f 11/11/11 13/13/13 14/14/14
f 14/14/14 12/12/12 11/11/11
f 13/13/13 15/15/15 16/16/16
f 16/16/16 14/14/14 13/13/13
f 17/17/15 1/1/1 18/18/4
f 18/18/4 19/19/16 17/17/15
f 20/20/13 21/21/11 22/22/9
f 22/22/9 23/23/17 24/24/18
f 24/24/18 25/25/19 26/26/1
f 22/22/9 24/24/18 26/26/1
f 20/20/13 22/22/9 26/26/1
f 27/27/15 20/20/13 26/26/1
f 28/28/3 29/29/6 30/30/20
f 30/30/20 31/31/21 32/32/22
f 32/32/22 33/33/23 34/34/24
f 30/30/20 32/32/22 34/34/24
f 28/28/3 30/30/20 34/34/24
f 35/35/4 28/28/3 34/34/24
f 36/36/25 37/37/26 38/38/27
f 38/38/27 39/39/28 36/36/25
f 37/37/26 40/40/29 41/41/30
f 41/41/30 38/38/27 37/37/26
f 40/40/29 42/42/31 43/43/32
f 43/43/32 41/41/30 40/40/29
f 42/42/31 44/44/33 45/45/34
f 45/45/34 43/43/32 42/42/31
f 44/44/33 46/46/35 47/47/36
f 47/47/36 45/45/34 44/44/33
f 46/46/35 48/48/37 49/49/38
f 49/49/38 47/47/36 46/46/35
f 48/48/37 50/50/39 51/51/40
f 51/51/40 49/49/38 48/48/37
f 52/52/39 36/36/25 39/39/28
f 39/39/28 53/53/41 52/52/39
f 54/54/42 55/55/43 56/56/44
f 56/56/44 57/57/45 58/58/31
f 58/58/31 59/59/46 60/60/47
f 56/56/44 58/58/31 60/60/47
f 54/54/42 56/56/44 60/60/47
f 61/61/48 54/54/42 60/60/47
f 62/62/49 63/63/50 64/64/51
f 64/64/51 65/65/52 62/62/49
f 66/66/53 67/67/54 63/63/50
f 63/63/50 62/62/49 66/66/53
f 68/68/55 69/69/56 67/67/54
f 67/67/54 66/66/53 68/68/55
f 70/70/57 71/71/58 69/69/56
f 69/69/56 68/68/55 70/70/57
f 72/72/59 73/73/60 71/71/58
f 71/71/58 70/70/57 72/72/59
f 74/74/61 75/75/62 76/76/60
f 76/76/60 77/77/59 74/74/61
f 65/65/52 64/64/51 75/75/62
f 75/75/62 74/74/61 65/65/52
f 78/78/63 79/79/64 80/80/65
f 80/80/65 81/81/52 78/78/63
f 79/79/64 82/82/66 83/83/67
f 83/83/67 80/80/65 79/79/64
f 82/82/66 84/84/68 85/85/55
f 85/85/55 83/83/67 82/82/66
f 84/84/68 86/86/69 87/87/70
f 88/88/70 89/89/55 90/90/68
f 91/91/57 92/92/69 93/93/71
f 93/93/71 94/94/72 91/91/57
f 94/94/72 93/93/71 95/95/73
f 95/95/73 96/96/61 94/94/72
f 96/96/61 95/95/73 97/97/63
f 97/97/63 98/98/52 96/96/61
f 99/99/74 100/100/75 101/101/76
f 101/101/76 102/102/77 99/99/74
f 103/103/78 104/104/79 100/100/75
f 100/100/75 99/99/74 103/103/78
f 105/105/80 106/106/81 104/104/79
f 104/104/79 103/103/78 105/105/80
f 107/107/82 108/108/83 109/109/81
f 109/109/81 110/110/80 107/107/82
f 111/111/84 112/112/85 113/113/83
f 113/113/83 114/114/82 111/111/84
f 115/115/86 116/116/87 112/112/85
f 112/112/85 111/111/84 115/115/86
f 117/117/77 118/118/76 116/116/87
f 116/116/87 115/115/86 117/117/77
f 119/119/88 120/120/89 121/121/90
f 121/121/90 122/122/91 119/119/88
f 120/120/89 123/123/92 124/124/93
f 124/124/93 121/121/90 120/120/89
f 123/123/92 125/125/94 126/126/95
f 126/126/95 124/124/93 123/123/92
f 125/125/94 127/127/96 128/128/97
f 128/128/97 126/126/95 125/125/94
f 127/127/96 129/129/98 130/130/99
f 130/130/99 128/128/97 127/127/96
f 129/129/98 131/131/100 132/132/101
f 132/132/101 130/130/99 129/129/98
f 131/131/100 133/133/102 134/134/103
f 134/134/103 132/132/101 131/131/100
f 133/133/102 119/119/88 122/122/91
f 122/122/91 134/134/103 133/133/102
f 131/131/100 129/129/98 127/127/96
f 127/127/96 125/125/94 123/123/92
f 123/123/92 120/120/89 119/119/88
f 127/127/96 123/123/92 119/119/88
f 131/131/100 127/127/96 119/119/88
f 133/133/102 131/131/100 119/119/88
f 135/135/90 136/136/93 137/137/95
f 137/137/95 138/138/97 139/139/99
f 139/139/99 140/140/104 141/141/103
f 137/137/95 139/139/99 141/141/103
f 135/135/90 137/137/95 141/141/103
f 142/142/91 135/135/90 141/141/103
f 143/143/105 144/144/77 145/145/77
f 145/145/77 146/146/105 143/143/105
f 144/144/77 147/147/106 148/148/106
f 148/148/106 145/145/77 144/144/77
f 147/147/106 149/149/107 150/150/107
f 150/150/107 148/148/106 147/147/106
f 149/149/107 151/151/105 152/152/105
f 152/152/105 150/150/107 149/149/107
f 153/153/108 154/154/109 155/155/110
f 155/155/110 156/156/111 153/153/108
f 157/157/112 158/158/113 159/159/114
f 159/159/114 160/160/110 157/157/112
f 158/158/113 161/161/108 162/162/111
f 162/162/111 159/159/114 158/158/113
f 156/156/111 155/155/110 163/163/115
f 163/163/115 164/164/116 156/156/111
f 155/155/110 165/165/114 166/166/117
f 166/166/117 163/163/115 155/155/110
f 159/159/114 162/162/111 167/167/118
f 167/167/118 168/168/117 159/159/114
f 164/164/116 163/163/115 169/169/119
f 169/169/119 170/170/120 164/164/116
f 163/163/115 166/166/117 171/171/121
f 171/171/121 169/169/119 163/163/115
f 168/168/117 167/167/118 172/172/120
f 172/172/120 173/173/121 168/168/117
f 170/170/120 169/169/119 174/174/122
f 174/174/122 175/175/123 170/170/120
f 176/176/124 173/173/121 177/177/125
f 178/178/125 174/174/122 169/169/119
f 173/173/121 172/172/120 179/179/123
f 179/179/123 177/177/125 173/173/121
f 175/175/123 174/174/122 180/180/126
f 180/180/126 181/181/127 175/175/123
f 174/174/122 178/178/125 182/182/128
f 183/183/129 184/184/130 185/185/131
f 177/177/125 179/179/123 186/186/127
f 186/186/127 183/183/129 177/177/125
f 181/181/127 180/180/126 187/187/132
f 187/187/132 188/188/133 181/181/127
f 180/180/126 182/182/129 189/189/134
f 189/189/134 187/187/132 180/180/126
f 183/183/129 186/186/127 190/190/135
f 190/190/135 191/191/136 183/183/129
f 188/188/133 187/187/132 192/192/137
f 192/192/137 193/193/138 188/188/133
f 187/187/132 189/189/134 194/194/139
f 194/194/139 192/192/137 187/187/132
f 191/191/136 190/190/135 195/195/138
f 195/195/138 196/196/140 191/191/136
f 193/193/138 192/192/137 154/154/109
f 154/154/109 153/153/108 193/193/138
f 192/192/137 194/194/139 197/197/141
f 197/197/141 154/154/109 192/192/137
f 196/196/140 195/195/138 161/161/108
f 161/161/108 158/158/113 196/196/140
f 198/198/142 199/199/143 200/200/144
f 201/201/145 199/199/143 202/202/146
f 203/203/147 199/199/143 204/204/148
f 205/205/149 199/199/143 206/206/150
f 199/199/143 198/198/142 204/204/148
f 199/199/143 201/201/145 206/206/150
f 199/199/143 203/203/147 202/202/146
f 199/199/143 205/205/149 200/200/144
f 207/207/151 208/208/152 209/209/153
f 210/210/154 211/211/155 209/209/153
f 212/212/156 213/213/157 210/210/154
f 208/208/152 214/214/158 212/212/156
f 210/210/154 209/209/153 208/208/152
f 208/208/152 212/212/156 210/210/154
f 215/215/159 216/216/160 79/79/64
f 79/79/64 78/78/63 215/215/159
f 216/216/160 217/217/161 82/82/66
f 82/82/66 79/79/64 216/216/160
f 217/217/161 218/218/162 84/84/68
f 84/84/68 82/82/66 217/217/161
f 218/218/162 219/219/163 86/86/164
f 220/220/164 90/90/165 221/221/162
f 92/92/69 222/222/163 223/223/166
f 223/223/166 93/93/71 92/92/69
f 93/93/71 223/223/166 224/224/167
f 224/224/167 95/95/73 93/93/71
f 224/224/167 225/225/168 97/97/63
f 97/97/63 95/95/73 224/224/167
f 101/101/76 100/100/75 216/216/160
f 216/216/160 215/215/159 101/101/76
f 100/100/75 104/104/79 217/217/161
f 217/217/161 216/216/160 100/100/75
f 104/104/79 106/106/81 218/218/162
f 218/218/162 217/217/161 104/104/79
f 109/109/81 108/108/83 226/226/163
f 226/226/163 221/221/162 109/109/81
f 222/222/163 113/113/83 112/112/85
f 112/112/85 223/223/166 222/222/163
f 223/223/166 112/112/85 116/116/87
f 116/116/87 224/224/167 223/223/166
f 224/224/167 116/116/87 118/118/76
f 118/118/76 225/225/168 224/224/167
