# Blender 3.4.0
# www.blender.org
mtllib pipe_4.mtl
o SP_TNR_Pipes_4_IS_PipesOld1_0
v -0.181182 1.963359 -0.054105
v -0.181182 -0.000069 -0.054105
v -0.211549 -0.000069 0.008952
v -0.211549 1.967935 0.008951
v -0.112949 1.953076 -0.069679
v -0.112949 -0.000069 -0.069679
v -0.058231 1.944830 -0.026043
v -0.058231 -0.000069 -0.026042
v -0.058231 1.944830 0.043945
v -0.058231 -0.000069 0.043945
v -0.112949 1.953076 0.087582
v -0.112949 -0.000069 0.087582
v -0.181182 1.963359 0.072008
v -0.181182 -0.000069 0.072008
v -0.112949 -0.000069 0.087582
v -0.112949 1.953076 0.087582
v -0.165530 2.127711 0.008951
v -0.138570 2.112090 -0.054105
v -0.181182 1.963359 -0.054105
v -0.211549 1.967935 0.008951
v -0.077990 2.076991 -0.069679
v -0.112949 1.953076 -0.069679
v -0.029409 2.048843 -0.026043
v -0.058231 1.944830 -0.026043
v -0.029409 2.048843 -0.026043
v -0.029409 2.048843 0.043945
v -0.058231 1.944830 0.043945
v -0.058231 1.944830 0.043945
v -0.058231 1.944830 0.043945
v -0.029409 2.048843 0.043945
v -0.077990 2.076991 0.087582
v -0.112949 1.953076 0.087582
v -0.138570 2.112090 0.072008
v -0.181182 1.963359 0.072008
v -0.165530 2.127711 0.008951
v -0.211549 1.967935 0.008951
v 0.144189 2.250548 -0.054105
v 0.031207 2.250548 -0.054105
v 0.022142 2.280914 0.008952
v 0.144189 2.280914 0.008952
v 0.144189 2.182315 -0.069679
v 0.051577 2.182315 -0.069679
v 0.144189 2.127596 -0.026042
v 0.067911 2.127596 -0.026043
v 0.144189 2.127596 0.043945
v 0.067911 2.127596 0.043945
v 0.067911 2.127596 -0.026043
v 0.144189 2.127596 0.043945
v 0.144189 2.182315 0.087582
v 0.051577 2.182315 0.087582
v 0.067911 2.127596 0.043945
v 0.144189 2.127596 0.043945
v 0.144189 2.250548 0.072008
v 0.031207 2.250548 0.072008
v 0.144189 2.280914 0.008952
v 0.022142 2.280914 0.008952
v 0.174986 2.203907 0.102322
v 0.174986 2.270785 0.074620
v 0.126344 2.270785 0.074620
v 0.126343 2.203907 0.102322
v 0.174986 2.298487 0.007741
v 0.126344 2.298487 0.007741
v 0.174986 2.270785 -0.059138
v 0.126344 2.270785 -0.059138
v 0.174986 2.203907 -0.086840
v 0.126344 2.203907 -0.086840
v 0.174986 2.137028 -0.059138
v 0.126344 2.137028 -0.059138
v 0.174986 2.109326 0.007741
v 0.126344 2.109326 0.007741
v 0.174986 2.137028 0.074620
v 0.126344 2.137028 0.074620
v 0.126344 2.270785 0.074620
v 0.126344 2.298487 0.007741
v 0.126344 2.270785 -0.059138
v 0.126344 2.203907 -0.086840
v 0.126344 2.137028 -0.059138
v 0.126344 2.109326 0.007741
v 0.126344 2.137028 0.074620
v 0.126343 2.203907 0.102322
v -0.079291 2.229095 0.008952
v -0.060356 2.205198 -0.054105
v -0.017808 2.151502 -0.069679
v 0.016313 2.108441 -0.026043
v 0.016313 2.108441 0.043945
v -0.029409 2.048843 0.043945
v 0.016313 2.108441 -0.026043
v 0.016313 2.108441 0.043945
v -0.017808 2.151502 0.087582
v -0.060356 2.205198 0.072008
v -0.079291 2.229095 0.008952
v 0.016313 2.108441 0.043945
vn -0.6372 0.0897 -0.7654
vn -0.6235 -0.0000 -0.7818
vn -1.0000 -0.0000 -0.0000
vn -0.9901 0.1401 -0.0000
vn 0.1828 -0.0254 -0.9828
vn 0.2225 -0.0000 -0.9749
vn 0.8842 -0.1205 -0.4513
vn 0.9010 -0.0000 -0.4339
vn 0.8842 -0.1205 0.4513
vn 0.9010 -0.0000 0.4339
vn 0.1828 -0.0254 0.9828
vn 0.2225 -0.0000 0.9749
vn -0.6372 0.0896 0.7654
vn -0.6235 -0.0000 0.7818
vn -0.8809 0.4733 -0.0008
vn -0.5748 0.3061 -0.7589
vn -0.6372 0.0896 -0.7654
vn 0.1461 -0.0765 -0.9863
vn 0.1828 -0.0255 -0.9828
vn 0.7947 -0.3966 -0.4596
vn 0.7947 -0.3966 0.4596
vn 0.8842 -0.1204 0.4513
vn 0.7947 -0.3966 0.4595
vn 0.1461 -0.0765 0.9863
vn 0.1828 -0.0255 0.9828
vn -0.5749 0.3047 0.7594
vn -0.0000 0.6235 -0.7818
vn -0.1458 0.6343 -0.7592
vn -0.2337 0.9723 -0.0000
vn -0.0000 1.0000 -0.0000
vn -0.0000 -0.2225 -0.9749
vn 0.0350 -0.1630 -0.9860
vn -0.0000 -0.9010 -0.4339
vn 0.1527 -0.8734 -0.4625
vn -0.0000 -0.9010 0.4339
vn 0.1527 -0.8734 0.4625
vn -0.0000 -0.2225 0.9749
vn 0.0350 -0.1630 0.9860
vn -0.0000 0.6235 0.7818
vn -0.1458 0.6343 0.7592
vn 0.6303 -0.0000 0.7764
vn 0.6303 0.5490 0.5490
vn -0.6303 0.5490 0.5490
vn -0.6303 -0.0000 0.7764
vn 0.6303 0.7764 -0.0000
vn -0.6303 0.7764 -0.0000
vn 0.6303 0.5490 -0.5490
vn -0.6303 0.5490 -0.5490
vn 0.6303 -0.0000 -0.7764
vn -0.6303 -0.0000 -0.7764
vn 0.6303 -0.5490 -0.5490
vn -0.6303 -0.5490 -0.5490
vn 0.6303 -0.7764 -0.0000
vn -0.6303 -0.7764 -0.0000
vn 0.6303 -0.5490 0.5490
vn -0.6303 -0.5490 0.5490
vn -0.6302 -0.7764 -0.0000
vn -0.6211 0.7837 -0.0007
vn -0.4059 0.5120 -0.7571
vn 0.0964 -0.1253 -0.9874
vn 0.5276 -0.7054 -0.4733
vn 0.5276 -0.7054 0.4733
vn 0.0964 -0.1253 0.9874
vn -0.4045 0.5123 0.7576
vn -0.6211 0.7838 -0.0007
vt 0.849975 0.059681
vt 0.849975 0.989345
vt 0.895866 0.989345
vt 0.895866 0.059681
vt 0.804141 0.059681
vt 0.804141 0.989345
vt 0.760831 0.059681
vt 0.760831 0.989345
vt 0.719299 0.059681
vt 0.719299 0.989345
vt 0.675989 0.059681
vt 0.675989 0.989345
vt 0.941758 0.059681
vt 0.941758 0.989345
vt 0.987592 0.989345
vt 0.987592 0.059681
vt 0.182719 0.833855
vt 0.159740 0.827887
vt 0.104215 0.970985
vt 0.123202 0.987741
vt 0.108107 0.814477
vt 0.061551 0.933335
vt 0.066701 0.803722
vt 0.027336 0.903142
vt 0.066701 0.803722
vt 0.066701 0.803722
vt 0.027336 0.903142
vt 0.027336 0.903142
vt 0.347115 0.913048
vt 0.316590 0.808238
vt 0.274531 0.812554
vt 0.310523 0.937780
vt 0.222085 0.817936
vt 0.264894 0.968619
vt 0.198744 0.820331
vt 0.244587 0.982344
vt 0.078833 0.532304
vt 0.140460 0.607769
vt 0.161487 0.590418
vt 0.094915 0.508898
vt 0.042696 0.584895
vt 0.093213 0.646754
vt 0.013717 0.627069
vt 0.055324 0.678018
vt 0.013717 0.627069
vt 0.055324 0.678018
vt 0.055324 0.678018
vt 0.013717 0.627069
vt 0.359315 0.594558
vt 0.303797 0.648238
vt 0.338736 0.685120
vt 0.384462 0.640908
vt 0.327957 0.536761
vt 0.260228 0.602247
vt 0.314001 0.511038
vt 0.240839 0.581780
vt 0.138259 0.424145
vt 0.121991 0.386710
vt 0.128639 0.381532
vt 0.147533 0.425013
vt 0.082718 0.371203
vt 0.083023 0.363521
vt 0.043445 0.386710
vt 0.037408 0.381532
vt 0.027177 0.424145
vt 0.018514 0.425013
vt 0.043445 0.461581
vt 0.037408 0.468494
vt 0.082718 0.477087
vt 0.083023 0.486504
vt 0.121991 0.461581
vt 0.128639 0.468494
vt 0.128639 0.381532
vt 0.083023 0.363521
vt 0.037408 0.381532
vt 0.018514 0.425013
vt 0.037408 0.468494
vt 0.083023 0.486504
vt 0.128639 0.468494
vt 0.147533 0.425013
vt 0.189372 0.698110
vt 0.166387 0.703881
vt 0.114741 0.716849
vt 0.073325 0.727247
vt 0.073325 0.727247
vt 0.066701 0.803722
vt 0.073325 0.727247
vt 0.316609 0.731253
vt 0.276365 0.714555
vt 0.226182 0.693733
vt 0.203848 0.684467
vt 0.073325 0.727247
s 1
usemtl IS_PipesOld1_1.001
f 1/1/1 2/2/2 3/3/3
f 3/3/3 4/4/4 1/1/1
f 5/5/5 6/6/6 2/2/2
f 2/2/2 1/1/1 5/5/5
f 7/7/7 8/8/8 6/6/6
f 6/6/6 5/5/5 7/7/7
f 9/9/9 10/10/10 8/8/8
f 8/8/8 7/7/7 9/9/9
f 11/11/11 12/12/12 10/10/10
f 10/10/10 9/9/9 11/11/11
f 13/13/13 14/14/14 15/15/12
f 15/15/12 16/16/11 13/13/13
f 4/4/4 3/3/3 14/14/14
f 14/14/14 13/13/13 4/4/4
f 17/17/15 18/18/16 19/19/17
f 19/19/17 20/20/4 17/17/15
f 18/18/16 21/21/18 22/22/19
f 22/22/19 19/19/17 18/18/16
f 21/21/18 23/23/20 24/24/7
f 24/24/7 22/22/19 21/21/18
f 25/25/20 26/26/21 27/27/22
f 28/28/9 24/24/7 23/23/20
f 29/29/9 30/30/23 31/31/24
f 31/31/24 32/32/25 29/29/9
f 32/32/25 31/31/24 33/33/26
f 33/33/26 34/34/13 32/32/25
f 34/34/13 33/33/26 35/35/15
f 35/35/15 36/36/4 34/34/13
f 37/37/27 38/38/28 39/39/29
f 39/39/29 40/40/30 37/37/27
f 41/41/31 42/42/32 38/38/28
f 38/38/28 37/37/27 41/41/31
f 43/43/33 44/44/34 42/42/32
f 42/42/32 41/41/31 43/43/33
f 45/45/35 46/46/36 47/47/34
f 44/44/34 43/43/33 48/48/35
f 49/49/37 50/50/38 51/51/36
f 51/51/36 52/52/35 49/49/37
f 53/53/39 54/54/40 50/50/38
f 50/50/38 49/49/37 53/53/39
f 55/55/30 56/56/29 54/54/40
f 54/54/40 53/53/39 55/55/30
f 57/57/41 58/58/42 59/59/43
f 59/59/43 60/60/44 57/57/41
f 58/58/42 61/61/45 62/62/46
f 62/62/46 59/59/43 58/58/42
f 61/61/45 63/63/47 64/64/48
f 64/64/48 62/62/46 61/61/45
f 63/63/47 65/65/49 66/66/50
f 66/66/50 64/64/48 63/63/47
f 65/65/49 67/67/51 68/68/52
f 68/68/52 66/66/50 65/65/49
f 67/67/51 69/69/53 70/70/54
f 70/70/54 68/68/52 67/67/51
f 69/69/53 71/71/55 72/72/56
f 72/72/56 70/70/54 69/69/53
f 71/71/55 57/57/41 60/60/44
f 60/60/44 72/72/56 71/71/55
f 69/69/53 67/67/51 65/65/49
f 65/65/49 63/63/47 61/61/45
f 61/61/45 58/58/42 57/57/41
f 65/65/49 61/61/45 57/57/41
f 69/69/53 65/65/49 57/57/41
f 71/71/55 69/69/53 57/57/41
f 73/73/43 74/74/46 75/75/48
f 75/75/48 76/76/50 77/77/52
f 77/77/52 78/78/57 79/79/56
f 75/75/48 77/77/52 79/79/56
f 73/73/43 75/75/48 79/79/56
f 80/80/44 73/73/43 79/79/56
f 81/81/58 82/82/59 18/18/16
f 18/18/16 17/17/15 81/81/58
f 82/82/59 83/83/60 21/21/18
f 21/21/18 18/18/16 82/82/59
f 83/83/60 84/84/61 23/23/20
f 23/23/20 21/21/18 83/83/60
f 84/84/61 85/85/62 86/86/21
f 26/26/21 25/25/20 87/87/61
f 30/30/23 88/88/62 89/89/63
f 89/89/63 31/31/24 30/30/23
f 31/31/24 89/89/63 90/90/64
f 90/90/64 33/33/26 31/31/24
f 90/90/64 91/91/65 35/35/15
f 35/35/15 33/33/26 90/90/64
f 39/39/29 38/38/28 82/82/59
f 82/82/59 81/81/58 39/39/29
f 38/38/28 42/42/32 83/83/60
f 83/83/60 82/82/59 38/38/28
f 42/42/32 44/44/34 84/84/61
f 84/84/61 83/83/60 42/42/32
f 47/47/34 46/46/36 92/92/62
f 92/92/62 87/87/61 47/47/34
f 88/88/62 51/51/36 50/50/38
f 50/50/38 89/89/63 88/88/62
f 89/89/63 50/50/38 54/54/40
f 54/54/40 90/90/64 89/89/63
f 90/90/64 54/54/40 56/56/29
f 56/56/29 91/91/65 90/90/64
