# Blender 3.4.0
# www.blender.org
mtllib roofpipe_1.mtl
o SP_TNR_Roofpipes_1_SP_TNR_Roofpipes_1_0
v 0.353211 0.642310 0.261177
v -0.912480 0.642310 0.261177
v -0.912480 0.642310 -0.261178
v 0.353211 0.642310 -0.261178
v 0.875566 1.164665 0.261177
v 0.875566 1.164665 -0.261178
v -0.912480 1.164665 -0.261178
v -0.912480 1.164665 0.261177
v 0.353211 0.642310 -0.261178
v -0.912480 0.642310 -0.261178
v -0.912480 1.164665 -0.261178
v 0.875566 1.164665 -0.261178
v -0.912480 0.642310 0.261177
v 0.353211 0.642310 0.261177
v 0.875566 1.164665 0.261177
v -0.912480 1.164665 0.261177
v 0.416242 0.064735 0.261177
v 0.416242 0.597523 0.261177
v 0.416242 0.597523 -0.261178
v 0.416242 0.064735 -0.261178
v 0.938597 0.064735 0.261177
v 0.938597 0.064735 -0.261178
v 0.938597 1.119878 -0.261178
v 0.938597 1.119878 0.261177
v 0.416242 0.064735 -0.261178
v 0.416242 0.597523 -0.261178
v 0.938597 1.119878 -0.261178
v 0.938597 0.064735 -0.261178
v 0.416242 0.597523 0.261177
v 0.416242 0.064735 0.261177
v 0.938597 0.064735 0.261177
v 0.938597 1.119878 0.261177
v -0.896740 1.200042 -0.276114
v -0.896740 1.200042 0.276113
v -0.896740 1.179601 0.296554
v -0.896740 1.179601 -0.296554
v -0.896740 0.606934 -0.276114
v -0.896740 0.606934 0.276113
v -0.978485 0.606934 0.276113
v -0.978485 0.606934 -0.276114
v -0.896740 0.627374 0.296554
v -0.896740 1.179601 0.296554
v -0.978485 1.179601 0.296554
v -0.978485 0.627374 0.296554
v -0.896740 1.200042 0.276113
v -0.896740 1.200042 -0.276114
v -0.978485 1.200042 -0.276114
v -0.978485 1.200042 0.276113
v -0.896740 1.179601 -0.296554
v -0.896740 0.627374 -0.296554
v -0.978485 0.627374 -0.296554
v -0.978485 1.179601 -0.296554
v -0.978485 1.179601 -0.296554
v -0.978485 0.627374 -0.296554
v -0.978485 0.606934 -0.276114
v -0.978485 1.200042 -0.276114
v -0.896740 0.627374 -0.296554
v -0.978485 0.627374 -0.296554
v -0.896740 0.627374 0.296554
v -0.978485 0.627374 0.296554
v -0.896740 1.179601 0.296554
v -0.978485 1.179601 0.296554
v -0.896740 1.179601 -0.296554
v -0.978485 1.179601 -0.296554
v -0.896740 0.627374 0.296554
v -0.896740 0.627374 -0.296554
v -0.896740 0.606934 0.276113
v -0.896740 0.606934 -0.276114
v -0.978485 0.606934 0.276113
v -0.978485 1.200042 0.276113
v -0.978485 0.627374 0.296554
v -0.978485 1.179601 0.296554
v 0.416242 0.597523 0.261177
v 0.416242 0.597523 -0.261178
v 0.385376 0.081745 -0.276114
v 0.385376 0.081745 0.276114
v 0.405817 0.081745 0.296554
v 0.405817 0.081745 -0.296554
v 0.978485 0.081745 -0.276114
v 0.978485 0.081745 0.276114
v 0.978485 -0.000000 0.276114
v 0.978485 -0.000000 -0.276114
v 0.958044 0.081745 0.296554
v 0.405817 0.081745 0.296554
v 0.405817 0.000000 0.296554
v 0.958044 -0.000000 0.296554
v 0.385376 0.081745 0.276114
v 0.385376 0.081745 -0.276114
v 0.385376 0.000000 -0.276114
v 0.385376 0.000000 0.276114
v 0.405817 0.081745 -0.296554
v 0.958044 0.081745 -0.296554
v 0.958044 -0.000000 -0.296554
v 0.405817 0.000000 -0.296554
v 0.405817 0.000000 -0.296554
v 0.958044 -0.000000 -0.296554
v 0.978485 -0.000000 -0.276114
v 0.385376 0.000000 -0.276114
v 0.958044 0.081745 -0.296554
v 0.958044 -0.000000 -0.296554
v 0.958044 0.081745 0.296554
v 0.958044 -0.000000 0.296554
v 0.405817 0.081745 0.296554
v 0.405817 0.000000 0.296554
v 0.405817 0.081745 -0.296554
v 0.405817 0.000000 -0.296554
v 0.958044 0.081745 0.296554
v 0.958044 0.081745 -0.296554
v 0.978485 0.081745 0.276114
v 0.978485 0.081745 -0.276114
v 0.978485 -0.000000 0.276114
v 0.385376 0.000000 0.276114
v 0.958044 -0.000000 0.296554
v 0.405817 0.000000 0.296554
vn -0.2824 -0.9593 -0.0000
vn -0.0000 -1.0000 -0.0000
vn 0.2824 0.9593 -0.0000
vn -0.0000 1.0000 -0.0000
vn -0.0000 -0.0000 -1.0000
vn -0.0000 -0.0000 1.0000
vn -1.0000 -0.0000 -0.0000
vn 1.0000 -0.0000 -0.0000
vn 0.8639 0.5036 -0.0000
vn -0.0000 -0.9239 -0.3827
vn -0.0000 -0.9239 0.3827
vn -0.0000 -0.3827 0.9239
vn -0.0000 0.3827 0.9239
vn -0.0000 0.9239 0.3827
vn -0.0000 0.9239 -0.3827
vn -0.0000 0.3827 -0.9239
vn -0.0000 -0.3827 -0.9239
vn -0.5792 -0.8152 -0.0000
vn 0.9122 -0.0000 -0.4097
vn 0.9122 -0.0000 0.4097
vn 0.3443 -0.0000 0.9388
vn -0.3443 -0.0000 0.9388
vn -0.9122 -0.0000 0.4097
vn -0.9122 -0.0000 -0.4097
vn -0.3443 0.0002 -0.9388
vn 0.3443 -0.0000 -0.9388
vn -0.3443 -0.0000 -0.9388
vt 0.254318 0.741265
vt 0.254318 0.377467
vt 0.043021 0.377466
vt 0.043021 0.741265
vt 0.270041 0.531294
vt 0.481338 0.531294
vt 0.481338 0.017355
vt 0.270041 0.017355
vt 0.731312 0.436290
vt 0.730914 0.800088
vt 0.519617 0.799856
vt 0.520179 0.285917
vt 0.746973 0.439568
vt 0.749184 0.803359
vt 0.961390 0.952213
vt 0.958266 0.438284
vt 0.254318 0.982404
vt 0.254318 0.766886
vt 0.043021 0.766886
vt 0.043021 0.982404
vt 0.270041 0.983730
vt 0.481338 0.983730
vt 0.481338 0.556915
vt 0.270041 0.556915
vt 0.964966 0.418428
vt 0.749449 0.418192
vt 0.538316 0.267820
vt 0.965130 0.268288
vt 0.731177 0.821586
vt 0.515664 0.822896
vt 0.516576 0.973034
vt 0.943383 0.970440
vt 0.721273 0.020046
vt 0.500155 0.020046
vt 0.491971 0.028230
vt 0.729458 0.028230
vt 0.818884 0.029736
vt 0.818884 0.253117
vt 0.842380 0.253117
vt 0.842380 0.029736
vt 0.793401 0.039350
vt 0.792234 0.262728
vt 0.815729 0.262851
vt 0.816896 0.039473
vt 0.784359 0.249343
vt 0.784359 0.025962
vt 0.760863 0.025962
vt 0.760863 0.249343
vt 0.734767 0.036608
vt 0.733599 0.259986
vt 0.757095 0.260108
vt 0.758262 0.036731
vt 0.729458 0.028230
vt 0.729458 0.249348
vt 0.721273 0.257533
vt 0.721273 0.020046
vt 0.818884 0.018043
vt 0.842380 0.018043
vt 0.818884 0.264810
vt 0.842380 0.264810
vt 0.784359 0.261037
vt 0.760863 0.261037
vt 0.784359 0.014269
vt 0.760863 0.014269
vt 0.491971 0.249348
vt 0.729458 0.249348
vt 0.500155 0.257533
vt 0.721273 0.257533
vt 0.500155 0.257533
vt 0.500155 0.020046
vt 0.491971 0.249348
vt 0.491971 0.028230
vt 0.254318 0.766886
vt 0.043021 0.766886
vt 0.721273 0.020046
vt 0.500155 0.020046
vt 0.491971 0.028230
vt 0.729458 0.028230
vt 0.818884 0.029736
vt 0.818884 0.253117
vt 0.842380 0.253117
vt 0.842380 0.029736
vt 0.793401 0.039350
vt 0.792234 0.262728
vt 0.815729 0.262851
vt 0.816896 0.039473
vt 0.784359 0.249343
vt 0.784359 0.025962
vt 0.760863 0.025962
vt 0.760863 0.249343
vt 0.734767 0.036608
vt 0.733599 0.259986
vt 0.757095 0.260108
vt 0.758262 0.036731
vt 0.729458 0.028230
vt 0.729458 0.249348
vt 0.721273 0.257533
vt 0.721273 0.020046
vt 0.818884 0.018043
vt 0.842380 0.018043
vt 0.818884 0.264810
vt 0.842380 0.264810
vt 0.784359 0.261037
vt 0.760863 0.261037
vt 0.784359 0.014269
vt 0.760863 0.014269
vt 0.491971 0.249348
vt 0.729458 0.249348
vt 0.500155 0.257533
vt 0.721273 0.257533
vt 0.500155 0.257533
vt 0.500155 0.020046
vt 0.491971 0.249348
vt 0.491971 0.028230
s 1
usemtl SP_TNR_Roofpipes_1
f 1/1/1 2/2/2 3/3/2
f 1/1/1 3/3/2 4/4/1
f 5/5/3 6/6/3 7/7/4
f 5/5/3 7/7/4 8/8/4
s 0
f 9/9/5 10/10/5 11/11/5
f 9/9/5 11/11/5 12/12/5
f 13/13/6 14/14/6 15/15/6
f 13/13/6 15/15/6 16/16/6
f 17/17/7 18/18/7 19/19/7
f 17/17/7 19/19/7 20/20/7
s 1
f 21/21/8 22/22/8 23/23/9
f 21/21/8 23/23/9 24/24/9
s 0
f 25/25/5 26/26/5 27/27/5
f 25/25/5 27/27/5 28/28/5
f 29/29/6 30/30/6 31/31/6
f 29/29/6 31/31/6 32/32/6
f 33/33/8 34/34/8 35/35/8
f 33/33/8 35/35/8 36/36/8
s 1
f 37/37/10 38/38/11 39/39/11
f 37/37/10 39/39/11 40/40/10
f 41/41/12 42/42/13 43/43/13
f 41/41/12 43/43/13 44/44/12
f 45/45/14 46/46/15 47/47/15
f 45/45/14 47/47/15 48/48/14
f 49/49/16 50/50/17 51/51/17
f 49/49/16 51/51/17 52/52/16
s 0
f 53/53/7 54/54/7 55/55/7
f 53/53/7 55/55/7 56/56/7
s 1
f 57/57/17 37/37/10 40/40/10
f 57/57/17 40/40/10 58/58/17
f 38/38/11 59/59/12 60/60/12
f 38/38/11 60/60/12 39/39/11
f 61/61/13 45/45/14 48/48/14
f 61/61/13 48/48/14 62/62/13
f 46/46/15 63/63/16 64/64/16
f 46/46/15 64/64/16 47/47/15
s 0
f 65/65/8 66/66/8 36/36/8
f 65/65/8 36/36/8 35/35/8
f 67/67/8 68/68/8 66/66/8
f 67/67/8 66/66/8 65/65/8
f 69/69/7 70/70/7 56/56/7
f 69/69/7 56/56/7 55/55/7
f 71/71/7 72/72/7 70/70/7
f 71/71/7 70/70/7 69/69/7
s 1
f 73/73/18 1/1/1 4/4/1
f 73/73/18 4/4/1 74/74/18
f 23/23/9 6/6/3 5/5/3
f 23/23/9 5/5/3 24/24/9
s 0
f 26/26/5 9/9/5 12/12/5
f 26/26/5 12/12/5 27/27/5
f 32/32/6 15/15/6 14/14/6
f 32/32/6 14/14/6 29/29/6
f 75/75/4 76/76/4 77/77/4
f 75/75/4 77/77/4 78/78/4
s 1
f 79/79/19 80/80/20 81/81/20
f 79/79/19 81/81/20 82/82/19
f 83/83/21 84/84/22 85/85/22
f 83/83/21 85/85/22 86/86/21
f 87/87/23 88/88/24 89/89/24
f 87/87/23 89/89/24 90/90/23
f 91/91/25 92/92/26 93/93/26
f 91/91/25 93/93/26 94/94/27
s 0
f 95/95/2 96/96/2 97/97/2
f 95/95/2 97/97/2 98/98/2
s 1
f 99/99/26 79/79/19 82/82/19
f 99/99/26 82/82/19 100/100/26
f 80/80/20 101/101/21 102/102/21
f 80/80/20 102/102/21 81/81/20
f 103/103/22 87/87/23 90/90/23
f 103/103/22 90/90/23 104/104/22
f 88/88/24 105/105/27 106/106/25
f 88/88/24 106/106/25 89/89/24
s 0
f 107/107/4 108/108/4 78/78/4
f 107/107/4 78/78/4 77/77/4
f 109/109/4 110/110/4 108/108/4
f 109/109/4 108/108/4 107/107/4
f 111/111/2 112/112/2 98/98/2
f 111/111/2 98/98/2 97/97/2
f 113/113/2 114/114/2 112/112/2
f 113/113/2 112/112/2 111/111/2
