# Blender 3.4.0
# www.blender.org
mtllib roofvent_2.mtl
o SP_TNR_Roofvent_2_SP_TNR_Roofvent_1-2_0
v -0.189146 1.145887 -0.392766
v 0.000000 1.145887 -0.435937
v 0.000000 0.533089 -0.435937
v -0.189146 0.533089 -0.392766
v -0.340830 1.145887 -0.271803
v -0.340830 0.533089 -0.271803
v -0.425008 1.145887 -0.097005
v -0.425008 0.533089 -0.097005
v -0.425008 1.145887 0.097005
v -0.425008 0.533089 0.097005
v -0.340830 1.145887 0.271803
v -0.340830 0.533089 0.271803
v -0.189146 1.145887 0.392766
v -0.189146 0.533089 0.392766
v -0.000000 1.145887 0.435937
v -0.000000 0.533089 0.435937
v 0.189146 1.145887 0.392766
v 0.189146 0.533089 0.392766
v 0.340830 1.145887 0.271803
v 0.189146 1.145887 0.392766
v 0.189146 0.533089 0.392766
v 0.340830 0.533089 0.271803
v 0.425008 1.145887 0.097005
v 0.425008 0.533089 0.097005
v 0.425008 1.145887 -0.097005
v 0.425008 0.533089 -0.097005
v 0.340830 1.145887 -0.271803
v 0.340830 0.533089 -0.271803
v 0.189146 1.145887 -0.392766
v 0.189146 0.533089 -0.392766
v -0.340830 0.533089 -0.271803
v -0.189146 0.533089 -0.392766
v 0.000000 0.533089 -0.435937
v 0.189146 0.533089 -0.392766
v 0.340830 0.533089 -0.271803
v 0.425008 0.533089 -0.097005
v 0.425008 0.533089 0.097005
v 0.340830 0.533089 0.271803
v 0.189146 0.533089 0.392766
v -0.000000 0.533089 0.435937
v -0.189146 0.533089 0.392766
v -0.340830 0.533089 0.271803
v -0.425008 0.533089 0.097005
v -0.425008 0.533089 -0.097005
v -0.033391 1.148535 0.146294
v 0.093559 1.148535 0.117319
v 0.150056 1.148535 -0.000000
v 0.093558 1.148535 -0.117319
v -0.033391 1.148535 -0.146294
v -0.135196 1.148535 -0.065107
v -0.135196 1.148535 0.065107
v -0.161858 1.177742 -0.336102
v 0.000000 1.177742 -0.373045
v 0.000000 1.145887 -0.435937
v -0.189146 1.145887 -0.392766
v -0.291658 1.177742 -0.232590
v -0.340830 1.145887 -0.271803
v -0.363692 1.177742 -0.083010
v -0.425008 1.145887 -0.097005
v -0.363692 1.177742 0.083010
v -0.425008 1.145887 0.097005
v -0.291658 1.177742 0.232590
v -0.340830 1.145887 0.271803
v -0.161858 1.177742 0.336102
v -0.189146 1.145887 0.392766
v -0.000000 1.177742 0.373045
v -0.000000 1.145887 0.435937
v 0.161858 1.177742 0.336102
v 0.189146 1.145887 0.392766
v 0.291658 1.177742 0.232590
v 0.340830 1.145887 0.271803
v 0.363692 1.177742 0.083010
v 0.425008 1.145887 0.097005
v 0.363692 1.177742 -0.083010
v 0.425008 1.145887 -0.097005
v 0.291658 1.177742 -0.232590
v 0.340830 1.145887 -0.271803
v 0.161858 1.177742 -0.336102
v 0.189146 1.145887 -0.392766
v -0.121543 0.537028 -0.210518
v 0.000000 0.537028 -0.243086
v 0.000000 0.144958 -0.243086
v -0.121543 0.144958 -0.210518
v -0.210518 0.537028 -0.121543
v -0.210518 0.144958 -0.121543
v -0.243086 0.537028 0.000000
v -0.243086 0.144958 0.000000
v -0.210518 0.537028 0.121543
v -0.210518 0.144958 0.121543
v -0.121543 0.537028 0.210518
v -0.121543 0.144958 0.210518
v -0.000000 0.537028 0.243086
v -0.000000 0.144958 0.243086
v 0.121543 0.537028 0.210518
v 0.121543 0.144958 0.210518
v 0.210518 0.537028 0.121543
v 0.210518 0.144958 0.121543
v 0.243086 0.537028 0.000000
v 0.210518 0.537028 0.121543
v 0.210518 0.144958 0.121543
v 0.243086 0.144958 0.000000
v 0.210518 0.537028 -0.121543
v 0.210518 0.144958 -0.121543
v 0.121543 0.537028 -0.210518
v 0.121543 0.144958 -0.210518
v -0.314098 0.149776 -0.314098
v -0.314098 0.149776 0.314098
v 0.314098 0.149776 0.314098
v 0.314098 0.149776 -0.314098
v 0.314098 0.149776 0.314098
v -0.314098 0.149776 0.314098
v -0.330630 0.099839 0.330630
v 0.330630 0.099839 0.330630
v 0.314098 0.149776 -0.314098
v 0.314098 0.149776 0.314098
v 0.330630 0.099839 0.330630
v 0.330630 0.099839 -0.330630
v -0.314098 0.149776 -0.314098
v 0.314098 0.149776 -0.314098
v 0.330630 0.099839 -0.330630
v -0.330630 0.099839 -0.330630
v -0.314098 0.149776 0.314098
v -0.314098 0.149776 -0.314098
v -0.330630 0.099839 -0.330630
v -0.330630 0.099839 0.330630
v 0.000000 1.177742 -0.373045
v -0.161858 1.177742 -0.336102
v -0.041420 1.128355 -0.181474
v -0.167707 1.128355 -0.080763
v -0.291658 1.177742 -0.232590
v -0.363692 1.177742 -0.083010
v -0.167707 1.128355 0.080763
v -0.363692 1.177742 0.083010
v -0.291658 1.177742 0.232590
v -0.041420 1.128355 0.181474
v -0.161858 1.177742 0.336102
v -0.000000 1.177742 0.373045
v 0.116057 1.128355 0.145531
v 0.161858 1.177742 0.336102
v 0.291658 1.177742 0.232590
v 0.186141 1.128355 -0.000000
v 0.363692 1.177742 0.083010
v 0.363692 1.177742 -0.083010
v 0.116057 1.128355 -0.145531
v 0.291658 1.177742 -0.232590
v 0.161858 1.177742 -0.336102
v -0.330630 -0.016046 0.330630
v 0.330630 -0.016046 0.330630
v 0.330630 0.099839 0.330630
v -0.330630 0.099839 0.330630
v -0.330630 -0.016046 -0.330630
v -0.330630 -0.016046 0.330630
v -0.330630 0.099839 0.330630
v -0.330630 0.099839 -0.330630
v 0.330630 -0.016046 -0.330630
v -0.330630 -0.016046 -0.330630
v -0.330630 0.099839 -0.330630
v 0.330630 0.099839 -0.330630
v 0.330630 -0.016046 0.330630
v 0.330630 -0.016046 -0.330630
v 0.330630 0.099839 -0.330630
v 0.330630 0.099839 0.330630
vn -0.4339 -0.0000 -0.9010
vn -0.0000 -0.0000 -1.0000
vn -0.7818 -0.0000 -0.6235
vn -0.9749 -0.0000 -0.2225
vn -0.9749 -0.0000 0.2225
vn -0.7818 -0.0000 0.6235
vn -0.4339 -0.0000 0.9010
vn -0.0000 -0.0000 1.0000
vn 0.4339 -0.0000 0.9010
vn 0.7818 -0.0000 0.6235
vn 0.9749 -0.0000 0.2225
vn 0.9749 -0.0000 -0.2225
vn 0.7818 -0.0000 -0.6235
vn 0.4339 -0.0000 -0.9010
vn -0.0000 -1.0000 -0.0000
vn -0.0705 0.9485 0.3089
vn 0.1976 0.9485 0.2477
vn 0.3169 0.9485 -0.0000
vn 0.1976 0.9485 -0.2477
vn -0.0705 0.9485 -0.3089
vn -0.2855 0.9485 -0.1375
vn -0.2855 0.9485 0.1375
vn -0.1961 0.8921 -0.4071
vn -0.0000 0.8921 -0.4519
vn -0.3533 0.8921 -0.2817
vn -0.4405 0.8921 -0.1005
vn -0.4405 0.8921 0.1005
vn -0.3533 0.8921 0.2817
vn -0.1961 0.8921 0.4071
vn -0.0000 0.8921 0.4518
vn 0.1961 0.8921 0.4071
vn 0.3533 0.8921 0.2817
vn 0.4405 0.8921 0.1005
vn 0.4405 0.8921 -0.1005
vn 0.3533 0.8921 -0.2817
vn 0.1961 0.8921 -0.4071
vn -0.5000 -0.0000 -0.8660
vn -0.8660 -0.0000 -0.5000
vn -1.0000 -0.0000 -0.0000
vn -0.8660 -0.0000 0.5000
vn -0.5000 -0.0000 0.8660
vn 0.5000 -0.0000 0.8660
vn 0.8660 -0.0001 0.5000
vn 0.8660 -0.0000 0.5000
vn 1.0000 -0.0000 -0.0000
vn 0.8660 0.0001 0.5000
vn 0.8660 -0.0000 -0.5000
vn 0.5000 -0.0000 -0.8660
vn -0.0000 1.0000 -0.0000
vn -0.0000 0.3143 0.9493
vn 0.9493 0.3143 -0.0000
vn -0.0000 0.3143 -0.9493
vn -0.9493 0.3143 -0.0000
vn -0.0061 0.9686 0.2484
vn 0.1132 0.9686 0.2212
vn -0.0076 0.9994 -0.0331
vn -0.0306 0.9994 -0.0147
vn 0.1904 0.9686 0.1596
vn 0.2435 0.9686 0.0494
vn -0.0306 0.9994 0.0147
vn 0.2435 0.9686 -0.0494
vn 0.1904 0.9686 -0.1596
vn -0.0076 0.9994 0.0331
vn 0.1132 0.9686 -0.2212
vn -0.0061 0.9686 -0.2484
vn 0.0212 0.9994 0.0266
vn -0.1023 0.9686 -0.2264
vn -0.1980 0.9686 -0.1501
vn 0.0340 0.9994 -0.0000
vn -0.2408 0.9686 -0.0612
vn -0.2408 0.9686 0.0612
vn 0.0212 0.9994 -0.0266
vn -0.1980 0.9686 0.1501
vn -0.1023 0.9686 0.2264
vt 0.501449 0.987487
vt 0.571167 0.987485
vt 0.571161 0.878866
vt 0.501445 0.878869
vt 0.431731 0.987488
vt 0.431730 0.878871
vt 0.362015 0.987488
vt 0.362015 0.878872
vt 0.292299 0.987487
vt 0.292301 0.878871
vt 0.222584 0.987485
vt 0.222586 0.878870
vt 0.152869 0.987483
vt 0.152872 0.878868
vt 0.083154 0.987481
vt 0.083157 0.878866
vt 0.013439 0.987479
vt 0.013442 0.878863
vt 0.919769 0.987462
vt 0.989490 0.987457
vt 0.989482 0.878832
vt 0.919761 0.878838
vt 0.850048 0.987468
vt 0.850040 0.878843
vt 0.780327 0.987473
vt 0.780319 0.878849
vt 0.710607 0.987478
vt 0.710599 0.878855
vt 0.640886 0.987482
vt 0.640880 0.878860
vt 0.447218 0.154046
vt 0.461584 0.113353
vt 0.457210 0.070335
vt 0.434963 0.033512
vt 0.399248 0.010177
vt 0.357140 0.004952
vt 0.316978 0.018872
vt 0.286717 0.049180
vt 0.272351 0.089872
vt 0.276725 0.132890
vt 0.298972 0.169714
vt 0.334687 0.193049
vt 0.376795 0.198274
vt 0.416957 0.184354
vt 0.337898 0.478987
vt 0.344235 0.507441
vt 0.370010 0.520056
vt 0.395787 0.507354
vt 0.402178 0.478915
vt 0.384310 0.456140
vt 0.355698 0.456136
vt 0.444959 0.449618
vt 0.453200 0.486419
vt 0.467696 0.486438
vt 0.458027 0.443221
vt 0.421878 0.420117
vt 0.430928 0.408572
vt 0.388515 0.403746
vt 0.391757 0.389341
vt 0.351504 0.403747
vt 0.348293 0.389335
vt 0.318149 0.420137
vt 0.309122 0.408572
vt 0.295079 0.449651
vt 0.282024 0.443225
vt 0.286846 0.486457
vt 0.272351 0.486438
vt 0.295073 0.523245
vt 0.282006 0.529639
vt 0.318157 0.552756
vt 0.309105 0.564299
vt 0.351504 0.569124
vt 0.348264 0.583530
vt 0.388531 0.569110
vt 0.391743 0.583523
vt 0.421877 0.552725
vt 0.430904 0.564290
vt 0.444959 0.523205
vt 0.458011 0.529635
vt 0.325598 0.662077
vt 0.370720 0.662077
vt 0.370720 0.592727
vt 0.325598 0.592728
vt 0.280475 0.662077
vt 0.280475 0.592728
vt 0.235353 0.662077
vt 0.235353 0.592728
vt 0.190230 0.662077
vt 0.190230 0.592728
vt 0.145107 0.662077
vt 0.145108 0.592727
vt 0.099985 0.662077
vt 0.099985 0.592727
vt 0.054863 0.662077
vt 0.054863 0.592727
vt 0.009740 0.662077
vt 0.009740 0.592727
vt 0.506089 0.662076
vt 0.551211 0.662076
vt 0.551211 0.592726
vt 0.506088 0.592726
vt 0.460966 0.662077
vt 0.460965 0.592727
vt 0.415843 0.662077
vt 0.415843 0.592727
vt 0.628140 0.026888
vt 0.484258 0.027882
vt 0.485233 0.174579
vt 0.629116 0.173584
vt 0.485233 0.174579
vt 0.484258 0.027882
vt 0.477527 0.024068
vt 0.478554 0.178486
vt 0.629116 0.173584
vt 0.485233 0.174579
vt 0.481492 0.181441
vt 0.632948 0.180394
vt 0.628140 0.026888
vt 0.629116 0.173584
vt 0.635846 0.177398
vt 0.634820 0.022981
vt 0.484258 0.027882
vt 0.628140 0.026888
vt 0.631881 0.020026
vt 0.480426 0.021073
vt 0.453200 0.486419
vt 0.444959 0.449618
vt 0.410286 0.477064
vt 0.387941 0.448519
vt 0.421878 0.420117
vt 0.388515 0.403746
vt 0.352119 0.448489
vt 0.351504 0.403747
vt 0.318149 0.420137
vt 0.329801 0.477072
vt 0.295079 0.449651
vt 0.286846 0.486457
vt 0.337717 0.512693
vt 0.295073 0.523245
vt 0.318157 0.552756
vt 0.369985 0.528529
vt 0.351504 0.569124
vt 0.388531 0.569110
vt 0.402267 0.512663
vt 0.421877 0.552725
vt 0.444959 0.523205
vt 0.464686 0.024157
vt 0.465713 0.178575
vt 0.478554 0.178486
vt 0.477527 0.024068
vt 0.631794 0.006933
vt 0.480339 0.007980
vt 0.480426 0.021073
vt 0.631881 0.020026
vt 0.648687 0.177310
vt 0.647660 0.022892
vt 0.634820 0.022981
vt 0.635846 0.177398
vt 0.481580 0.194533
vt 0.633035 0.193486
vt 0.632948 0.180394
vt 0.481492 0.181441
s 1
usemtl SP_TNR_Roofvent_1-2
f 1/1/1 2/2/2 3/3/2
f 3/3/2 4/4/1 1/1/1
f 5/5/3 1/1/1 4/4/1
f 4/4/1 6/6/3 5/5/3
f 7/7/4 5/5/3 6/6/3
f 6/6/3 8/8/4 7/7/4
f 9/9/5 7/7/4 8/8/4
f 8/8/4 10/10/5 9/9/5
f 11/11/6 9/9/5 10/10/5
f 10/10/5 12/12/6 11/11/6
f 13/13/7 11/11/6 12/12/6
f 12/12/6 14/14/7 13/13/7
f 15/15/8 13/13/7 14/14/7
f 14/14/7 16/16/8 15/15/8
f 17/17/9 15/15/8 16/16/8
f 16/16/8 18/18/9 17/17/9
f 19/19/10 20/20/9 21/21/9
f 21/21/9 22/22/10 19/19/10
f 23/23/11 19/19/10 22/22/10
f 22/22/10 24/24/11 23/23/11
f 25/25/12 23/23/11 24/24/11
f 24/24/11 26/26/12 25/25/12
f 27/27/13 25/25/12 26/26/12
f 26/26/12 28/28/13 27/27/13
f 29/29/14 27/27/13 28/28/13
f 28/28/13 30/30/14 29/29/14
f 2/2/2 29/29/14 30/30/14
f 30/30/14 3/3/2 2/2/2
s 0
f 31/31/15 32/32/15 33/33/15
f 33/33/15 34/34/15 35/35/15
f 35/35/15 36/36/15 37/37/15
f 33/33/15 35/35/15 37/37/15
f 37/37/15 38/38/15 39/39/15
f 39/39/15 40/40/15 41/41/15
f 37/37/15 39/39/15 41/41/15
f 33/33/15 37/37/15 41/41/15
f 31/31/15 33/33/15 41/41/15
f 41/41/15 42/42/15 43/43/15
f 31/31/15 41/41/15 43/43/15
f 31/31/15 43/43/15 44/44/15
s 1
f 45/45/16 46/46/17 47/47/18
f 45/45/16 47/47/18 48/48/19
f 48/48/19 49/49/20 50/50/21
f 45/45/16 48/48/19 50/50/21
f 45/45/16 50/50/21 51/51/22
f 52/52/23 53/53/24 54/54/24
f 54/54/24 55/55/23 52/52/23
f 56/56/25 52/52/23 55/55/23
f 55/55/23 57/57/25 56/56/25
f 58/58/26 56/56/25 57/57/25
f 57/57/25 59/59/26 58/58/26
f 60/60/27 58/58/26 59/59/26
f 59/59/26 61/61/27 60/60/27
f 62/62/28 60/60/27 61/61/27
f 61/61/27 63/63/28 62/62/28
f 64/64/29 62/62/28 63/63/28
f 63/63/28 65/65/29 64/64/29
f 66/66/30 64/64/29 65/65/29
f 65/65/29 67/67/30 66/66/30
f 68/68/31 66/66/30 67/67/30
f 67/67/30 69/69/31 68/68/31
f 70/70/32 68/68/31 69/69/31
f 69/69/31 71/71/32 70/70/32
f 72/72/33 70/70/32 71/71/32
f 71/71/32 73/73/33 72/72/33
f 74/74/34 72/72/33 73/73/33
f 73/73/33 75/75/34 74/74/34
f 76/76/35 74/74/34 75/75/34
f 75/75/34 77/77/35 76/76/35
f 78/78/36 76/76/35 77/77/35
f 77/77/35 79/79/36 78/78/36
f 53/53/24 78/78/36 79/79/36
f 79/79/36 54/54/24 53/53/24
f 80/80/37 81/81/2 82/82/2
f 82/82/2 83/83/37 80/80/37
f 84/84/38 80/80/37 83/83/37
f 83/83/37 85/85/38 84/84/38
f 86/86/39 84/84/38 85/85/38
f 85/85/38 87/87/39 86/86/39
f 88/88/40 86/86/39 87/87/39
f 87/87/39 89/89/40 88/88/40
f 90/90/41 88/88/40 89/89/40
f 89/89/40 91/91/41 90/90/41
f 92/92/8 90/90/41 91/91/41
f 91/91/41 93/93/8 92/92/8
f 94/94/42 92/92/8 93/93/8
f 93/93/8 95/95/42 94/94/42
f 96/96/43 94/94/42 95/95/42
f 95/95/42 97/97/44 96/96/43
f 98/98/45 99/99/44 100/100/46
f 100/100/46 101/101/45 98/98/45
f 102/102/47 98/98/45 101/101/45
f 101/101/45 103/103/47 102/102/47
f 104/104/48 102/102/47 103/103/47
f 103/103/47 105/105/48 104/104/48
f 81/81/2 104/104/48 105/105/48
f 105/105/48 82/82/2 81/81/2
s 0
f 106/106/49 107/107/49 108/108/49
f 108/108/49 109/109/49 106/106/49
f 110/110/50 111/111/50 112/112/50
f 112/112/50 113/113/50 110/110/50
f 114/114/51 115/115/51 116/116/51
f 116/116/51 117/117/51 114/114/51
f 118/118/52 119/119/52 120/120/52
f 120/120/52 121/121/52 118/118/52
f 122/122/53 123/123/53 124/124/53
f 124/124/53 125/125/53 122/122/53
s 1
f 126/126/54 127/127/55 128/128/56
f 129/129/57 128/128/56 127/127/55
f 127/127/55 130/130/58 129/129/57
f 130/130/58 131/131/59 129/129/57
f 132/132/60 129/129/57 131/131/59
f 131/131/59 133/133/61 132/132/60
f 133/133/61 134/134/62 132/132/60
f 135/135/63 132/132/60 134/134/62
f 134/134/62 136/136/64 135/135/63
f 136/136/64 137/137/65 135/135/63
f 138/138/66 135/135/63 137/137/65
f 137/137/65 139/139/67 138/138/66
f 139/139/67 140/140/68 138/138/66
f 141/141/69 138/138/66 140/140/68
f 140/140/68 142/142/70 141/141/69
f 142/142/70 143/143/71 141/141/69
f 144/144/72 141/141/69 143/143/71
f 143/143/71 145/145/73 144/144/72
f 145/145/73 146/146/74 144/144/72
f 128/128/56 144/144/72 146/146/74
f 146/146/74 126/126/54 128/128/56
f 50/50/21 49/49/20 128/128/56
f 128/128/56 129/129/57 50/50/21
f 51/51/22 50/50/21 129/129/57
f 129/129/57 132/132/60 51/51/22
f 45/45/16 51/51/22 132/132/60
f 132/132/60 135/135/63 45/45/16
f 46/46/17 45/45/16 135/135/63
f 135/135/63 138/138/66 46/46/17
f 47/47/18 46/46/17 138/138/66
f 138/138/66 141/141/69 47/47/18
f 48/48/19 47/47/18 141/141/69
f 141/141/69 144/144/72 48/48/19
f 49/49/20 48/48/19 144/144/72
f 144/144/72 128/128/56 49/49/20
s 0
f 147/147/8 148/148/8 149/149/8
f 149/149/8 150/150/8 147/147/8
f 151/151/39 152/152/39 153/153/39
f 153/153/39 154/154/39 151/151/39
f 155/155/2 156/156/2 157/157/2
f 157/157/2 158/158/2 155/155/2
f 159/159/45 160/160/45 161/161/45
f 161/161/45 162/162/45 159/159/45
