# Blender 3.4.0
# www.blender.org
mtllib roofpipe_2.mtl
o SP_TNR_Roofpipes_2_SP_TNR_Roofpipes_2_0
v 1.367905 0.623632 0.108471
v 1.367905 0.053443 0.108471
v 1.392663 0.053443 -0.000000
v 1.392663 0.633887 -0.000000
v 1.298536 0.594898 0.195458
v 1.298536 0.053443 0.195458
v 1.198294 0.553376 0.243732
v 1.198294 0.053443 0.243732
v 1.087033 0.507291 0.243732
v 1.087033 0.053443 0.243732
v 0.986791 0.465769 0.195458
v 0.986791 0.053443 0.195458
v 0.917421 0.437035 0.108471
v 0.917421 0.053443 0.108471
v 0.892663 0.426780 -0.000000
v 0.892663 0.053443 -0.000000
v 0.917421 0.437035 -0.108471
v 0.917421 0.053443 -0.108471
v 0.892663 0.053443 -0.000000
v 0.892663 0.426780 -0.000000
v 0.986791 0.465769 -0.195458
v 0.986791 0.053443 -0.195458
v 1.087033 0.507291 -0.243732
v 1.087033 0.053443 -0.243732
v 1.198294 0.553376 -0.243732
v 1.198294 0.053443 -0.243732
v 1.298536 0.594898 -0.195458
v 1.298536 0.053443 -0.195458
v 1.367905 0.623632 -0.108471
v 1.367905 0.053443 -0.108471
v 1.392663 0.633887 -0.000000
v 1.392663 0.053443 -0.000000
v 0.752303 1.262344 0.108471
v 1.351565 0.663082 0.108471
v 1.376323 0.673337 -0.000000
v 0.762558 1.287102 0.000000
v 0.723569 1.192975 0.195458
v 1.282195 0.634348 0.195458
v 0.682047 1.092732 0.243732
v 1.181953 0.592826 0.243732
v 0.635961 0.981472 0.243732
v 1.070693 0.546741 0.243732
v 0.594440 0.881230 0.195458
v 0.970450 0.505219 0.195458
v 0.565706 0.811860 0.108471
v 0.901080 0.476485 0.108471
v 0.555451 0.787102 -0.000000
v 0.876323 0.466230 -0.000000
v 0.565706 0.811860 -0.108471
v 0.901081 0.476485 -0.108471
v 0.876323 0.466230 -0.000000
v 0.555451 0.787102 -0.000000
v 0.594440 0.881230 -0.195458
v 0.970450 0.505219 -0.195458
v 0.635961 0.981472 -0.243732
v 1.070693 0.546741 -0.243732
v 0.682047 1.092732 -0.243732
v 1.181953 0.592826 -0.243732
v 0.723569 1.192975 -0.195458
v 1.282195 0.634348 -0.195458
v 0.752303 1.262344 -0.108471
v 1.351565 0.663082 -0.108471
v 0.762558 1.287102 0.000000
v 1.376323 0.673337 -0.000000
v -0.357337 1.278685 0.108471
v 0.712853 1.278685 0.108471
v 0.723108 1.303443 0.000000
v -0.357337 1.303443 0.000000
v -0.357337 1.209315 0.195458
v 0.684119 1.209315 0.195458
v -0.357337 1.109073 0.243732
v 0.642597 1.109073 0.243732
v -0.357337 0.997813 0.243732
v 0.596511 0.997813 0.243732
v -0.357337 0.897570 0.195458
v 0.554990 0.897570 0.195458
v -0.357337 0.828201 0.108471
v 0.526256 0.828201 0.108471
v -0.357337 0.803443 -0.000000
v 0.516001 0.803443 -0.000000
v -0.357337 0.828201 -0.108471
v 0.526256 0.828201 -0.108471
v 0.516001 0.803443 -0.000000
v -0.357337 0.803443 -0.000000
v -0.357337 0.897570 -0.195458
v 0.554990 0.897570 -0.195458
v -0.357337 0.997813 -0.243732
v 0.596511 0.997813 -0.243732
v -0.357337 1.109073 -0.243732
v 0.642597 1.109073 -0.243732
v -0.357337 1.209315 -0.195458
v 0.684119 1.209315 -0.195458
v -0.357337 1.278685 -0.108471
v 0.712853 1.278685 -0.108471
v -0.357337 1.303443 0.000000
v 0.723108 1.303443 0.000000
v -1.357337 1.278685 0.108471
v -1.357337 1.303443 0.000000
v -1.357337 1.209315 0.195458
v -1.357337 1.109073 0.243732
v -1.357337 0.997813 0.243732
v -1.357337 0.897570 0.195458
v -1.357337 0.828201 0.108471
v -1.357337 0.803443 -0.000000
v -1.357337 0.828201 -0.108471
v -1.357337 0.803443 -0.000000
v -1.357337 0.897570 -0.195458
v -1.357337 0.997813 -0.243732
v -1.357337 1.109073 -0.243732
v -1.357337 1.209315 -0.195458
v -1.357337 1.278685 -0.108471
v -1.357337 1.303443 0.000000
v -1.339621 1.224396 -0.214368
v -1.339621 1.300477 -0.118965
v -1.339621 1.327630 0.000000
v -1.339621 1.114455 -0.267313
v -1.339621 0.992430 -0.267313
v -1.339621 0.882490 -0.214369
v -1.339621 0.806408 -0.118966
v -1.339621 0.779255 -0.000000
v -1.339621 0.806408 0.118965
v -1.339621 0.882490 0.214368
v -1.339621 0.992430 0.267313
v -1.339621 1.114455 0.267313
v -1.339621 1.224396 0.214369
v -1.339621 1.300477 0.118966
v -1.339621 1.224396 0.214369
v -1.339621 1.300477 0.118966
v -1.418985 1.300477 0.118966
v -1.418985 1.224396 0.214369
v -1.339621 1.327630 0.000000
v -1.418985 1.327630 0.000000
v -1.339621 1.300477 -0.118965
v -1.418985 1.300477 -0.118965
v -1.339621 1.224396 -0.214368
v -1.418985 1.224396 -0.214368
v -1.339621 1.114455 -0.267313
v -1.418985 1.114455 -0.267313
v -1.339621 0.992430 -0.267313
v -1.418985 0.992430 -0.267313
v -1.339621 0.882490 -0.214369
v -1.418985 0.882490 -0.214369
v -1.339621 0.806408 -0.118966
v -1.418985 0.806408 -0.118966
v -1.339621 0.779255 -0.000000
v -1.418985 0.779255 -0.000000
v -1.339621 0.806408 0.118965
v -1.418985 0.806408 0.118965
v -1.339621 0.882490 0.214368
v -1.418985 0.882490 0.214368
v -1.339621 0.992430 0.267313
v -1.418985 0.992430 0.267313
v -1.339621 1.114455 0.267313
v -1.418985 1.114455 0.267313
v -1.339621 1.114455 0.267313
v -1.418985 1.114455 0.267313
v -1.418985 1.327630 0.000000
v -1.418985 1.300477 -0.118965
v -1.418985 1.224396 -0.214368
v -1.418985 1.114455 -0.267313
v -1.418985 0.992430 -0.267313
v -1.418985 0.882490 -0.214369
v -1.418985 0.806408 -0.118966
v -1.418985 0.779255 -0.000000
v -1.418985 0.806408 0.118965
v -1.418985 0.882490 0.214368
v -1.418985 0.992430 0.267313
v -1.418985 1.114455 0.267313
v -1.418985 1.224396 0.214369
v -1.418985 1.300477 0.118966
v 0.973844 0.079364 -0.214368
v 0.897763 0.079364 -0.118965
v 0.870610 0.079364 0.000000
v 1.083785 0.079364 -0.267313
v 1.205810 0.079364 -0.267313
v 1.315750 0.079364 -0.214369
v 1.391832 0.079364 -0.118966
v 1.418985 0.079364 -0.000000
v 1.391832 0.079364 0.118965
v 1.315750 0.079364 0.214368
v 1.205810 0.079364 0.267313
v 1.083785 0.079364 0.267313
v 0.973844 0.079364 0.214369
v 0.897763 0.079364 0.118966
v 0.973844 0.079364 0.214369
v 0.897763 0.079364 0.118966
v 0.897763 0.000001 0.118966
v 0.973844 0.000001 0.214369
v 0.870610 0.079364 0.000000
v 0.870610 0.000001 0.000000
v 0.870610 0.079364 0.000000
v 0.897763 0.079364 -0.118965
v 0.897763 0.000001 -0.118965
v 0.870610 0.000001 0.000000
v 0.973844 0.079364 -0.214368
v 0.973844 0.000001 -0.214368
v 1.083785 0.079364 -0.267313
v 1.083785 0.000001 -0.267313
v 1.205810 0.079364 -0.267313
v 1.205810 0.000001 -0.267313
v 1.315750 0.079364 -0.214369
v 1.315750 0.000001 -0.214369
v 1.391832 0.079364 -0.118966
v 1.391832 0.000001 -0.118966
v 1.418985 0.079364 -0.000000
v 1.418985 0.000001 -0.000000
v 1.391832 0.079364 0.118965
v 1.391832 0.000001 0.118965
v 1.315750 0.079364 0.214368
v 1.315750 0.000001 0.214368
v 1.205810 0.079364 0.267313
v 1.205810 0.000001 0.267313
v 1.083785 0.079364 0.267313
v 1.083785 0.000001 0.267313
v 0.870610 0.000001 0.000000
v 0.897763 0.000001 -0.118965
v 0.973844 0.000001 -0.214368
v 1.083785 0.000001 -0.267313
v 1.205810 0.000001 -0.267313
v 1.315750 0.000001 -0.214369
v 1.391832 0.000001 -0.118966
v 1.418985 0.000001 -0.000000
v 1.391832 0.000001 0.118965
v 1.315750 0.000001 0.214368
v 1.205810 0.000001 0.267313
v 1.083785 0.000001 0.267313
v 0.973844 0.000001 0.214369
v 0.897763 0.000001 0.118966
vn 0.8792 0.1770 0.4423
vn 0.9010 -0.0000 0.4339
vn 1.0000 -0.0000 -0.0000
vn 0.9797 0.2005 -0.0000
vn 0.6088 0.1170 0.7846
vn 0.6235 -0.0000 0.7818
vn 0.2340 0.0401 0.9714
vn 0.2225 -0.0000 0.9749
vn -0.1810 -0.0396 0.9827
vn -0.2225 -0.0000 0.9749
vn -0.5743 -0.1130 0.8108
vn -0.6235 -0.0000 0.7818
vn -0.8696 -0.1680 0.4642
vn -0.9010 -0.0000 0.4339
vn -0.9820 -0.1891 -0.0000
vn -1.0000 -0.0000 -0.0000
vn -0.8696 -0.1680 -0.4642
vn -0.9010 -0.0000 -0.4339
vn -0.5743 -0.1130 -0.8108
vn -0.6235 -0.0000 -0.7818
vn -0.1810 -0.0396 -0.9827
vn -0.2225 -0.0000 -0.9749
vn 0.2340 0.0401 -0.9714
vn 0.2225 -0.0000 -0.9749
vn 0.6088 0.1170 -0.7846
vn 0.6235 -0.0000 -0.7818
vn 0.8792 0.1770 -0.4423
vn 0.9010 -0.0000 -0.4339
vn 0.4966 0.7469 0.4423
vn 0.7469 0.4966 0.4423
vn 0.8345 0.5509 -0.0000
vn 0.5509 0.8345 -0.0000
vn 0.3478 0.5132 0.7846
vn 0.5132 0.3478 0.7846
vn 0.1371 0.1938 0.9714
vn 0.1938 0.1371 0.9714
vn -0.1000 -0.1560 0.9827
vn -0.1560 -0.1000 0.9827
vn -0.3262 -0.4859 0.8108
vn -0.4859 -0.3262 0.8108
vn -0.4961 -0.7337 0.4642
vn -0.7337 -0.4961 0.4642
vn -0.5606 -0.8281 -0.0000
vn -0.8281 -0.5606 -0.0000
vn -0.4961 -0.7337 -0.4642
vn -0.7337 -0.4961 -0.4642
vn -0.3262 -0.4859 -0.8108
vn -0.4859 -0.3262 -0.8108
vn -0.1000 -0.1560 -0.9827
vn -0.1560 -0.1000 -0.9827
vn 0.1371 0.1938 -0.9714
vn 0.1938 0.1371 -0.9714
vn 0.3478 0.5132 -0.7846
vn 0.5132 0.3478 -0.7846
vn 0.4966 0.7469 -0.4423
vn 0.7469 0.4966 -0.4423
vn -0.0000 0.9010 0.4339
vn 0.1770 0.8792 0.4423
vn 0.2005 0.9797 -0.0000
vn -0.0000 1.0000 -0.0000
vn -0.0000 0.6235 0.7818
vn 0.1170 0.6088 0.7846
vn -0.0000 0.2225 0.9749
vn 0.0401 0.2340 0.9714
vn -0.0000 -0.2225 0.9749
vn -0.0396 -0.1810 0.9827
vn -0.0000 -0.6235 0.7818
vn -0.1130 -0.5743 0.8108
vn -0.0000 -0.9010 0.4339
vn -0.1680 -0.8696 0.4642
vn -0.0000 -1.0000 -0.0000
vn -0.1891 -0.9820 -0.0000
vn -0.0000 -0.9010 -0.4339
vn -0.1680 -0.8696 -0.4642
vn -0.0000 -0.6235 -0.7818
vn -0.1130 -0.5743 -0.8108
vn -0.0000 -0.2225 -0.9749
vn -0.0396 -0.1810 -0.9827
vn -0.0000 0.2225 -0.9749
vn 0.0401 0.2340 -0.9714
vn -0.0000 0.6235 -0.7818
vn 0.1170 0.6088 -0.7846
vn -0.0000 0.9010 -0.4339
vn 0.1770 0.8792 -0.4423
vn 0.0001 1.0000 -0.0000
vn 0.0001 -1.0000 -0.0000
vt 0.144833 0.562523
vt 0.029104 0.453867
vt 0.006987 0.477620
vt 0.129378 0.590118
vt 0.159531 0.534958
vt 0.051413 0.430601
vt 0.174565 0.506348
vt 0.073841 0.407742
vt 0.190270 0.476345
vt 0.096077 0.385114
vt 0.206545 0.445330
vt 0.117722 0.362482
vt 0.222873 0.414511
vt 0.138588 0.339630
vt 0.238514 0.386134
vt 0.159467 0.316073
vt 0.763579 0.743620
vt 0.848944 0.668402
vt 0.828146 0.644469
vt 0.747837 0.714260
vt 0.779913 0.774712
vt 0.869709 0.691563
vt 0.796200 0.805600
vt 0.891241 0.714418
vt 0.811862 0.835301
vt 0.913371 0.737210
vt 0.826713 0.863702
vt 0.935710 0.760211
vt 0.841093 0.891396
vt 0.957942 0.783632
vt 0.856405 0.919822
vt 0.980000 0.807577
vt 0.381107 0.620354
vt 0.155193 0.567933
vt 0.140702 0.596265
vt 0.381235 0.652839
vt 0.380315 0.588863
vt 0.169774 0.540277
vt 0.378930 0.556721
vt 0.184987 0.511835
vt 0.377085 0.523297
vt 0.201118 0.482150
vt 0.375218 0.488688
vt 0.217829 0.451434
vt 0.373840 0.453816
vt 0.234211 0.420657
vt 0.373642 0.420597
vt 0.248835 0.391558
vt 0.611619 0.780730
vt 0.751910 0.749606
vt 0.737257 0.719715
vt 0.612201 0.748146
vt 0.610232 0.815343
vt 0.768490 0.780711
vt 0.608533 0.850050
vt 0.785375 0.811378
vt 0.606862 0.883793
vt 0.801545 0.840804
vt 0.605419 0.916260
vt 0.816558 0.869063
vt 0.604197 0.947870
vt 0.830687 0.896860
vt 0.603457 0.980000
vt 0.844774 0.925819
vt 0.682100 0.531671
vt 0.392977 0.619926
vt 0.394449 0.652523
vt 0.691565 0.562600
vt 0.672647 0.500870
vt 0.391869 0.588375
vt 0.663203 0.470182
vt 0.390614 0.556174
vt 0.653800 0.439607
vt 0.389264 0.522756
vt 0.644475 0.409153
vt 0.387994 0.488258
vt 0.635230 0.378830
vt 0.386883 0.453545
vt 0.625920 0.348216
vt 0.385496 0.420287
vt 0.351631 0.704849
vt 0.598770 0.780145
vt 0.600563 0.747729
vt 0.361104 0.674341
vt 0.342212 0.735051
vt 0.597485 0.814745
vt 0.332726 0.765393
vt 0.596272 0.849496
vt 0.323172 0.795871
vt 0.595050 0.883321
vt 0.313584 0.826472
vt 0.593776 0.915867
vt 0.303988 0.857193
vt 0.592381 0.947485
vt 0.294383 0.888041
vt 0.590450 0.979425
vt 0.957379 0.446992
vt 0.966841 0.477620
vt 0.947915 0.416371
vt 0.938452 0.385762
vt 0.928996 0.355167
vt 0.919550 0.324585
vt 0.910117 0.294013
vt 0.900685 0.263442
vt 0.077669 0.618646
vt 0.087257 0.588177
vt 0.068073 0.649111
vt 0.058467 0.679580
vt 0.048854 0.710062
vt 0.039237 0.740559
vt 0.029617 0.771073
vt 0.020000 0.801601
vt 0.622895 0.156891
vt 0.613737 0.197017
vt 0.622895 0.237144
vt 0.648557 0.124711
vt 0.685640 0.106853
vt 0.726799 0.106853
vt 0.763882 0.124711
vt 0.789544 0.156890
vt 0.798702 0.197017
vt 0.789544 0.237144
vt 0.763882 0.269323
vt 0.726799 0.287181
vt 0.685640 0.287181
vt 0.648557 0.269323
vt 0.452032 0.052983
vt 0.493432 0.052983
vt 0.493432 0.083955
vt 0.452032 0.083955
vt 0.535535 0.052983
vt 0.535535 0.083955
vt 0.577638 0.052983
vt 0.577638 0.083955
vt 0.619037 0.052983
vt 0.619037 0.083955
vt 0.659590 0.052983
vt 0.659590 0.083955
vt 0.699775 0.052983
vt 0.699775 0.083955
vt 0.740327 0.052983
vt 0.740327 0.083955
vt 0.781727 0.052983
vt 0.781727 0.083955
vt 0.823830 0.052983
vt 0.823830 0.083955
vt 0.865933 0.052983
vt 0.865933 0.083955
vt 0.907332 0.052983
vt 0.907332 0.083955
vt 0.947884 0.052983
vt 0.947884 0.083955
vt 0.988070 0.052983
vt 0.988070 0.083955
vt 0.411480 0.052983
vt 0.411480 0.083955
vt 0.375520 0.176698
vt 0.384679 0.136571
vt 0.375520 0.096444
vt 0.349858 0.064265
vt 0.312775 0.046407
vt 0.271616 0.046407
vt 0.234534 0.064265
vt 0.208871 0.096444
vt 0.199713 0.136571
vt 0.208872 0.176698
vt 0.234534 0.208877
vt 0.271616 0.226735
vt 0.312775 0.226735
vt 0.349858 0.208877
vt 0.464135 0.337846
vt 0.504262 0.347005
vt 0.544389 0.337846
vt 0.431956 0.312184
vt 0.414098 0.275101
vt 0.414098 0.233942
vt 0.431956 0.196860
vt 0.464135 0.171198
vt 0.504262 0.162039
vt 0.544389 0.171197
vt 0.576568 0.196859
vt 0.594426 0.233942
vt 0.594426 0.275101
vt 0.576568 0.312184
vt 0.905884 0.045533
vt 0.947046 0.045534
vt 0.947047 0.018763
vt 0.905884 0.018761
vt 0.988208 0.045535
vt 0.988209 0.018764
vt 0.411986 0.045537
vt 0.453140 0.045536
vt 0.453139 0.018769
vt 0.411985 0.018771
vt 0.494295 0.045534
vt 0.494294 0.018767
vt 0.535450 0.045532
vt 0.535449 0.018765
vt 0.576606 0.045531
vt 0.576605 0.018763
vt 0.617763 0.045530
vt 0.617762 0.018762
vt 0.658920 0.045529
vt 0.658920 0.018760
vt 0.700079 0.045529
vt 0.700078 0.018759
vt 0.741238 0.045529
vt 0.741238 0.018758
vt 0.782398 0.045529
vt 0.782399 0.018758
vt 0.823560 0.045530
vt 0.823560 0.018759
vt 0.864721 0.045531
vt 0.864722 0.018760
vt 0.140434 0.046291
vt 0.100307 0.037132
vt 0.060181 0.046291
vt 0.028001 0.071953
vt 0.010143 0.109036
vt 0.010143 0.150194
vt 0.028002 0.187277
vt 0.060181 0.212939
vt 0.100308 0.222098
vt 0.140435 0.212939
vt 0.172614 0.187277
vt 0.190472 0.150194
vt 0.190472 0.109035
vt 0.172613 0.071953
s 1
usemtl SP_TNR_Roofpipes_2
f 1/1/1 2/2/2 3/3/3
f 3/3/3 4/4/4 1/1/1
f 5/5/5 6/6/6 2/2/2
f 2/2/2 1/1/1 5/5/5
f 7/7/7 8/8/8 6/6/6
f 6/6/6 5/5/5 7/7/7
f 9/9/9 10/10/10 8/8/8
f 8/8/8 7/7/7 9/9/9
f 11/11/11 12/12/12 10/10/10
f 10/10/10 9/9/9 11/11/11
f 13/13/13 14/14/14 12/12/12
f 12/12/12 11/11/11 13/13/13
f 15/15/15 16/16/16 14/14/14
f 14/14/14 13/13/13 15/15/15
f 17/17/17 18/18/18 19/19/16
f 19/19/16 20/20/15 17/17/17
f 21/21/19 22/22/20 18/18/18
f 18/18/18 17/17/17 21/21/19
f 23/23/21 24/24/22 22/22/20
f 22/22/20 21/21/19 23/23/21
f 25/25/23 26/26/24 24/24/22
f 24/24/22 23/23/21 25/25/23
f 27/27/25 28/28/26 26/26/24
f 26/26/24 25/25/23 27/27/25
f 29/29/27 30/30/28 28/28/26
f 28/28/26 27/27/25 29/29/27
f 31/31/4 32/32/3 30/30/28
f 30/30/28 29/29/27 31/31/4
f 33/33/29 34/34/30 35/35/31
f 35/35/31 36/36/32 33/33/29
f 37/37/33 38/38/34 34/34/30
f 34/34/30 33/33/29 37/37/33
f 39/39/35 40/40/36 38/38/34
f 38/38/34 37/37/33 39/39/35
f 41/41/37 42/42/38 40/40/36
f 40/40/36 39/39/35 41/41/37
f 43/43/39 44/44/40 42/42/38
f 42/42/38 41/41/37 43/43/39
f 45/45/41 46/46/42 44/44/40
f 44/44/40 43/43/39 45/45/41
f 47/47/43 48/48/44 46/46/42
f 46/46/42 45/45/41 47/47/43
f 49/49/45 50/50/46 51/51/44
f 51/51/44 52/52/43 49/49/45
f 53/53/47 54/54/48 50/50/46
f 50/50/46 49/49/45 53/53/47
f 55/55/49 56/56/50 54/54/48
f 54/54/48 53/53/47 55/55/49
f 57/57/51 58/58/52 56/56/50
f 56/56/50 55/55/49 57/57/51
f 59/59/53 60/60/54 58/58/52
f 58/58/52 57/57/51 59/59/53
f 61/61/55 62/62/56 60/60/54
f 60/60/54 59/59/53 61/61/55
f 63/63/32 64/64/31 62/62/56
f 62/62/56 61/61/55 63/63/32
f 65/65/57 66/66/58 67/67/59
f 67/67/59 68/68/60 65/65/57
f 69/69/61 70/70/62 66/66/58
f 66/66/58 65/65/57 69/69/61
f 71/71/63 72/72/64 70/70/62
f 70/70/62 69/69/61 71/71/63
f 73/73/65 74/74/66 72/72/64
f 72/72/64 71/71/63 73/73/65
f 75/75/67 76/76/68 74/74/66
f 74/74/66 73/73/65 75/75/67
f 77/77/69 78/78/70 76/76/68
f 76/76/68 75/75/67 77/77/69
f 79/79/71 80/80/72 78/78/70
f 78/78/70 77/77/69 79/79/71
f 81/81/73 82/82/74 83/83/72
f 83/83/72 84/84/71 81/81/73
f 85/85/75 86/86/76 82/82/74
f 82/82/74 81/81/73 85/85/75
f 87/87/77 88/88/78 86/86/76
f 86/86/76 85/85/75 87/87/77
f 89/89/79 90/90/80 88/88/78
f 88/88/78 87/87/77 89/89/79
f 91/91/81 92/92/82 90/90/80
f 90/90/80 89/89/79 91/91/81
f 93/93/83 94/94/84 92/92/82
f 92/92/82 91/91/81 93/93/83
f 95/95/60 96/96/59 94/94/84
f 94/94/84 93/93/83 95/95/60
f 97/97/57 65/65/57 68/68/60
f 68/68/60 98/98/85 97/97/57
f 99/99/61 69/69/61 65/65/57
f 65/65/57 97/97/57 99/99/61
f 100/100/63 71/71/63 69/69/61
f 69/69/61 99/99/61 100/100/63
f 101/101/65 73/73/65 71/71/63
f 71/71/63 100/100/63 101/101/65
f 102/102/67 75/75/67 73/73/65
f 73/73/65 101/101/65 102/102/67
f 103/103/69 77/77/69 75/75/67
f 75/75/67 102/102/67 103/103/69
f 104/104/71 79/79/71 77/77/69
f 77/77/69 103/103/69 104/104/71
f 105/105/73 81/81/73 84/84/71
f 84/84/71 106/106/86 105/105/73
f 107/107/75 85/85/75 81/81/73
f 81/81/73 105/105/73 107/107/75
f 108/108/77 87/87/77 85/85/75
f 85/85/75 107/107/75 108/108/77
f 109/109/79 89/89/79 87/87/77
f 87/87/77 108/108/77 109/109/79
f 110/110/81 91/91/81 89/89/79
f 89/89/79 109/109/79 110/110/81
f 111/111/83 93/93/83 91/91/81
f 91/91/81 110/110/81 111/111/83
f 112/112/60 95/95/60 93/93/83
f 93/93/83 111/111/83 112/112/60
f 4/4/4 35/35/31 34/34/30
f 34/34/30 1/1/1 4/4/4
f 1/1/1 34/34/30 38/38/34
f 38/38/34 5/5/5 1/1/1
f 5/5/5 38/38/34 40/40/36
f 40/40/36 7/7/7 5/5/5
f 7/7/7 40/40/36 42/42/38
f 42/42/38 9/9/9 7/7/7
f 9/9/9 42/42/38 44/44/40
f 44/44/40 11/11/11 9/9/9
f 11/11/11 44/44/40 46/46/42
f 46/46/42 13/13/13 11/11/11
f 13/13/13 46/46/42 48/48/44
f 48/48/44 15/15/15 13/13/13
f 20/20/15 51/51/44 50/50/46
f 50/50/46 17/17/17 20/20/15
f 17/17/17 50/50/46 54/54/48
f 54/54/48 21/21/19 17/17/17
f 21/21/19 54/54/48 56/56/50
f 56/56/50 23/23/21 21/21/19
f 23/23/21 56/56/50 58/58/52
f 58/58/52 25/25/23 23/23/21
f 25/25/23 58/58/52 60/60/54
f 60/60/54 27/27/25 25/25/23
f 27/27/25 60/60/54 62/62/56
f 62/62/56 29/29/27 27/27/25
f 29/29/27 62/62/56 64/64/31
f 64/64/31 31/31/4 29/29/27
f 36/36/32 67/67/59 66/66/58
f 66/66/58 33/33/29 36/36/32
f 33/33/29 66/66/58 70/70/62
f 70/70/62 37/37/33 33/33/29
f 37/37/33 70/70/62 72/72/64
f 72/72/64 39/39/35 37/37/33
f 39/39/35 72/72/64 74/74/66
f 74/74/66 41/41/37 39/39/35
f 41/41/37 74/74/66 76/76/68
f 76/76/68 43/43/39 41/41/37
f 43/43/39 76/76/68 78/78/70
f 78/78/70 45/45/41 43/43/39
f 45/45/41 78/78/70 80/80/72
f 80/80/72 47/47/43 45/45/41
f 52/52/43 83/83/72 82/82/74
f 82/82/74 49/49/45 52/52/43
f 49/49/45 82/82/74 86/86/76
f 86/86/76 53/53/47 49/49/45
f 53/53/47 86/86/76 88/88/78
f 88/88/78 55/55/49 53/53/47
f 55/55/49 88/88/78 90/90/80
f 90/90/80 57/57/51 55/55/49
f 57/57/51 90/90/80 92/92/82
f 92/92/82 59/59/53 57/57/51
f 59/59/53 92/92/82 94/94/84
f 94/94/84 61/61/55 59/59/53
f 61/61/55 94/94/84 96/96/59
f 96/96/59 63/63/32 61/61/55
s 0
f 113/113/3 114/114/3 115/115/3
f 116/116/3 113/113/3 115/115/3
f 117/117/3 116/116/3 115/115/3
f 118/118/3 117/117/3 115/115/3
f 119/119/3 118/118/3 115/115/3
f 120/120/3 119/119/3 115/115/3
f 121/121/3 120/120/3 115/115/3
f 122/122/3 121/121/3 115/115/3
f 123/123/3 122/122/3 115/115/3
f 124/124/3 123/123/3 115/115/3
f 125/125/3 124/124/3 115/115/3
f 125/125/3 115/115/3 126/126/3
s 1
f 127/127/61 128/128/57 129/129/57
f 129/129/57 130/130/61 127/127/61
f 128/128/57 131/131/60 132/132/60
f 132/132/60 129/129/57 128/128/57
f 131/131/60 133/133/83 134/134/83
f 134/134/83 132/132/60 131/131/60
f 133/133/83 135/135/81 136/136/81
f 136/136/81 134/134/83 133/133/83
f 135/135/81 137/137/79 138/138/79
f 138/138/79 136/136/81 135/135/81
f 137/137/79 139/139/77 140/140/77
f 140/140/77 138/138/79 137/137/79
f 139/139/77 141/141/75 142/142/75
f 142/142/75 140/140/77 139/139/77
f 141/141/75 143/143/73 144/144/73
f 144/144/73 142/142/75 141/141/75
f 143/143/73 145/145/71 146/146/71
f 146/146/71 144/144/73 143/143/73
f 145/145/71 147/147/69 148/148/69
f 148/148/69 146/146/71 145/145/71
f 147/147/69 149/149/67 150/150/67
f 150/150/67 148/148/69 147/147/69
f 149/149/67 151/151/65 152/152/65
f 152/152/65 150/150/67 149/149/67
f 151/151/65 153/153/63 154/154/63
f 154/154/63 152/152/65 151/151/65
f 155/155/63 127/127/61 130/130/61
f 130/130/61 156/156/63 155/155/63
s 0
f 157/157/16 158/158/16 159/159/16
f 159/159/16 160/160/16 161/161/16
f 161/161/16 162/162/16 163/163/16
f 159/159/16 161/161/16 163/163/16
f 163/163/16 164/164/16 165/165/16
f 165/165/16 166/166/16 167/167/16
f 163/163/16 165/165/16 167/167/16
f 167/167/16 168/168/16 169/169/16
f 163/163/16 167/167/16 169/169/16
f 159/159/16 163/163/16 169/169/16
f 157/157/16 159/159/16 169/169/16
f 170/170/16 157/157/16 169/169/16
f 171/171/60 172/172/60 173/173/60
f 174/174/60 171/171/60 173/173/60
f 175/175/60 174/174/60 173/173/60
f 176/176/60 175/175/60 173/173/60
f 177/177/60 176/176/60 173/173/60
f 178/178/60 177/177/60 173/173/60
f 179/179/60 178/178/60 173/173/60
f 180/180/60 179/179/60 173/173/60
f 181/181/60 180/180/60 173/173/60
f 182/182/60 181/181/60 173/173/60
f 183/183/60 182/182/60 173/173/60
f 183/183/60 173/173/60 184/184/60
s 1
f 185/185/12 186/186/14 187/187/14
f 187/187/14 188/188/12 185/185/12
f 186/186/14 189/189/16 190/190/16
f 190/190/16 187/187/14 186/186/14
f 191/191/16 192/192/18 193/193/18
f 193/193/18 194/194/16 191/191/16
f 192/192/18 195/195/20 196/196/20
f 196/196/20 193/193/18 192/192/18
f 195/195/20 197/197/22 198/198/22
f 198/198/22 196/196/20 195/195/20
f 197/197/22 199/199/24 200/200/24
f 200/200/24 198/198/22 197/197/22
f 199/199/24 201/201/26 202/202/26
f 202/202/26 200/200/24 199/199/24
f 201/201/26 203/203/28 204/204/28
f 204/204/28 202/202/26 201/201/26
f 203/203/28 205/205/3 206/206/3
f 206/206/3 204/204/28 203/203/28
f 205/205/3 207/207/2 208/208/2
f 208/208/2 206/206/3 205/205/3
f 207/207/2 209/209/6 210/210/6
f 210/210/6 208/208/2 207/207/2
f 209/209/6 211/211/8 212/212/8
f 212/212/8 210/210/6 209/209/6
f 211/211/8 213/213/10 214/214/10
f 214/214/10 212/212/8 211/211/8
f 213/213/10 185/185/12 188/188/12
f 188/188/12 214/214/10 213/213/10
s 0
f 215/215/71 216/216/71 217/217/71
f 217/217/71 218/218/71 219/219/71
f 219/219/71 220/220/71 221/221/71
f 217/217/71 219/219/71 221/221/71
f 221/221/71 222/222/71 223/223/71
f 223/223/71 224/224/71 225/225/71
f 221/221/71 223/223/71 225/225/71
f 225/225/71 226/226/71 227/227/71
f 221/221/71 225/225/71 227/227/71
f 217/217/71 221/221/71 227/227/71
f 215/215/71 217/217/71 227/227/71
f 228/228/71 215/215/71 227/227/71
