# Blender v3.1.2 OBJ File: ''
# www.blender.org
mtllib arrow.mtl
o Cylinder
v -0.036027 0.080000 -0.000000
v 0.789055 0.080000 0.000000
v -0.036027 0.078463 -0.015607
v 0.789055 0.078463 -0.015607
v -0.036027 0.073910 -0.030615
v 0.789055 0.073910 -0.030615
v -0.036027 0.066518 -0.044446
v 0.789055 0.066518 -0.044446
v -0.036027 0.056569 -0.056569
v 0.789055 0.056569 -0.056569
v -0.036027 0.044446 -0.066518
v 0.789055 0.044446 -0.066518
v -0.036027 0.030615 -0.073910
v 0.789055 0.030615 -0.073910
v -0.036027 0.015607 -0.078463
v 0.789055 0.015607 -0.078463
v -0.036027 -0.000000 -0.080000
v 0.789055 0.000000 -0.080000
v -0.036027 -0.015607 -0.078463
v 0.789055 -0.015607 -0.078463
v -0.036027 -0.030615 -0.073910
v 0.789055 -0.030615 -0.073910
v -0.036027 -0.044446 -0.066518
v 0.789055 -0.044446 -0.066518
v -0.036027 -0.056569 -0.056569
v 0.789055 -0.056569 -0.056569
v -0.036027 -0.066518 -0.044446
v 0.789055 -0.066518 -0.044446
v -0.036027 -0.073910 -0.030615
v 0.789055 -0.073910 -0.030615
v -0.036027 -0.078463 -0.015607
v 0.789055 -0.078463 -0.015607
v -0.036027 -0.080000 -0.000000
v 0.789055 -0.080000 0.000000
v -0.036027 -0.078463 0.015607
v 0.789055 -0.078463 0.015607
v -0.036027 -0.073910 0.030615
v 0.789055 -0.073910 0.030615
v -0.036027 -0.066518 0.044446
v 0.789055 -0.066518 0.044446
v -0.036027 -0.056569 0.056568
v 0.789055 -0.056569 0.056569
v -0.036027 -0.044446 0.066518
v 0.789055 -0.044446 0.066518
v -0.036027 -0.030615 0.073910
v 0.789055 -0.030615 0.073910
v -0.036027 -0.015607 0.078463
v 0.789055 -0.015607 0.078463
v -0.036027 -0.000000 0.080000
v 0.789055 0.000000 0.080000
v -0.036027 0.015607 0.078463
v 0.789055 0.015607 0.078463
v -0.036027 0.030615 0.073910
v 0.789055 0.030615 0.073910
v -0.036027 0.044446 0.066518
v 0.789055 0.044446 0.066518
v -0.036027 0.056568 0.056569
v 0.789055 0.056569 0.056569
v -0.036027 0.066518 0.044446
v 0.789055 0.066518 0.044446
v -0.036027 0.073910 0.030615
v 0.789055 0.073910 0.030615
v -0.036027 0.078463 0.015607
v 0.789055 0.078463 0.015607
vt 1.000000 0.500000
vt 1.000000 1.000000
vt 0.968750 1.000000
vt 0.968750 0.500000
vt 0.937500 1.000000
vt 0.937500 0.500000
vt 0.906250 1.000000
vt 0.906250 0.500000
vt 0.875000 1.000000
vt 0.875000 0.500000
vt 0.843750 1.000000
vt 0.843750 0.500000
vt 0.812500 1.000000
vt 0.812500 0.500000
vt 0.781250 1.000000
vt 0.781250 0.500000
vt 0.750000 1.000000
vt 0.750000 0.500000
vt 0.718750 1.000000
vt 0.718750 0.500000
vt 0.687500 1.000000
vt 0.687500 0.500000
vt 0.656250 1.000000
vt 0.656250 0.500000
vt 0.625000 1.000000
vt 0.625000 0.500000
vt 0.593750 1.000000
vt 0.593750 0.500000
vt 0.562500 1.000000
vt 0.562500 0.500000
vt 0.531250 1.000000
vt 0.531250 0.500000
vt 0.500000 1.000000
vt 0.500000 0.500000
vt 0.468750 1.000000
vt 0.468750 0.500000
vt 0.437500 1.000000
vt 0.437500 0.500000
vt 0.406250 1.000000
vt 0.406250 0.500000
vt 0.375000 1.000000
vt 0.375000 0.500000
vt 0.343750 1.000000
vt 0.343750 0.500000
vt 0.312500 1.000000
vt 0.312500 0.500000
vt 0.281250 1.000000
vt 0.281250 0.500000
vt 0.250000 1.000000
vt 0.250000 0.500000
vt 0.218750 1.000000
vt 0.218750 0.500000
vt 0.187500 1.000000
vt 0.187500 0.500000
vt 0.156250 1.000000
vt 0.156250 0.500000
vt 0.125000 1.000000
vt 0.125000 0.500000
vt 0.093750 1.000000
vt 0.093750 0.500000
vt 0.062500 1.000000
vt 0.062500 0.500000
vt 0.296822 0.485388
vt 0.250000 0.490000
vt 0.203178 0.485388
vt 0.158156 0.471731
vt 0.116663 0.449553
vt 0.080294 0.419706
vt 0.050447 0.383337
vt 0.028269 0.341844
vt 0.014612 0.296822
vt 0.010000 0.250000
vt 0.014612 0.203178
vt 0.028269 0.158156
vt 0.050447 0.116663
vt 0.080294 0.080294
vt 0.116663 0.050447
vt 0.158156 0.028269
vt 0.203178 0.014612
vt 0.250000 0.010000
vt 0.296822 0.014612
vt 0.341844 0.028269
vt 0.383337 0.050447
vt 0.419706 0.080294
vt 0.449553 0.116663
vt 0.471731 0.158156
vt 0.485388 0.203178
vt 0.490000 0.250000
vt 0.485388 0.296822
vt 0.471731 0.341844
vt 0.449553 0.383337
vt 0.419706 0.419706
vt 0.383337 0.449553
vt 0.341844 0.471731
vt 0.031250 1.000000
vt 0.031250 0.500000
vt 0.000000 1.000000
vt 0.000000 0.500000
vt 0.750000 0.490000
vt 0.796822 0.485388
vt 0.841844 0.471731
vt 0.883337 0.449553
vt 0.919706 0.419706
vt 0.949553 0.383337
vt 0.971731 0.341844
vt 0.985388 0.296822
vt 0.990000 0.250000
vt 0.985388 0.203178
vt 0.971731 0.158156
vt 0.949553 0.116663
vt 0.919706 0.080294
vt 0.883337 0.050447
vt 0.841844 0.028269
vt 0.796822 0.014612
vt 0.750000 0.010000
vt 0.703178 0.014612
vt 0.658156 0.028269
vt 0.616663 0.050447
vt 0.580294 0.080294
vt 0.550447 0.116663
vt 0.528269 0.158156
vt 0.514612 0.203178
vt 0.510000 0.250000
vt 0.514612 0.296822
vt 0.528269 0.341844
vt 0.550447 0.383337
vt 0.580294 0.419706
vt 0.616663 0.449553
vt 0.658156 0.471731
vt 0.703178 0.485388
vn -0.6857 0.7279 -0.0000
vn 0.6857 0.7279 -0.0000
vn 0.6857 0.7139 -0.1420
vn -0.6857 0.7139 -0.1420
vn 0.6857 0.6725 -0.2786
vn -0.6857 0.6725 -0.2786
vn 0.6857 0.6052 -0.4044
vn -0.6857 0.6052 -0.4044
vn 0.6857 0.5147 -0.5147
vn -0.6857 0.5147 -0.5147
vn 0.6857 0.4044 -0.6052
vn -0.6857 0.4044 -0.6052
vn 0.6857 0.2786 -0.6725
vn -0.6857 0.2786 -0.6725
vn 0.6857 0.1420 -0.7139
vn -0.6857 0.1420 -0.7139
vn 0.6857 -0.0000 -0.7279
vn -0.6857 -0.0000 -0.7279
vn 0.6857 -0.1420 -0.7139
vn -0.6857 -0.1420 -0.7139
vn 0.6857 -0.2786 -0.6725
vn -0.6857 -0.2786 -0.6725
vn 0.6857 -0.4044 -0.6052
vn -0.6857 -0.4044 -0.6052
vn 0.6857 -0.5147 -0.5147
vn -0.6857 -0.5147 -0.5147
vn 0.6857 -0.6052 -0.4044
vn -0.6857 -0.6052 -0.4044
vn 0.6857 -0.6725 -0.2786
vn -0.6857 -0.6725 -0.2786
vn 0.6857 -0.7139 -0.1420
vn -0.6857 -0.7139 -0.1420
vn 0.6857 -0.7279 0.0000
vn -0.6857 -0.7279 0.0000
vn 0.6857 -0.7139 0.1420
vn -0.6857 -0.7139 0.1420
vn 0.6857 -0.6725 0.2786
vn -0.6857 -0.6725 0.2786
vn 0.6857 -0.6052 0.4044
vn -0.6857 -0.6052 0.4044
vn 0.6857 -0.5147 0.5147
vn -0.6857 -0.5147 0.5147
vn 0.6857 -0.4044 0.6052
vn -0.6857 -0.4044 0.6052
vn 0.6857 -0.2786 0.6725
vn -0.6857 -0.2786 0.6725
vn 0.6857 -0.1420 0.7139
vn -0.6857 -0.1420 0.7139
vn 0.6857 -0.0000 0.7279
vn -0.6857 -0.0000 0.7279
vn 0.6857 0.1420 0.7139
vn -0.6857 0.1420 0.7139
vn 0.6857 0.2786 0.6725
vn -0.6857 0.2786 0.6725
vn 0.6857 0.4044 0.6052
vn -0.6857 0.4044 0.6052
vn 0.6857 0.5147 0.5147
vn -0.6857 0.5147 0.5147
vn 0.6857 0.6052 0.4044
vn -0.6857 0.6052 0.4044
vn 0.6857 0.6725 0.2786
vn -0.6857 0.6725 0.2786
vn 0.6857 0.7139 0.1420
vn -0.6857 0.7139 0.1420
usemtl None
s 1
f 1/1/1 2/2/2 4/3/3 3/4/4
f 3/4/4 4/3/3 6/5/5 5/6/6
f 5/6/6 6/5/5 8/7/7 7/8/8
f 7/8/8 8/7/7 10/9/9 9/10/10
f 9/10/10 10/9/9 12/11/11 11/12/12
f 11/12/12 12/11/11 14/13/13 13/14/14
f 13/14/14 14/13/13 16/15/15 15/16/16
f 15/16/16 16/15/15 18/17/17 17/18/18
f 17/18/18 18/17/17 20/19/19 19/20/20
f 19/20/20 20/19/19 22/21/21 21/22/22
f 21/22/22 22/21/21 24/23/23 23/24/24
f 23/24/24 24/23/23 26/25/25 25/26/26
f 25/26/26 26/25/25 28/27/27 27/28/28
f 27/28/28 28/27/27 30/29/29 29/30/30
f 29/30/30 30/29/29 32/31/31 31/32/32
f 31/32/32 32/31/31 34/33/33 33/34/34
f 33/34/34 34/33/33 36/35/35 35/36/36
f 35/36/36 36/35/35 38/37/37 37/38/38
f 37/38/38 38/37/37 40/39/39 39/40/40
f 39/40/40 40/39/39 42/41/41 41/42/42
f 41/42/42 42/41/41 44/43/43 43/44/44
f 43/44/44 44/43/43 46/45/45 45/46/46
f 45/46/46 46/45/45 48/47/47 47/48/48
f 47/48/48 48/47/47 50/49/49 49/50/50
f 49/50/50 50/49/49 52/51/51 51/52/52
f 51/52/52 52/51/51 54/53/53 53/54/54
f 53/54/54 54/53/53 56/55/55 55/56/56
f 55/56/56 56/55/55 58/57/57 57/58/58
f 57/58/58 58/57/57 60/59/59 59/60/60
f 59/60/60 60/59/59 62/61/61 61/62/62
f 4/63/3 2/64/2 64/65/63 62/66/61 60/67/59 58/68/57 56/69/55 54/70/53 52/71/51 50/72/49 48/73/47 46/74/45 44/75/43 42/76/41 40/77/39 38/78/37 36/79/35 34/80/33 32/81/31 30/82/29 28/83/27 26/84/25 24/85/23 22/86/21 20/87/19 18/88/17 16/89/15 14/90/13 12/91/11 10/92/9 8/93/7 6/94/5
f 61/62/62 62/61/61 64/95/63 63/96/64
f 63/96/64 64/95/63 2/97/2 1/98/1
f 1/99/1 3/100/4 5/101/6 7/102/8 9/103/10 11/104/12 13/105/14 15/106/16 17/107/18 19/108/20 21/109/22 23/110/24 25/111/26 27/112/28 29/113/30 31/114/32 33/115/34 35/116/36 37/117/38 39/118/40 41/119/42 43/120/44 45/121/46 47/122/48 49/123/50 51/124/52 53/125/54 55/126/56 57/127/58 59/128/60 61/129/62 63/130/64
o Cone
v 0.641367 -0.000000 -0.280000
v 0.641367 -0.054937 -0.274620
v 0.641367 -0.107764 -0.258686
v 0.641367 -0.156449 -0.232811
v 0.641367 -0.199121 -0.197990
v 0.641367 -0.234142 -0.155560
v 0.641367 -0.260165 -0.107151
v 0.641367 -0.276189 -0.054625
v 0.641367 -0.281600 0.000000
v 0.641367 -0.276189 0.054625
v 0.641367 -0.260165 0.107151
v 0.641367 -0.234142 0.155560
v 0.641367 -0.199121 0.197990
v 0.641367 -0.156449 0.232811
v 0.641367 -0.107764 0.258686
v 0.641367 -0.054937 0.274620
v 0.641367 0.000000 0.280000
v 0.641367 0.054937 0.274620
v 0.641367 0.107764 0.258686
v 0.641367 0.156449 0.232811
v 0.641367 0.199121 0.197990
v 0.641367 0.234142 0.155560
v 0.641367 0.260164 0.107151
v 0.641367 0.276189 0.054625
v 0.641367 0.281600 -0.000000
v 0.641367 0.276189 -0.054625
v 0.641367 0.260164 -0.107151
v 0.641367 0.234142 -0.155560
v 0.641367 0.199121 -0.197990
v 0.641367 0.156449 -0.232811
v 0.641367 0.107764 -0.258686
v 0.641367 0.054937 -0.274620
v 1.241367 0.000000 0.000000
vt 0.250000 0.490000
vt 0.250000 0.250000
vt 0.296822 0.485388
vt 0.341844 0.471731
vt 0.383337 0.449553
vt 0.419706 0.419706
vt 0.449553 0.383337
vt 0.471731 0.341844
vt 0.485388 0.296822
vt 0.490000 0.250000
vt 0.485388 0.203178
vt 0.471731 0.158156
vt 0.449553 0.116663
vt 0.419706 0.080294
vt 0.383337 0.050447
vt 0.341844 0.028269
vt 0.296822 0.014612
vt 0.250000 0.010000
vt 0.203178 0.014612
vt 0.158156 0.028269
vt 0.116663 0.050447
vt 0.080294 0.080294
vt 0.050447 0.116663
vt 0.028269 0.158156
vt 0.014612 0.203178
vt 0.010000 0.250000
vt 0.014612 0.296822
vt 0.028269 0.341844
vt 0.050447 0.383337
vt 0.080294 0.419706
vt 0.116663 0.449553
vt 0.158156 0.471731
vt 0.750000 0.490000
vt 0.796822 0.485388
vt 0.841844 0.471731
vt 0.883337 0.449553
vt 0.919706 0.419706
vt 0.949553 0.383337
vt 0.971731 0.341844
vt 0.985388 0.296822
vt 0.990000 0.250000
vt 0.985388 0.203178
vt 0.971731 0.158156
vt 0.949553 0.116663
vt 0.919706 0.080294
vt 0.883337 0.050447
vt 0.841844 0.028269
vt 0.796822 0.014612
vt 0.750000 0.010000
vt 0.703178 0.014612
vt 0.658156 0.028269
vt 0.616663 0.050447
vt 0.580294 0.080294
vt 0.550447 0.116663
vt 0.528269 0.158156
vt 0.514612 0.203178
vt 0.510000 0.250000
vt 0.514612 0.296822
vt 0.528269 0.341844
vt 0.550447 0.383337
vt 0.580294 0.419706
vt 0.616663 0.449553
vt 0.658156 0.471731
vt 0.703178 0.485388
vt 0.203178 0.485388
vn -0.5147 0.0000 -0.8574
vn 1.0000 -0.0000 -0.0000
vn -0.5147 -0.1664 -0.8411
vn -0.5146 -0.3267 -0.7928
vn -0.5144 -0.4747 -0.7142
vn -0.5141 -0.6049 -0.6081
vn -0.5139 -0.7121 -0.4783
vn -0.5137 -0.7920 -0.3298
vn -0.5136 -0.8414 -0.1682
vn -0.5136 -0.8581 0.0000
vn -0.5136 -0.8414 0.1682
vn -0.5137 -0.7920 0.3298
vn -0.5139 -0.7121 0.4783
vn -0.5141 -0.6049 0.6081
vn -0.5144 -0.4747 0.7142
vn -0.5146 -0.3267 0.7928
vn -0.5147 -0.1664 0.8411
vn -0.5147 0.0000 0.8574
vn -0.5147 0.1664 0.8411
vn -0.5146 0.3267 0.7928
vn -0.5144 0.4747 0.7142
vn -0.5141 0.6049 0.6081
vn -0.5139 0.7121 0.4783
vn -0.5137 0.7920 0.3298
vn -0.5136 0.8414 0.1682
vn -0.5136 0.8581 0.0000
vn -0.5136 0.8414 -0.1682
vn -0.5137 0.7920 -0.3298
vn -0.5139 0.7121 -0.4783
vn -0.5141 0.6049 -0.6081
vn -0.5144 0.4747 -0.7142
vn -0.5146 0.3267 -0.7928
vn -0.5147 0.1664 -0.8411
usemtl None
s 1
f 65/131/65 97/132/66 66/133/67
f 66/133/67 97/132/66 67/134/68
f 67/134/68 97/132/66 68/135/69
f 68/135/69 97/132/66 69/136/70
f 69/136/70 97/132/66 70/137/71
f 70/137/71 97/132/66 71/138/72
f 71/138/72 97/132/66 72/139/73
f 72/139/73 97/132/66 73/140/74
f 73/140/74 97/132/66 74/141/75
f 74/141/75 97/132/66 75/142/76
f 75/142/76 97/132/66 76/143/77
f 76/143/77 97/132/66 77/144/78
f 77/144/78 97/132/66 78/145/79
f 78/145/79 97/132/66 79/146/80
f 79/146/80 97/132/66 80/147/81
f 80/147/81 97/132/66 81/148/82
f 81/148/82 97/132/66 82/149/83
f 82/149/83 97/132/66 83/150/84
f 83/150/84 97/132/66 84/151/85
f 84/151/85 97/132/66 85/152/86
f 85/152/86 97/132/66 86/153/87
f 86/153/87 97/132/66 87/154/88
f 87/154/88 97/132/66 88/155/89
f 88/155/89 97/132/66 89/156/90
f 89/156/90 97/132/66 90/157/91
f 90/157/91 97/132/66 91/158/92
f 91/158/92 97/132/66 92/159/93
f 92/159/93 97/132/66 93/160/94
f 93/160/94 97/132/66 94/161/95
f 94/161/95 97/132/66 95/162/96
f 65/163/65 66/164/67 67/165/68 68/166/69 69/167/70 70/168/71 71/169/72 72/170/73 73/171/74 74/172/75 75/173/76 76/174/77 77/175/78 78/176/79 79/177/80 80/178/81 81/179/82 82/180/83 83/181/84 84/182/85 85/183/86 86/184/87 87/185/88 88/186/89 89/187/90 90/188/91 91/189/92 92/190/93 93/191/94 94/192/95 95/193/96 96/194/97
f 95/162/96 97/132/66 96/195/97
f 96/195/97 97/132/66 65/131/65
