# Blender v3.1.2 OBJ File: ''
# www.blender.org
mtllib crate.mtl
o DP_CSS_WoodBox_1_DP_CSS_WoodBox_1_ncl1_1
v 2.843810 3.194129 -1.201528
v -2.494782 0.428275 1.489360
v 2.871657 0.428275 1.489359
v 2.871657 2.905922 1.489359
v -2.494782 2.905921 1.489359
v 3.079441 0.428275 1.319073
v 3.079441 0.428275 -1.201528
v 3.079441 2.905922 -1.201528
v 3.079441 2.905922 1.319073
v 2.871657 0.428275 -1.371813
v -2.494782 0.428275 -1.371812
v -2.494782 2.905922 -1.371813
v 2.871657 2.905922 -1.371813
v -2.719419 0.428275 -1.201527
v -2.719419 0.428275 1.319074
v -2.719419 2.905921 1.319074
v -2.719419 2.905922 -1.201527
v 3.079441 0.172699 -1.371813
v -2.719419 0.172699 1.489359
v 3.079441 3.194128 1.489359
v -2.719420 3.194128 -1.371813
v 2.843810 3.194128 1.319073
v -2.483789 3.194128 -1.201527
v 0.070278 0.428275 1.489359
v 0.301548 0.428275 1.489359
v 0.301548 2.905921 1.489359
v 0.070278 2.905921 1.489359
v 0.301548 0.428275 -1.371813
v 0.070278 0.428275 -1.371813
v 0.070278 2.905921 -1.371813
v 0.301548 2.905921 -1.371813
v -2.719419 0.172699 -1.371813
v 3.079441 0.172699 1.489359
v 3.079441 3.194129 -1.371813
v -2.719420 3.194128 1.489359
v -2.483789 3.194128 1.319074
v 3.079441 0.428275 0.165247
v 3.079441 0.428275 -0.047701
v 3.079441 2.905922 -0.047701
v 3.079441 2.905922 0.165247
v -2.719419 0.428275 -0.047701
v -2.719419 0.428275 0.165248
v -2.719419 2.905921 0.165248
v -2.719419 2.905922 -0.047701
v -2.433505 3.135792 1.282735
v 2.793526 3.135792 1.282735
v 2.793526 3.135792 -1.165189
v -2.433505 3.135792 -1.165188
v 2.821373 0.468914 1.402731
v 2.821373 2.865283 1.402731
v 0.351832 2.865283 1.402731
v 0.351832 0.468914 1.402731
v -2.444498 0.468914 1.402731
v 0.019994 0.468914 1.402731
v 0.019994 2.865283 1.402731
v -2.444498 2.865283 1.402731
v -2.444498 0.468914 -1.287280
v -2.444498 2.865283 -1.287280
v 0.019994 2.865283 -1.287280
v 0.019994 0.468914 -1.287280
v 2.821373 0.468914 -1.287280
v 0.351832 0.468914 -1.287280
v 0.351832 2.865283 -1.287280
v 2.821373 2.865284 -1.287280
v 3.007259 0.445729 -1.175649
v 3.007259 2.888469 -1.175649
v 3.007259 2.888468 -0.073581
v 3.007259 0.445729 -0.073581
v 3.007259 0.445729 1.293195
v 3.007259 0.445729 0.191127
v 3.007259 2.888468 0.191127
v 3.007259 2.888468 1.293195
v -2.647238 0.457321 1.287965
v -2.647238 2.876875 1.287965
v -2.647238 2.876875 0.196357
v -2.647238 0.457321 0.196357
v -2.647238 0.457321 -1.170418
v -2.647238 0.457321 -0.078810
v -2.647238 2.876875 -0.078810
v -2.647238 2.876875 -1.170418
v -2.639884 0.496900 1.478797
v -2.481296 0.366858 1.478797
v 0.149048 2.848727 1.478797
v 0.149048 3.084949 1.478797
v 2.989619 0.450669 1.478796
v 2.831031 0.320628 1.478796
v -2.639884 0.496900 1.392484
v -2.481296 0.366858 1.392484
v 0.149048 2.848727 1.392484
v 0.149048 3.084949 1.392484
v 2.989619 0.450669 1.392483
v 2.831031 0.320628 1.392483
v -2.639884 0.496900 -1.354293
v -2.481296 0.366859 -1.354293
v 0.149047 2.848727 -1.354293
v 0.149048 3.084950 -1.354293
v 2.831031 0.320628 -1.354294
v 2.989619 0.450669 -1.354294
v 0.149048 3.084950 -1.267980
v -2.639884 0.496900 -1.267981
v -2.481296 0.366859 -1.267981
v 0.149047 2.848727 -1.267980
v 2.989619 0.450669 -1.267981
v 2.831031 0.320628 -1.267981
v -1.194156 3.185240 1.322432
v -1.018983 3.185240 1.322432
v -1.194156 3.185240 -1.214947
v -1.018983 3.185240 -1.214947
v -1.194156 3.127075 1.322432
v -1.018983 3.127075 1.322432
v -1.194156 3.127075 -1.214947
v -1.018983 3.127075 -1.214947
v 1.218926 3.185240 -1.214948
v 1.218927 3.185240 1.322431
v 1.394099 3.185240 1.322431
v 1.394099 3.185240 -1.214948
v 1.218926 3.127075 -1.214948
v 1.218927 3.127075 1.322431
v 1.394099 3.127075 1.322431
v 1.394099 3.127075 -1.214948
v -2.341402 -0.018399 -1.354738
v -2.341402 -0.018399 1.462222
v -2.688754 -0.018399 1.462222
v -2.688754 -0.018399 -1.354738
v -2.341402 0.181460 -1.354738
v -2.341402 0.181460 1.462222
v -2.688753 0.181460 1.462222
v -2.688753 0.181460 -1.354738
v 3.050428 -0.018399 -1.354738
v 3.050428 -0.018399 1.462221
v 2.703077 -0.018399 1.462221
v 2.703077 -0.018399 -1.354738
v 3.050428 0.181460 -1.354738
v 3.050428 0.181460 1.462221
v 2.703077 0.181460 1.462221
v 2.703077 0.181460 -1.354738
v 1.148621 -0.018399 -1.354738
v 1.148622 -0.018399 1.462222
v 0.801270 -0.018399 1.462222
v 0.801270 -0.018399 -1.354738
v 1.148621 0.181460 -1.354738
v 1.148622 0.181460 1.462222
v 0.801270 0.181460 1.462222
v 0.801270 0.181460 -1.354738
v -0.416295 -0.018399 -1.354738
v -0.416295 -0.018399 1.462222
v -0.763646 -0.018399 1.462222
v -0.763647 -0.018399 -1.354738
v -0.416295 0.181460 -1.354738
v -0.416295 0.181460 1.462222
v -0.763646 0.181460 1.462222
v -0.763647 0.181460 -1.354738
vt 0.793999 0.030398
vt 0.794164 0.246152
vt 0.777894 0.245304
vt 0.777524 0.029576
vt 0.439373 0.030798
vt 0.438868 0.243652
vt 0.418246 0.243667
vt 0.418750 0.030813
vt 0.777265 0.529475
vt 0.777093 0.313946
vt 0.793341 0.314792
vt 0.793705 0.530296
vt 0.420109 0.523812
vt 0.419362 0.311646
vt 0.439888 0.311607
vt 0.440635 0.523773
vt 0.579047 0.008071
vt 0.991714 0.008071
vt 0.990464 0.270834
vt 0.975849 0.245811
vt 0.976655 0.030409
vt 0.580985 0.270810
vt 0.595358 0.030320
vt 0.596724 0.245623
vt 0.290279 0.008525
vt 0.568050 0.008647
vt 0.567328 0.268768
vt 0.550906 0.243825
vt 0.551463 0.030811
vt 0.289568 0.268640
vt 0.306709 0.030645
vt 0.306160 0.243656
vt 0.991024 0.551784
vt 0.579047 0.551784
vt 0.580190 0.289305
vt 0.595980 0.314301
vt 0.595251 0.529475
vt 0.989184 0.289332
vt 0.975948 0.529558
vt 0.974644 0.314484
vt 0.568955 0.545585
vt 0.292084 0.546217
vt 0.291043 0.287019
vt 0.307587 0.311868
vt 0.308418 0.524135
vt 0.567898 0.286386
vt 0.552418 0.523548
vt 0.551575 0.311279
vt 0.026488 0.390761
vt 0.010268 0.406977
vt 0.010268 0.008496
vt 0.026489 0.024713
vt 0.267007 0.024639
vt 0.283226 0.008376
vt 0.283226 0.407099
vt 0.267007 0.390836
vt 0.031220 0.029443
vt 0.031218 0.386030
vt 0.262278 0.029408
vt 0.262277 0.386067
vt 0.969639 0.239680
vt 0.970092 0.036672
vt 0.800477 0.239801
vt 0.800458 0.036622
vt 0.771078 0.035881
vt 0.601904 0.036523
vt 0.771605 0.238995
vt 0.602915 0.239431
vt 0.602098 0.320340
vt 0.601697 0.523310
vt 0.770881 0.320200
vt 0.770917 0.523343
vt 0.800044 0.524087
vt 0.969515 0.523456
vt 0.799531 0.321002
vt 0.968546 0.320579
vt 0.546903 0.240478
vt 0.547402 0.034220
vt 0.442916 0.240285
vt 0.443389 0.034105
vt 0.414701 0.034181
vt 0.310712 0.033992
vt 0.414230 0.240360
vt 0.310219 0.240247
vt 0.312012 0.315921
vt 0.312764 0.520109
vt 0.414994 0.315647
vt 0.415705 0.519786
vt 0.445005 0.519772
vt 0.547991 0.519495
vt 0.444290 0.315632
vt 0.547230 0.315306
vt 0.281623 0.414141
vt 0.281623 0.807748
vt 0.012891 0.807749
vt 0.012891 0.414141
vt 0.676662 0.563345
vt 0.672057 0.837762
vt 0.658899 0.852611
vt 0.661362 0.564381
vt 0.713005 0.853424
vt 0.699967 0.838470
vt 0.697642 0.558793
vt 0.712933 0.559950
vt 0.650793 0.852542
vt 0.653256 0.564312
vt 0.684768 0.563481
vt 0.680163 0.837898
vt 0.721040 0.559948
vt 0.721112 0.853422
vt 0.691861 0.838538
vt 0.689536 0.558860
vt 0.770457 0.560046
vt 0.783373 0.575106
vt 0.783554 0.849562
vt 0.768273 0.848279
vt 0.732288 0.852505
vt 0.735018 0.559051
vt 0.750319 0.558031
vt 0.745462 0.837669
vt 0.760166 0.848218
vt 0.762350 0.559985
vt 0.791479 0.575100
vt 0.791661 0.849556
vt 0.724182 0.852430
vt 0.726911 0.558976
vt 0.758425 0.558172
vt 0.753568 0.837810
vt 0.602021 0.557265
vt 0.613911 0.557265
vt 0.613911 0.795581
vt 0.602021 0.795581
vt 0.597136 0.795581
vt 0.597136 0.557265
vt 0.618797 0.557265
vt 0.618797 0.795581
vt 0.629931 0.613219
vt 0.641821 0.613219
vt 0.641821 0.851537
vt 0.629931 0.851537
vt 0.625046 0.851537
vt 0.625046 0.613219
vt 0.646707 0.613219
vt 0.646706 0.851537
vt 0.311441 0.574050
vt 0.335018 0.574050
vt 0.335018 0.838630
vt 0.311441 0.838630
vt 0.294655 0.838630
vt 0.294655 0.574050
vt 0.351803 0.574050
vt 0.351803 0.838630
vt 0.335018 0.855416
vt 0.311441 0.855416
vt 0.311441 0.557264
vt 0.335018 0.557264
vt 0.462681 0.574050
vt 0.486258 0.574050
vt 0.486258 0.838631
vt 0.462681 0.838630
vt 0.445895 0.838630
vt 0.445895 0.574050
vt 0.503044 0.574050
vt 0.503044 0.838631
vt 0.486258 0.855416
vt 0.462681 0.855416
vt 0.462681 0.557264
vt 0.486258 0.557264
vt 0.387061 0.574050
vt 0.410638 0.574050
vt 0.410638 0.838631
vt 0.387061 0.838631
vt 0.370275 0.838631
vt 0.370275 0.574050
vt 0.427424 0.574050
vt 0.427424 0.838631
vt 0.410638 0.855416
vt 0.387061 0.855416
vt 0.387061 0.557264
vt 0.410638 0.557264
vt 0.538301 0.574050
vt 0.561878 0.574050
vt 0.561878 0.838630
vt 0.538301 0.838630
vt 0.521516 0.838630
vt 0.521516 0.574050
vt 0.578664 0.574050
vt 0.578664 0.838630
vt 0.561878 0.855416
vt 0.538301 0.855416
vt 0.538301 0.557264
vt 0.561878 0.557264
vn 0.0000 0.0000 1.0000
vn 1.0000 -0.0000 0.0000
vn 0.0000 0.0000 -1.0000
vn -1.0000 -0.0000 0.0000
vn 0.0000 1.0000 0.0000
vn -0.0000 0.5287 -0.8488
vn -0.7574 0.6529 0.0000
vn 0.0000 0.5287 0.8488
vn 0.7574 0.6529 0.0000
vn -0.8649 0.0000 0.5020
vn 0.0000 -0.9053 0.4247
vn 0.8649 0.0000 0.5020
vn -0.0000 0.9053 0.4247
vn 0.8594 -0.0000 -0.5112
vn -0.0000 -0.9013 -0.4333
vn -0.8594 -0.0000 -0.5112
vn -0.0000 0.9013 -0.4333
vn 0.3375 0.0000 0.9413
vn 0.2350 -0.9720 -0.0000
vn 0.3375 0.0000 -0.9413
vn 0.2350 0.9720 -0.0000
vn -0.3958 0.0000 -0.9183
vn -0.3733 -0.9277 0.0000
vn -0.3958 -0.0000 0.9183
vn -0.3733 0.9277 0.0000
vn 0.0000 -1.0000 0.0000
vn -0.6802 0.7330 0.0000
vn 0.6863 -0.7273 0.0000
vn 0.6800 0.7332 0.0000
vn -0.6859 -0.7277 0.0000
usemtl DP_CSS_WoodBox_1_ncl1_2
s off
f 25/1/1 26/2/1 27/3/1 24/4/1
f 38/5/2 39/6/2 40/7/2 37/8/2
f 29/9/3 30/10/3 31/11/3 28/12/3
f 42/13/4 43/14/4 44/15/4 41/16/4
f 19/17/1 25/1/1 24/4/1
f 33/18/1 20/19/1 4/20/1 3/21/1
f 20/19/1 27/3/1 26/2/1
f 35/22/1 19/17/1 2/23/1 5/24/1
f 33/25/2 38/5/2 37/8/2
f 18/26/2 34/27/2 8/28/2 7/29/2
f 34/27/2 40/7/2 39/6/2
f 20/30/2 33/25/2 6/31/2 9/32/2
f 18/33/3 29/9/3 28/12/3
f 32/34/3 21/35/3 12/36/3 11/37/3
f 21/35/3 31/11/3 30/10/3
f 34/38/3 18/33/3 10/39/3 13/40/3
f 32/41/4 42/13/4 41/16/4
f 19/42/4 35/43/4 16/44/4 15/45/4
f 35/43/4 44/15/4 43/14/4
f 21/46/4 32/41/4 14/47/4 17/48/4
f 36/49/5 35/50/5 20/51/5 22/52/5
f 1/53/5 34/54/5 21/55/5 23/56/5
f 19/17/1 33/18/1 3/21/1 25/1/1
f 24/4/1 2/23/1 19/17/1
f 20/19/1 35/22/1 5/24/1 27/3/1
f 26/2/1 4/20/1 20/19/1
f 18/33/3 32/34/3 11/37/3 29/9/3
f 28/12/3 10/39/3 18/33/3
f 21/35/3 34/38/3 13/40/3 31/11/3
f 30/10/3 12/36/3 21/35/3
f 34/54/5 1/53/5 22/52/5
f 22/52/5 20/51/5 34/54/5
f 23/56/5 21/55/5 35/50/5 36/49/5
f 33/25/2 18/26/2 7/29/2 38/5/2
f 37/8/2 6/31/2 33/25/2
f 34/27/2 20/30/2 9/32/2 40/7/2
f 39/6/2 8/28/2 34/27/2
f 32/41/4 19/42/4 15/45/4 42/13/4
f 41/16/4 14/47/4 32/41/4
f 35/43/4 21/46/4 17/48/4 44/15/4
f 43/14/4 16/44/4 35/43/4
f 36/49/6 22/52/6 46/57/6 45/58/6
f 22/52/7 1/53/7 47/59/7 46/57/7
f 1/53/8 23/56/8 48/60/8 47/59/8
f 23/56/9 36/49/9 45/58/9 48/60/9
f 3/21/10 4/20/10 50/61/10 49/62/10
f 4/20/11 26/2/11 51/63/11 50/61/11
f 26/2/12 25/1/12 52/64/12 51/63/12
f 25/1/13 3/21/13 49/62/13 52/64/13
f 2/23/13 24/4/13 54/65/13 53/66/13
f 24/4/10 27/3/10 55/67/10 54/65/10
f 27/3/11 5/24/11 56/68/11 55/67/11
f 5/24/12 2/23/12 53/66/12 56/68/12
f 11/37/14 12/36/14 58/69/14 57/70/14
f 12/36/15 30/10/15 59/71/15 58/69/15
f 30/10/16 29/9/16 60/72/16 59/71/16
f 29/9/17 11/37/17 57/70/17 60/72/17
f 10/39/17 28/12/17 62/73/17 61/74/17
f 28/12/14 31/11/14 63/75/14 62/73/14
f 31/11/15 13/40/15 64/76/15 63/75/15
f 13/40/16 10/39/16 61/74/16 64/76/16
f 7/29/18 8/28/18 66/77/18 65/78/18
f 8/28/19 39/6/19 67/79/19 66/77/19
f 39/6/20 38/5/20 68/80/20 67/79/20
f 38/5/21 7/29/21 65/78/21 68/80/21
f 6/31/21 37/8/21 70/81/21 69/82/21
f 37/8/18 40/7/18 71/83/18 70/81/18
f 40/7/19 9/32/19 72/84/19 71/83/19
f 9/32/20 6/31/20 69/82/20 72/84/20
f 15/45/22 16/44/22 74/85/22 73/86/22
f 16/44/23 43/14/23 75/87/23 74/85/23
f 43/14/24 42/13/24 76/88/24 75/87/24
f 42/13/25 15/45/25 73/86/25 76/88/25
f 14/47/25 41/16/25 78/89/25 77/90/25
f 41/16/22 44/15/22 79/91/22 78/89/22
f 44/15/23 17/48/23 80/92/23 79/91/23
f 17/48/24 14/47/24 77/90/24 80/92/24
f 46/57/5 47/59/5 48/60/5
f 48/60/5 45/58/5 46/57/5
f 53/66/1 54/65/1 55/67/1 56/68/1
f 49/62/1 50/61/1 51/63/1 52/64/1
f 74/85/4 75/87/4 76/88/4 73/86/4
f 79/91/4 80/92/4 77/90/4 78/89/4
f 60/72/3 57/70/3 58/69/3 59/71/3
f 61/74/3 62/73/3 63/75/3 64/76/3
f 32/93/26 18/94/26 33/95/26 19/96/26
f 68/80/2 65/78/2 66/77/2 67/79/2
f 69/82/2 70/81/2 71/83/2 72/84/2
f 82/97/1 83/98/1 84/99/1 81/100/1
f 84/101/1 83/102/1 86/103/1 85/104/1
f 81/100/27 84/99/27 90/105/27 87/106/27
f 83/98/28 82/97/28 88/107/28 89/108/28
f 84/101/29 85/104/29 91/109/29 90/110/29
f 86/103/30 83/102/30 89/111/30 92/112/30
f 96/113/3 95/114/3 94/115/3 93/116/3
f 96/117/3 98/118/3 97/119/3 95/120/3
f 93/116/27 100/121/27 99/122/27 96/113/27
f 95/114/28 102/123/28 101/124/28 94/115/28
f 96/117/29 99/125/29 103/126/29 98/118/29
f 97/119/30 104/127/30 102/128/30 95/120/30
f 105/129/5 106/130/5 108/131/5 107/132/5
f 105/129/4 107/132/4 111/133/4 109/134/4
f 108/131/2 106/130/2 110/135/2 112/136/2
f 114/137/5 115/138/5 116/139/5 113/140/5
f 114/137/4 113/140/4 117/141/4 118/142/4
f 116/139/2 115/138/2 119/143/2 120/144/2
f 122/145/26 123/146/26 124/147/26 121/148/26
f 122/145/2 121/148/2 125/149/2 126/150/2
f 124/147/4 123/146/4 127/151/4 128/152/4
f 121/148/3 124/147/3 128/153/3 125/154/3
f 126/155/1 127/156/1 123/146/1 122/145/1
f 130/157/26 131/158/26 132/159/26 129/160/26
f 130/157/2 129/160/2 133/161/2 134/162/2
f 132/159/4 131/158/4 135/163/4 136/164/4
f 129/160/3 132/159/3 136/165/3 133/166/3
f 134/167/1 135/168/1 131/158/1 130/157/1
f 138/169/26 139/170/26 140/171/26 137/172/26
f 138/169/2 137/172/2 141/173/2 142/174/2
f 140/171/4 139/170/4 143/175/4 144/176/4
f 137/172/3 140/171/3 144/177/3 141/178/3
f 142/179/1 143/180/1 139/170/1 138/169/1
f 146/181/26 147/182/26 148/183/26 145/184/26
f 146/181/2 145/184/2 149/185/2 150/186/2
f 148/183/4 147/182/4 151/187/4 152/188/4
f 145/184/3 148/183/3 152/189/3 149/190/3
f 150/191/1 151/192/1 147/182/1 146/181/1
