# Blender v3.1.2 OBJ File: ''
# www.blender.org
mtllib untitled.mtl
o Cube_Cube.001
v -0.355967 -0.000996 1.000000
v -0.355967 0.495143 1.000000
v -0.355967 -0.000996 -1.000000
v -0.355967 0.495143 -1.000000
v 0.355967 -0.000996 1.000000
v 0.355967 0.495143 1.000000
v 0.355967 -0.000996 -1.000000
v 0.355967 0.495143 -1.000000
vt 0.375000 0.046596
vt 0.625000 0.046596
vt 0.625000 0.096576
vt 0.375000 0.096576
vt 0.625000 0.146555
vt 0.375000 0.146555
vt 0.625000 0.196535
vt 0.375000 0.196535
vt 0.625000 0.246514
vt 0.375000 0.246514
vt 0.125000 0.146555
vt 0.125000 0.196535
vt 0.875000 0.146555
vt 0.875000 0.196535
vn -1.0000 0.0000 0.0000
vn 0.0000 0.0000 -1.0000
vn 1.0000 0.0000 0.0000
vn 0.0000 0.0000 1.0000
vn 0.0000 -1.0000 0.0000
vn 0.0000 1.0000 0.0000
usemtl Material.001
s off
f 1/1/1 2/2/1 4/3/1 3/4/1
f 3/4/2 4/3/2 8/5/2 7/6/2
f 7/6/3 8/5/3 6/7/3 5/8/3
f 5/8/4 6/7/4 2/9/4 1/10/4
f 3/11/5 7/6/5 5/8/5 1/12/5
f 8/5/6 4/13/6 2/14/6 6/7/6
o Cube.001_Cube.002
v -0.408471 0.386571 1.045784
v -0.408471 0.560399 1.045784
v -0.408471 0.386571 -1.045784
v -0.408471 0.560399 -1.045784
v 0.408471 0.386571 1.045784
v 0.408471 0.560399 1.045784
v 0.408471 0.386571 -1.045784
v 0.408471 0.560399 -1.045784
vt 0.181189 0.053694
vt 0.252143 0.053694
vt 0.252143 0.114498
vt 0.181189 0.114498
vt 0.252143 0.175301
vt 0.181189 0.175301
vt 0.252143 0.236105
vt 0.181189 0.236105
vt 0.252143 0.320174
vt 0.181189 0.320174
vt 0.110235 0.175301
vt 0.110235 0.236105
vt 0.049273 0.935371
vt 0.049273 0.620128
vt 0.932939 0.620128
vt 0.932939 0.935371
vn -1.0000 0.0000 0.0000
vn 0.0000 0.0000 -1.0000
vn 1.0000 0.0000 0.0000
vn 0.0000 0.0000 1.0000
vn 0.0000 -1.0000 0.0000
vn 0.0000 1.0000 0.0000
usemtl Material.002
s off
f 9/15/7 10/16/7 12/17/7 11/18/7
f 11/18/8 12/17/8 16/19/8 15/20/8
f 15/20/9 16/19/9 14/21/9 13/22/9
f 13/22/10 14/21/10 10/23/10 9/24/10
f 11/25/11 15/20/11 13/22/11 9/26/11
f 16/27/12 12/28/12 10/29/12 14/30/12
