# Blender v3.1.2 OBJ File: ''
# www.blender.org
mtllib speaker.mtl
o SP_RST_Loudspeaker_1_SP_RST_Loudspeaker_1_ncl1_1
v -1.431120 8.407641 0.450221
v -1.626999 8.945815 0.450221
v -0.555693 9.118012 0.073713
v -1.076542 8.991241 0.207389
v -0.966595 8.689162 0.165012
v -1.640651 8.983325 -0.472719
v -1.417468 8.370133 -0.472719
v -0.966595 8.689162 -0.229887
v -1.090194 9.028749 -0.229887
v -0.555692 9.118012 -0.138588
v -1.417468 8.370132 0.407844
v -0.499766 8.964355 0.073713
v -1.640651 8.983324 0.407845
v -1.090194 9.028749 0.165012
v -0.980247 8.726671 0.207389
v -1.626999 8.945816 -0.515096
v -1.431120 8.407642 -0.515096
v -0.980247 8.726671 -0.272263
v -1.076542 8.991241 -0.272263
v -0.499766 8.964355 -0.138588
v -1.287494 8.945604 0.233782
v -1.287494 8.945604 -0.298656
v -1.171180 8.626034 -0.298657
v -1.171180 8.626034 0.233782
v -0.929328 8.895013 -0.032437
v -0.472279 8.674803 0.056995
v -0.410737 8.674803 0.056995
v -0.472183 8.843946 0.056995
v -0.410641 8.843946 0.056995
v -0.533436 8.894549 0.056995
v -0.529950 8.953664 0.056995
v -0.657458 8.849545 0.056995
v -0.679107 8.892377 0.056995
v -0.472279 8.674803 -0.116969
v -0.410737 8.674803 -0.116969
v -0.472183 8.843946 -0.116969
v -0.410641 8.843946 -0.116969
v -0.533436 8.894549 -0.116969
v -0.529950 8.953664 -0.116969
v -0.657458 8.849545 -0.116969
v -0.679107 8.892377 -0.116969
v -1.137642 8.629905 -0.024883
v -1.101833 8.634003 -0.004073
v -1.101833 8.634003 -0.045692
v -1.078313 8.111552 -0.024883
v -1.043244 8.122115 -0.004074
v -1.043244 8.122115 -0.045692
v -0.932378 7.776593 -0.024883
v -0.902441 7.797230 -0.004074
v -0.902441 7.797230 -0.045692
v -0.776530 7.604510 -0.024883
v -0.757406 7.637087 -0.004074
v -0.757406 7.637087 -0.045692
v -0.597712 7.563246 -0.024883
v -0.605277 7.601981 -0.004074
v -0.605277 7.601981 -0.045692
v -0.474166 7.599075 -0.024883
v -0.495187 7.628356 -0.004074
v -0.495187 7.628356 -0.045692
v -0.334622 7.752394 -0.024883
v -0.355936 7.781459 -0.004074
v -0.355936 7.781459 -0.045692
v -0.249670 0.054783 -0.024884
v -0.314654 0.054783 -0.114328
v -0.419801 0.054783 -0.080163
v -0.419801 0.054783 0.030395
v -0.314654 0.054783 0.064559
v -0.249669 10.072379 -0.024883
v -0.314654 10.072379 -0.114326
v -0.419801 10.072379 -0.080162
v -0.419801 10.072379 0.030396
v -0.314654 10.072379 0.064561
v -0.389808 2.021872 -0.024884
v -0.344410 2.052225 0.029726
v -0.299011 2.082577 -0.024884
v -0.344410 2.052225 -0.079494
v 0.968460 -0.009715 -0.024885
v 1.013858 0.020638 0.029725
v 1.059256 0.050990 -0.024885
v 1.013858 0.020638 -0.079495
v 0.555431 8.945815 1.014712
v 0.488437 8.407641 0.830646
v 0.106041 8.726671 0.490018
v 0.138976 8.991241 0.580505
v -0.183907 8.964355 0.084233
v -0.164779 9.118012 0.136787
v 0.103824 9.028749 0.607828
v -0.364277 9.118012 0.209398
v -0.267259 9.028749 0.742891
v -0.383405 8.964355 0.156844
v 0.061551 8.689162 0.491683
v 0.443946 8.370132 0.832311
v -0.383513 8.370133 1.133482
v -0.309533 8.689162 0.626746
v -0.351670 8.945816 1.344870
v -0.311750 8.991241 0.744556
v -0.344685 8.726671 0.654068
v -0.418665 8.407642 1.160804
v -0.307180 8.983325 1.343206
v 0.520279 8.983324 1.042035
v 0.235927 8.945604 0.769708
v 0.196145 8.626034 0.660409
v -0.264401 8.945604 0.951813
v -0.304183 8.626034 0.842514
v -0.136737 8.895013 0.524195
v -0.209018 8.674803 0.064122
v -0.230067 8.674803 0.006292
v -0.230100 8.843946 0.006201
v -0.209051 8.843946 0.064032
v -0.189294 8.953664 0.118315
v -0.188101 8.894549 0.121591
v -0.138279 8.892377 0.258477
v -0.145683 8.849545 0.238133
v -0.393572 8.843946 0.065700
v -0.393539 8.674803 0.065791
v -0.372491 8.674803 0.123621
v -0.372524 8.843946 0.123531
v -0.352766 8.953664 0.177814
v -0.351574 8.894549 0.181090
v -0.301751 8.892377 0.317976
v -0.309156 8.849545 0.297633
v -0.065237 8.629905 0.698551
v -0.085529 8.245950 0.642800
v -0.077969 8.256513 0.602728
v -0.057930 8.634003 0.657785
v -0.117078 8.256513 0.616963
v -0.097039 8.634003 0.672019
v -0.135442 7.926805 0.505666
v -0.126126 7.947442 0.470417
v -0.165235 7.947442 0.484651
v -0.188745 7.754723 0.359217
v -0.175731 7.787299 0.334129
v -0.214840 7.787299 0.348364
v -0.249904 7.713458 0.191183
v -0.227762 7.752193 0.191175
v -0.266871 7.752193 0.205409
v -0.339886 7.713104 -0.056041
v -0.313042 7.742169 -0.043130
v -0.352151 7.742169 -0.028895
vt 0.321383 0.189647
vt 0.294280 0.189598
vt 0.294321 0.168628
vt 0.321445 0.168642
vt 0.166504 0.517956
vt 0.158943 0.520168
vt 0.152968 0.499159
vt 0.160565 0.497070
vt 0.164238 0.481603
vt 0.166492 0.488820
vt 0.184528 0.484581
vt 0.183183 0.490577
vt 0.199928 0.668044
vt 0.178799 0.664384
vt 0.180123 0.656650
vt 0.201240 0.660310
vt 0.216243 0.655389
vt 0.208870 0.653652
vt 0.211797 0.635082
vt 0.205899 0.636860
vt 0.173012 0.539338
vt 0.165485 0.541654
vt 0.199357 0.615354
vt 0.205260 0.613534
vt 0.245770 0.441764
vt 0.254086 0.453245
vt 0.245770 0.464705
vt 0.232340 0.460340
vt 0.232335 0.446149
vt 0.321383 0.189647
vt 0.294280 0.189598
vt 0.294321 0.168628
vt 0.321445 0.168642
vt 0.166504 0.517956
vt 0.158943 0.520168
vt 0.152968 0.499159
vt 0.160565 0.497070
vt 0.164238 0.481603
vt 0.166492 0.488820
vt 0.184528 0.484581
vt 0.183183 0.490577
vt 0.199928 0.668044
vt 0.178799 0.664384
vt 0.180123 0.656650
vt 0.201240 0.660310
vt 0.216243 0.655389
vt 0.208870 0.653652
vt 0.211797 0.635082
vt 0.205899 0.636860
vt 0.173012 0.539338
vt 0.165485 0.541654
vt 0.199357 0.615354
vt 0.205260 0.613534
vt 0.163184 0.218487
vt 0.176825 0.126853
vt 0.227444 0.130369
vt 0.240446 0.220266
vt 0.194375 0.009038
vt 0.228666 0.013091
vt 0.333166 0.099001
vt 0.282661 0.099035
vt 0.351579 0.420008
vt 0.239076 0.419883
vt 0.270189 0.348905
vt 0.320610 0.348923
vt 0.225813 0.427916
vt 0.175159 0.430584
vt 0.163194 0.338681
vt 0.240470 0.338412
vt 0.224995 0.545173
vt 0.190660 0.548626
vt 0.364053 0.027966
vt 0.251610 0.028119
vt 0.308848 0.279368
vt 0.281807 0.279386
vt 0.340405 0.100683
vt 0.358693 0.417912
vt 0.327848 0.347229
vt 0.371148 0.030040
vt 0.262909 0.347211
vt 0.231982 0.417775
vt 0.244515 0.030219
vt 0.275423 0.100710
vt 0.217558 0.259413
vt 0.187465 0.257325
vt 0.248000 0.232405
vt 0.247185 0.326004
vt 0.215741 0.300422
vt 0.185562 0.298726
vt 0.155154 0.326210
vt 0.156003 0.231226
vt 0.201591 0.278997
vt 0.152507 0.623142
vt 0.152507 0.601422
vt 0.174718 0.601440
vt 0.174718 0.623149
vt 0.217961 0.597524
vt 0.239607 0.597503
vt 0.239634 0.619824
vt 0.217997 0.619844
vt 0.152507 0.643980
vt 0.174718 0.643973
vt 0.249778 0.597503
vt 0.249787 0.619824
vt 0.152507 0.664672
vt 0.174718 0.664672
vt 0.266611 0.597524
vt 0.266611 0.619824
vt 0.263227 0.432184
vt 0.254975 0.497995
vt 0.249849 0.496512
vt 0.258007 0.431522
vt 0.183803 0.606483
vt 0.234316 0.555302
vt 0.238523 0.559057
vt 0.187943 0.610601
vt 0.242996 0.562762
vt 0.192062 0.614715
vt 0.237607 0.541300
vt 0.233069 0.538502
vt 0.263440 0.518221
vt 0.267826 0.521291
vt 0.272371 0.524210
vt 0.219309 0.564806
vt 0.215990 0.560355
vt 0.277350 0.495646
vt 0.281876 0.497729
vt 0.286582 0.499788
vt 0.197409 0.573646
vt 0.197314 0.567839
vt 0.282715 0.478901
vt 0.287275 0.479848
vt 0.292258 0.480018
vt 0.180789 0.572585
vt 0.182688 0.567510
vt 0.283950 0.466866
vt 0.288543 0.466806
vt 0.293024 0.466362
vt 0.157623 0.558744
vt 0.159566 0.553681
vt 0.281021 0.444758
vt 0.285447 0.444161
vt 0.289897 0.444309
vt 0.119304 0.009637
vt 0.149203 0.009637
vt 0.149203 0.990408
vt 0.119304 0.990408
vt 0.008902 0.009637
vt 0.036792 0.009637
vt 0.036793 0.990408
vt 0.008902 0.990408
vt 0.061515 0.009637
vt 0.061515 0.990408
vt 0.089405 0.009637
vt 0.089405 0.990408
vt 0.152507 0.988022
vt 0.152507 0.673966
vt 0.162357 0.673974
vt 0.162357 0.988022
vt 0.172208 0.673983
vt 0.172208 0.988022
vt 0.182079 0.673983
vt 0.182079 0.988029
vt 0.191909 0.673990
vt 0.191929 0.988029
vt 0.163184 0.218487
vt 0.176825 0.126853
vt 0.227444 0.130369
vt 0.240446 0.220266
vt 0.194375 0.009038
vt 0.228666 0.013091
vt 0.333166 0.099001
vt 0.282661 0.099035
vt 0.351579 0.420008
vt 0.239076 0.419883
vt 0.270189 0.348905
vt 0.320610 0.348923
vt 0.225813 0.427916
vt 0.175159 0.430584
vt 0.163194 0.338681
vt 0.240470 0.338412
vt 0.224995 0.545173
vt 0.190660 0.548626
vt 0.364053 0.027966
vt 0.251610 0.028119
vt 0.308848 0.279368
vt 0.281807 0.279386
vt 0.340405 0.100683
vt 0.358693 0.417912
vt 0.327848 0.347229
vt 0.371148 0.030040
vt 0.262909 0.347211
vt 0.231982 0.417775
vt 0.244515 0.030219
vt 0.275423 0.100710
vt 0.217558 0.259413
vt 0.187465 0.257325
vt 0.248000 0.232405
vt 0.247185 0.326004
vt 0.215741 0.300422
vt 0.185562 0.298726
vt 0.155154 0.326210
vt 0.156003 0.231226
vt 0.201591 0.278997
vt 0.152507 0.623142
vt 0.152507 0.601422
vt 0.174718 0.601440
vt 0.174718 0.623149
vt 0.217961 0.597524
vt 0.239607 0.597503
vt 0.239634 0.619824
vt 0.217997 0.619844
vt 0.152507 0.643980
vt 0.174718 0.643973
vt 0.249778 0.597503
vt 0.249787 0.619824
vt 0.152507 0.664672
vt 0.174718 0.664672
vt 0.266611 0.597524
vt 0.266611 0.619824
vt 0.263227 0.432184
vt 0.254975 0.497995
vt 0.249849 0.496512
vt 0.258007 0.431522
vt 0.183803 0.606483
vt 0.234316 0.555302
vt 0.238523 0.559057
vt 0.187943 0.610601
vt 0.242996 0.562762
vt 0.192062 0.614715
vt 0.237607 0.541300
vt 0.233069 0.538502
vt 0.263440 0.518221
vt 0.267826 0.521291
vt 0.272371 0.524210
vt 0.219309 0.564806
vt 0.215990 0.560355
vt 0.277350 0.495646
vt 0.281876 0.497729
vt 0.286582 0.499788
vt 0.197409 0.573646
vt 0.197314 0.567839
vt 0.282715 0.478901
vt 0.287275 0.479848
vt 0.292258 0.480018
vt 0.157623 0.558744
vt 0.159566 0.553681
vt 0.281021 0.444758
vt 0.285447 0.444161
vt 0.289897 0.444309
vn 0.9397 0.3420 0.0000
vn 0.0000 -0.0000 1.0000
vn 0.0000 0.0000 -1.0000
vn 0.0000 -1.0000 -0.0000
vn -0.8925 -0.4511 0.0000
vn 0.0000 1.0000 0.0000
vn -0.3214 0.3420 -0.8830
vn 0.9397 -0.0000 -0.3420
vn -0.9397 0.0000 0.3420
vn 0.3052 -0.4511 0.8387
vn -0.5920 -0.5219 0.6141
vn 0.4767 -0.2085 0.8540
vn 0.2311 0.4661 0.8540
vn -0.7890 0.0193 0.6141
vn 0.8250 -0.2604 0.5016
vn 0.4646 0.7298 0.5016
vn -0.0192 0.9463 0.3228
vn 0.4646 0.7298 -0.5016
vn -0.0192 0.9463 -0.3228
vn -0.5408 -0.7875 0.2955
vn -0.5408 -0.7875 -0.2955
vn 0.5935 -0.7372 -0.3228
vn 0.5935 -0.7372 0.3228
vn 0.2311 0.4661 -0.8540
vn 0.4767 -0.2085 -0.8540
vn -0.5920 -0.5219 -0.6141
vn -0.7890 0.0193 -0.6141
vn 0.8250 -0.2604 -0.5016
vn -0.9205 0.2556 0.2955
vn -0.9205 0.2556 -0.2955
vn -0.4250 -0.7451 -0.5140
vn -0.8045 0.2976 -0.5140
vn -0.4250 -0.7451 0.5140
vn -0.8045 0.2976 0.5140
vn -0.9397 -0.3420 -0.0000
vn 0.7136 0.3130 0.6268
vn 0.5772 -0.5775 0.5774
vn 0.5772 -0.5775 -0.5774
vn 0.7136 0.3130 -0.6268
vn -0.5775 -0.5772 0.5773
vn -0.5221 -0.2457 0.8167
vn -0.5221 -0.2457 -0.8167
vn -0.5775 -0.5772 -0.5773
vn 0.1402 0.7846 0.6039
vn 0.1402 0.7846 -0.6039
vn -0.0931 -0.5385 0.8375
vn -0.0931 -0.5385 -0.8375
vn -0.7678 0.2859 0.5734
vn -0.7678 0.2859 -0.5734
vn -0.2991 -0.7547 0.5839
vn -0.2991 -0.7547 -0.5839
vn -0.9935 -0.1137 0.0000
vn -0.9652 -0.2616 0.0000
vn 0.4213 0.1137 0.8998
vn 0.4968 0.0569 0.8660
vn 0.4213 0.1137 -0.8998
vn 0.4967 0.0569 -0.8660
vn -0.8387 -0.5446 -0.0000
vn 0.3602 0.2334 0.9032
vn 0.3602 0.2334 -0.9032
vn -0.5063 -0.8624 -0.0000
vn 0.1846 0.3145 0.9311
vn 0.1846 0.3145 -0.9311
vn 0.0421 -0.9991 0.0000
vn -0.0078 0.4003 0.9164
vn -0.0078 0.4003 -0.9164
vn 0.5334 -0.8459 0.0000
vn -0.1845 0.3161 0.9306
vn -0.1845 0.3161 -0.9306
vn 0.7397 -0.6730 -0.0000
vn -0.4303 0.3912 0.8135
vn -0.4303 0.3912 -0.8135
vn 1.0000 -0.0000 -0.0000
vn 0.3090 0.0000 -0.9511
vn 0.2482 0.5957 -0.7639
vn 0.8032 0.5957 -0.0000
vn -0.8090 0.0000 -0.5878
vn -0.6498 0.5957 -0.4721
vn -0.8090 -0.0000 0.5878
vn -0.6498 0.5957 0.4721
vn 0.3090 -0.0000 0.9511
vn 0.2482 0.5957 0.7639
vn -0.8313 -0.5558 0.0000
vn 0.8313 0.5558 -0.0000
vn 0.7795 -0.5219 0.3463
vn 0.6395 -0.2085 -0.7400
vn 0.7235 0.4661 -0.5093
vn 0.8469 0.0193 0.5314
vn 0.1892 -0.2604 -0.9468
vn 0.3124 0.7298 -0.6081
vn 0.3099 0.9463 -0.0924
vn -0.6303 0.7298 -0.2650
vn -0.2968 0.9463 0.1285
vn 0.4627 -0.7875 0.4072
vn -0.0927 -0.7875 0.6093
vn -0.5064 -0.7372 -0.4473
vn 0.1004 -0.7372 -0.6681
vn -0.8815 0.4661 0.0749
vn -0.9655 -0.2085 -0.1558
vn -0.3746 -0.5219 0.7664
vn -0.3072 0.0193 0.9514
vn -0.7535 -0.2604 -0.6037
vn 0.5925 0.2556 0.7639
vn 0.0371 0.2556 0.9661
vn -0.3377 -0.7451 0.5752
vn -0.2079 0.2976 0.9318
vn 0.6284 -0.7451 0.2236
vn 0.7582 0.2976 0.5802
vn 0.3214 -0.3420 0.8830
vn 0.3449 0.3130 -0.8849
vn 0.3452 -0.5775 -0.7398
vn -0.7400 -0.5775 -0.3449
vn -0.8330 0.3130 -0.4562
vn 0.7400 -0.5772 0.3452
vn 0.9460 -0.2457 0.2112
vn -0.5889 -0.2457 0.7699
vn -0.3450 -0.5772 0.7402
vn 0.5195 0.7846 -0.3383
vn -0.6154 0.7846 0.0748
vn 0.8188 -0.5385 -0.1990
vn -0.7551 -0.5385 0.3739
vn 0.8014 0.2859 0.5254
vn -0.2762 0.2859 0.9176
vn 0.6510 -0.7547 0.0814
vn -0.4464 -0.7547 0.4808
vn 0.3380 -0.1530 0.9286
vn 0.3276 -0.2871 0.9001
vn 0.6985 0.1264 -0.7043
vn 0.6586 0.0744 -0.7488
vn -0.9878 0.1264 -0.0906
vn -0.9858 0.0744 -0.1502
vn 0.2853 -0.5514 0.7839
vn 0.7231 0.2387 -0.6482
vn -0.9706 0.2387 -0.0317
vn 0.1731 -0.8624 0.4757
vn 0.8118 0.3145 -0.4920
vn -0.9381 0.3145 0.1450
vn 0.0348 -0.9948 0.0956
vn 0.8174 0.4506 -0.3588
vn -0.8568 0.4506 0.2506
vn 0.0069 -0.9998 0.0190
vn 0.9055 0.2362 -0.3525
vn -0.9202 0.2362 0.3121
usemtl SP_RST_Loudspeaker_1_ncl1_2
s off
f 12/1/1 20/2/1 10/3/1 3/4/1
f 26/5/2 27/6/2 29/7/2 28/8/2
f 28/8/2 29/7/2 31/9/2 30/10/2
f 30/10/2 31/9/2 33/11/2 32/12/2
f 37/13/3 35/14/3 34/15/3 36/16/3
f 39/17/3 37/13/3 36/16/3 38/18/3
f 41/19/3 39/17/3 38/18/3 40/20/3
f 27/6/4 26/5/4 34/21/4 35/22/4
f 32/23/5 33/24/5 41/19/5 40/20/5
f 72/25/6 68/26/6 69/27/6 70/28/6 71/29/6
f 85/30/7 90/31/7 88/32/7 86/33/7
f 106/34/8 107/35/8 108/36/8 109/37/8
f 109/37/8 108/36/8 110/38/8 111/39/8
f 111/39/8 110/38/8 112/40/8 113/41/8
f 114/42/9 115/43/9 116/44/9 117/45/9
f 118/46/9 114/42/9 117/45/9 119/47/9
f 120/48/9 118/46/9 119/47/9 121/49/9
f 107/35/4 106/34/4 116/50/4 115/51/4
f 113/52/10 112/53/10 120/48/10 121/49/10
s 1
f 1/54/11 15/55/12 4/56/13 2/57/14
f 12/58/15 3/59/16 4/56/13 15/55/12
f 14/60/17 3/4/16 10/3/18 9/61/19
f 11/62/20 7/63/21 8/64/22 5/65/23
f 19/66/24 18/67/25 17/68/26 16/69/27
f 19/66/24 10/70/18 20/71/28 18/67/25
f 13/72/29 14/60/17 9/61/19 6/73/30
f 12/74/15 5/65/23 8/64/22 20/75/28
f 3/4/16 14/60/17 4/76/13
f 1/77/11 11/62/20 5/65/23 15/78/12
f 4/76/13 14/60/17 13/72/29 2/79/14
f 15/78/12 5/65/23 12/74/15
f 18/80/25 8/64/22 7/63/21 17/81/26
f 16/82/27 6/73/30 9/61/19 19/83/24
f 20/75/28 8/64/22 18/80/25
f 19/83/24 9/61/19 10/3/18
f 1/54/11 2/57/14 21/84/31 24/85/32
f 2/57/14 13/86/29 21/84/31
f 13/86/29 6/87/30 22/88/33 21/84/31
f 6/87/30 16/69/27 22/88/33
f 16/69/27 17/68/26 23/89/34 22/88/33
f 17/68/26 7/90/21 23/89/34
f 7/90/21 11/91/20 24/85/32 23/89/34
f 11/91/20 1/54/11 24/85/32
f 24/85/32 21/84/31 25/92/35
f 21/84/31 22/88/33 25/92/35
f 22/88/33 23/89/34 25/92/35
f 23/89/34 24/85/32 25/92/35
f 29/93/36 27/94/37 35/95/38 37/96/39
f 26/97/40 28/98/41 36/99/42 34/100/43
f 31/101/44 29/93/36 37/96/39 39/102/45
f 28/98/41 30/103/46 38/104/47 36/99/42
f 33/105/48 31/101/44 39/102/45 41/106/49
f 30/103/46 32/107/50 40/108/51 38/104/47
f 42/109/52 45/110/53 46/111/54 43/112/55
f 43/113/55 46/114/54 47/115/56 44/116/57
f 44/116/57 47/115/56 45/117/53 42/118/52
f 45/110/53 48/119/58 49/120/59 46/111/54
f 46/114/54 49/121/59 50/122/60 47/115/56
f 47/115/56 50/122/60 48/123/58 45/117/53
f 48/119/58 51/124/61 52/125/62 49/120/59
f 49/121/59 52/126/62 53/127/63 50/122/60
f 50/122/60 53/127/63 51/128/61 48/123/58
f 51/124/61 54/129/64 55/130/65 52/125/62
f 52/126/62 55/131/65 56/132/66 53/127/63
f 53/127/63 56/132/66 54/133/64 51/128/61
f 54/129/64 57/134/67 58/135/68 55/130/65
f 55/131/65 58/136/68 59/137/69 56/132/66
f 56/132/66 59/137/69 57/138/67 54/133/64
f 57/134/67 60/139/70 61/140/71 58/135/68
f 58/136/68 61/141/71 62/142/72 59/137/69
f 59/137/69 62/142/72 60/143/70 57/138/67
f 63/144/73 64/145/74 69/146/75 68/147/76
f 64/148/74 65/149/77 70/150/78 69/151/75
f 65/149/77 66/152/79 71/153/80 70/150/78
f 66/152/79 67/154/81 72/155/82 71/153/80
f 67/154/81 63/144/73 68/147/76 72/155/82
f 73/156/83 77/157/83 78/158/2 74/159/2
f 74/159/2 78/158/2 79/160/84 75/161/84
f 75/161/84 79/160/84 80/162/3 76/163/3
f 76/163/3 80/162/3 77/164/83 73/165/83
f 82/166/85 83/167/86 84/168/87 81/169/88
f 85/170/89 86/171/90 84/168/87 83/167/86
f 87/172/91 86/33/90 88/32/92 89/173/93
f 92/174/94 93/175/95 94/176/96 91/177/97
f 96/178/98 97/179/99 98/180/100 95/181/101
f 96/178/98 88/182/92 90/183/102 97/179/99
f 100/184/103 87/172/91 89/173/93 99/185/104
f 85/186/89 91/177/97 94/176/96 90/187/102
f 86/33/90 87/172/91 84/188/87
f 82/189/85 92/174/94 91/177/97 83/190/86
f 84/188/87 87/172/91 100/184/103 81/191/88
f 83/190/86 91/177/97 85/186/89
f 97/192/99 94/176/96 93/175/95 98/193/100
f 95/194/101 99/185/104 89/173/93 96/195/98
f 90/187/102 94/176/96 97/192/99
f 96/195/98 89/173/93 88/32/92
f 82/166/85 81/169/88 101/196/105 102/197/106
f 81/169/88 100/198/103 101/196/105
f 100/198/103 99/199/104 103/200/107 101/196/105
f 99/199/104 95/181/101 103/200/107
f 95/181/101 98/180/100 104/201/108 103/200/107
f 98/180/100 93/202/95 104/201/108
f 93/202/95 92/203/94 102/197/106 104/201/108
f 92/203/94 82/166/85 102/197/106
f 102/197/106 101/196/105 105/204/109
f 101/196/105 103/200/107 105/204/109
f 103/200/107 104/201/108 105/204/109
f 104/201/108 102/197/106 105/204/109
f 108/205/110 107/206/111 115/207/112 114/208/113
f 106/209/114 109/210/115 117/211/116 116/212/117
f 110/213/118 108/205/110 114/208/113 118/214/119
f 109/210/115 111/215/120 119/216/121 117/211/116
f 112/217/122 110/213/118 118/214/119 120/218/123
f 111/215/120 113/219/124 121/220/125 119/216/121
f 122/221/126 123/222/127 124/223/128 125/224/129
f 125/225/129 124/226/128 126/227/130 127/228/131
f 127/228/131 126/227/130 123/229/127 122/230/126
f 123/222/127 128/231/132 129/232/133 124/223/128
f 124/226/128 129/233/133 130/234/134 126/227/130
f 126/227/130 130/234/134 128/235/132 123/229/127
f 128/231/132 131/236/135 132/237/136 129/232/133
f 129/233/133 132/238/136 133/239/137 130/234/134
f 130/234/134 133/239/137 131/240/135 128/235/132
f 131/236/135 134/241/138 135/242/139 132/237/136
f 132/238/136 135/243/139 136/244/140 133/239/137
f 133/239/137 136/244/140 134/245/138 131/240/135
f 134/241/138 137/246/141 138/247/142 135/242/139
f 135/243/139 138/248/142 139/249/143 136/244/140
f 136/244/140 139/249/143 137/250/141 134/245/138
